<?xml version="1.0" encoding="UTF-8" standalone="no"?>
<!DOCTYPE svg PUBLIC "-//W3C//DTD SVG 1.1//EN"
 "http://www.w3.org/Graphics/SVG/1.1/DTD/svg11.dtd">
<!-- Generated by graphviz version 2.42.3 (20191010.1750)
 -->
<!-- Title: llama.files.lvc_skymap_mat.LvcSkymapMat Pages: 1 -->
<svg width="685pt" height="140pt"
 viewBox="0.00 0.00 685.00 139.50" xmlns="http://www.w3.org/2000/svg" xmlns:xlink="http://www.w3.org/1999/xlink">
<g id="graph0" class="graph" transform="scale(1 1) rotate(0) translate(4 135.5)">
<title>llama.files.lvc_skymap_mat.LvcSkymapMat</title>
<polygon fill="transparent" stroke="transparent" points="-4,4 -4,-135.5 681,-135.5 681,4 -4,4"/>
<!-- llama.files.lvc_skymap.LvcSkymapFits -->
<g id="node1" class="node">
<title>llama.files.lvc_skymap.LvcSkymapFits</title>
<g id="a_node1"><a xlink:href="/llama.files.lvc_skymap.html#llama.files.lvc_skymap.LvcSkymapFits" xlink:title="{{&lt;B&gt;LvcSkymapFits&lt;/B&gt;|&lt;I&gt;lvc_skymap.fits.gz&lt;/I&gt;|GenerateOnceMixin&lt;BR/&gt;LvcHEALPixSkyMapFileHandler&lt;BR/&gt;OnlineVetoMixin}}" target="_top">
<polygon fill="#cccccc" stroke="black" points="251,-32 251,-131 504,-131 504,-32 251,-32"/>
<text text-anchor="start" x="317.5" y="-116.8" font-family="Times,serif" font-weight="bold" font-size="14.00">LvcSkymapFits</text>
<polyline fill="none" stroke="black" points="251,-108 504,-108 "/>
<text text-anchor="start" x="311" y="-93.8" font-family="Times,serif" font-style="italic" font-size="14.00">lvc_skymap.fits.gz</text>
<polyline fill="none" stroke="black" points="251,-85 504,-85 "/>
<text text-anchor="start" x="305" y="-69.8" font-family="Times,serif" font-size="14.00">GenerateOnceMixin</text>
<text text-anchor="start" x="259" y="-54.8" font-family="Times,serif" font-size="14.00">LvcHEALPixSkyMapFileHandler</text>
<text text-anchor="start" x="317.5" y="-39.8" font-family="Times,serif" font-size="14.00">OnlineVetoMixin</text>
</a>
</g>
</g>
<!-- llama.files.lvc_skymap_mat.LvcSkymapMat -->
<g id="node2" class="node">
<title>llama.files.lvc_skymap_mat.LvcSkymapMat</title>
<g id="a_node2"><a xlink:href="/llama.files.lvc_skymap_mat.html#llama.files.lvc_skymap_mat.LvcSkymapMat" xlink:title="{{&lt;B&gt;LvcSkymapMat&lt;/B&gt;|&lt;I&gt;lvc_skymap.mat&lt;/I&gt;|FileHandler}}" target="_top">
<polygon fill="#cccccc" stroke="black" points="540,-8 540,-77 677,-77 677,-8 540,-8"/>
<text text-anchor="start" x="548" y="-62.8" font-family="Times,serif" font-weight="bold" font-size="14.00">LvcSkymapMat</text>
<polyline fill="none" stroke="black" points="540,-54 677,-54 "/>
<text text-anchor="start" x="550" y="-39.8" font-family="Times,serif" font-style="italic" font-size="14.00">lvc_skymap.mat</text>
<polyline fill="none" stroke="black" points="540,-31 677,-31 "/>
<text text-anchor="start" x="565.5" y="-15.8" font-family="Times,serif" font-size="14.00">FileHandler</text>
</a>
</g>
</g>
<!-- llama.files.lvc_skymap.LvcSkymapFits&#45;&gt;llama.files.lvc_skymap_mat.LvcSkymapMat -->
<g id="edge1" class="edge">
<title>llama.files.lvc_skymap.LvcSkymapFits&#45;&gt;llama.files.lvc_skymap_mat.LvcSkymapMat</title>
<path fill="none" stroke="red" d="M504.15,-54.5C504.15,-54.5 529.96,-54.5 529.96,-54.5"/>
<polygon fill="red" stroke="red" points="529.96,-58 539.96,-54.5 529.96,-51 529.96,-58"/>
</g>
<!-- llama.files.skymap_info.SkymapInfo -->
<g id="node3" class="node">
<title>llama.files.skymap_info.SkymapInfo</title>
<g id="a_node3"><a xlink:href="/llama.files.skymap_info.html#llama.files.skymap_info.SkymapInfo" xlink:title="{{&lt;B&gt;SkymapInfo&lt;/B&gt;|&lt;I&gt;skymap_info.json&lt;/I&gt;|EventTriggeredFileHandler&lt;BR/&gt;JSONFile}}" target="_top">
<polygon fill="#cccccc" stroke="black" points="0,-0.5 0,-84.5 215,-84.5 215,-0.5 0,-0.5"/>
<text text-anchor="start" x="59.5" y="-70.3" font-family="Times,serif" font-weight="bold" font-size="14.00">SkymapInfo</text>
<polyline fill="none" stroke="black" points="0,-61.5 215,-61.5 "/>
<text text-anchor="start" x="45.5" y="-47.3" font-family="Times,serif" font-style="italic" font-size="14.00">skymap_info.json</text>
<polyline fill="none" stroke="black" points="0,-38.5 215,-38.5 "/>
<text text-anchor="start" x="8" y="-23.3" font-family="Times,serif" font-size="14.00">EventTriggeredFileHandler</text>
<text text-anchor="start" x="73.5" y="-8.3" font-family="Times,serif" font-size="14.00">JSONFile</text>
</a>
</g>
</g>
<!-- llama.files.skymap_info.SkymapInfo&#45;&gt;llama.files.lvc_skymap.LvcSkymapFits -->
<g id="edge2" class="edge">
<title>llama.files.skymap_info.SkymapInfo&#45;&gt;llama.files.lvc_skymap.LvcSkymapFits</title>
<path fill="none" stroke="red" d="M215.38,-58.25C215.38,-58.25 240.66,-58.25 240.66,-58.25"/>
<polygon fill="red" stroke="red" points="240.66,-61.75 250.66,-58.25 240.66,-54.75 240.66,-61.75"/>
</g>
<!-- llama.files.skymap_info.SkymapInfo&#45;&gt;llama.files.lvc_skymap_mat.LvcSkymapMat -->
<g id="edge3" class="edge">
<title>llama.files.skymap_info.SkymapInfo&#45;&gt;llama.files.lvc_skymap_mat.LvcSkymapMat</title>
<path fill="none" stroke="red" d="M215.28,-19.5C215.28,-19.5 529.77,-19.5 529.77,-19.5"/>
<polygon fill="red" stroke="red" points="529.77,-23 539.77,-19.5 529.77,-16 529.77,-23"/>
</g>
</g>
</svg>
