<?xml version="1.0" encoding="UTF-8" standalone="no"?>
<!DOCTYPE svg PUBLIC "-//W3C//DTD SVG 1.1//EN"
 "http://www.w3.org/Graphics/SVG/1.1/DTD/svg11.dtd">
<!-- Generated by graphviz version 2.42.3 (20191010.1750)
 -->
<!-- Title: llama.files.coinc_plots.RctSlkLmaCoincScatterZtfLVCPng Pages: 1 -->
<svg width="1355pt" height="230pt"
 viewBox="0.00 0.00 1355.00 229.50" xmlns="http://www.w3.org/2000/svg" xmlns:xlink="http://www.w3.org/1999/xlink">
<g id="graph0" class="graph" transform="scale(1 1) rotate(0) translate(4 225.5)">
<title>llama.files.coinc_plots.RctSlkLmaCoincScatterZtfLVCPng</title>
<polygon fill="transparent" stroke="transparent" points="-4,4 -4,-225.5 1351,-225.5 1351,4 -4,4"/>
<!-- llama.files.coinc_plots.CoincScatterZtfLVCPng -->
<g id="node1" class="node">
<title>llama.files.coinc_plots.CoincScatterZtfLVCPng</title>
<g id="a_node1"><a xlink:href="/llama.files.coinc_plots.html#llama.files.coinc_plots.CoincScatterZtfLVCPng" xlink:title="{{&lt;B&gt;CoincScatterZtfLVCPng&lt;/B&gt;|&lt;I&gt;scatterplot_lvc&#45;ztf.png&lt;/I&gt;|CoincScatterZtfLVC}}" target="_top">
<polygon fill="#cccccc" stroke="black" points="803,-121 803,-190 1009,-190 1009,-121 803,-121"/>
<text text-anchor="start" x="811" y="-175.8" font-family="Times,serif" font-weight="bold" font-size="14.00">CoincScatterZtfLVCPng</text>
<polyline fill="none" stroke="black" points="803,-167 1009,-167 "/>
<text text-anchor="start" x="825" y="-152.8" font-family="Times,serif" font-style="italic" font-size="14.00">scatterplot_lvc&#45;ztf.png</text>
<polyline fill="none" stroke="black" points="803,-144 1009,-144 "/>
<text text-anchor="start" x="833" y="-128.8" font-family="Times,serif" font-size="14.00">CoincScatterZtfLVC</text>
</a>
</g>
</g>
<!-- llama.files.coinc_plots.RctSlkLmaCoincScatterZtfLVCPng -->
<g id="node2" class="node">
<title>llama.files.coinc_plots.RctSlkLmaCoincScatterZtfLVCPng</title>
<g id="a_node2"><a xlink:href="/llama.files.coinc_plots.html#llama.files.coinc_plots.RctSlkLmaCoincScatterZtfLVCPng" xlink:title="{{&lt;B&gt;RctSlkLmaCoincScatterZtfLVCPng&lt;/B&gt;|&lt;I&gt;rct_slk_lma_scatterplot_lvc&#45;ztf.png.json&lt;/I&gt;|SlackReceiptLlama}}" target="_top">
<polygon fill="#cccccc" stroke="black" points="1045,-152 1045,-221 1347,-221 1347,-152 1045,-152"/>
<text text-anchor="start" x="1057.5" y="-206.8" font-family="Times,serif" font-weight="bold" font-size="14.00">RctSlkLmaCoincScatterZtfLVCPng</text>
<polyline fill="none" stroke="black" points="1045,-198 1347,-198 "/>
<text text-anchor="start" x="1053" y="-183.8" font-family="Times,serif" font-style="italic" font-size="14.00">rct_slk_lma_scatterplot_lvc&#45;ztf.png.json</text>
<polyline fill="none" stroke="black" points="1045,-175 1347,-175 "/>
<text text-anchor="start" x="1126.5" y="-159.8" font-family="Times,serif" font-size="14.00">SlackReceiptLlama</text>
</a>
</g>
</g>
<!-- llama.files.coinc_plots.CoincScatterZtfLVCPng&#45;&gt;llama.files.coinc_plots.RctSlkLmaCoincScatterZtfLVCPng -->
<g id="edge1" class="edge">
<title>llama.files.coinc_plots.CoincScatterZtfLVCPng&#45;&gt;llama.files.coinc_plots.RctSlkLmaCoincScatterZtfLVCPng</title>
<path fill="none" stroke="red" d="M1009.06,-171C1009.06,-171 1034.83,-171 1034.83,-171"/>
<polygon fill="red" stroke="red" points="1034.83,-174.5 1044.83,-171 1034.83,-167.5 1034.83,-174.5"/>
</g>
<!-- llama.files.lvc_skymap.LvcSkymapFits -->
<g id="node3" class="node">
<title>llama.files.lvc_skymap.LvcSkymapFits</title>
<g id="a_node3"><a xlink:href="/llama.files.lvc_skymap.html#llama.files.lvc_skymap.LvcSkymapFits" xlink:title="{{&lt;B&gt;LvcSkymapFits&lt;/B&gt;|&lt;I&gt;lvc_skymap.fits.gz&lt;/I&gt;|GenerateOnceMixin&lt;BR/&gt;LvcHEALPixSkyMapFileHandler&lt;BR/&gt;OnlineVetoMixin}}" target="_top">
<polygon fill="#cccccc" stroke="black" points="251,-91 251,-190 504,-190 504,-91 251,-91"/>
<text text-anchor="start" x="317.5" y="-175.8" font-family="Times,serif" font-weight="bold" font-size="14.00">LvcSkymapFits</text>
<polyline fill="none" stroke="black" points="251,-167 504,-167 "/>
<text text-anchor="start" x="311" y="-152.8" font-family="Times,serif" font-style="italic" font-size="14.00">lvc_skymap.fits.gz</text>
<polyline fill="none" stroke="black" points="251,-144 504,-144 "/>
<text text-anchor="start" x="305" y="-128.8" font-family="Times,serif" font-size="14.00">GenerateOnceMixin</text>
<text text-anchor="start" x="259" y="-113.8" font-family="Times,serif" font-size="14.00">LvcHEALPixSkyMapFileHandler</text>
<text text-anchor="start" x="317.5" y="-98.8" font-family="Times,serif" font-size="14.00">OnlineVetoMixin</text>
</a>
</g>
</g>
<!-- llama.files.lvc_skymap.LvcSkymapHdf5 -->
<g id="node4" class="node">
<title>llama.files.lvc_skymap.LvcSkymapHdf5</title>
<g id="a_node4"><a xlink:href="/llama.files.lvc_skymap.html#llama.files.lvc_skymap.LvcSkymapHdf5" xlink:title="{{&lt;B&gt;LvcSkymapHdf5&lt;/B&gt;|&lt;I&gt;lvc_skymap.hdf5&lt;/I&gt;|HEALPixSkyMapFileHandler}}" target="_top">
<polygon fill="#cccccc" stroke="black" points="540,-121 540,-190 767,-190 767,-121 540,-121"/>
<text text-anchor="start" x="589" y="-175.8" font-family="Times,serif" font-weight="bold" font-size="14.00">LvcSkymapHdf5</text>
<polyline fill="none" stroke="black" points="540,-167 767,-167 "/>
<text text-anchor="start" x="593" y="-152.8" font-family="Times,serif" font-style="italic" font-size="14.00">lvc_skymap.hdf5</text>
<polyline fill="none" stroke="black" points="540,-144 767,-144 "/>
<text text-anchor="start" x="548" y="-128.8" font-family="Times,serif" font-size="14.00">HEALPixSkyMapFileHandler</text>
</a>
</g>
</g>
<!-- llama.files.lvc_skymap.LvcSkymapFits&#45;&gt;llama.files.lvc_skymap.LvcSkymapHdf5 -->
<g id="edge2" class="edge">
<title>llama.files.lvc_skymap.LvcSkymapFits&#45;&gt;llama.files.lvc_skymap.LvcSkymapHdf5</title>
<path fill="none" stroke="red" d="M504.19,-155.5C504.19,-155.5 529.88,-155.5 529.88,-155.5"/>
<polygon fill="red" stroke="red" points="529.88,-159 539.88,-155.5 529.88,-152 529.88,-159"/>
</g>
<!-- llama.files.lvc_skymap.LvcSkymapHdf5&#45;&gt;llama.files.coinc_plots.CoincScatterZtfLVCPng -->
<g id="edge3" class="edge">
<title>llama.files.lvc_skymap.LvcSkymapHdf5&#45;&gt;llama.files.coinc_plots.CoincScatterZtfLVCPng</title>
<path fill="none" stroke="red" d="M767.19,-155.5C767.19,-155.5 792.95,-155.5 792.95,-155.5"/>
<polygon fill="red" stroke="red" points="792.95,-159 802.95,-155.5 792.95,-152 792.95,-159"/>
</g>
<!-- llama.files.skymap_info.SkymapInfo -->
<g id="node5" class="node">
<title>llama.files.skymap_info.SkymapInfo</title>
<g id="a_node5"><a xlink:href="/llama.files.skymap_info.html#llama.files.skymap_info.SkymapInfo" xlink:title="{{&lt;B&gt;SkymapInfo&lt;/B&gt;|&lt;I&gt;skymap_info.json&lt;/I&gt;|EventTriggeredFileHandler&lt;BR/&gt;JSONFile}}" target="_top">
<polygon fill="#cccccc" stroke="black" points="0,-98.5 0,-182.5 215,-182.5 215,-98.5 0,-98.5"/>
<text text-anchor="start" x="59.5" y="-168.3" font-family="Times,serif" font-weight="bold" font-size="14.00">SkymapInfo</text>
<polyline fill="none" stroke="black" points="0,-159.5 215,-159.5 "/>
<text text-anchor="start" x="45.5" y="-145.3" font-family="Times,serif" font-style="italic" font-size="14.00">skymap_info.json</text>
<polyline fill="none" stroke="black" points="0,-136.5 215,-136.5 "/>
<text text-anchor="start" x="8" y="-121.3" font-family="Times,serif" font-size="14.00">EventTriggeredFileHandler</text>
<text text-anchor="start" x="73.5" y="-106.3" font-family="Times,serif" font-size="14.00">JSONFile</text>
</a>
</g>
</g>
<!-- llama.files.skymap_info.SkymapInfo&#45;&gt;llama.files.coinc_plots.RctSlkLmaCoincScatterZtfLVCPng -->
<g id="edge4" class="edge">
<title>llama.files.skymap_info.SkymapInfo&#45;&gt;llama.files.coinc_plots.RctSlkLmaCoincScatterZtfLVCPng</title>
<path fill="none" stroke="red" d="M72,-98.35C72,-56.96 72,0 72,0 72,0 1196,0 1196,0 1196,0 1196,-141.86 1196,-141.86"/>
<polygon fill="red" stroke="red" points="1192.5,-141.86 1196,-151.86 1199.5,-141.86 1192.5,-141.86"/>
</g>
<!-- llama.files.skymap_info.SkymapInfo&#45;&gt;llama.files.lvc_skymap.LvcSkymapFits -->
<g id="edge5" class="edge">
<title>llama.files.skymap_info.SkymapInfo&#45;&gt;llama.files.lvc_skymap.LvcSkymapFits</title>
<path fill="none" stroke="red" d="M215.38,-140.5C215.38,-140.5 240.66,-140.5 240.66,-140.5"/>
<polygon fill="red" stroke="red" points="240.66,-144 250.66,-140.5 240.66,-137 240.66,-144"/>
</g>
<!-- llama.files.ztf_trigger_list.ZtfTriggerList -->
<g id="node6" class="node">
<title>llama.files.ztf_trigger_list.ZtfTriggerList</title>
<g id="a_node6"><a xlink:href="/llama.files.ztf_trigger_list.html#llama.files.ztf_trigger_list.ZtfTriggerList" xlink:title="{{&lt;B&gt;ZtfTriggerList&lt;/B&gt;|&lt;I&gt;ztf_trigger_list.json&lt;/I&gt;|JSONFile&lt;BR/&gt;HEALPixPSF}}" target="_top">
<polygon fill="#cccccc" stroke="black" points="575,-18.5 575,-102.5 732,-102.5 732,-18.5 575,-18.5"/>
<text text-anchor="start" x="597.5" y="-88.3" font-family="Times,serif" font-weight="bold" font-size="14.00">ZtfTriggerList</text>
<polyline fill="none" stroke="black" points="575,-79.5 732,-79.5 "/>
<text text-anchor="start" x="583" y="-65.3" font-family="Times,serif" font-style="italic" font-size="14.00">ztf_trigger_list.json</text>
<polyline fill="none" stroke="black" points="575,-56.5 732,-56.5 "/>
<text text-anchor="start" x="619.5" y="-41.3" font-family="Times,serif" font-size="14.00">JSONFile</text>
<text text-anchor="start" x="605.5" y="-26.3" font-family="Times,serif" font-size="14.00">HEALPixPSF</text>
</a>
</g>
</g>
<!-- llama.files.skymap_info.SkymapInfo&#45;&gt;llama.files.ztf_trigger_list.ZtfTriggerList -->
<g id="edge6" class="edge">
<title>llama.files.skymap_info.SkymapInfo&#45;&gt;llama.files.ztf_trigger_list.ZtfTriggerList</title>
<path fill="none" stroke="red" d="M144,-98.39C144,-76.49 144,-54.25 144,-54.25 144,-54.25 564.73,-54.25 564.73,-54.25"/>
<polygon fill="red" stroke="red" points="564.73,-57.75 574.73,-54.25 564.73,-50.75 564.73,-57.75"/>
</g>
<!-- llama.files.ztf_trigger_list.ZtfTriggerList&#45;&gt;llama.files.coinc_plots.CoincScatterZtfLVCPng -->
<g id="edge7" class="edge">
<title>llama.files.ztf_trigger_list.ZtfTriggerList&#45;&gt;llama.files.coinc_plots.CoincScatterZtfLVCPng</title>
<path fill="none" stroke="red" d="M732.01,-60.5C806.13,-60.5 906,-60.5 906,-60.5 906,-60.5 906,-110.93 906,-110.93"/>
<polygon fill="red" stroke="red" points="902.5,-110.93 906,-120.93 909.5,-110.93 902.5,-110.93"/>
</g>
</g>
</svg>
