<?xml version="1.0" encoding="UTF-8" standalone="no"?>
<!DOCTYPE svg PUBLIC "-//W3C//DTD SVG 1.1//EN"
 "http://www.w3.org/Graphics/SVG/1.1/DTD/svg11.dtd">
<!-- Generated by graphviz version 2.42.3 (20191010.1750)
 -->
<!-- Title: llama.files.lvc_skymap.RctSlkLmaLvcDistancesJson Pages: 1 -->
<svg width="1129pt" height="140pt"
 viewBox="0.00 0.00 1129.00 140.00" xmlns="http://www.w3.org/2000/svg" xmlns:xlink="http://www.w3.org/1999/xlink">
<g id="graph0" class="graph" transform="scale(1 1) rotate(0) translate(4 136)">
<title>llama.files.lvc_skymap.RctSlkLmaLvcDistancesJson</title>
<polygon fill="transparent" stroke="transparent" points="-4,4 -4,-136 1125,-136 1125,4 -4,4"/>
<!-- llama.files.lvc_skymap.LvcDistancesJson -->
<g id="node1" class="node">
<title>llama.files.lvc_skymap.LvcDistancesJson</title>
<g id="a_node1"><a xlink:href="/llama.files.lvc_skymap.html#llama.files.lvc_skymap.LvcDistancesJson" xlink:title="{{&lt;B&gt;LvcDistancesJson&lt;/B&gt;|&lt;I&gt;lvc_skymap_distances.json&lt;/I&gt;|JSONFile}}" target="_top">
<polygon fill="#cccccc" stroke="black" points="540,-39.5 540,-108.5 750,-108.5 750,-39.5 540,-39.5"/>
<text text-anchor="start" x="574.5" y="-94.3" font-family="Times,serif" font-weight="bold" font-size="14.00">LvcDistancesJson</text>
<polyline fill="none" stroke="black" points="540,-85.5 750,-85.5 "/>
<text text-anchor="start" x="548" y="-71.3" font-family="Times,serif" font-style="italic" font-size="14.00">lvc_skymap_distances.json</text>
<polyline fill="none" stroke="black" points="540,-62.5 750,-62.5 "/>
<text text-anchor="start" x="611" y="-47.3" font-family="Times,serif" font-size="14.00">JSONFile</text>
</a>
</g>
</g>
<!-- llama.files.lvc_skymap.RctSlkLmaLvcDistancesJson -->
<g id="node3" class="node">
<title>llama.files.lvc_skymap.RctSlkLmaLvcDistancesJson</title>
<g id="a_node3"><a xlink:href="/llama.files.lvc_skymap.html#llama.files.lvc_skymap.RctSlkLmaLvcDistancesJson" xlink:title="{{&lt;B&gt;RctSlkLmaLvcDistancesJson&lt;/B&gt;|&lt;I&gt;rct_slk_lma_lvc_skymap_distances.json.json&lt;/I&gt;|SlackReceiptLlama}}" target="_top">
<polygon fill="#cccccc" stroke="black" points="786,-0.5 786,-69.5 1121,-69.5 1121,-0.5 786,-0.5"/>
<text text-anchor="start" x="839.5" y="-55.3" font-family="Times,serif" font-weight="bold" font-size="14.00">RctSlkLmaLvcDistancesJson</text>
<polyline fill="none" stroke="black" points="786,-46.5 1121,-46.5 "/>
<text text-anchor="start" x="794" y="-32.3" font-family="Times,serif" font-style="italic" font-size="14.00">rct_slk_lma_lvc_skymap_distances.json.json</text>
<polyline fill="none" stroke="black" points="786,-23.5 1121,-23.5 "/>
<text text-anchor="start" x="884" y="-8.3" font-family="Times,serif" font-size="14.00">SlackReceiptLlama</text>
</a>
</g>
</g>
<!-- llama.files.lvc_skymap.LvcDistancesJson&#45;&gt;llama.files.lvc_skymap.RctSlkLmaLvcDistancesJson -->
<g id="edge1" class="edge">
<title>llama.files.lvc_skymap.LvcDistancesJson&#45;&gt;llama.files.lvc_skymap.RctSlkLmaLvcDistancesJson</title>
<path fill="none" stroke="red" d="M750.31,-54.5C750.31,-54.5 775.79,-54.5 775.79,-54.5"/>
<polygon fill="red" stroke="red" points="775.79,-58 785.79,-54.5 775.79,-51 775.79,-58"/>
</g>
<!-- llama.files.lvc_skymap.LvcSkymapFits -->
<g id="node2" class="node">
<title>llama.files.lvc_skymap.LvcSkymapFits</title>
<g id="a_node2"><a xlink:href="/llama.files.lvc_skymap.html#llama.files.lvc_skymap.LvcSkymapFits" xlink:title="{{&lt;B&gt;LvcSkymapFits&lt;/B&gt;|&lt;I&gt;lvc_skymap.fits.gz&lt;/I&gt;|GenerateOnceMixin&lt;BR/&gt;LvcHEALPixSkyMapFileHandler&lt;BR/&gt;OnlineVetoMixin}}" target="_top">
<polygon fill="#cccccc" stroke="black" points="251,-32.5 251,-131.5 504,-131.5 504,-32.5 251,-32.5"/>
<text text-anchor="start" x="317.5" y="-117.3" font-family="Times,serif" font-weight="bold" font-size="14.00">LvcSkymapFits</text>
<polyline fill="none" stroke="black" points="251,-108.5 504,-108.5 "/>
<text text-anchor="start" x="311" y="-94.3" font-family="Times,serif" font-style="italic" font-size="14.00">lvc_skymap.fits.gz</text>
<polyline fill="none" stroke="black" points="251,-85.5 504,-85.5 "/>
<text text-anchor="start" x="305" y="-70.3" font-family="Times,serif" font-size="14.00">GenerateOnceMixin</text>
<text text-anchor="start" x="259" y="-55.3" font-family="Times,serif" font-size="14.00">LvcHEALPixSkyMapFileHandler</text>
<text text-anchor="start" x="317.5" y="-40.3" font-family="Times,serif" font-size="14.00">OnlineVetoMixin</text>
</a>
</g>
</g>
<!-- llama.files.lvc_skymap.LvcSkymapFits&#45;&gt;llama.files.lvc_skymap.LvcDistancesJson -->
<g id="edge2" class="edge">
<title>llama.files.lvc_skymap.LvcSkymapFits&#45;&gt;llama.files.lvc_skymap.LvcDistancesJson</title>
<path fill="none" stroke="red" d="M504.2,-74C504.2,-74 529.7,-74 529.7,-74"/>
<polygon fill="red" stroke="red" points="529.7,-77.5 539.7,-74 529.7,-70.5 529.7,-77.5"/>
</g>
<!-- llama.files.skymap_info.SkymapInfo -->
<g id="node4" class="node">
<title>llama.files.skymap_info.SkymapInfo</title>
<g id="a_node4"><a xlink:href="/llama.files.skymap_info.html#llama.files.skymap_info.SkymapInfo" xlink:title="{{&lt;B&gt;SkymapInfo&lt;/B&gt;|&lt;I&gt;skymap_info.json&lt;/I&gt;|EventTriggeredFileHandler&lt;BR/&gt;JSONFile}}" target="_top">
<polygon fill="#cccccc" stroke="black" points="0,-1 0,-85 215,-85 215,-1 0,-1"/>
<text text-anchor="start" x="59.5" y="-70.8" font-family="Times,serif" font-weight="bold" font-size="14.00">SkymapInfo</text>
<polyline fill="none" stroke="black" points="0,-62 215,-62 "/>
<text text-anchor="start" x="45.5" y="-47.8" font-family="Times,serif" font-style="italic" font-size="14.00">skymap_info.json</text>
<polyline fill="none" stroke="black" points="0,-39 215,-39 "/>
<text text-anchor="start" x="8" y="-23.8" font-family="Times,serif" font-size="14.00">EventTriggeredFileHandler</text>
<text text-anchor="start" x="73.5" y="-8.8" font-family="Times,serif" font-size="14.00">JSONFile</text>
</a>
</g>
</g>
<!-- llama.files.skymap_info.SkymapInfo&#45;&gt;llama.files.lvc_skymap.LvcSkymapFits -->
<g id="edge3" class="edge">
<title>llama.files.skymap_info.SkymapInfo&#45;&gt;llama.files.lvc_skymap.LvcSkymapFits</title>
<path fill="none" stroke="red" d="M215.38,-58.75C215.38,-58.75 240.66,-58.75 240.66,-58.75"/>
<polygon fill="red" stroke="red" points="240.66,-62.25 250.66,-58.75 240.66,-55.25 240.66,-62.25"/>
</g>
<!-- llama.files.skymap_info.SkymapInfo&#45;&gt;llama.files.lvc_skymap.RctSlkLmaLvcDistancesJson -->
<g id="edge4" class="edge">
<title>llama.files.skymap_info.SkymapInfo&#45;&gt;llama.files.lvc_skymap.RctSlkLmaLvcDistancesJson</title>
<path fill="none" stroke="red" d="M215.08,-16.25C215.08,-16.25 775.87,-16.25 775.87,-16.25"/>
<polygon fill="red" stroke="red" points="775.87,-19.75 785.87,-16.25 775.87,-12.75 775.87,-19.75"/>
</g>
</g>
</svg>
