<?xml version="1.0" encoding="UTF-8" standalone="no"?>
<!DOCTYPE svg PUBLIC "-//W3C//DTD SVG 1.1//EN"
 "http://www.w3.org/Graphics/SVG/1.1/DTD/svg11.dtd">
<!-- Generated by graphviz version 2.42.3 (20191010.1750)
 -->
<!-- Title: llama.files.slack.RctSlkLmaLVAlertJSON Pages: 1 -->
<svg width="480pt" height="196pt"
 viewBox="0.00 0.00 480.00 196.00" xmlns="http://www.w3.org/2000/svg" xmlns:xlink="http://www.w3.org/1999/xlink">
<g id="graph0" class="graph" transform="scale(1 1) rotate(0) translate(4 192)">
<title>llama.files.slack.RctSlkLmaLVAlertJSON</title>
<polygon fill="transparent" stroke="transparent" points="-4,4 -4,-192 476,-192 476,4 -4,4"/>
<!-- llama.files.lvalert_json.LVAlertJSON -->
<g id="node1" class="node">
<title>llama.files.lvalert_json.LVAlertJSON</title>
<g id="a_node1"><a xlink:href="/llama.files.lvalert_json.html#llama.files.lvalert_json.LVAlertJSON" xlink:title="{{&lt;B&gt;LVAlertJSON&lt;/B&gt;|&lt;I&gt;lvalert.json&lt;/I&gt;|EventTriggeredFileHandler&lt;BR/&gt;JSONFile}}" target="_top">
<polygon fill="#cccccc" stroke="black" points="0,-103.5 0,-187.5 215,-187.5 215,-103.5 0,-103.5"/>
<text text-anchor="start" x="56.5" y="-173.3" font-family="Times,serif" font-weight="bold" font-size="14.00">LVAlertJSON</text>
<polyline fill="none" stroke="black" points="0,-164.5 215,-164.5 "/>
<text text-anchor="start" x="67" y="-150.3" font-family="Times,serif" font-style="italic" font-size="14.00">lvalert.json</text>
<polyline fill="none" stroke="black" points="0,-141.5 215,-141.5 "/>
<text text-anchor="start" x="8" y="-126.3" font-family="Times,serif" font-size="14.00">EventTriggeredFileHandler</text>
<text text-anchor="start" x="73.5" y="-111.3" font-family="Times,serif" font-size="14.00">JSONFile</text>
</a>
</g>
</g>
<!-- llama.files.slack.RctSlkLmaLVAlertJSON -->
<g id="node3" class="node">
<title>llama.files.slack.RctSlkLmaLVAlertJSON</title>
<g id="a_node3"><a xlink:href="/llama.files.slack.html#llama.files.slack.RctSlkLmaLVAlertJSON" xlink:title="{{&lt;B&gt;RctSlkLmaLVAlertJSON&lt;/B&gt;|&lt;I&gt;rct_slk_lma_lvalert.json.json&lt;/I&gt;|SlackReceiptLlama}}" target="_top">
<polygon fill="#cccccc" stroke="black" points="251,-59 251,-128 472,-128 472,-59 251,-59"/>
<text text-anchor="start" x="267" y="-113.8" font-family="Times,serif" font-weight="bold" font-size="14.00">RctSlkLmaLVAlertJSON</text>
<polyline fill="none" stroke="black" points="251,-105 472,-105 "/>
<text text-anchor="start" x="259" y="-90.8" font-family="Times,serif" font-style="italic" font-size="14.00">rct_slk_lma_lvalert.json.json</text>
<polyline fill="none" stroke="black" points="251,-82 472,-82 "/>
<text text-anchor="start" x="292" y="-66.8" font-family="Times,serif" font-size="14.00">SlackReceiptLlama</text>
</a>
</g>
</g>
<!-- llama.files.lvalert_json.LVAlertJSON&#45;&gt;llama.files.slack.RctSlkLmaLVAlertJSON -->
<g id="edge1" class="edge">
<title>llama.files.lvalert_json.LVAlertJSON&#45;&gt;llama.files.slack.RctSlkLmaLVAlertJSON</title>
<path fill="none" stroke="red" d="M215.22,-115.75C215.22,-115.75 240.77,-115.75 240.77,-115.75"/>
<polygon fill="red" stroke="red" points="240.77,-119.25 250.77,-115.75 240.77,-112.25 240.77,-119.25"/>
</g>
<!-- llama.files.skymap_info.SkymapInfo -->
<g id="node2" class="node">
<title>llama.files.skymap_info.SkymapInfo</title>
<g id="a_node2"><a xlink:href="/llama.files.skymap_info.html#llama.files.skymap_info.SkymapInfo" xlink:title="{{&lt;B&gt;SkymapInfo&lt;/B&gt;|&lt;I&gt;skymap_info.json&lt;/I&gt;|EventTriggeredFileHandler&lt;BR/&gt;JSONFile}}" target="_top">
<polygon fill="#cccccc" stroke="black" points="0,-0.5 0,-84.5 215,-84.5 215,-0.5 0,-0.5"/>
<text text-anchor="start" x="59.5" y="-70.3" font-family="Times,serif" font-weight="bold" font-size="14.00">SkymapInfo</text>
<polyline fill="none" stroke="black" points="0,-61.5 215,-61.5 "/>
<text text-anchor="start" x="45.5" y="-47.3" font-family="Times,serif" font-style="italic" font-size="14.00">skymap_info.json</text>
<polyline fill="none" stroke="black" points="0,-38.5 215,-38.5 "/>
<text text-anchor="start" x="8" y="-23.3" font-family="Times,serif" font-size="14.00">EventTriggeredFileHandler</text>
<text text-anchor="start" x="73.5" y="-8.3" font-family="Times,serif" font-size="14.00">JSONFile</text>
</a>
</g>
</g>
<!-- llama.files.skymap_info.SkymapInfo&#45;&gt;llama.files.slack.RctSlkLmaLVAlertJSON -->
<g id="edge2" class="edge">
<title>llama.files.skymap_info.SkymapInfo&#45;&gt;llama.files.slack.RctSlkLmaLVAlertJSON</title>
<path fill="none" stroke="red" d="M215.22,-71.75C215.22,-71.75 240.77,-71.75 240.77,-71.75"/>
<polygon fill="red" stroke="red" points="240.77,-75.25 250.77,-71.75 240.77,-68.25 240.77,-75.25"/>
</g>
</g>
</svg>
