<?xml version="1.0" encoding="UTF-8" standalone="no"?>
<!DOCTYPE svg PUBLIC "-//W3C//DTD SVG 1.1//EN"
 "http://www.w3.org/Graphics/SVG/1.1/DTD/svg11.dtd">
<!-- Generated by graphviz version 2.42.3 (20191010.1750)
 -->
<!-- Title: %3 Pages: 1 -->
<svg width="530pt" height="796pt"
 viewBox="0.00 0.00 530.00 796.00" xmlns="http://www.w3.org/2000/svg" xmlns:xlink="http://www.w3.org/1999/xlink">
<g id="graph0" class="graph" transform="scale(1 1) rotate(0) translate(4 792)">
<title>%3</title>
<polygon fill="white" stroke="transparent" points="-4,4 -4,-792 526,-792 526,4 -4,4"/>
<!-- 29 -->
<g id="node1" class="node">
<title>29</title>
<g id="a_node1"><a xlink:href="https://multimessenger.science/llama.test.test_listeners.test_gcn.html" xlink:title="/opt/anaconda/lib/python3.7/site&#45;packages/llama.test.test_listeners.test_gcn.py" target="_top">
<polygon fill="#fe0400" stroke="#fe0400" points="498,-144 388,-144 388,-92 498,-92 498,-144"/>
<text text-anchor="middle" x="443" y="-132" font-family="Arial" font-size="10.00" fill="#ffffff">test_gcn:120:execute</text>
<text text-anchor="middle" x="443" y="-121" font-family="Arial" font-size="10.00" fill="#ffffff">99.58%</text>
<text text-anchor="middle" x="443" y="-110" font-family="Arial" font-size="10.00" fill="#ffffff">(0.01%)</text>
<text text-anchor="middle" x="443" y="-99" font-family="Arial" font-size="10.00" fill="#ffffff">1×</text>
</a>
</g>
</g>
<!-- 31 -->
<g id="node2" class="node">
<title>31</title>
<g id="a_node2"><a xlink:title="~">
<polygon fill="#fe0900" stroke="#fe0900" points="522,-52 364,-52 364,0 522,0 522,-52"/>
<text text-anchor="middle" x="443" y="-40" font-family="Arial" font-size="10.00" fill="#ffffff">~:0:&lt;built&#45;in method time.sleep&gt;</text>
<text text-anchor="middle" x="443" y="-29" font-family="Arial" font-size="10.00" fill="#ffffff">99.11%</text>
<text text-anchor="middle" x="443" y="-18" font-family="Arial" font-size="10.00" fill="#ffffff">(99.11%)</text>
<text text-anchor="middle" x="443" y="-7" font-family="Arial" font-size="10.00" fill="#ffffff">25×</text>
</a>
</g>
</g>
<!-- 29&#45;&gt;31 -->
<g id="edge1" class="edge">
<title>29&#45;&gt;31</title>
<path fill="none" stroke="#fe0900" stroke-width="3.96" d="M443,-91.93C443,-82.74 443,-72.17 443,-62.25"/>
<polygon fill="#fe0900" stroke="#fe0900" stroke-width="3.96" points="446.5,-62.25 443,-52.25 439.5,-62.25 446.5,-62.25"/>
<text text-anchor="middle" x="459.5" y="-75" font-family="Arial" font-size="10.00" fill="#fe0900">99.11%</text>
<text text-anchor="middle" x="459.5" y="-64" font-family="Arial" font-size="10.00" fill="#fe0900">25×</text>
</g>
<!-- 30 -->
<g id="node3" class="node">
<title>30</title>
<g id="a_node3"><a xlink:title="/opt/anaconda/lib/python3.7/site&#45;packages/_pytest/runner.py">
<polygon fill="#ff0200" stroke="#ff0200" points="134.5,-420 29.5,-420 29.5,-368 134.5,-368 134.5,-420"/>
<text text-anchor="middle" x="82" y="-408" font-family="Arial" font-size="10.00" fill="#ffffff">runner:227:from_call</text>
<text text-anchor="middle" x="82" y="-397" font-family="Arial" font-size="10.00" fill="#ffffff">99.77%</text>
<text text-anchor="middle" x="82" y="-386" font-family="Arial" font-size="10.00" fill="#ffffff">(0.00%)</text>
<text text-anchor="middle" x="82" y="-375" font-family="Arial" font-size="10.00" fill="#ffffff">3×</text>
</a>
</g>
</g>
<!-- 482 -->
<g id="node4" class="node">
<title>482</title>
<g id="a_node4"><a xlink:title="/opt/anaconda/lib/python3.7/site&#45;packages/_pytest/runner.py">
<polygon fill="#ff0200" stroke="#ff0200" points="141.5,-328 32.5,-328 32.5,-276 141.5,-276 141.5,-328"/>
<text text-anchor="middle" x="87" y="-316" font-family="Arial" font-size="10.00" fill="#ffffff">runner:207:&lt;lambda&gt;</text>
<text text-anchor="middle" x="87" y="-305" font-family="Arial" font-size="10.00" fill="#ffffff">99.77%</text>
<text text-anchor="middle" x="87" y="-294" font-family="Arial" font-size="10.00" fill="#ffffff">(0.00%)</text>
<text text-anchor="middle" x="87" y="-283" font-family="Arial" font-size="10.00" fill="#ffffff">3×</text>
</a>
</g>
</g>
<!-- 30&#45;&gt;482 -->
<g id="edge2" class="edge">
<title>30&#45;&gt;482</title>
<path fill="none" stroke="#ff0200" stroke-width="3.99" d="M83.39,-367.93C83.9,-358.74 84.49,-348.17 85.04,-338.25"/>
<polygon fill="#ff0200" stroke="#ff0200" stroke-width="3.99" points="88.54,-338.43 85.6,-328.25 81.55,-338.04 88.54,-338.43"/>
<text text-anchor="middle" x="103" y="-351" font-family="Arial" font-size="10.00" fill="#ff0200">99.77%</text>
<text text-anchor="middle" x="103" y="-340" font-family="Arial" font-size="10.00" fill="#ff0200">3×</text>
</g>
<!-- 332 -->
<g id="node14" class="node">
<title>332</title>
<g id="a_node14"><a xlink:title="/opt/anaconda/lib/python3.7/site&#45;packages/pluggy/hooks.py">
<polygon fill="#ff0000" stroke="#ff0000" points="222.5,-236 121.5,-236 121.5,-184 222.5,-184 222.5,-236"/>
<text text-anchor="middle" x="172" y="-224" font-family="Arial" font-size="10.00" fill="#ffffff">hooks:275:__call__</text>
<text text-anchor="middle" x="172" y="-213" font-family="Arial" font-size="10.00" fill="#ffffff">99.99%</text>
<text text-anchor="middle" x="172" y="-202" font-family="Arial" font-size="10.00" fill="#ffffff">(0.00%)</text>
<text text-anchor="middle" x="172" y="-191" font-family="Arial" font-size="10.00" fill="#ffffff">56×</text>
</a>
</g>
</g>
<!-- 482&#45;&gt;332 -->
<g id="edge17" class="edge">
<title>482&#45;&gt;332</title>
<path fill="none" stroke="#ff0200" stroke-width="3.99" d="M95.87,-275.96C100.44,-265.54 106.79,-253.84 115,-245 115.63,-244.32 116.29,-243.64 116.95,-242.98"/>
<polygon fill="#ff0200" stroke="#ff0200" stroke-width="3.99" points="119.43,-245.46 124.6,-236.22 114.79,-240.22 119.43,-245.46"/>
<text text-anchor="middle" x="132" y="-259" font-family="Arial" font-size="10.00" fill="#ff0200">99.77%</text>
<text text-anchor="middle" x="132" y="-248" font-family="Arial" font-size="10.00" fill="#ff0200">3×</text>
</g>
<!-- 64 -->
<g id="node5" class="node">
<title>64</title>
<g id="a_node5"><a xlink:href="https://multimessenger.science/llama.test.classes.html" xlink:title="/opt/anaconda/lib/python3.7/site&#45;packages/llama.test.classes.py" target="_top">
<polygon fill="#ff0300" stroke="#ff0300" points="487.5,-236 398.5,-236 398.5,-184 487.5,-184 487.5,-236"/>
<text text-anchor="middle" x="443" y="-224" font-family="Arial" font-size="10.00" fill="#ffffff">classes:125:test</text>
<text text-anchor="middle" x="443" y="-213" font-family="Arial" font-size="10.00" fill="#ffffff">99.70%</text>
<text text-anchor="middle" x="443" y="-202" font-family="Arial" font-size="10.00" fill="#ffffff">(0.00%)</text>
<text text-anchor="middle" x="443" y="-191" font-family="Arial" font-size="10.00" fill="#ffffff">1×</text>
</a>
</g>
</g>
<!-- 64&#45;&gt;29 -->
<g id="edge3" class="edge">
<title>64&#45;&gt;29</title>
<path fill="none" stroke="#fe0400" stroke-width="3.98" d="M443,-183.93C443,-174.74 443,-164.17 443,-154.25"/>
<polygon fill="#fe0400" stroke="#fe0400" stroke-width="3.98" points="446.5,-154.25 443,-144.25 439.5,-154.25 446.5,-154.25"/>
<text text-anchor="middle" x="460" y="-167" font-family="Arial" font-size="10.00" fill="#fe0400">99.58%</text>
<text text-anchor="middle" x="460" y="-156" font-family="Arial" font-size="10.00" fill="#fe0400">1×</text>
</g>
<!-- 109 -->
<g id="node6" class="node">
<title>109</title>
<g id="a_node6"><a xlink:title="/opt/anaconda/lib/python3.7/site&#45;packages/_pytest/runner.py">
<polygon fill="#ff0300" stroke="#ff0300" points="341,-420 193,-420 193,-368 341,-368 341,-420"/>
<text text-anchor="middle" x="267" y="-408" font-family="Arial" font-size="10.00" fill="#ffffff">runner:122:pytest_runtest_call</text>
<text text-anchor="middle" x="267" y="-397" font-family="Arial" font-size="10.00" fill="#ffffff">99.72%</text>
<text text-anchor="middle" x="267" y="-386" font-family="Arial" font-size="10.00" fill="#ffffff">(0.00%)</text>
<text text-anchor="middle" x="267" y="-375" font-family="Arial" font-size="10.00" fill="#ffffff">1×</text>
</a>
</g>
</g>
<!-- 474 -->
<g id="node7" class="node">
<title>474</title>
<g id="a_node7"><a xlink:title="/opt/anaconda/lib/python3.7/site&#45;packages/_pytest/python.py">
<polygon fill="#ff0300" stroke="#ff0300" points="285.5,-328 182.5,-328 182.5,-276 285.5,-276 285.5,-328"/>
<text text-anchor="middle" x="234" y="-316" font-family="Arial" font-size="10.00" fill="#ffffff">python:1433:runtest</text>
<text text-anchor="middle" x="234" y="-305" font-family="Arial" font-size="10.00" fill="#ffffff">99.72%</text>
<text text-anchor="middle" x="234" y="-294" font-family="Arial" font-size="10.00" fill="#ffffff">(0.00%)</text>
<text text-anchor="middle" x="234" y="-283" font-family="Arial" font-size="10.00" fill="#ffffff">1×</text>
</a>
</g>
</g>
<!-- 109&#45;&gt;474 -->
<g id="edge4" class="edge">
<title>109&#45;&gt;474</title>
<path fill="none" stroke="#ff0300" stroke-width="3.99" d="M257.81,-367.93C254.4,-358.65 250.48,-347.94 246.81,-337.94"/>
<polygon fill="#ff0300" stroke="#ff0300" stroke-width="3.99" points="249.99,-336.43 243.26,-328.25 243.41,-338.84 249.99,-336.43"/>
<text text-anchor="middle" x="271" y="-351" font-family="Arial" font-size="10.00" fill="#ff0300">99.72%</text>
<text text-anchor="middle" x="271" y="-340" font-family="Arial" font-size="10.00" fill="#ff0300">1×</text>
</g>
<!-- 474&#45;&gt;332 -->
<g id="edge13" class="edge">
<title>474&#45;&gt;332</title>
<path fill="none" stroke="#ff0300" stroke-width="3.99" d="M216.73,-275.93C210.07,-266.26 202.34,-255.05 195.21,-244.69"/>
<polygon fill="#ff0300" stroke="#ff0300" stroke-width="3.99" points="197.95,-242.5 189.39,-236.25 192.18,-246.47 197.95,-242.5"/>
<text text-anchor="middle" x="227" y="-259" font-family="Arial" font-size="10.00" fill="#ff0300">99.72%</text>
<text text-anchor="middle" x="227" y="-248" font-family="Arial" font-size="10.00" fill="#ff0300">1×</text>
</g>
<!-- 110 -->
<g id="node8" class="node">
<title>110</title>
<g id="a_node8"><a xlink:title="/opt/anaconda/lib/python3.7/site&#45;packages/pluggy/callers.py">
<polygon fill="#ff0000" stroke="#ff0000" points="409,-512 301,-512 301,-460 409,-460 409,-512"/>
<text text-anchor="middle" x="355" y="-500" font-family="Arial" font-size="10.00" fill="#ffffff">callers:157:_multicall</text>
<text text-anchor="middle" x="355" y="-489" font-family="Arial" font-size="10.00" fill="#ffffff">99.99%</text>
<text text-anchor="middle" x="355" y="-478" font-family="Arial" font-size="10.00" fill="#ffffff">(0.01%)</text>
<text text-anchor="middle" x="355" y="-467" font-family="Arial" font-size="10.00" fill="#ffffff">56×</text>
</a>
</g>
</g>
<!-- 110&#45;&gt;109 -->
<g id="edge5" class="edge">
<title>110&#45;&gt;109</title>
<path fill="none" stroke="#ff0300" stroke-width="3.99" d="M323.59,-459.95C320.27,-457.02 317.02,-454 314,-451 306.93,-443.97 299.77,-435.98 293.24,-428.28"/>
<polygon fill="#ff0300" stroke="#ff0300" stroke-width="3.99" points="295.53,-425.55 286.44,-420.1 290.14,-430.03 295.53,-425.55"/>
<text text-anchor="middle" x="331" y="-443" font-family="Arial" font-size="10.00" fill="#ff0300">99.72%</text>
<text text-anchor="middle" x="331" y="-432" font-family="Arial" font-size="10.00" fill="#ff0300">1×</text>
</g>
<!-- 381 -->
<g id="node9" class="node">
<title>381</title>
<g id="a_node9"><a xlink:title="/opt/anaconda/lib/python3.7/site&#45;packages/_pytest/python.py">
<polygon fill="#ff0300" stroke="#ff0300" points="517.5,-420 368.5,-420 368.5,-368 517.5,-368 517.5,-420"/>
<text text-anchor="middle" x="443" y="-408" font-family="Arial" font-size="10.00" fill="#ffffff">python:148:pytest_pyfunc_call</text>
<text text-anchor="middle" x="443" y="-397" font-family="Arial" font-size="10.00" fill="#ffffff">99.72%</text>
<text text-anchor="middle" x="443" y="-386" font-family="Arial" font-size="10.00" fill="#ffffff">(0.00%)</text>
<text text-anchor="middle" x="443" y="-375" font-family="Arial" font-size="10.00" fill="#ffffff">1×</text>
</a>
</g>
</g>
<!-- 110&#45;&gt;381 -->
<g id="edge6" class="edge">
<title>110&#45;&gt;381</title>
<path fill="none" stroke="#ff0300" stroke-width="3.99" d="M379.51,-459.93C389.35,-449.87 400.81,-438.15 411.27,-427.45"/>
<polygon fill="#ff0300" stroke="#ff0300" stroke-width="3.99" points="413.82,-429.84 418.31,-420.25 408.82,-424.95 413.82,-429.84"/>
<text text-anchor="middle" x="426" y="-443" font-family="Arial" font-size="10.00" fill="#ff0300">99.72%</text>
<text text-anchor="middle" x="426" y="-432" font-family="Arial" font-size="10.00" fill="#ff0300">1×</text>
</g>
<!-- 380 -->
<g id="node16" class="node">
<title>380</title>
<g id="a_node16"><a xlink:href="https://multimessenger.science/llama.test.test_listeners.test_gcn.html" xlink:title="/opt/anaconda/lib/python3.7/site&#45;packages/llama.test.test_listeners.test_gcn.py" target="_top">
<polygon fill="#ff0300" stroke="#ff0300" points="486.5,-328 399.5,-328 399.5,-276 486.5,-276 486.5,-328"/>
<text text-anchor="middle" x="443" y="-316" font-family="Arial" font-size="10.00" fill="#ffffff">test_gcn:75:test</text>
<text text-anchor="middle" x="443" y="-305" font-family="Arial" font-size="10.00" fill="#ffffff">99.71%</text>
<text text-anchor="middle" x="443" y="-294" font-family="Arial" font-size="10.00" fill="#ffffff">(0.00%)</text>
<text text-anchor="middle" x="443" y="-283" font-family="Arial" font-size="10.00" fill="#ffffff">1×</text>
</a>
</g>
</g>
<!-- 381&#45;&gt;380 -->
<g id="edge12" class="edge">
<title>381&#45;&gt;380</title>
<path fill="none" stroke="#ff0300" stroke-width="3.99" d="M443,-367.93C443,-358.74 443,-348.17 443,-338.25"/>
<polygon fill="#ff0300" stroke="#ff0300" stroke-width="3.99" points="446.5,-338.25 443,-328.25 439.5,-338.25 446.5,-338.25"/>
<text text-anchor="middle" x="460" y="-351" font-family="Arial" font-size="10.00" fill="#ff0300">99.71%</text>
<text text-anchor="middle" x="460" y="-340" font-family="Arial" font-size="10.00" fill="#ff0300">1×</text>
</g>
<!-- 135 -->
<g id="node10" class="node">
<title>135</title>
<g id="a_node10"><a xlink:title="/opt/anaconda/lib/python3.7/site&#45;packages/_pytest/runner.py">
<polygon fill="#ff0200" stroke="#ff0200" points="142,-512 0,-512 0,-460 142,-460 142,-512"/>
<text text-anchor="middle" x="71" y="-500" font-family="Arial" font-size="10.00" fill="#ffffff">runner:200:call_runtest_hook</text>
<text text-anchor="middle" x="71" y="-489" font-family="Arial" font-size="10.00" fill="#ffffff">99.77%</text>
<text text-anchor="middle" x="71" y="-478" font-family="Arial" font-size="10.00" fill="#ffffff">(0.00%)</text>
<text text-anchor="middle" x="71" y="-467" font-family="Arial" font-size="10.00" fill="#ffffff">3×</text>
</a>
</g>
</g>
<!-- 135&#45;&gt;30 -->
<g id="edge7" class="edge">
<title>135&#45;&gt;30</title>
<path fill="none" stroke="#ff0200" stroke-width="3.99" d="M74.06,-459.93C75.19,-450.74 76.48,-440.17 77.69,-430.25"/>
<polygon fill="#ff0200" stroke="#ff0200" stroke-width="3.99" points="81.18,-430.6 78.91,-420.25 74.23,-429.75 81.18,-430.6"/>
<text text-anchor="middle" x="95" y="-443" font-family="Arial" font-size="10.00" fill="#ff0200">99.77%</text>
<text text-anchor="middle" x="95" y="-432" font-family="Arial" font-size="10.00" fill="#ff0200">3×</text>
</g>
<!-- 162 -->
<g id="node11" class="node">
<title>162</title>
<g id="a_node11"><a xlink:title="/opt/anaconda/lib/python3.7/site&#45;packages/_pytest/runner.py">
<polygon fill="#ff0000" stroke="#ff0000" points="176.5,-696 51.5,-696 51.5,-644 176.5,-644 176.5,-696"/>
<text text-anchor="middle" x="114" y="-684" font-family="Arial" font-size="10.00" fill="#ffffff">runner:86:runtestprotocol</text>
<text text-anchor="middle" x="114" y="-673" font-family="Arial" font-size="10.00" fill="#ffffff">99.99%</text>
<text text-anchor="middle" x="114" y="-662" font-family="Arial" font-size="10.00" fill="#ffffff">(0.00%)</text>
<text text-anchor="middle" x="114" y="-651" font-family="Arial" font-size="10.00" fill="#ffffff">1×</text>
</a>
</g>
</g>
<!-- 481 -->
<g id="node12" class="node">
<title>481</title>
<g id="a_node12"><a xlink:title="/opt/anaconda/lib/python3.7/site&#45;packages/_pytest/runner.py">
<polygon fill="#ff0000" stroke="#ff0000" points="179.5,-604 48.5,-604 48.5,-552 179.5,-552 179.5,-604"/>
<text text-anchor="middle" x="114" y="-592" font-family="Arial" font-size="10.00" fill="#ffffff">runner:181:call_and_report</text>
<text text-anchor="middle" x="114" y="-581" font-family="Arial" font-size="10.00" fill="#ffffff">99.99%</text>
<text text-anchor="middle" x="114" y="-570" font-family="Arial" font-size="10.00" fill="#ffffff">(0.00%)</text>
<text text-anchor="middle" x="114" y="-559" font-family="Arial" font-size="10.00" fill="#ffffff">3×</text>
</a>
</g>
</g>
<!-- 162&#45;&gt;481 -->
<g id="edge8" class="edge">
<title>162&#45;&gt;481</title>
<path fill="none" stroke="#ff0000" stroke-width="4" d="M114,-643.93C114,-634.74 114,-624.17 114,-614.25"/>
<polygon fill="#ff0000" stroke="#ff0000" stroke-width="4" points="117.5,-614.25 114,-604.25 110.5,-614.25 117.5,-614.25"/>
<text text-anchor="middle" x="131" y="-627" font-family="Arial" font-size="10.00" fill="#ff0000">99.99%</text>
<text text-anchor="middle" x="131" y="-616" font-family="Arial" font-size="10.00" fill="#ff0000">3×</text>
</g>
<!-- 481&#45;&gt;135 -->
<g id="edge15" class="edge">
<title>481&#45;&gt;135</title>
<path fill="none" stroke="#ff0200" stroke-width="3.99" d="M102.02,-551.93C97.49,-542.45 92.26,-531.5 87.4,-521.32"/>
<polygon fill="#ff0200" stroke="#ff0200" stroke-width="3.99" points="90.53,-519.76 83.06,-512.25 84.22,-522.78 90.53,-519.76"/>
<text text-anchor="middle" x="115" y="-535" font-family="Arial" font-size="10.00" fill="#ff0200">99.77%</text>
<text text-anchor="middle" x="115" y="-524" font-family="Arial" font-size="10.00" fill="#ff0200">3×</text>
</g>
<!-- 481&#45;&gt;332 -->
<g id="edge16" class="edge">
<title>481&#45;&gt;332</title>
<path fill="none" stroke="#0d0e73" stroke-width="0.5" d="M133.03,-551.67C144.15,-534.38 156,-510.45 156,-487 156,-487 156,-487 156,-301 156,-280.17 160.21,-257.04 164.3,-239.45"/>
<polygon fill="#0d0e73" stroke="#0d0e73" stroke-width="0.5" points="165.51,-239.69 165.12,-236 163.12,-239.13 165.51,-239.69"/>
<text text-anchor="middle" x="170" y="-397" font-family="Arial" font-size="10.00" fill="#0d0e73">0.21%</text>
<text text-anchor="middle" x="170" y="-386" font-family="Arial" font-size="10.00" fill="#0d0e73">7×</text>
</g>
<!-- 322 -->
<g id="node13" class="node">
<title>322</title>
<g id="a_node13"><a xlink:title="/opt/anaconda/lib/python3.7/site&#45;packages/pluggy/manager.py">
<polygon fill="#ff0000" stroke="#ff0000" points="351,-52 237,-52 237,0 351,0 351,-52"/>
<text text-anchor="middle" x="294" y="-40" font-family="Arial" font-size="10.00" fill="#ffffff">manager:78:&lt;lambda&gt;</text>
<text text-anchor="middle" x="294" y="-29" font-family="Arial" font-size="10.00" fill="#ffffff">99.99%</text>
<text text-anchor="middle" x="294" y="-18" font-family="Arial" font-size="10.00" fill="#ffffff">(0.00%)</text>
<text text-anchor="middle" x="294" y="-7" font-family="Arial" font-size="10.00" fill="#ffffff">56×</text>
</a>
</g>
</g>
<!-- 322&#45;&gt;110 -->
<g id="edge9" class="edge">
<title>322&#45;&gt;110</title>
<path fill="none" stroke="#ff0000" stroke-width="4" d="M323.07,-52.35C338.78,-68.93 355,-92.08 355,-117 355,-395 355,-395 355,-395 355,-412.94 355,-432.9 355,-449.45"/>
<polygon fill="#ff0000" stroke="#ff0000" stroke-width="4" points="351.5,-449.78 355,-459.78 358.5,-449.78 351.5,-449.78"/>
<text text-anchor="middle" x="372" y="-259" font-family="Arial" font-size="10.00" fill="#ff0000">99.99%</text>
<text text-anchor="middle" x="372" y="-248" font-family="Arial" font-size="10.00" fill="#ff0000">12×</text>
</g>
<!-- 523 -->
<g id="node15" class="node">
<title>523</title>
<g id="a_node15"><a xlink:title="/opt/anaconda/lib/python3.7/site&#45;packages/pluggy/manager.py">
<polygon fill="#ff0000" stroke="#ff0000" points="310,-144 192,-144 192,-92 310,-92 310,-144"/>
<text text-anchor="middle" x="251" y="-132" font-family="Arial" font-size="10.00" fill="#ffffff">manager:84:_hookexec</text>
<text text-anchor="middle" x="251" y="-121" font-family="Arial" font-size="10.00" fill="#ffffff">99.99%</text>
<text text-anchor="middle" x="251" y="-110" font-family="Arial" font-size="10.00" fill="#ffffff">(0.00%)</text>
<text text-anchor="middle" x="251" y="-99" font-family="Arial" font-size="10.00" fill="#ffffff">56×</text>
</a>
</g>
</g>
<!-- 332&#45;&gt;523 -->
<g id="edge10" class="edge">
<title>332&#45;&gt;523</title>
<path fill="none" stroke="#ff0000" stroke-width="4" d="M194.01,-183.93C202.75,-173.97 212.93,-162.37 222.24,-151.76"/>
<polygon fill="#ff0000" stroke="#ff0000" stroke-width="4" points="224.87,-154.07 228.84,-144.25 219.61,-149.45 224.87,-154.07"/>
<text text-anchor="middle" x="237" y="-167" font-family="Arial" font-size="10.00" fill="#ff0000">99.99%</text>
<text text-anchor="middle" x="237" y="-156" font-family="Arial" font-size="10.00" fill="#ff0000">12×</text>
</g>
<!-- 523&#45;&gt;322 -->
<g id="edge18" class="edge">
<title>523&#45;&gt;322</title>
<path fill="none" stroke="#ff0000" stroke-width="4" d="M262.98,-91.93C267.51,-82.45 272.74,-71.5 277.6,-61.32"/>
<polygon fill="#ff0000" stroke="#ff0000" stroke-width="4" points="280.78,-62.78 281.94,-52.25 274.47,-59.76 280.78,-62.78"/>
<text text-anchor="middle" x="294" y="-75" font-family="Arial" font-size="10.00" fill="#ff0000">99.99%</text>
<text text-anchor="middle" x="294" y="-64" font-family="Arial" font-size="10.00" fill="#ff0000">12×</text>
</g>
<!-- 380&#45;&gt;64 -->
<g id="edge11" class="edge">
<title>380&#45;&gt;64</title>
<path fill="none" stroke="#ff0300" stroke-width="3.99" d="M443,-275.93C443,-266.74 443,-256.17 443,-246.25"/>
<polygon fill="#ff0300" stroke="#ff0300" stroke-width="3.99" points="446.5,-246.25 443,-236.25 439.5,-246.25 446.5,-246.25"/>
<text text-anchor="middle" x="460" y="-259" font-family="Arial" font-size="10.00" fill="#ff0300">99.70%</text>
<text text-anchor="middle" x="460" y="-248" font-family="Arial" font-size="10.00" fill="#ff0300">1×</text>
</g>
<!-- 477 -->
<g id="node17" class="node">
<title>477</title>
<g id="a_node17"><a xlink:title="/opt/anaconda/lib/python3.7/site&#45;packages/_pytest/runner.py">
<polygon fill="#ff0000" stroke="#ff0000" points="195,-788 33,-788 33,-736 195,-736 195,-788"/>
<text text-anchor="middle" x="114" y="-776" font-family="Arial" font-size="10.00" fill="#ffffff">runner:79:pytest_runtest_protocol</text>
<text text-anchor="middle" x="114" y="-765" font-family="Arial" font-size="10.00" fill="#ffffff">100.00%</text>
<text text-anchor="middle" x="114" y="-754" font-family="Arial" font-size="10.00" fill="#ffffff">(0.00%)</text>
<text text-anchor="middle" x="114" y="-743" font-family="Arial" font-size="10.00" fill="#ffffff">1×</text>
</a>
</g>
</g>
<!-- 477&#45;&gt;162 -->
<g id="edge14" class="edge">
<title>477&#45;&gt;162</title>
<path fill="none" stroke="#ff0000" stroke-width="4" d="M114,-735.93C114,-726.74 114,-716.17 114,-706.25"/>
<polygon fill="#ff0000" stroke="#ff0000" stroke-width="4" points="117.5,-706.25 114,-696.25 110.5,-706.25 117.5,-706.25"/>
<text text-anchor="middle" x="131" y="-719" font-family="Arial" font-size="10.00" fill="#ff0000">99.99%</text>
<text text-anchor="middle" x="131" y="-708" font-family="Arial" font-size="10.00" fill="#ff0000">1×</text>
</g>
</g>
</svg>
