<?xml version="1.0" encoding="UTF-8" standalone="no"?>
<!DOCTYPE svg PUBLIC "-//W3C//DTD SVG 1.1//EN"
 "http://www.w3.org/Graphics/SVG/1.1/DTD/svg11.dtd">
<!-- Generated by graphviz version 2.42.3 (20191010.1750)
 -->
<!-- Title: llama.files.coinc_significance.subthreshold.RctSlkLmaCoincSignificanceSubthresholdI3Lvc Pages: 1 -->
<svg width="1558pt" height="449pt"
 viewBox="0.00 0.00 1558.00 448.50" xmlns="http://www.w3.org/2000/svg" xmlns:xlink="http://www.w3.org/1999/xlink">
<g id="graph0" class="graph" transform="scale(1 1) rotate(0) translate(4 444.5)">
<title>llama.files.coinc_significance.subthreshold.RctSlkLmaCoincSignificanceSubthresholdI3Lvc</title>
<polygon fill="transparent" stroke="transparent" points="-4,4 -4,-444.5 1554,-444.5 1554,4 -4,4"/>
<!-- llama.files.coinc_significance.subthreshold.CoincSignificanceSubthresholdI3Lvc -->
<g id="node1" class="node">
<title>llama.files.coinc_significance.subthreshold.CoincSignificanceSubthresholdI3Lvc</title>
<g id="a_node1"><a xlink:href="/llama.files.coinc_significance.subthreshold.html#llama.files.coinc_significance.subthreshold.CoincSignificanceSubthresholdI3Lvc" xlink:title="{{&lt;B&gt;CoincSignificanceSubthresholdI3Lvc&lt;/B&gt;|&lt;I&gt;significance_subthresh_lvc&#45;i3.json&lt;/I&gt;|JSONFile}}" target="_top">
<polygon fill="#cccccc" stroke="black" points="803,-225.5 803,-294.5 1115,-294.5 1115,-225.5 803,-225.5"/>
<text text-anchor="start" x="811" y="-280.3" font-family="Times,serif" font-weight="bold" font-size="14.00">CoincSignificanceSubthresholdI3Lvc</text>
<polyline fill="none" stroke="black" points="803,-271.5 1115,-271.5 "/>
<text text-anchor="start" x="835.5" y="-257.3" font-family="Times,serif" font-style="italic" font-size="14.00">significance_subthresh_lvc&#45;i3.json</text>
<polyline fill="none" stroke="black" points="803,-248.5 1115,-248.5 "/>
<text text-anchor="start" x="925" y="-233.3" font-family="Times,serif" font-size="14.00">JSONFile</text>
</a>
</g>
</g>
<!-- llama.files.coinc_significance.subthreshold.RctSlkLmaCoincSignificanceSubthresholdI3Lvc -->
<g id="node2" class="node">
<title>llama.files.coinc_significance.subthreshold.RctSlkLmaCoincSignificanceSubthresholdI3Lvc</title>
<g id="a_node2"><a xlink:href="/llama.files.coinc_significance.subthreshold.html#llama.files.coinc_significance.subthreshold.RctSlkLmaCoincSignificanceSubthresholdI3Lvc" xlink:title="{{&lt;B&gt;RctSlkLmaCoincSignificanceSubthresholdI3Lvc&lt;/B&gt;|&lt;I&gt;rct_slk_lma_significance_subthresh_lvc&#45;i3.json.json&lt;/I&gt;|SlackReceiptLlama}}" target="_top">
<polygon fill="#cccccc" stroke="black" points="1151,-331.5 1151,-400.5 1550,-400.5 1550,-331.5 1151,-331.5"/>
<text text-anchor="start" x="1159" y="-386.3" font-family="Times,serif" font-weight="bold" font-size="14.00">RctSlkLmaCoincSignificanceSubthresholdI3Lvc</text>
<polyline fill="none" stroke="black" points="1151,-377.5 1550,-377.5 "/>
<text text-anchor="start" x="1165" y="-363.3" font-family="Times,serif" font-style="italic" font-size="14.00">rct_slk_lma_significance_subthresh_lvc&#45;i3.json.json</text>
<polyline fill="none" stroke="black" points="1151,-354.5 1550,-354.5 "/>
<text text-anchor="start" x="1281" y="-339.3" font-family="Times,serif" font-size="14.00">SlackReceiptLlama</text>
</a>
</g>
</g>
<!-- llama.files.coinc_significance.subthreshold.CoincSignificanceSubthresholdI3Lvc&#45;&gt;llama.files.coinc_significance.subthreshold.RctSlkLmaCoincSignificanceSubthresholdI3Lvc -->
<g id="edge1" class="edge">
<title>llama.files.coinc_significance.subthreshold.CoincSignificanceSubthresholdI3Lvc&#45;&gt;llama.files.coinc_significance.subthreshold.RctSlkLmaCoincSignificanceSubthresholdI3Lvc</title>
<path fill="none" stroke="red" d="M1011,-294.68C1011,-318.75 1011,-346.5 1011,-346.5 1011,-346.5 1140.56,-346.5 1140.56,-346.5"/>
<polygon fill="red" stroke="red" points="1140.56,-350 1150.56,-346.5 1140.56,-343 1140.56,-350"/>
</g>
<!-- llama.files.gracedb.LVCGraceDbEventData -->
<g id="node3" class="node">
<title>llama.files.gracedb.LVCGraceDbEventData</title>
<g id="a_node3"><a xlink:href="/llama.files.gracedb.html#llama.files.gracedb.LVCGraceDbEventData" xlink:title="{{&lt;B&gt;LVCGraceDbEventData&lt;/B&gt;|&lt;I&gt;lvc_gracedb_event_data.json&lt;/I&gt;|JSONFile&lt;BR/&gt;OnlineVetoMixin}}" target="_top">
<polygon fill="#cccccc" stroke="black" points="541.5,-253 541.5,-337 765.5,-337 765.5,-253 541.5,-253"/>
<text text-anchor="start" x="563" y="-322.8" font-family="Times,serif" font-weight="bold" font-size="14.00">LVCGraceDbEventData</text>
<polyline fill="none" stroke="black" points="541.5,-314 765.5,-314 "/>
<text text-anchor="start" x="549.5" y="-299.8" font-family="Times,serif" font-style="italic" font-size="14.00">lvc_gracedb_event_data.json</text>
<polyline fill="none" stroke="black" points="541.5,-291 765.5,-291 "/>
<text text-anchor="start" x="619.5" y="-275.8" font-family="Times,serif" font-size="14.00">JSONFile</text>
<text text-anchor="start" x="593.5" y="-260.8" font-family="Times,serif" font-size="14.00">OnlineVetoMixin</text>
</a>
</g>
</g>
<!-- llama.files.gracedb.LVCGraceDbEventData&#45;&gt;llama.files.coinc_significance.subthreshold.CoincSignificanceSubthresholdI3Lvc -->
<g id="edge2" class="edge">
<title>llama.files.gracedb.LVCGraceDbEventData&#45;&gt;llama.files.coinc_significance.subthreshold.CoincSignificanceSubthresholdI3Lvc</title>
<path fill="none" stroke="red" d="M765.52,-273.75C765.52,-273.75 792.83,-273.75 792.83,-273.75"/>
<polygon fill="red" stroke="red" points="792.83,-277.25 802.83,-273.75 792.83,-270.25 792.83,-277.25"/>
</g>
<!-- llama.files.gracedb.PAstro -->
<g id="node4" class="node">
<title>llama.files.gracedb.PAstro</title>
<g id="a_node4"><a xlink:href="/llama.files.gracedb.html#llama.files.gracedb.PAstro" xlink:title="{{&lt;B&gt;PAstro&lt;/B&gt;|&lt;I&gt;p_astro.json&lt;/I&gt;|GraceDBPollingFileHandler&lt;BR/&gt;JSONFile}}" target="_top">
<polygon fill="#cccccc" stroke="black" points="270,-247 270,-331 485,-331 485,-247 270,-247"/>
<text text-anchor="start" x="350.5" y="-316.8" font-family="Times,serif" font-weight="bold" font-size="14.00">PAstro</text>
<polyline fill="none" stroke="black" points="270,-308 485,-308 "/>
<text text-anchor="start" x="333.5" y="-293.8" font-family="Times,serif" font-style="italic" font-size="14.00">p_astro.json</text>
<polyline fill="none" stroke="black" points="270,-285 485,-285 "/>
<text text-anchor="start" x="278" y="-269.8" font-family="Times,serif" font-size="14.00">GraceDBPollingFileHandler</text>
<text text-anchor="start" x="343.5" y="-254.8" font-family="Times,serif" font-size="14.00">JSONFile</text>
</a>
</g>
</g>
<!-- llama.files.gracedb.PAstro&#45;&gt;llama.files.coinc_significance.subthreshold.CoincSignificanceSubthresholdI3Lvc -->
<g id="edge3" class="edge">
<title>llama.files.gracedb.PAstro&#45;&gt;llama.files.coinc_significance.subthreshold.CoincSignificanceSubthresholdI3Lvc</title>
<path fill="none" stroke="red" d="M412,-246.77C412,-244.72 412,-243.5 412,-243.5 412,-243.5 792.98,-243.5 792.98,-243.5"/>
<polygon fill="red" stroke="red" points="792.98,-247 802.98,-243.5 792.98,-240 792.98,-247"/>
</g>
<!-- llama.files.i3.json.IceCubeNeutrinoList -->
<g id="node5" class="node">
<title>llama.files.i3.json.IceCubeNeutrinoList</title>
<g id="a_node5"><a xlink:href="/llama.files.i3.json.html#llama.files.i3.json.IceCubeNeutrinoList" xlink:title="{{&lt;B&gt;IceCubeNeutrinoList&lt;/B&gt;|&lt;I&gt;icecube_neutrino_list.json&lt;/I&gt;|JSONFile&lt;BR/&gt;HEALPixPSF}}" target="_top">
<polygon fill="#cccccc" stroke="black" points="275.5,-144 275.5,-228 479.5,-228 479.5,-144 275.5,-144"/>
<text text-anchor="start" x="293.5" y="-213.8" font-family="Times,serif" font-weight="bold" font-size="14.00">IceCubeNeutrinoList</text>
<polyline fill="none" stroke="black" points="275.5,-205 479.5,-205 "/>
<text text-anchor="start" x="283.5" y="-190.8" font-family="Times,serif" font-style="italic" font-size="14.00">icecube_neutrino_list.json</text>
<polyline fill="none" stroke="black" points="275.5,-182 479.5,-182 "/>
<text text-anchor="start" x="343.5" y="-166.8" font-family="Times,serif" font-size="14.00">JSONFile</text>
<text text-anchor="start" x="329.5" y="-151.8" font-family="Times,serif" font-size="14.00">HEALPixPSF</text>
</a>
</g>
</g>
<!-- llama.files.i3.json.IceCubeNeutrinoList&#45;&gt;llama.files.coinc_significance.subthreshold.CoincSignificanceSubthresholdI3Lvc -->
<g id="edge4" class="edge">
<title>llama.files.i3.json.IceCubeNeutrinoList&#45;&gt;llama.files.coinc_significance.subthreshold.CoincSignificanceSubthresholdI3Lvc</title>
<path fill="none" stroke="red" d="M344,-228.05C344,-233.65 344,-237.5 344,-237.5 344,-237.5 792.62,-237.5 792.62,-237.5"/>
<polygon fill="red" stroke="red" points="792.62,-241 802.62,-237.5 792.62,-234 792.62,-241"/>
</g>
<!-- llama.files.lvalert_json.LVAlertJSON -->
<g id="node6" class="node">
<title>llama.files.lvalert_json.LVAlertJSON</title>
<g id="a_node6"><a xlink:href="/llama.files.lvalert_json.html#llama.files.lvalert_json.LVAlertJSON" xlink:title="{{&lt;B&gt;LVAlertJSON&lt;/B&gt;|&lt;I&gt;lvalert.json&lt;/I&gt;|EventTriggeredFileHandler&lt;BR/&gt;JSONFile}}" target="_top">
<polygon fill="#cccccc" stroke="black" points="546,-356 546,-440 761,-440 761,-356 546,-356"/>
<text text-anchor="start" x="602.5" y="-425.8" font-family="Times,serif" font-weight="bold" font-size="14.00">LVAlertJSON</text>
<polyline fill="none" stroke="black" points="546,-417 761,-417 "/>
<text text-anchor="start" x="613" y="-402.8" font-family="Times,serif" font-style="italic" font-size="14.00">lvalert.json</text>
<polyline fill="none" stroke="black" points="546,-394 761,-394 "/>
<text text-anchor="start" x="554" y="-378.8" font-family="Times,serif" font-size="14.00">EventTriggeredFileHandler</text>
<text text-anchor="start" x="619.5" y="-363.8" font-family="Times,serif" font-size="14.00">JSONFile</text>
</a>
</g>
</g>
<!-- llama.files.lvalert_json.LVAlertJSON&#45;&gt;llama.files.coinc_significance.subthreshold.CoincSignificanceSubthresholdI3Lvc -->
<g id="edge5" class="edge">
<title>llama.files.lvalert_json.LVAlertJSON&#45;&gt;llama.files.coinc_significance.subthreshold.CoincSignificanceSubthresholdI3Lvc</title>
<path fill="none" stroke="red" d="M761.01,-378.25C830.1,-378.25 907,-378.25 907,-378.25 907,-378.25 907,-304.52 907,-304.52"/>
<polygon fill="red" stroke="red" points="910.5,-304.52 907,-294.52 903.5,-304.52 910.5,-304.52"/>
</g>
<!-- llama.files.lvc_skymap.LvcDistancesJson -->
<g id="node7" class="node">
<title>llama.files.lvc_skymap.LvcDistancesJson</title>
<g id="a_node7"><a xlink:href="/llama.files.lvc_skymap.html#llama.files.lvc_skymap.LvcDistancesJson" xlink:title="{{&lt;B&gt;LvcDistancesJson&lt;/B&gt;|&lt;I&gt;lvc_skymap_distances.json&lt;/I&gt;|JSONFile}}" target="_top">
<polygon fill="#cccccc" stroke="black" points="548.5,-88.5 548.5,-157.5 758.5,-157.5 758.5,-88.5 548.5,-88.5"/>
<text text-anchor="start" x="583" y="-143.3" font-family="Times,serif" font-weight="bold" font-size="14.00">LvcDistancesJson</text>
<polyline fill="none" stroke="black" points="548.5,-134.5 758.5,-134.5 "/>
<text text-anchor="start" x="556.5" y="-120.3" font-family="Times,serif" font-style="italic" font-size="14.00">lvc_skymap_distances.json</text>
<polyline fill="none" stroke="black" points="548.5,-111.5 758.5,-111.5 "/>
<text text-anchor="start" x="619.5" y="-96.3" font-family="Times,serif" font-size="14.00">JSONFile</text>
</a>
</g>
</g>
<!-- llama.files.lvc_skymap.LvcDistancesJson&#45;&gt;llama.files.coinc_significance.subthreshold.CoincSignificanceSubthresholdI3Lvc -->
<g id="edge6" class="edge">
<title>llama.files.lvc_skymap.LvcDistancesJson&#45;&gt;llama.files.coinc_significance.subthreshold.CoincSignificanceSubthresholdI3Lvc</title>
<path fill="none" stroke="red" d="M654,-157.67C654,-190.4 654,-234.5 654,-234.5 654,-234.5 792.93,-234.5 792.93,-234.5"/>
<polygon fill="red" stroke="red" points="792.93,-238 802.93,-234.5 792.93,-231 792.93,-238"/>
</g>
<!-- llama.files.lvc_skymap.LvcSkymapFits -->
<g id="node8" class="node">
<title>llama.files.lvc_skymap.LvcSkymapFits</title>
<g id="a_node8"><a xlink:href="/llama.files.lvc_skymap.html#llama.files.lvc_skymap.LvcSkymapFits" xlink:title="{{&lt;B&gt;LvcSkymapFits&lt;/B&gt;|&lt;I&gt;lvc_skymap.fits.gz&lt;/I&gt;|GenerateOnceMixin&lt;BR/&gt;LvcHEALPixSkyMapFileHandler&lt;BR/&gt;OnlineVetoMixin}}" target="_top">
<polygon fill="#cccccc" stroke="black" points="251,-25.5 251,-124.5 504,-124.5 504,-25.5 251,-25.5"/>
<text text-anchor="start" x="317.5" y="-110.3" font-family="Times,serif" font-weight="bold" font-size="14.00">LvcSkymapFits</text>
<polyline fill="none" stroke="black" points="251,-101.5 504,-101.5 "/>
<text text-anchor="start" x="311" y="-87.3" font-family="Times,serif" font-style="italic" font-size="14.00">lvc_skymap.fits.gz</text>
<polyline fill="none" stroke="black" points="251,-78.5 504,-78.5 "/>
<text text-anchor="start" x="305" y="-63.3" font-family="Times,serif" font-size="14.00">GenerateOnceMixin</text>
<text text-anchor="start" x="259" y="-48.3" font-family="Times,serif" font-size="14.00">LvcHEALPixSkyMapFileHandler</text>
<text text-anchor="start" x="317.5" y="-33.3" font-family="Times,serif" font-size="14.00">OnlineVetoMixin</text>
</a>
</g>
</g>
<!-- llama.files.lvc_skymap.LvcSkymapFits&#45;&gt;llama.files.lvc_skymap.LvcDistancesJson -->
<g id="edge7" class="edge">
<title>llama.files.lvc_skymap.LvcSkymapFits&#45;&gt;llama.files.lvc_skymap.LvcDistancesJson</title>
<path fill="none" stroke="red" d="M504.19,-106.5C504.19,-106.5 538.25,-106.5 538.25,-106.5"/>
<polygon fill="red" stroke="red" points="538.25,-110 548.25,-106.5 538.25,-103 538.25,-110"/>
</g>
<!-- llama.files.lvc_skymap.LvcSkymapHdf5 -->
<g id="node9" class="node">
<title>llama.files.lvc_skymap.LvcSkymapHdf5</title>
<g id="a_node9"><a xlink:href="/llama.files.lvc_skymap.html#llama.files.lvc_skymap.LvcSkymapHdf5" xlink:title="{{&lt;B&gt;LvcSkymapHdf5&lt;/B&gt;|&lt;I&gt;lvc_skymap.hdf5&lt;/I&gt;|HEALPixSkyMapFileHandler}}" target="_top">
<polygon fill="#cccccc" stroke="black" points="540,-0.5 540,-69.5 767,-69.5 767,-0.5 540,-0.5"/>
<text text-anchor="start" x="589" y="-55.3" font-family="Times,serif" font-weight="bold" font-size="14.00">LvcSkymapHdf5</text>
<polyline fill="none" stroke="black" points="540,-46.5 767,-46.5 "/>
<text text-anchor="start" x="593" y="-32.3" font-family="Times,serif" font-style="italic" font-size="14.00">lvc_skymap.hdf5</text>
<polyline fill="none" stroke="black" points="540,-23.5 767,-23.5 "/>
<text text-anchor="start" x="548" y="-8.3" font-family="Times,serif" font-size="14.00">HEALPixSkyMapFileHandler</text>
</a>
</g>
</g>
<!-- llama.files.lvc_skymap.LvcSkymapFits&#45;&gt;llama.files.lvc_skymap.LvcSkymapHdf5 -->
<g id="edge8" class="edge">
<title>llama.files.lvc_skymap.LvcSkymapFits&#45;&gt;llama.files.lvc_skymap.LvcSkymapHdf5</title>
<path fill="none" stroke="red" d="M504.19,-47.5C504.19,-47.5 529.88,-47.5 529.88,-47.5"/>
<polygon fill="red" stroke="red" points="529.88,-51 539.88,-47.5 529.88,-44 529.88,-51"/>
</g>
<!-- llama.files.lvc_skymap.LvcSkymapHdf5&#45;&gt;llama.files.coinc_significance.subthreshold.CoincSignificanceSubthresholdI3Lvc -->
<g id="edge9" class="edge">
<title>llama.files.lvc_skymap.LvcSkymapHdf5&#45;&gt;llama.files.coinc_significance.subthreshold.CoincSignificanceSubthresholdI3Lvc</title>
<path fill="none" stroke="red" d="M762,-69.68C762,-126.09 762,-231.5 762,-231.5 762,-231.5 792.82,-231.5 792.82,-231.5"/>
<polygon fill="red" stroke="red" points="792.82,-235 802.82,-231.5 792.82,-228 792.82,-235"/>
</g>
<!-- llama.files.skymap_info.SkymapInfo -->
<g id="node10" class="node">
<title>llama.files.skymap_info.SkymapInfo</title>
<g id="a_node10"><a xlink:href="/llama.files.skymap_info.html#llama.files.skymap_info.SkymapInfo" xlink:title="{{&lt;B&gt;SkymapInfo&lt;/B&gt;|&lt;I&gt;skymap_info.json&lt;/I&gt;|EventTriggeredFileHandler&lt;BR/&gt;JSONFile}}" target="_top">
<polygon fill="#cccccc" stroke="black" points="0,-282 0,-366 215,-366 215,-282 0,-282"/>
<text text-anchor="start" x="59.5" y="-351.8" font-family="Times,serif" font-weight="bold" font-size="14.00">SkymapInfo</text>
<polyline fill="none" stroke="black" points="0,-343 215,-343 "/>
<text text-anchor="start" x="45.5" y="-328.8" font-family="Times,serif" font-style="italic" font-size="14.00">skymap_info.json</text>
<polyline fill="none" stroke="black" points="0,-320 215,-320 "/>
<text text-anchor="start" x="8" y="-304.8" font-family="Times,serif" font-size="14.00">EventTriggeredFileHandler</text>
<text text-anchor="start" x="73.5" y="-289.8" font-family="Times,serif" font-size="14.00">JSONFile</text>
</a>
</g>
</g>
<!-- llama.files.skymap_info.SkymapInfo&#45;&gt;llama.files.coinc_significance.subthreshold.CoincSignificanceSubthresholdI3Lvc -->
<g id="edge10" class="edge">
<title>llama.files.skymap_info.SkymapInfo&#45;&gt;llama.files.coinc_significance.subthreshold.CoincSignificanceSubthresholdI3Lvc</title>
<path fill="none" stroke="red" d="M144,-281.76C144,-261.05 144,-240.5 144,-240.5 144,-240.5 792.82,-240.5 792.82,-240.5"/>
<polygon fill="red" stroke="red" points="792.82,-244 802.82,-240.5 792.82,-237 792.82,-244"/>
</g>
<!-- llama.files.skymap_info.SkymapInfo&#45;&gt;llama.files.coinc_significance.subthreshold.RctSlkLmaCoincSignificanceSubthresholdI3Lvc -->
<g id="edge11" class="edge">
<title>llama.files.skymap_info.SkymapInfo&#45;&gt;llama.files.coinc_significance.subthreshold.RctSlkLmaCoincSignificanceSubthresholdI3Lvc</title>
<path fill="none" stroke="red" d="M215.09,-351C215.09,-351 1140.81,-351 1140.81,-351"/>
<polygon fill="red" stroke="red" points="1140.81,-354.5 1150.81,-351 1140.81,-347.5 1140.81,-354.5"/>
</g>
<!-- llama.files.skymap_info.SkymapInfo&#45;&gt;llama.files.gracedb.LVCGraceDbEventData -->
<g id="edge12" class="edge">
<title>llama.files.skymap_info.SkymapInfo&#45;&gt;llama.files.gracedb.LVCGraceDbEventData</title>
<path fill="none" stroke="red" d="M215.14,-342C374.36,-342 654,-342 654,-342 654,-342 654,-341.53 654,-341.53"/>
<polygon fill="red" stroke="red" points="657.5,-347.32 654,-337.32 650.5,-347.32 657.5,-347.32"/>
</g>
<!-- llama.files.skymap_info.SkymapInfo&#45;&gt;llama.files.gracedb.PAstro -->
<g id="edge13" class="edge">
<title>llama.files.skymap_info.SkymapInfo&#45;&gt;llama.files.gracedb.PAstro</title>
<path fill="none" stroke="red" d="M215.38,-314.83C215.38,-314.83 259.8,-314.83 259.8,-314.83"/>
<polygon fill="red" stroke="red" points="259.8,-318.33 269.8,-314.83 259.8,-311.33 259.8,-318.33"/>
</g>
<!-- llama.files.skymap_info.SkymapInfo&#45;&gt;llama.files.i3.json.IceCubeNeutrinoList -->
<g id="edge14" class="edge">
<title>llama.files.skymap_info.SkymapInfo&#45;&gt;llama.files.i3.json.IceCubeNeutrinoList</title>
<path fill="none" stroke="red" d="M72,-281.85C72,-241.26 72,-186 72,-186 72,-186 265.35,-186 265.35,-186"/>
<polygon fill="red" stroke="red" points="265.35,-189.5 275.35,-186 265.35,-182.5 265.35,-189.5"/>
</g>
<!-- llama.files.skymap_info.SkymapInfo&#45;&gt;llama.files.lvc_skymap.LvcSkymapFits -->
<g id="edge15" class="edge">
<title>llama.files.skymap_info.SkymapInfo&#45;&gt;llama.files.lvc_skymap.LvcSkymapFits</title>
<path fill="none" stroke="red" d="M215.36,-298.17C240.96,-298.17 261,-298.17 261,-298.17 261,-298.17 261,-134.53 261,-134.53"/>
<polygon fill="red" stroke="red" points="264.5,-134.53 261,-124.53 257.5,-134.53 264.5,-134.53"/>
</g>
</g>
</svg>
