<?xml version="1.0" encoding="UTF-8" standalone="no"?>
<!DOCTYPE svg PUBLIC "-//W3C//DTD SVG 1.1//EN"
 "http://www.w3.org/Graphics/SVG/1.1/DTD/svg11.dtd">
<!-- Generated by graphviz version 2.42.3 (20191010.1750)
 -->
<!-- Title: llama.files.gcn_draft_o2.I3LvcGcnDraft Pages: 1 -->
<svg width="2080pt" height="588pt"
 viewBox="0.00 0.00 2080.00 587.50" xmlns="http://www.w3.org/2000/svg" xmlns:xlink="http://www.w3.org/1999/xlink">
<g id="graph0" class="graph" transform="scale(1 1) rotate(0) translate(4 583.5)">
<title>llama.files.gcn_draft_o2.I3LvcGcnDraft</title>
<polygon fill="transparent" stroke="transparent" points="-4,4 -4,-583.5 2076,-583.5 2076,4 -4,4"/>
<!-- llama.files.coinc_o2.CoincAnalysisInitialIcecubeJson -->
<g id="node1" class="node">
<title>llama.files.coinc_o2.CoincAnalysisInitialIcecubeJson</title>
<g id="a_node1"><a xlink:href="/llama.files.coinc_o2.html#llama.files.coinc_o2.CoincAnalysisInitialIcecubeJson" xlink:title="{{&lt;B&gt;CoincAnalysisInitialIcecubeJson&lt;/B&gt;|&lt;I&gt;coinc_analysis_initial_icecube.json&lt;/I&gt;|CoincAnalysis&lt;BR/&gt;JSONFile}}" target="_top">
<polygon fill="#cccccc" stroke="black" points="803,-495 803,-579 1078,-579 1078,-495 803,-495"/>
<text text-anchor="start" x="811" y="-564.8" font-family="Times,serif" font-weight="bold" font-size="14.00">CoincAnalysisInitialIcecubeJson</text>
<polyline fill="none" stroke="black" points="803,-556 1078,-556 "/>
<text text-anchor="start" x="815.5" y="-541.8" font-family="Times,serif" font-style="italic" font-size="14.00">coinc_analysis_initial_icecube.json</text>
<polyline fill="none" stroke="black" points="803,-533 1078,-533 "/>
<text text-anchor="start" x="889.5" y="-517.8" font-family="Times,serif" font-size="14.00">CoincAnalysis</text>
<text text-anchor="start" x="906.5" y="-502.8" font-family="Times,serif" font-size="14.00">JSONFile</text>
</a>
</g>
</g>
<!-- llama.files.gcn_draft_o2.I3LvcGcnDraft -->
<g id="node6" class="node">
<title>llama.files.gcn_draft_o2.I3LvcGcnDraft</title>
<g id="a_node6"><a xlink:href="/llama.files.gcn_draft_o2.html#llama.files.gcn_draft_o2.I3LvcGcnDraft" xlink:title="{{&lt;B&gt;I3LvcGcnDraft&lt;/B&gt;|&lt;I&gt;gwhen_coinc_icecube_gcn_circular_draft.txt&lt;/I&gt;|GenerateOnceMixin&lt;BR/&gt;FileHandler}}" target="_top">
<polygon fill="#cccccc" stroke="black" points="1734,-235 1734,-319 2072,-319 2072,-235 1734,-235"/>
<text text-anchor="start" x="1844.5" y="-304.8" font-family="Times,serif" font-weight="bold" font-size="14.00">I3LvcGcnDraft</text>
<polyline fill="none" stroke="black" points="1734,-296 2072,-296 "/>
<text text-anchor="start" x="1742" y="-281.8" font-family="Times,serif" font-style="italic" font-size="14.00">gwhen_coinc_icecube_gcn_circular_draft.txt</text>
<polyline fill="none" stroke="black" points="1734,-273 2072,-273 "/>
<text text-anchor="start" x="1830.5" y="-257.8" font-family="Times,serif" font-size="14.00">GenerateOnceMixin</text>
<text text-anchor="start" x="1860" y="-242.8" font-family="Times,serif" font-size="14.00">FileHandler</text>
</a>
</g>
</g>
<!-- llama.files.coinc_o2.CoincAnalysisInitialIcecubeJson&#45;&gt;llama.files.gcn_draft_o2.I3LvcGcnDraft -->
<g id="edge1" class="edge">
<title>llama.files.coinc_o2.CoincAnalysisInitialIcecubeJson&#45;&gt;llama.files.gcn_draft_o2.I3LvcGcnDraft</title>
<path fill="none" stroke="red" d="M1063,-494.86C1063,-430.67 1063,-315.75 1063,-315.75 1063,-315.75 1723.77,-315.75 1723.77,-315.75"/>
<polygon fill="red" stroke="red" points="1723.77,-319.25 1733.77,-315.75 1723.77,-312.25 1723.77,-319.25"/>
</g>
<!-- llama.files.coinc_o2.CoincSkymapO2Large -->
<g id="node2" class="node">
<title>llama.files.coinc_o2.CoincSkymapO2Large</title>
<g id="a_node2"><a xlink:href="/llama.files.coinc_o2.html#llama.files.coinc_o2.CoincSkymapO2Large" xlink:title="{{&lt;B&gt;CoincSkymapO2Large&lt;/B&gt;|&lt;I&gt;coinc_o2.png&lt;/I&gt;|CoincSkymapInitialIcecube}}" target="_top">
<polygon fill="#cccccc" stroke="black" points="1134,-368.5 1134,-437.5 1349,-437.5 1349,-368.5 1134,-368.5"/>
<text text-anchor="start" x="1153.5" y="-423.3" font-family="Times,serif" font-weight="bold" font-size="14.00">CoincSkymapO2Large</text>
<polyline fill="none" stroke="black" points="1134,-414.5 1349,-414.5 "/>
<text text-anchor="start" x="1194" y="-400.3" font-family="Times,serif" font-style="italic" font-size="14.00">coinc_o2.png</text>
<polyline fill="none" stroke="black" points="1134,-391.5 1349,-391.5 "/>
<text text-anchor="start" x="1142" y="-376.3" font-family="Times,serif" font-size="14.00">CoincSkymapInitialIcecube</text>
</a>
</g>
</g>
<!-- llama.files.coinc_o2.RctGdbCoincSkymapO2Large -->
<g id="node4" class="node">
<title>llama.files.coinc_o2.RctGdbCoincSkymapO2Large</title>
<g id="a_node4"><a xlink:href="/llama.files.coinc_o2.html#llama.files.coinc_o2.RctGdbCoincSkymapO2Large" xlink:title="{{&lt;B&gt;RctGdbCoincSkymapO2Large&lt;/B&gt;|&lt;I&gt;rct_gdb_coinc_o2.png.log&lt;/I&gt;|GraceDBReceipt}}" target="_top">
<polygon fill="#cccccc" stroke="black" points="1426,-368.5 1426,-437.5 1677,-437.5 1677,-368.5 1426,-368.5"/>
<text text-anchor="start" x="1434" y="-423.3" font-family="Times,serif" font-weight="bold" font-size="14.00">RctGdbCoincSkymapO2Large</text>
<polyline fill="none" stroke="black" points="1426,-414.5 1677,-414.5 "/>
<text text-anchor="start" x="1459.5" y="-400.3" font-family="Times,serif" font-style="italic" font-size="14.00">rct_gdb_coinc_o2.png.log</text>
<polyline fill="none" stroke="black" points="1426,-391.5 1677,-391.5 "/>
<text text-anchor="start" x="1491.5" y="-376.3" font-family="Times,serif" font-size="14.00">GraceDBReceipt</text>
</a>
</g>
</g>
<!-- llama.files.coinc_o2.CoincSkymapO2Large&#45;&gt;llama.files.coinc_o2.RctGdbCoincSkymapO2Large -->
<g id="edge2" class="edge">
<title>llama.files.coinc_o2.CoincSkymapO2Large&#45;&gt;llama.files.coinc_o2.RctGdbCoincSkymapO2Large</title>
<path fill="none" stroke="red" d="M1349.05,-403C1349.05,-403 1415.77,-403 1415.77,-403"/>
<polygon fill="red" stroke="red" points="1415.77,-406.5 1425.77,-403 1415.77,-399.5 1415.77,-406.5"/>
</g>
<!-- llama.files.coinc_o2.IceCubeNeutrinoListMat -->
<g id="node3" class="node">
<title>llama.files.coinc_o2.IceCubeNeutrinoListMat</title>
<g id="a_node3"><a xlink:href="/llama.files.coinc_o2.html#llama.files.coinc_o2.IceCubeNeutrinoListMat" xlink:title="{{&lt;B&gt;IceCubeNeutrinoListMat&lt;/B&gt;|&lt;I&gt;IceCubeNeutrinoList.mat&lt;/I&gt;|CoincAnalysis}}" target="_top">
<polygon fill="#cccccc" stroke="black" points="833,-368.5 833,-437.5 1048,-437.5 1048,-368.5 833,-368.5"/>
<text text-anchor="start" x="841" y="-423.3" font-family="Times,serif" font-weight="bold" font-size="14.00">IceCubeNeutrinoListMat</text>
<polyline fill="none" stroke="black" points="833,-414.5 1048,-414.5 "/>
<text text-anchor="start" x="848" y="-400.3" font-family="Times,serif" font-style="italic" font-size="14.00">IceCubeNeutrinoList.mat</text>
<polyline fill="none" stroke="black" points="833,-391.5 1048,-391.5 "/>
<text text-anchor="start" x="889.5" y="-376.3" font-family="Times,serif" font-size="14.00">CoincAnalysis</text>
</a>
</g>
</g>
<!-- llama.files.coinc_o2.IceCubeNeutrinoListMat&#45;&gt;llama.files.coinc_o2.CoincSkymapO2Large -->
<g id="edge3" class="edge">
<title>llama.files.coinc_o2.IceCubeNeutrinoListMat&#45;&gt;llama.files.coinc_o2.CoincSkymapO2Large</title>
<path fill="none" stroke="red" d="M1048.32,-403C1048.32,-403 1123.93,-403 1123.93,-403"/>
<polygon fill="red" stroke="red" points="1123.93,-406.5 1133.93,-403 1123.93,-399.5 1123.93,-406.5"/>
</g>
<!-- llama.files.coinc_o2.RctGdbCoincSkymapO2Large&#45;&gt;llama.files.gcn_draft_o2.I3LvcGcnDraft -->
<g id="edge4" class="edge">
<title>llama.files.coinc_o2.RctGdbCoincSkymapO2Large&#45;&gt;llama.files.gcn_draft_o2.I3LvcGcnDraft</title>
<path fill="none" stroke="red" d="M1552,-368.27C1552,-344.64 1552,-317.62 1552,-317.62 1552,-317.62 1723.93,-317.62 1723.93,-317.62"/>
<polygon fill="red" stroke="red" points="1723.93,-321.13 1733.93,-317.62 1723.93,-314.13 1723.93,-321.13"/>
</g>
<!-- llama.files.coinc_significance.opa.CoincSignificanceI3Lvc -->
<g id="node5" class="node">
<title>llama.files.coinc_significance.opa.CoincSignificanceI3Lvc</title>
<g id="a_node5"><a xlink:href="/llama.files.coinc_significance.opa.html#llama.files.coinc_significance.opa.CoincSignificanceI3Lvc" xlink:title="{{&lt;B&gt;CoincSignificanceI3Lvc&lt;/B&gt;|&lt;I&gt;significance_lvc&#45;i3.json&lt;/I&gt;|JSONFile}}" target="_top">
<polygon fill="#cccccc" stroke="black" points="838.5,-166.5 838.5,-235.5 1042.5,-235.5 1042.5,-166.5 838.5,-166.5"/>
<text text-anchor="start" x="846.5" y="-221.3" font-family="Times,serif" font-weight="bold" font-size="14.00">CoincSignificanceI3Lvc</text>
<polyline fill="none" stroke="black" points="838.5,-212.5 1042.5,-212.5 "/>
<text text-anchor="start" x="857" y="-198.3" font-family="Times,serif" font-style="italic" font-size="14.00">significance_lvc&#45;i3.json</text>
<polyline fill="none" stroke="black" points="838.5,-189.5 1042.5,-189.5 "/>
<text text-anchor="start" x="906.5" y="-174.3" font-family="Times,serif" font-size="14.00">JSONFile</text>
</a>
</g>
</g>
<!-- llama.files.i3.txt.IceCubeNeutrinoListCoincTxt -->
<g id="node11" class="node">
<title>llama.files.i3.txt.IceCubeNeutrinoListCoincTxt</title>
<g id="a_node11"><a xlink:href="/llama.files.i3.txt.html#llama.files.i3.txt.IceCubeNeutrinoListCoincTxt" xlink:title="{{&lt;B&gt;IceCubeNeutrinoListCoincTxt&lt;/B&gt;|&lt;I&gt;icecube_neutrino_list_coinc.txt&lt;/I&gt;|FileHandler}}" target="_top">
<polygon fill="#cccccc" stroke="black" points="1114,-172.5 1114,-241.5 1369,-241.5 1369,-172.5 1114,-172.5"/>
<text text-anchor="start" x="1122" y="-227.3" font-family="Times,serif" font-weight="bold" font-size="14.00">IceCubeNeutrinoListCoincTxt</text>
<polyline fill="none" stroke="black" points="1114,-218.5 1369,-218.5 "/>
<text text-anchor="start" x="1129" y="-204.3" font-family="Times,serif" font-style="italic" font-size="14.00">icecube_neutrino_list_coinc.txt</text>
<polyline fill="none" stroke="black" points="1114,-195.5 1369,-195.5 "/>
<text text-anchor="start" x="1198.5" y="-180.3" font-family="Times,serif" font-size="14.00">FileHandler</text>
</a>
</g>
</g>
<!-- llama.files.coinc_significance.opa.CoincSignificanceI3Lvc&#45;&gt;llama.files.i3.txt.IceCubeNeutrinoListCoincTxt -->
<g id="edge5" class="edge">
<title>llama.files.coinc_significance.opa.CoincSignificanceI3Lvc&#45;&gt;llama.files.i3.txt.IceCubeNeutrinoListCoincTxt</title>
<path fill="none" stroke="red" d="M1042.82,-204C1042.82,-204 1103.87,-204 1103.87,-204"/>
<polygon fill="red" stroke="red" points="1103.87,-207.5 1113.87,-204 1103.87,-200.5 1103.87,-207.5"/>
</g>
<!-- llama.files.gracedb.LVCGraceDbEventData -->
<g id="node7" class="node">
<title>llama.files.gracedb.LVCGraceDbEventData</title>
<g id="a_node7"><a xlink:href="/llama.files.gracedb.html#llama.files.gracedb.LVCGraceDbEventData" xlink:title="{{&lt;B&gt;LVCGraceDbEventData&lt;/B&gt;|&lt;I&gt;lvc_gracedb_event_data.json&lt;/I&gt;|JSONFile&lt;BR/&gt;OnlineVetoMixin}}" target="_top">
<polygon fill="#cccccc" stroke="black" points="265.5,-260 265.5,-344 489.5,-344 489.5,-260 265.5,-260"/>
<text text-anchor="start" x="287" y="-329.8" font-family="Times,serif" font-weight="bold" font-size="14.00">LVCGraceDbEventData</text>
<polyline fill="none" stroke="black" points="265.5,-321 489.5,-321 "/>
<text text-anchor="start" x="273.5" y="-306.8" font-family="Times,serif" font-style="italic" font-size="14.00">lvc_gracedb_event_data.json</text>
<polyline fill="none" stroke="black" points="265.5,-298 489.5,-298 "/>
<text text-anchor="start" x="343.5" y="-282.8" font-family="Times,serif" font-size="14.00">JSONFile</text>
<text text-anchor="start" x="317.5" y="-267.8" font-family="Times,serif" font-size="14.00">OnlineVetoMixin</text>
</a>
</g>
</g>
<!-- llama.files.gracedb.LVCGraceDbEventData&#45;&gt;llama.files.coinc_significance.opa.CoincSignificanceI3Lvc -->
<g id="edge6" class="edge">
<title>llama.files.gracedb.LVCGraceDbEventData&#45;&gt;llama.files.coinc_significance.opa.CoincSignificanceI3Lvc</title>
<path fill="none" stroke="red" d="M489.66,-278.5C659.15,-278.5 961,-278.5 961,-278.5 961,-278.5 961,-245.67 961,-245.67"/>
<polygon fill="red" stroke="red" points="964.5,-245.67 961,-235.67 957.5,-245.67 964.5,-245.67"/>
</g>
<!-- llama.files.gracedb.PAstro -->
<g id="node8" class="node">
<title>llama.files.gracedb.PAstro</title>
<g id="a_node8"><a xlink:href="/llama.files.gracedb.html#llama.files.gracedb.PAstro" xlink:title="{{&lt;B&gt;PAstro&lt;/B&gt;|&lt;I&gt;p_astro.json&lt;/I&gt;|GraceDBPollingFileHandler&lt;BR/&gt;JSONFile}}" target="_top">
<polygon fill="#cccccc" stroke="black" points="270,-157 270,-241 485,-241 485,-157 270,-157"/>
<text text-anchor="start" x="350.5" y="-226.8" font-family="Times,serif" font-weight="bold" font-size="14.00">PAstro</text>
<polyline fill="none" stroke="black" points="270,-218 485,-218 "/>
<text text-anchor="start" x="333.5" y="-203.8" font-family="Times,serif" font-style="italic" font-size="14.00">p_astro.json</text>
<polyline fill="none" stroke="black" points="270,-195 485,-195 "/>
<text text-anchor="start" x="278" y="-179.8" font-family="Times,serif" font-size="14.00">GraceDBPollingFileHandler</text>
<text text-anchor="start" x="343.5" y="-164.8" font-family="Times,serif" font-size="14.00">JSONFile</text>
</a>
</g>
</g>
<!-- llama.files.gracedb.PAstro&#45;&gt;llama.files.coinc_significance.opa.CoincSignificanceI3Lvc -->
<g id="edge7" class="edge">
<title>llama.files.gracedb.PAstro&#45;&gt;llama.files.coinc_significance.opa.CoincSignificanceI3Lvc</title>
<path fill="none" stroke="red" d="M485.05,-212.67C485.05,-212.67 828.07,-212.67 828.07,-212.67"/>
<polygon fill="red" stroke="red" points="828.07,-216.17 838.07,-212.67 828.07,-209.17 828.07,-216.17"/>
</g>
<!-- llama.files.i3.json.IceCubeNeutrinoList -->
<g id="node9" class="node">
<title>llama.files.i3.json.IceCubeNeutrinoList</title>
<g id="a_node9"><a xlink:href="/llama.files.i3.json.html#llama.files.i3.json.IceCubeNeutrinoList" xlink:title="{{&lt;B&gt;IceCubeNeutrinoList&lt;/B&gt;|&lt;I&gt;icecube_neutrino_list.json&lt;/I&gt;|JSONFile&lt;BR/&gt;HEALPixPSF}}" target="_top">
<polygon fill="#cccccc" stroke="black" points="551.5,-298 551.5,-382 755.5,-382 755.5,-298 551.5,-298"/>
<text text-anchor="start" x="569.5" y="-367.8" font-family="Times,serif" font-weight="bold" font-size="14.00">IceCubeNeutrinoList</text>
<polyline fill="none" stroke="black" points="551.5,-359 755.5,-359 "/>
<text text-anchor="start" x="559.5" y="-344.8" font-family="Times,serif" font-style="italic" font-size="14.00">icecube_neutrino_list.json</text>
<polyline fill="none" stroke="black" points="551.5,-336 755.5,-336 "/>
<text text-anchor="start" x="619.5" y="-320.8" font-family="Times,serif" font-size="14.00">JSONFile</text>
<text text-anchor="start" x="605.5" y="-305.8" font-family="Times,serif" font-size="14.00">HEALPixPSF</text>
</a>
</g>
</g>
<!-- llama.files.i3.json.IceCubeNeutrinoList&#45;&gt;llama.files.coinc_o2.CoincAnalysisInitialIcecubeJson -->
<g id="edge8" class="edge">
<title>llama.files.i3.json.IceCubeNeutrinoList&#45;&gt;llama.files.coinc_o2.CoincAnalysisInitialIcecubeJson</title>
<path fill="none" stroke="red" d="M755.87,-377.67C786.93,-377.67 813,-377.67 813,-377.67 813,-377.67 813,-484.72 813,-484.72"/>
<polygon fill="red" stroke="red" points="809.5,-484.72 813,-494.72 816.5,-484.72 809.5,-484.72"/>
</g>
<!-- llama.files.i3.json.IceCubeNeutrinoList&#45;&gt;llama.files.coinc_o2.IceCubeNeutrinoListMat -->
<g id="edge9" class="edge">
<title>llama.files.i3.json.IceCubeNeutrinoList&#45;&gt;llama.files.coinc_o2.IceCubeNeutrinoListMat</title>
<path fill="none" stroke="red" d="M755.9,-372.83C755.9,-372.83 822.8,-372.83 822.8,-372.83"/>
<polygon fill="red" stroke="red" points="822.8,-376.33 832.8,-372.83 822.8,-369.33 822.8,-376.33"/>
</g>
<!-- llama.files.i3.json.IceCubeNeutrinoList&#45;&gt;llama.files.coinc_significance.opa.CoincSignificanceI3Lvc -->
<g id="edge10" class="edge">
<title>llama.files.i3.json.IceCubeNeutrinoList&#45;&gt;llama.files.coinc_significance.opa.CoincSignificanceI3Lvc</title>
<path fill="none" stroke="red" d="M755.71,-301.12C858.54,-301.12 1002,-301.12 1002,-301.12 1002,-301.12 1002,-245.74 1002,-245.74"/>
<polygon fill="red" stroke="red" points="1005.5,-245.74 1002,-235.74 998.5,-245.74 1005.5,-245.74"/>
</g>
<!-- llama.files.i3.json.IceCubeNeutrinoList&#45;&gt;llama.files.gcn_draft_o2.I3LvcGcnDraft -->
<g id="edge11" class="edge">
<title>llama.files.i3.json.IceCubeNeutrinoList&#45;&gt;llama.files.gcn_draft_o2.I3LvcGcnDraft</title>
<path fill="none" stroke="red" d="M755.75,-313.88C755.75,-313.88 1723.77,-313.88 1723.77,-313.88"/>
<polygon fill="red" stroke="red" points="1723.77,-317.38 1733.77,-313.88 1723.77,-310.38 1723.77,-317.38"/>
</g>
<!-- llama.files.i3.json.RctGdbIceCubeNeutrinoList -->
<g id="node10" class="node">
<title>llama.files.i3.json.RctGdbIceCubeNeutrinoList</title>
<g id="a_node10"><a xlink:href="/llama.files.i3.json.html#llama.files.i3.json.RctGdbIceCubeNeutrinoList" xlink:title="{{&lt;B&gt;RctGdbIceCubeNeutrinoList&lt;/B&gt;|&lt;I&gt;rct_gdb_icecube_neutrino_list.json.log&lt;/I&gt;|GraceDBReceipt}}" target="_top">
<polygon fill="#cccccc" stroke="black" points="1405,-242.5 1405,-311.5 1698,-311.5 1698,-242.5 1405,-242.5"/>
<text text-anchor="start" x="1438" y="-297.3" font-family="Times,serif" font-weight="bold" font-size="14.00">RctGdbIceCubeNeutrinoList</text>
<polyline fill="none" stroke="black" points="1405,-288.5 1698,-288.5 "/>
<text text-anchor="start" x="1413" y="-274.3" font-family="Times,serif" font-style="italic" font-size="14.00">rct_gdb_icecube_neutrino_list.json.log</text>
<polyline fill="none" stroke="black" points="1405,-265.5 1698,-265.5 "/>
<text text-anchor="start" x="1491.5" y="-250.3" font-family="Times,serif" font-size="14.00">GraceDBReceipt</text>
</a>
</g>
</g>
<!-- llama.files.i3.json.IceCubeNeutrinoList&#45;&gt;llama.files.i3.json.RctGdbIceCubeNeutrinoList -->
<g id="edge12" class="edge">
<title>llama.files.i3.json.IceCubeNeutrinoList&#45;&gt;llama.files.i3.json.RctGdbIceCubeNeutrinoList</title>
<path fill="none" stroke="red" d="M755.64,-308.38C755.64,-308.38 1394.93,-308.38 1394.93,-308.38"/>
<polygon fill="red" stroke="red" points="1394.93,-311.88 1404.93,-308.38 1394.93,-304.88 1394.93,-311.88"/>
</g>
<!-- llama.files.i3.json.IceCubeNeutrinoList&#45;&gt;llama.files.i3.txt.IceCubeNeutrinoListCoincTxt -->
<g id="edge13" class="edge">
<title>llama.files.i3.json.IceCubeNeutrinoList&#45;&gt;llama.files.i3.txt.IceCubeNeutrinoListCoincTxt</title>
<path fill="none" stroke="red" d="M755.58,-304.75C895.04,-304.75 1128,-304.75 1128,-304.75 1128,-304.75 1128,-251.74 1128,-251.74"/>
<polygon fill="red" stroke="red" points="1131.5,-251.74 1128,-241.74 1124.5,-251.74 1131.5,-251.74"/>
</g>
<!-- llama.files.i3.json.RctGdbIceCubeNeutrinoList&#45;&gt;llama.files.gcn_draft_o2.I3LvcGcnDraft -->
<g id="edge14" class="edge">
<title>llama.files.i3.json.RctGdbIceCubeNeutrinoList&#45;&gt;llama.files.gcn_draft_o2.I3LvcGcnDraft</title>
<path fill="none" stroke="red" d="M1698.02,-277C1698.02,-277 1723.95,-277 1723.95,-277"/>
<polygon fill="red" stroke="red" points="1723.95,-280.5 1733.95,-277 1723.95,-273.5 1723.95,-280.5"/>
</g>
<!-- llama.files.i3.txt.IceCubeNeutrinoListCoincTxt&#45;&gt;llama.files.gcn_draft_o2.I3LvcGcnDraft -->
<g id="edge15" class="edge">
<title>llama.files.i3.txt.IceCubeNeutrinoListCoincTxt&#45;&gt;llama.files.gcn_draft_o2.I3LvcGcnDraft</title>
<path fill="none" stroke="red" d="M1369.04,-237C1369.04,-237 1723.91,-237 1723.91,-237"/>
<polygon fill="red" stroke="red" points="1723.91,-240.5 1733.91,-237 1723.91,-233.5 1723.91,-240.5"/>
</g>
<!-- llama.files.lvc_skymap.LvcDistancesJson -->
<g id="node12" class="node">
<title>llama.files.lvc_skymap.LvcDistancesJson</title>
<g id="a_node12"><a xlink:href="/llama.files.lvc_skymap.html#llama.files.lvc_skymap.LvcDistancesJson" xlink:title="{{&lt;B&gt;LvcDistancesJson&lt;/B&gt;|&lt;I&gt;lvc_skymap_distances.json&lt;/I&gt;|JSONFile}}" target="_top">
<polygon fill="#cccccc" stroke="black" points="548.5,-95.5 548.5,-164.5 758.5,-164.5 758.5,-95.5 548.5,-95.5"/>
<text text-anchor="start" x="583" y="-150.3" font-family="Times,serif" font-weight="bold" font-size="14.00">LvcDistancesJson</text>
<polyline fill="none" stroke="black" points="548.5,-141.5 758.5,-141.5 "/>
<text text-anchor="start" x="556.5" y="-127.3" font-family="Times,serif" font-style="italic" font-size="14.00">lvc_skymap_distances.json</text>
<polyline fill="none" stroke="black" points="548.5,-118.5 758.5,-118.5 "/>
<text text-anchor="start" x="619.5" y="-103.3" font-family="Times,serif" font-size="14.00">JSONFile</text>
</a>
</g>
</g>
<!-- llama.files.lvc_skymap.LvcDistancesJson&#45;&gt;llama.files.coinc_significance.opa.CoincSignificanceI3Lvc -->
<g id="edge16" class="edge">
<title>llama.files.lvc_skymap.LvcDistancesJson&#45;&gt;llama.files.coinc_significance.opa.CoincSignificanceI3Lvc</title>
<path fill="none" stroke="red" d="M758.51,-130C840.64,-130 941,-130 941,-130 941,-130 941,-156.33 941,-156.33"/>
<polygon fill="red" stroke="red" points="937.5,-156.33 941,-166.33 944.5,-156.33 937.5,-156.33"/>
</g>
<!-- llama.files.lvc_skymap.LvcSkymapFits -->
<g id="node13" class="node">
<title>llama.files.lvc_skymap.LvcSkymapFits</title>
<g id="a_node13"><a xlink:href="/llama.files.lvc_skymap.html#llama.files.lvc_skymap.LvcSkymapFits" xlink:title="{{&lt;B&gt;LvcSkymapFits&lt;/B&gt;|&lt;I&gt;lvc_skymap.fits.gz&lt;/I&gt;|GenerateOnceMixin&lt;BR/&gt;LvcHEALPixSkyMapFileHandler&lt;BR/&gt;OnlineVetoMixin}}" target="_top">
<polygon fill="#cccccc" stroke="black" points="251,-0.5 251,-99.5 504,-99.5 504,-0.5 251,-0.5"/>
<text text-anchor="start" x="317.5" y="-85.3" font-family="Times,serif" font-weight="bold" font-size="14.00">LvcSkymapFits</text>
<polyline fill="none" stroke="black" points="251,-76.5 504,-76.5 "/>
<text text-anchor="start" x="311" y="-62.3" font-family="Times,serif" font-style="italic" font-size="14.00">lvc_skymap.fits.gz</text>
<polyline fill="none" stroke="black" points="251,-53.5 504,-53.5 "/>
<text text-anchor="start" x="305" y="-38.3" font-family="Times,serif" font-size="14.00">GenerateOnceMixin</text>
<text text-anchor="start" x="259" y="-23.3" font-family="Times,serif" font-size="14.00">LvcHEALPixSkyMapFileHandler</text>
<text text-anchor="start" x="317.5" y="-8.3" font-family="Times,serif" font-size="14.00">OnlineVetoMixin</text>
</a>
</g>
</g>
<!-- llama.files.lvc_skymap.LvcSkymapFits&#45;&gt;llama.files.gcn_draft_o2.I3LvcGcnDraft -->
<g id="edge17" class="edge">
<title>llama.files.lvc_skymap.LvcSkymapFits&#45;&gt;llama.files.gcn_draft_o2.I3LvcGcnDraft</title>
<path fill="none" stroke="red" d="M504.04,-86C870.06,-86 1904,-86 1904,-86 1904,-86 1904,-224.61 1904,-224.61"/>
<polygon fill="red" stroke="red" points="1900.5,-224.61 1904,-234.61 1907.5,-224.61 1900.5,-224.61"/>
</g>
<!-- llama.files.lvc_skymap.LvcSkymapFits&#45;&gt;llama.files.lvc_skymap.LvcDistancesJson -->
<g id="edge18" class="edge">
<title>llama.files.lvc_skymap.LvcSkymapFits&#45;&gt;llama.files.lvc_skymap.LvcDistancesJson</title>
<path fill="none" stroke="red" d="M500,-99.56C500,-115.09 500,-128.25 500,-128.25 500,-128.25 538.15,-128.25 538.15,-128.25"/>
<polygon fill="red" stroke="red" points="538.15,-131.75 548.15,-128.25 538.15,-124.75 538.15,-131.75"/>
</g>
<!-- llama.files.lvc_skymap.LvcSkymapHdf5 -->
<g id="node14" class="node">
<title>llama.files.lvc_skymap.LvcSkymapHdf5</title>
<g id="a_node14"><a xlink:href="/llama.files.lvc_skymap.html#llama.files.lvc_skymap.LvcSkymapHdf5" xlink:title="{{&lt;B&gt;LvcSkymapHdf5&lt;/B&gt;|&lt;I&gt;lvc_skymap.hdf5&lt;/I&gt;|HEALPixSkyMapFileHandler}}" target="_top">
<polygon fill="#cccccc" stroke="black" points="540,-7.5 540,-76.5 767,-76.5 767,-7.5 540,-7.5"/>
<text text-anchor="start" x="589" y="-62.3" font-family="Times,serif" font-weight="bold" font-size="14.00">LvcSkymapHdf5</text>
<polyline fill="none" stroke="black" points="540,-53.5 767,-53.5 "/>
<text text-anchor="start" x="593" y="-39.3" font-family="Times,serif" font-style="italic" font-size="14.00">lvc_skymap.hdf5</text>
<polyline fill="none" stroke="black" points="540,-30.5 767,-30.5 "/>
<text text-anchor="start" x="548" y="-15.3" font-family="Times,serif" font-size="14.00">HEALPixSkyMapFileHandler</text>
</a>
</g>
</g>
<!-- llama.files.lvc_skymap.LvcSkymapFits&#45;&gt;llama.files.lvc_skymap.LvcSkymapHdf5 -->
<g id="edge19" class="edge">
<title>llama.files.lvc_skymap.LvcSkymapFits&#45;&gt;llama.files.lvc_skymap.LvcSkymapHdf5</title>
<path fill="none" stroke="red" d="M504.19,-42C504.19,-42 529.88,-42 529.88,-42"/>
<polygon fill="red" stroke="red" points="529.88,-45.5 539.88,-42 529.88,-38.5 529.88,-45.5"/>
</g>
<!-- llama.files.lvc_skymap_mat.LvcSkymapMat -->
<g id="node15" class="node">
<title>llama.files.lvc_skymap_mat.LvcSkymapMat</title>
<g id="a_node15"><a xlink:href="/llama.files.lvc_skymap_mat.html#llama.files.lvc_skymap_mat.LvcSkymapMat" xlink:title="{{&lt;B&gt;LvcSkymapMat&lt;/B&gt;|&lt;I&gt;lvc_skymap.mat&lt;/I&gt;|FileHandler}}" target="_top">
<polygon fill="#cccccc" stroke="black" points="585,-439.5 585,-508.5 722,-508.5 722,-439.5 585,-439.5"/>
<text text-anchor="start" x="593" y="-494.3" font-family="Times,serif" font-weight="bold" font-size="14.00">LvcSkymapMat</text>
<polyline fill="none" stroke="black" points="585,-485.5 722,-485.5 "/>
<text text-anchor="start" x="595" y="-471.3" font-family="Times,serif" font-style="italic" font-size="14.00">lvc_skymap.mat</text>
<polyline fill="none" stroke="black" points="585,-462.5 722,-462.5 "/>
<text text-anchor="start" x="610.5" y="-447.3" font-family="Times,serif" font-size="14.00">FileHandler</text>
</a>
</g>
</g>
<!-- llama.files.lvc_skymap.LvcSkymapFits&#45;&gt;llama.files.lvc_skymap_mat.LvcSkymapMat -->
<g id="edge20" class="edge">
<title>llama.files.lvc_skymap.LvcSkymapFits&#45;&gt;llama.files.lvc_skymap_mat.LvcSkymapMat</title>
<path fill="none" stroke="red" d="M495,-99.74C495,-209.41 495,-462.33 495,-462.33 495,-462.33 574.9,-462.33 574.9,-462.33"/>
<polygon fill="red" stroke="red" points="574.9,-465.83 584.9,-462.33 574.9,-458.83 574.9,-465.83"/>
</g>
<!-- llama.files.lvc_skymap.LvcSkymapHdf5&#45;&gt;llama.files.coinc_significance.opa.CoincSignificanceI3Lvc -->
<g id="edge21" class="edge">
<title>llama.files.lvc_skymap.LvcSkymapHdf5&#45;&gt;llama.files.coinc_significance.opa.CoincSignificanceI3Lvc</title>
<path fill="none" stroke="red" d="M763,-76.54C763,-120.09 763,-189.33 763,-189.33 763,-189.33 828.28,-189.33 828.28,-189.33"/>
<polygon fill="red" stroke="red" points="828.28,-192.83 838.28,-189.33 828.28,-185.83 828.28,-192.83"/>
</g>
<!-- llama.files.lvc_skymap_mat.LvcSkymapMat&#45;&gt;llama.files.coinc_o2.CoincAnalysisInitialIcecubeJson -->
<g id="edge22" class="edge">
<title>llama.files.lvc_skymap_mat.LvcSkymapMat&#45;&gt;llama.files.coinc_o2.CoincAnalysisInitialIcecubeJson</title>
<path fill="none" stroke="red" d="M722.24,-501.75C722.24,-501.75 792.77,-501.75 792.77,-501.75"/>
<polygon fill="red" stroke="red" points="792.77,-505.25 802.77,-501.75 792.77,-498.25 792.77,-505.25"/>
</g>
<!-- llama.files.lvc_skymap_mat.LvcSkymapMat&#45;&gt;llama.files.coinc_o2.CoincSkymapO2Large -->
<g id="edge23" class="edge">
<title>llama.files.lvc_skymap_mat.LvcSkymapMat&#45;&gt;llama.files.coinc_o2.CoincSkymapO2Large</title>
<path fill="none" stroke="red" d="M722.16,-466.75C877.4,-466.75 1242,-466.75 1242,-466.75 1242,-466.75 1242,-447.86 1242,-447.86"/>
<polygon fill="red" stroke="red" points="1245.5,-447.86 1242,-437.86 1238.5,-447.86 1245.5,-447.86"/>
</g>
<!-- llama.files.lvc_skymap_mat.LvcSkymapMat&#45;&gt;llama.files.coinc_o2.IceCubeNeutrinoListMat -->
<g id="edge24" class="edge">
<title>llama.files.lvc_skymap_mat.LvcSkymapMat&#45;&gt;llama.files.coinc_o2.IceCubeNeutrinoListMat</title>
<path fill="none" stroke="red" d="M654,-439.14C654,-424.26 654,-410.25 654,-410.25 654,-410.25 822.59,-410.25 822.59,-410.25"/>
<polygon fill="red" stroke="red" points="822.59,-413.75 832.59,-410.25 822.59,-406.75 822.59,-413.75"/>
</g>
<!-- llama.files.skymap_info.SkymapInfo -->
<g id="node16" class="node">
<title>llama.files.skymap_info.SkymapInfo</title>
<g id="a_node16"><a xlink:href="/llama.files.skymap_info.html#llama.files.skymap_info.SkymapInfo" xlink:title="{{&lt;B&gt;SkymapInfo&lt;/B&gt;|&lt;I&gt;skymap_info.json&lt;/I&gt;|EventTriggeredFileHandler&lt;BR/&gt;JSONFile}}" target="_top">
<polygon fill="#cccccc" stroke="black" points="0,-208 0,-292 215,-292 215,-208 0,-208"/>
<text text-anchor="start" x="59.5" y="-277.8" font-family="Times,serif" font-weight="bold" font-size="14.00">SkymapInfo</text>
<polyline fill="none" stroke="black" points="0,-269 215,-269 "/>
<text text-anchor="start" x="45.5" y="-254.8" font-family="Times,serif" font-style="italic" font-size="14.00">skymap_info.json</text>
<polyline fill="none" stroke="black" points="0,-246 215,-246 "/>
<text text-anchor="start" x="8" y="-230.8" font-family="Times,serif" font-size="14.00">EventTriggeredFileHandler</text>
<text text-anchor="start" x="73.5" y="-215.8" font-family="Times,serif" font-size="14.00">JSONFile</text>
</a>
</g>
</g>
<!-- llama.files.skymap_info.SkymapInfo&#45;&gt;llama.files.coinc_o2.CoincAnalysisInitialIcecubeJson -->
<g id="edge25" class="edge">
<title>llama.files.skymap_info.SkymapInfo&#45;&gt;llama.files.coinc_o2.CoincAnalysisInitialIcecubeJson</title>
<path fill="none" stroke="red" d="M215,-254.5C414.75,-254.5 823,-254.5 823,-254.5 823,-254.5 823,-484.71 823,-484.71"/>
<polygon fill="red" stroke="red" points="819.5,-484.71 823,-494.71 826.5,-484.71 819.5,-484.71"/>
</g>
<!-- llama.files.skymap_info.SkymapInfo&#45;&gt;llama.files.coinc_o2.IceCubeNeutrinoListMat -->
<g id="edge26" class="edge">
<title>llama.files.skymap_info.SkymapInfo&#45;&gt;llama.files.coinc_o2.IceCubeNeutrinoListMat</title>
<path fill="none" stroke="red" d="M215.32,-252C427.75,-252 880,-252 880,-252 880,-252 880,-358.36 880,-358.36"/>
<polygon fill="red" stroke="red" points="876.5,-358.36 880,-368.36 883.5,-358.36 876.5,-358.36"/>
</g>
<!-- llama.files.skymap_info.SkymapInfo&#45;&gt;llama.files.coinc_significance.opa.CoincSignificanceI3Lvc -->
<g id="edge27" class="edge">
<title>llama.files.skymap_info.SkymapInfo&#45;&gt;llama.files.coinc_significance.opa.CoincSignificanceI3Lvc</title>
<path fill="none" stroke="red" d="M215.11,-244.5C436.2,-244.5 921,-244.5 921,-244.5 921,-244.5 921,-243.62 921,-243.62"/>
<polygon fill="red" stroke="red" points="924.5,-245.7 921,-235.7 917.5,-245.7 924.5,-245.7"/>
</g>
<!-- llama.files.skymap_info.SkymapInfo&#45;&gt;llama.files.gcn_draft_o2.I3LvcGcnDraft -->
<g id="edge28" class="edge">
<title>llama.files.skymap_info.SkymapInfo&#45;&gt;llama.files.gcn_draft_o2.I3LvcGcnDraft</title>
<path fill="none" stroke="red" d="M215.21,-249.5C523.44,-249.5 1387,-249.5 1387,-249.5 1387,-249.5 1387,-239.5 1387,-239.5 1387,-239.5 1723.69,-239.5 1723.69,-239.5"/>
<polygon fill="red" stroke="red" points="1723.69,-243 1733.69,-239.5 1723.69,-236 1723.69,-243"/>
</g>
<!-- llama.files.skymap_info.SkymapInfo&#45;&gt;llama.files.gracedb.LVCGraceDbEventData -->
<g id="edge29" class="edge">
<title>llama.files.skymap_info.SkymapInfo&#45;&gt;llama.files.gracedb.LVCGraceDbEventData</title>
<path fill="none" stroke="red" d="M215.38,-276C215.38,-276 255.38,-276 255.38,-276"/>
<polygon fill="red" stroke="red" points="255.38,-279.5 265.38,-276 255.38,-272.5 255.38,-279.5"/>
</g>
<!-- llama.files.skymap_info.SkymapInfo&#45;&gt;llama.files.gracedb.PAstro -->
<g id="edge30" class="edge">
<title>llama.files.skymap_info.SkymapInfo&#45;&gt;llama.files.gracedb.PAstro</title>
<path fill="none" stroke="red" d="M215.38,-230.17C215.38,-230.17 259.8,-230.17 259.8,-230.17"/>
<polygon fill="red" stroke="red" points="259.8,-233.67 269.8,-230.17 259.8,-226.67 259.8,-233.67"/>
</g>
<!-- llama.files.skymap_info.SkymapInfo&#45;&gt;llama.files.i3.json.IceCubeNeutrinoList -->
<g id="edge31" class="edge">
<title>llama.files.skymap_info.SkymapInfo&#45;&gt;llama.files.i3.json.IceCubeNeutrinoList</title>
<path fill="none" stroke="red" d="M215.14,-257C374.36,-257 654,-257 654,-257 654,-257 654,-287.53 654,-287.53"/>
<polygon fill="red" stroke="red" points="650.5,-287.53 654,-297.53 657.5,-287.53 650.5,-287.53"/>
</g>
<!-- llama.files.skymap_info.SkymapInfo&#45;&gt;llama.files.i3.txt.IceCubeNeutrinoListCoincTxt -->
<g id="edge32" class="edge">
<title>llama.files.skymap_info.SkymapInfo&#45;&gt;llama.files.i3.txt.IceCubeNeutrinoListCoincTxt</title>
<path fill="none" stroke="red" d="M215,-247C475.84,-247 1121,-247 1121,-247 1121,-247 1121,-246.48 1121,-246.48"/>
<polygon fill="red" stroke="red" points="1124.5,-251.77 1121,-241.77 1117.5,-251.77 1124.5,-251.77"/>
</g>
<!-- llama.files.skymap_info.SkymapInfo&#45;&gt;llama.files.lvc_skymap.LvcSkymapFits -->
<g id="edge33" class="edge">
<title>llama.files.skymap_info.SkymapInfo&#45;&gt;llama.files.lvc_skymap.LvcSkymapFits</title>
<path fill="none" stroke="red" d="M215.18,-218.83C239.86,-218.83 259,-218.83 259,-218.83 259,-218.83 259,-109.74 259,-109.74"/>
<polygon fill="red" stroke="red" points="262.5,-109.74 259,-99.74 255.5,-109.74 262.5,-109.74"/>
</g>
<!-- llama.files.skymap_info.SkymapInfo&#45;&gt;llama.files.lvc_skymap_mat.LvcSkymapMat -->
<g id="edge34" class="edge">
<title>llama.files.skymap_info.SkymapInfo&#45;&gt;llama.files.lvc_skymap_mat.LvcSkymapMat</title>
<path fill="none" stroke="red" d="M108,-292.13C108,-359.92 108,-485.67 108,-485.67 108,-485.67 574.96,-485.67 574.96,-485.67"/>
<polygon fill="red" stroke="red" points="574.96,-489.17 584.96,-485.67 574.96,-482.17 574.96,-489.17"/>
</g>
</g>
</svg>
