<?xml version="1.0" encoding="UTF-8" standalone="no"?>
<!DOCTYPE svg PUBLIC "-//W3C//DTD SVG 1.1//EN"
 "http://www.w3.org/Graphics/SVG/1.1/DTD/svg11.dtd">
<!-- Generated by graphviz version 2.42.3 (20191010.1750)
 -->
<!-- Title: llama.files.gwastro.RctGwaLvcRetractionXml Pages: 1 -->
<svg width="532pt" height="181pt"
 viewBox="0.00 0.00 532.00 180.50" xmlns="http://www.w3.org/2000/svg" xmlns:xlink="http://www.w3.org/1999/xlink">
<g id="graph0" class="graph" transform="scale(1 1) rotate(0) translate(4 176.5)">
<title>llama.files.gwastro.RctGwaLvcRetractionXml</title>
<polygon fill="transparent" stroke="transparent" points="-4,4 -4,-176.5 528,-176.5 528,4 -4,4"/>
<!-- llama.files.gwastro.RctGwaLvcRetractionXml -->
<g id="node1" class="node">
<title>llama.files.gwastro.RctGwaLvcRetractionXml</title>
<g id="a_node1"><a xlink:href="/llama.files.gwastro.html#llama.files.gwastro.RctGwaLvcRetractionXml" xlink:title="{{&lt;B&gt;RctGwaLvcRetractionXml&lt;/B&gt;|&lt;I&gt;rct_gwa_lvc_gcn_retraction.xml.log&lt;/I&gt;|GWAstroReceipt}}" target="_top">
<polygon fill="#cccccc" stroke="black" points="251,-55 251,-124 524,-124 524,-55 251,-55"/>
<text text-anchor="start" x="285" y="-109.8" font-family="Times,serif" font-weight="bold" font-size="14.00">RctGwaLvcRetractionXml</text>
<polyline fill="none" stroke="black" points="251,-101 524,-101 "/>
<text text-anchor="start" x="259" y="-86.8" font-family="Times,serif" font-style="italic" font-size="14.00">rct_gwa_lvc_gcn_retraction.xml.log</text>
<polyline fill="none" stroke="black" points="251,-78 524,-78 "/>
<text text-anchor="start" x="327.5" y="-62.8" font-family="Times,serif" font-size="14.00">GWAstroReceipt</text>
</a>
</g>
</g>
<!-- llama.files.lvc_gcn_xml.LvcRetractionXml -->
<g id="node2" class="node">
<title>llama.files.lvc_gcn_xml.LvcRetractionXml</title>
<g id="a_node2"><a xlink:href="/llama.files.lvc_gcn_xml.html#llama.files.lvc_gcn_xml.LvcRetractionXml" xlink:title="{{&lt;B&gt;LvcRetractionXml&lt;/B&gt;|&lt;I&gt;lvc_gcn_retraction.xml&lt;/I&gt;|LvcGcnXml}}" target="_top">
<polygon fill="#cccccc" stroke="black" points="16.5,-103 16.5,-172 198.5,-172 198.5,-103 16.5,-103"/>
<text text-anchor="start" x="35" y="-157.8" font-family="Times,serif" font-weight="bold" font-size="14.00">LvcRetractionXml</text>
<polyline fill="none" stroke="black" points="16.5,-149 198.5,-149 "/>
<text text-anchor="start" x="24.5" y="-134.8" font-family="Times,serif" font-style="italic" font-size="14.00">lvc_gcn_retraction.xml</text>
<polyline fill="none" stroke="black" points="16.5,-126 198.5,-126 "/>
<text text-anchor="start" x="65.5" y="-110.8" font-family="Times,serif" font-size="14.00">LvcGcnXml</text>
</a>
</g>
</g>
<!-- llama.files.lvc_gcn_xml.LvcRetractionXml&#45;&gt;llama.files.gwastro.RctGwaLvcRetractionXml -->
<g id="edge1" class="edge">
<title>llama.files.lvc_gcn_xml.LvcRetractionXml&#45;&gt;llama.files.gwastro.RctGwaLvcRetractionXml</title>
<path fill="none" stroke="red" d="M198.8,-113.5C198.8,-113.5 240.86,-113.5 240.86,-113.5"/>
<polygon fill="red" stroke="red" points="240.86,-117 250.86,-113.5 240.86,-110 240.86,-117"/>
</g>
<!-- llama.files.skymap_info.SkymapInfo -->
<g id="node3" class="node">
<title>llama.files.skymap_info.SkymapInfo</title>
<g id="a_node3"><a xlink:href="/llama.files.skymap_info.html#llama.files.skymap_info.SkymapInfo" xlink:title="{{&lt;B&gt;SkymapInfo&lt;/B&gt;|&lt;I&gt;skymap_info.json&lt;/I&gt;|EventTriggeredFileHandler&lt;BR/&gt;JSONFile}}" target="_top">
<polygon fill="#cccccc" stroke="black" points="0,-0.5 0,-84.5 215,-84.5 215,-0.5 0,-0.5"/>
<text text-anchor="start" x="59.5" y="-70.3" font-family="Times,serif" font-weight="bold" font-size="14.00">SkymapInfo</text>
<polyline fill="none" stroke="black" points="0,-61.5 215,-61.5 "/>
<text text-anchor="start" x="45.5" y="-47.3" font-family="Times,serif" font-style="italic" font-size="14.00">skymap_info.json</text>
<polyline fill="none" stroke="black" points="0,-38.5 215,-38.5 "/>
<text text-anchor="start" x="8" y="-23.3" font-family="Times,serif" font-size="14.00">EventTriggeredFileHandler</text>
<text text-anchor="start" x="73.5" y="-8.3" font-family="Times,serif" font-size="14.00">JSONFile</text>
</a>
</g>
</g>
<!-- llama.files.skymap_info.SkymapInfo&#45;&gt;llama.files.gwastro.RctGwaLvcRetractionXml -->
<g id="edge2" class="edge">
<title>llama.files.skymap_info.SkymapInfo&#45;&gt;llama.files.gwastro.RctGwaLvcRetractionXml</title>
<path fill="none" stroke="red" d="M215.35,-69.75C215.35,-69.75 240.61,-69.75 240.61,-69.75"/>
<polygon fill="red" stroke="red" points="240.61,-73.25 250.61,-69.75 240.61,-66.25 240.61,-73.25"/>
</g>
</g>
</svg>
