<?xml version="1.0" encoding="UTF-8" standalone="no"?>
<!DOCTYPE svg PUBLIC "-//W3C//DTD SVG 1.1//EN"
 "http://www.w3.org/Graphics/SVG/1.1/DTD/svg11.dtd">
<!-- Generated by graphviz version 2.42.3 (20191010.1750)
 -->
<!-- Title: llama.files.slack.RctSlkLmaSkymapInfo Pages: 1 -->
<svg width="524pt" height="93pt"
 viewBox="0.00 0.00 524.00 93.00" xmlns="http://www.w3.org/2000/svg" xmlns:xlink="http://www.w3.org/1999/xlink">
<g id="graph0" class="graph" transform="scale(1 1) rotate(0) translate(4 89)">
<title>llama.files.slack.RctSlkLmaSkymapInfo</title>
<polygon fill="transparent" stroke="transparent" points="-4,4 -4,-89 520,-89 520,4 -4,4"/>
<!-- llama.files.skymap_info.SkymapInfo -->
<g id="node1" class="node">
<title>llama.files.skymap_info.SkymapInfo</title>
<g id="a_node1"><a xlink:href="/llama.files.skymap_info.html#llama.files.skymap_info.SkymapInfo" xlink:title="{{&lt;B&gt;SkymapInfo&lt;/B&gt;|&lt;I&gt;skymap_info.json&lt;/I&gt;|EventTriggeredFileHandler&lt;BR/&gt;JSONFile}}" target="_top">
<polygon fill="#cccccc" stroke="black" points="0,-0.5 0,-84.5 215,-84.5 215,-0.5 0,-0.5"/>
<text text-anchor="start" x="59.5" y="-70.3" font-family="Times,serif" font-weight="bold" font-size="14.00">SkymapInfo</text>
<polyline fill="none" stroke="black" points="0,-61.5 215,-61.5 "/>
<text text-anchor="start" x="45.5" y="-47.3" font-family="Times,serif" font-style="italic" font-size="14.00">skymap_info.json</text>
<polyline fill="none" stroke="black" points="0,-38.5 215,-38.5 "/>
<text text-anchor="start" x="8" y="-23.3" font-family="Times,serif" font-size="14.00">EventTriggeredFileHandler</text>
<text text-anchor="start" x="73.5" y="-8.3" font-family="Times,serif" font-size="14.00">JSONFile</text>
</a>
</g>
</g>
<!-- llama.files.slack.RctSlkLmaSkymapInfo -->
<g id="node2" class="node">
<title>llama.files.slack.RctSlkLmaSkymapInfo</title>
<g id="a_node2"><a xlink:href="/llama.files.slack.html#llama.files.slack.RctSlkLmaSkymapInfo" xlink:title="{{&lt;B&gt;RctSlkLmaSkymapInfo&lt;/B&gt;|&lt;I&gt;rct_slk_lma_skymap_info.json.json&lt;/I&gt;|SlackReceiptLlama}}" target="_top">
<polygon fill="#cccccc" stroke="black" points="251,-8 251,-77 516,-77 516,-8 251,-8"/>
<text text-anchor="start" x="292" y="-62.8" font-family="Times,serif" font-weight="bold" font-size="14.00">RctSlkLmaSkymapInfo</text>
<polyline fill="none" stroke="black" points="251,-54 516,-54 "/>
<text text-anchor="start" x="259" y="-39.8" font-family="Times,serif" font-style="italic" font-size="14.00">rct_slk_lma_skymap_info.json.json</text>
<polyline fill="none" stroke="black" points="251,-31 516,-31 "/>
<text text-anchor="start" x="314" y="-15.8" font-family="Times,serif" font-size="14.00">SlackReceiptLlama</text>
</a>
</g>
</g>
<!-- llama.files.skymap_info.SkymapInfo&#45;&gt;llama.files.slack.RctSlkLmaSkymapInfo -->
<g id="edge1" class="edge">
<title>llama.files.skymap_info.SkymapInfo&#45;&gt;llama.files.slack.RctSlkLmaSkymapInfo</title>
<path fill="none" stroke="red" d="M215.39,-42.5C215.39,-42.5 240.87,-42.5 240.87,-42.5"/>
<polygon fill="red" stroke="red" points="240.87,-46 250.87,-42.5 240.87,-39 240.87,-46"/>
</g>
</g>
</svg>
