<?xml version="1.0" encoding="UTF-8" standalone="no"?>
<!DOCTYPE svg PUBLIC "-//W3C//DTD SVG 1.1//EN"
 "http://www.w3.org/Graphics/SVG/1.1/DTD/svg11.dtd">
<!-- Generated by graphviz version 2.42.3 (20191010.1750)
 -->
<!-- Title: llama.test.test_filehandler.MockFh4 Pages: 1 -->
<svg width="552pt" height="141pt"
 viewBox="0.00 0.00 552.00 141.00" xmlns="http://www.w3.org/2000/svg" xmlns:xlink="http://www.w3.org/1999/xlink">
<g id="graph0" class="graph" transform="scale(1 1) rotate(0) translate(4 137)">
<title>llama.test.test_filehandler.MockFh4</title>
<polygon fill="transparent" stroke="transparent" points="-4,4 -4,-137 548,-137 548,4 -4,4"/>
<!-- llama.test.test_filehandler.MockFh1 -->
<g id="node1" class="node">
<title>llama.test.test_filehandler.MockFh1</title>
<g id="a_node1"><a xlink:href="/llama.test.test_filehandler.html#llama.test.test_filehandler.MockFh1" xlink:title="{{&lt;B&gt;MockFh1&lt;/B&gt;|&lt;I&gt;MockFh1.txt&lt;/I&gt;|FileHandler}}" target="_top">
<polygon fill="#cccccc" stroke="black" points="0,-31.5 0,-100.5 109,-100.5 109,-31.5 0,-31.5"/>
<text text-anchor="start" x="17" y="-86.3" font-family="Times,serif" font-weight="bold" font-size="14.00">MockFh1</text>
<polyline fill="none" stroke="black" points="0,-77.5 109,-77.5 "/>
<text text-anchor="start" x="8" y="-63.3" font-family="Times,serif" font-style="italic" font-size="14.00">MockFh1.txt</text>
<polyline fill="none" stroke="black" points="0,-54.5 109,-54.5 "/>
<text text-anchor="start" x="11.5" y="-39.3" font-family="Times,serif" font-size="14.00">FileHandler</text>
</a>
</g>
</g>
<!-- llama.test.test_filehandler.MockFh2 -->
<g id="node2" class="node">
<title>llama.test.test_filehandler.MockFh2</title>
<g id="a_node2"><a xlink:href="/llama.test.test_filehandler.html#llama.test.test_filehandler.MockFh2" xlink:title="{{&lt;B&gt;MockFh2&lt;/B&gt;|&lt;I&gt;MockFh2.txt&lt;/I&gt;|FileHandler}}" target="_top">
<polygon fill="#cccccc" stroke="black" points="145,-0.5 145,-69.5 254,-69.5 254,-0.5 145,-0.5"/>
<text text-anchor="start" x="162" y="-55.3" font-family="Times,serif" font-weight="bold" font-size="14.00">MockFh2</text>
<polyline fill="none" stroke="black" points="145,-46.5 254,-46.5 "/>
<text text-anchor="start" x="153" y="-32.3" font-family="Times,serif" font-style="italic" font-size="14.00">MockFh2.txt</text>
<polyline fill="none" stroke="black" points="145,-23.5 254,-23.5 "/>
<text text-anchor="start" x="156.5" y="-8.3" font-family="Times,serif" font-size="14.00">FileHandler</text>
</a>
</g>
</g>
<!-- llama.test.test_filehandler.MockFh1&#45;&gt;llama.test.test_filehandler.MockFh2 -->
<g id="edge1" class="edge">
<title>llama.test.test_filehandler.MockFh1&#45;&gt;llama.test.test_filehandler.MockFh2</title>
<path fill="none" stroke="red" d="M109.32,-50.5C109.32,-50.5 134.6,-50.5 134.6,-50.5"/>
<polygon fill="red" stroke="red" points="134.6,-54 144.6,-50.5 134.6,-47 134.6,-54"/>
</g>
<!-- llama.test.test_filehandler.MockFh3 -->
<g id="node3" class="node">
<title>llama.test.test_filehandler.MockFh3</title>
<g id="a_node3"><a xlink:href="/llama.test.test_filehandler.html#llama.test.test_filehandler.MockFh3" xlink:title="{{&lt;B&gt;MockFh3&lt;/B&gt;|&lt;I&gt;MockFh3.txt&lt;/I&gt;|FileHandler}}" target="_top">
<polygon fill="#cccccc" stroke="black" points="290,-63.5 290,-132.5 399,-132.5 399,-63.5 290,-63.5"/>
<text text-anchor="start" x="307" y="-118.3" font-family="Times,serif" font-weight="bold" font-size="14.00">MockFh3</text>
<polyline fill="none" stroke="black" points="290,-109.5 399,-109.5 "/>
<text text-anchor="start" x="298" y="-95.3" font-family="Times,serif" font-style="italic" font-size="14.00">MockFh3.txt</text>
<polyline fill="none" stroke="black" points="290,-86.5 399,-86.5 "/>
<text text-anchor="start" x="301.5" y="-71.3" font-family="Times,serif" font-size="14.00">FileHandler</text>
</a>
</g>
</g>
<!-- llama.test.test_filehandler.MockFh1&#45;&gt;llama.test.test_filehandler.MockFh3 -->
<g id="edge2" class="edge">
<title>llama.test.test_filehandler.MockFh1&#45;&gt;llama.test.test_filehandler.MockFh3</title>
<path fill="none" stroke="red" d="M109.05,-90.67C109.05,-90.67 279.71,-90.67 279.71,-90.67"/>
<polygon fill="red" stroke="red" points="279.71,-94.17 289.71,-90.67 279.71,-87.17 279.71,-94.17"/>
</g>
<!-- llama.test.test_filehandler.MockFh2&#45;&gt;llama.test.test_filehandler.MockFh3 -->
<g id="edge3" class="edge">
<title>llama.test.test_filehandler.MockFh2&#45;&gt;llama.test.test_filehandler.MockFh3</title>
<path fill="none" stroke="red" d="M200,-69.82C200,-75.91 200,-80.33 200,-80.33 200,-80.33 279.87,-80.33 279.87,-80.33"/>
<polygon fill="red" stroke="red" points="279.87,-83.83 289.87,-80.33 279.87,-76.83 279.87,-83.83"/>
</g>
<!-- llama.test.test_filehandler.MockFh4 -->
<g id="node4" class="node">
<title>llama.test.test_filehandler.MockFh4</title>
<g id="a_node4"><a xlink:href="/llama.test.test_filehandler.html#llama.test.test_filehandler.MockFh4" xlink:title="{{&lt;B&gt;MockFh4&lt;/B&gt;|&lt;I&gt;MockFh4.txt&lt;/I&gt;|FileHandler}}" target="_top">
<polygon fill="#cccccc" stroke="black" points="435,-31.5 435,-100.5 544,-100.5 544,-31.5 435,-31.5"/>
<text text-anchor="start" x="452" y="-86.3" font-family="Times,serif" font-weight="bold" font-size="14.00">MockFh4</text>
<polyline fill="none" stroke="black" points="435,-77.5 544,-77.5 "/>
<text text-anchor="start" x="443" y="-63.3" font-family="Times,serif" font-style="italic" font-size="14.00">MockFh4.txt</text>
<polyline fill="none" stroke="black" points="435,-54.5 544,-54.5 "/>
<text text-anchor="start" x="446.5" y="-39.3" font-family="Times,serif" font-size="14.00">FileHandler</text>
</a>
</g>
</g>
<!-- llama.test.test_filehandler.MockFh2&#45;&gt;llama.test.test_filehandler.MockFh4 -->
<g id="edge4" class="edge">
<title>llama.test.test_filehandler.MockFh2&#45;&gt;llama.test.test_filehandler.MockFh4</title>
<path fill="none" stroke="red" d="M254.05,-47C254.05,-47 424.71,-47 424.71,-47"/>
<polygon fill="red" stroke="red" points="424.71,-50.5 434.71,-47 424.71,-43.5 424.71,-50.5"/>
</g>
<!-- llama.test.test_filehandler.MockFh3&#45;&gt;llama.test.test_filehandler.MockFh4 -->
<g id="edge5" class="edge">
<title>llama.test.test_filehandler.MockFh3&#45;&gt;llama.test.test_filehandler.MockFh4</title>
<path fill="none" stroke="red" d="M399.32,-82C399.32,-82 424.6,-82 424.6,-82"/>
<polygon fill="red" stroke="red" points="424.6,-85.5 434.6,-82 424.6,-78.5 424.6,-85.5"/>
</g>
</g>
</svg>
