<?xml version="1.0" encoding="UTF-8" standalone="no"?>
<!DOCTYPE svg PUBLIC "-//W3C//DTD SVG 1.1//EN"
 "http://www.w3.org/Graphics/SVG/1.1/DTD/svg11.dtd">
<!-- Generated by graphviz version 2.42.3 (20191010.1750)
 -->
<!-- Title: llama.files.coinc_o2.RctGwaCoincAnalysisInitialIcecubeJson Pages: 1 -->
<svg width="1456pt" height="249pt"
 viewBox="0.00 0.00 1456.00 248.50" xmlns="http://www.w3.org/2000/svg" xmlns:xlink="http://www.w3.org/1999/xlink">
<g id="graph0" class="graph" transform="scale(1 1) rotate(0) translate(4 244.5)">
<title>llama.files.coinc_o2.RctGwaCoincAnalysisInitialIcecubeJson</title>
<polygon fill="transparent" stroke="transparent" points="-4,4 -4,-244.5 1452,-244.5 1452,4 -4,4"/>
<!-- llama.files.coinc_o2.CoincAnalysisInitialIcecubeJson -->
<g id="node1" class="node">
<title>llama.files.coinc_o2.CoincAnalysisInitialIcecubeJson</title>
<g id="a_node1"><a xlink:href="/llama.files.coinc_o2.html#llama.files.coinc_o2.CoincAnalysisInitialIcecubeJson" xlink:title="{{&lt;B&gt;CoincAnalysisInitialIcecubeJson&lt;/B&gt;|&lt;I&gt;coinc_analysis_initial_icecube.json&lt;/I&gt;|CoincAnalysis&lt;BR/&gt;JSONFile}}" target="_top">
<polygon fill="#cccccc" stroke="black" points="780,-128.5 780,-212.5 1055,-212.5 1055,-128.5 780,-128.5"/>
<text text-anchor="start" x="788" y="-198.3" font-family="Times,serif" font-weight="bold" font-size="14.00">CoincAnalysisInitialIcecubeJson</text>
<polyline fill="none" stroke="black" points="780,-189.5 1055,-189.5 "/>
<text text-anchor="start" x="792.5" y="-175.3" font-family="Times,serif" font-style="italic" font-size="14.00">coinc_analysis_initial_icecube.json</text>
<polyline fill="none" stroke="black" points="780,-166.5 1055,-166.5 "/>
<text text-anchor="start" x="866.5" y="-151.3" font-family="Times,serif" font-size="14.00">CoincAnalysis</text>
<text text-anchor="start" x="883.5" y="-136.3" font-family="Times,serif" font-size="14.00">JSONFile</text>
</a>
</g>
</g>
<!-- llama.files.coinc_o2.RctGwaCoincAnalysisInitialIcecubeJson -->
<g id="node2" class="node">
<title>llama.files.coinc_o2.RctGwaCoincAnalysisInitialIcecubeJson</title>
<g id="a_node2"><a xlink:href="/llama.files.coinc_o2.html#llama.files.coinc_o2.RctGwaCoincAnalysisInitialIcecubeJson" xlink:title="{{&lt;B&gt;RctGwaCoincAnalysisInitialIcecubeJson&lt;/B&gt;|&lt;I&gt;rct_gwa_coinc_analysis_initial_icecube.json.log&lt;/I&gt;|GWAstroReceipt}}" target="_top">
<polygon fill="#cccccc" stroke="black" points="1091,-171 1091,-240 1448,-240 1448,-171 1091,-171"/>
<text text-anchor="start" x="1109.5" y="-225.8" font-family="Times,serif" font-weight="bold" font-size="14.00">RctGwaCoincAnalysisInitialIcecubeJson</text>
<polyline fill="none" stroke="black" points="1091,-217 1448,-217 "/>
<text text-anchor="start" x="1099" y="-202.8" font-family="Times,serif" font-style="italic" font-size="14.00">rct_gwa_coinc_analysis_initial_icecube.json.log</text>
<polyline fill="none" stroke="black" points="1091,-194 1448,-194 "/>
<text text-anchor="start" x="1209.5" y="-178.8" font-family="Times,serif" font-size="14.00">GWAstroReceipt</text>
</a>
</g>
</g>
<!-- llama.files.coinc_o2.CoincAnalysisInitialIcecubeJson&#45;&gt;llama.files.coinc_o2.RctGwaCoincAnalysisInitialIcecubeJson -->
<g id="edge1" class="edge">
<title>llama.files.coinc_o2.CoincAnalysisInitialIcecubeJson&#45;&gt;llama.files.coinc_o2.RctGwaCoincAnalysisInitialIcecubeJson</title>
<path fill="none" stroke="red" d="M1055.1,-191.75C1055.1,-191.75 1080.89,-191.75 1080.89,-191.75"/>
<polygon fill="red" stroke="red" points="1080.89,-195.25 1090.89,-191.75 1080.89,-188.25 1080.89,-195.25"/>
</g>
<!-- llama.files.i3.json.IceCubeNeutrinoList -->
<g id="node3" class="node">
<title>llama.files.i3.json.IceCubeNeutrinoList</title>
<g id="a_node3"><a xlink:href="/llama.files.i3.json.html#llama.files.i3.json.IceCubeNeutrinoList" xlink:title="{{&lt;B&gt;IceCubeNeutrinoList&lt;/B&gt;|&lt;I&gt;icecube_neutrino_list.json&lt;/I&gt;|JSONFile&lt;BR/&gt;HEALPixPSF}}" target="_top">
<polygon fill="#cccccc" stroke="black" points="540,-0.5 540,-84.5 744,-84.5 744,-0.5 540,-0.5"/>
<text text-anchor="start" x="558" y="-70.3" font-family="Times,serif" font-weight="bold" font-size="14.00">IceCubeNeutrinoList</text>
<polyline fill="none" stroke="black" points="540,-61.5 744,-61.5 "/>
<text text-anchor="start" x="548" y="-47.3" font-family="Times,serif" font-style="italic" font-size="14.00">icecube_neutrino_list.json</text>
<polyline fill="none" stroke="black" points="540,-38.5 744,-38.5 "/>
<text text-anchor="start" x="608" y="-23.3" font-family="Times,serif" font-size="14.00">JSONFile</text>
<text text-anchor="start" x="594" y="-8.3" font-family="Times,serif" font-size="14.00">HEALPixPSF</text>
</a>
</g>
</g>
<!-- llama.files.i3.json.IceCubeNeutrinoList&#45;&gt;llama.files.coinc_o2.CoincAnalysisInitialIcecubeJson -->
<g id="edge2" class="edge">
<title>llama.files.i3.json.IceCubeNeutrinoList&#45;&gt;llama.files.coinc_o2.CoincAnalysisInitialIcecubeJson</title>
<path fill="none" stroke="red" d="M728,-84.53C728,-114.25 728,-148.83 728,-148.83 728,-148.83 769.78,-148.83 769.78,-148.83"/>
<polygon fill="red" stroke="red" points="769.78,-152.33 779.78,-148.83 769.78,-145.33 769.78,-152.33"/>
</g>
<!-- llama.files.lvc_skymap.LvcSkymapFits -->
<g id="node4" class="node">
<title>llama.files.lvc_skymap.LvcSkymapFits</title>
<g id="a_node4"><a xlink:href="/llama.files.lvc_skymap.html#llama.files.lvc_skymap.LvcSkymapFits" xlink:title="{{&lt;B&gt;LvcSkymapFits&lt;/B&gt;|&lt;I&gt;lvc_skymap.fits.gz&lt;/I&gt;|GenerateOnceMixin&lt;BR/&gt;LvcHEALPixSkyMapFileHandler&lt;BR/&gt;OnlineVetoMixin}}" target="_top">
<polygon fill="#cccccc" stroke="black" points="251,-53 251,-152 504,-152 504,-53 251,-53"/>
<text text-anchor="start" x="317.5" y="-137.8" font-family="Times,serif" font-weight="bold" font-size="14.00">LvcSkymapFits</text>
<polyline fill="none" stroke="black" points="251,-129 504,-129 "/>
<text text-anchor="start" x="311" y="-114.8" font-family="Times,serif" font-style="italic" font-size="14.00">lvc_skymap.fits.gz</text>
<polyline fill="none" stroke="black" points="251,-106 504,-106 "/>
<text text-anchor="start" x="305" y="-90.8" font-family="Times,serif" font-size="14.00">GenerateOnceMixin</text>
<text text-anchor="start" x="259" y="-75.8" font-family="Times,serif" font-size="14.00">LvcHEALPixSkyMapFileHandler</text>
<text text-anchor="start" x="317.5" y="-60.8" font-family="Times,serif" font-size="14.00">OnlineVetoMixin</text>
</a>
</g>
</g>
<!-- llama.files.lvc_skymap_mat.LvcSkymapMat -->
<g id="node5" class="node">
<title>llama.files.lvc_skymap_mat.LvcSkymapMat</title>
<g id="a_node5"><a xlink:href="/llama.files.lvc_skymap_mat.html#llama.files.lvc_skymap_mat.LvcSkymapMat" xlink:title="{{&lt;B&gt;LvcSkymapMat&lt;/B&gt;|&lt;I&gt;lvc_skymap.mat&lt;/I&gt;|FileHandler}}" target="_top">
<polygon fill="#cccccc" stroke="black" points="573.5,-121 573.5,-190 710.5,-190 710.5,-121 573.5,-121"/>
<text text-anchor="start" x="581.5" y="-175.8" font-family="Times,serif" font-weight="bold" font-size="14.00">LvcSkymapMat</text>
<polyline fill="none" stroke="black" points="573.5,-167 710.5,-167 "/>
<text text-anchor="start" x="583.5" y="-152.8" font-family="Times,serif" font-style="italic" font-size="14.00">lvc_skymap.mat</text>
<polyline fill="none" stroke="black" points="573.5,-144 710.5,-144 "/>
<text text-anchor="start" x="599" y="-128.8" font-family="Times,serif" font-size="14.00">FileHandler</text>
</a>
</g>
</g>
<!-- llama.files.lvc_skymap.LvcSkymapFits&#45;&gt;llama.files.lvc_skymap_mat.LvcSkymapMat -->
<g id="edge3" class="edge">
<title>llama.files.lvc_skymap.LvcSkymapFits&#45;&gt;llama.files.lvc_skymap_mat.LvcSkymapMat</title>
<path fill="none" stroke="red" d="M504.33,-136.5C504.33,-136.5 563.16,-136.5 563.16,-136.5"/>
<polygon fill="red" stroke="red" points="563.16,-140 573.16,-136.5 563.16,-133 563.16,-140"/>
</g>
<!-- llama.files.lvc_skymap_mat.LvcSkymapMat&#45;&gt;llama.files.coinc_o2.CoincAnalysisInitialIcecubeJson -->
<g id="edge4" class="edge">
<title>llama.files.lvc_skymap_mat.LvcSkymapMat&#45;&gt;llama.files.coinc_o2.CoincAnalysisInitialIcecubeJson</title>
<path fill="none" stroke="red" d="M710.81,-169.67C710.81,-169.67 769.98,-169.67 769.98,-169.67"/>
<polygon fill="red" stroke="red" points="769.98,-173.17 779.98,-169.67 769.98,-166.17 769.98,-173.17"/>
</g>
<!-- llama.files.skymap_info.SkymapInfo -->
<g id="node6" class="node">
<title>llama.files.skymap_info.SkymapInfo</title>
<g id="a_node6"><a xlink:href="/llama.files.skymap_info.html#llama.files.skymap_info.SkymapInfo" xlink:title="{{&lt;B&gt;SkymapInfo&lt;/B&gt;|&lt;I&gt;skymap_info.json&lt;/I&gt;|EventTriggeredFileHandler&lt;BR/&gt;JSONFile}}" target="_top">
<polygon fill="#cccccc" stroke="black" points="0,-138.5 0,-222.5 215,-222.5 215,-138.5 0,-138.5"/>
<text text-anchor="start" x="59.5" y="-208.3" font-family="Times,serif" font-weight="bold" font-size="14.00">SkymapInfo</text>
<polyline fill="none" stroke="black" points="0,-199.5 215,-199.5 "/>
<text text-anchor="start" x="45.5" y="-185.3" font-family="Times,serif" font-style="italic" font-size="14.00">skymap_info.json</text>
<polyline fill="none" stroke="black" points="0,-176.5 215,-176.5 "/>
<text text-anchor="start" x="8" y="-161.3" font-family="Times,serif" font-size="14.00">EventTriggeredFileHandler</text>
<text text-anchor="start" x="73.5" y="-146.3" font-family="Times,serif" font-size="14.00">JSONFile</text>
</a>
</g>
</g>
<!-- llama.files.skymap_info.SkymapInfo&#45;&gt;llama.files.coinc_o2.CoincAnalysisInitialIcecubeJson -->
<g id="edge5" class="edge">
<title>llama.files.skymap_info.SkymapInfo&#45;&gt;llama.files.coinc_o2.CoincAnalysisInitialIcecubeJson</title>
<path fill="none" stroke="red" d="M215.06,-201.75C215.06,-201.75 769.66,-201.75 769.66,-201.75"/>
<polygon fill="red" stroke="red" points="769.66,-205.25 779.66,-201.75 769.66,-198.25 769.66,-205.25"/>
</g>
<!-- llama.files.skymap_info.SkymapInfo&#45;&gt;llama.files.coinc_o2.RctGwaCoincAnalysisInitialIcecubeJson -->
<g id="edge6" class="edge">
<title>llama.files.skymap_info.SkymapInfo&#45;&gt;llama.files.coinc_o2.RctGwaCoincAnalysisInitialIcecubeJson</title>
<path fill="none" stroke="red" d="M215.25,-218C215.25,-218 1080.8,-218 1080.8,-218"/>
<polygon fill="red" stroke="red" points="1080.8,-221.5 1090.8,-218 1080.8,-214.5 1080.8,-221.5"/>
</g>
<!-- llama.files.skymap_info.SkymapInfo&#45;&gt;llama.files.i3.json.IceCubeNeutrinoList -->
<g id="edge7" class="edge">
<title>llama.files.skymap_info.SkymapInfo&#45;&gt;llama.files.i3.json.IceCubeNeutrinoList</title>
<path fill="none" stroke="red" d="M215.17,-165.17C348.15,-165.17 557,-165.17 557,-165.17 557,-165.17 557,-94.71 557,-94.71"/>
<polygon fill="red" stroke="red" points="560.5,-94.71 557,-84.71 553.5,-94.71 560.5,-94.71"/>
</g>
<!-- llama.files.skymap_info.SkymapInfo&#45;&gt;llama.files.lvc_skymap.LvcSkymapFits -->
<g id="edge8" class="edge">
<title>llama.files.skymap_info.SkymapInfo&#45;&gt;llama.files.lvc_skymap.LvcSkymapFits</title>
<path fill="none" stroke="red" d="M215.38,-145.25C215.38,-145.25 240.66,-145.25 240.66,-145.25"/>
<polygon fill="red" stroke="red" points="240.66,-148.75 250.66,-145.25 240.66,-141.75 240.66,-148.75"/>
</g>
<!-- llama.files.skymap_info.SkymapInfo&#45;&gt;llama.files.lvc_skymap_mat.LvcSkymapMat -->
<g id="edge9" class="edge">
<title>llama.files.skymap_info.SkymapInfo&#45;&gt;llama.files.lvc_skymap_mat.LvcSkymapMat</title>
<path fill="none" stroke="red" d="M215.02,-177.83C215.02,-177.83 563.25,-177.83 563.25,-177.83"/>
<polygon fill="red" stroke="red" points="563.25,-181.33 573.25,-177.83 563.25,-174.33 563.25,-181.33"/>
</g>
</g>
</svg>
