<?xml version="1.0" encoding="UTF-8" standalone="no"?>
<!DOCTYPE svg PUBLIC "-//W3C//DTD SVG 1.1//EN"
 "http://www.w3.org/Graphics/SVG/1.1/DTD/svg11.dtd">
<!-- Generated by graphviz version 2.42.3 (20191010.1750)
 -->
<!-- Title: llama.files.gracedb.RctSlkLmaLVCGraceDbEventData Pages: 1 -->
<svg width="867pt" height="129pt"
 viewBox="0.00 0.00 867.00 129.00" xmlns="http://www.w3.org/2000/svg" xmlns:xlink="http://www.w3.org/1999/xlink">
<g id="graph0" class="graph" transform="scale(1 1) rotate(0) translate(4 125)">
<title>llama.files.gracedb.RctSlkLmaLVCGraceDbEventData</title>
<polygon fill="transparent" stroke="transparent" points="-4,4 -4,-125 863,-125 863,4 -4,4"/>
<!-- llama.files.gracedb.LVCGraceDbEventData -->
<g id="node1" class="node">
<title>llama.files.gracedb.LVCGraceDbEventData</title>
<g id="a_node1"><a xlink:href="/llama.files.gracedb.html#llama.files.gracedb.LVCGraceDbEventData" xlink:title="{{&lt;B&gt;LVCGraceDbEventData&lt;/B&gt;|&lt;I&gt;lvc_gracedb_event_data.json&lt;/I&gt;|JSONFile&lt;BR/&gt;OnlineVetoMixin}}" target="_top">
<polygon fill="#cccccc" stroke="black" points="251,-36.5 251,-120.5 475,-120.5 475,-36.5 251,-36.5"/>
<text text-anchor="start" x="272.5" y="-106.3" font-family="Times,serif" font-weight="bold" font-size="14.00">LVCGraceDbEventData</text>
<polyline fill="none" stroke="black" points="251,-97.5 475,-97.5 "/>
<text text-anchor="start" x="259" y="-83.3" font-family="Times,serif" font-style="italic" font-size="14.00">lvc_gracedb_event_data.json</text>
<polyline fill="none" stroke="black" points="251,-74.5 475,-74.5 "/>
<text text-anchor="start" x="329" y="-59.3" font-family="Times,serif" font-size="14.00">JSONFile</text>
<text text-anchor="start" x="303" y="-44.3" font-family="Times,serif" font-size="14.00">OnlineVetoMixin</text>
</a>
</g>
</g>
<!-- llama.files.gracedb.RctSlkLmaLVCGraceDbEventData -->
<g id="node2" class="node">
<title>llama.files.gracedb.RctSlkLmaLVCGraceDbEventData</title>
<g id="a_node2"><a xlink:href="/llama.files.gracedb.html#llama.files.gracedb.RctSlkLmaLVCGraceDbEventData" xlink:title="{{&lt;B&gt;RctSlkLmaLVCGraceDbEventData&lt;/B&gt;|&lt;I&gt;rct_slk_lma_lvc_gracedb_event_data.json.json&lt;/I&gt;|SlackReceiptLlama}}" target="_top">
<polygon fill="#cccccc" stroke="black" points="511,-8 511,-77 859,-77 859,-8 511,-8"/>
<text text-anchor="start" x="551" y="-62.8" font-family="Times,serif" font-weight="bold" font-size="14.00">RctSlkLmaLVCGraceDbEventData</text>
<polyline fill="none" stroke="black" points="511,-54 859,-54 "/>
<text text-anchor="start" x="519" y="-39.8" font-family="Times,serif" font-style="italic" font-size="14.00">rct_slk_lma_lvc_gracedb_event_data.json.json</text>
<polyline fill="none" stroke="black" points="511,-31 859,-31 "/>
<text text-anchor="start" x="615.5" y="-15.8" font-family="Times,serif" font-size="14.00">SlackReceiptLlama</text>
</a>
</g>
</g>
<!-- llama.files.gracedb.LVCGraceDbEventData&#45;&gt;llama.files.gracedb.RctSlkLmaLVCGraceDbEventData -->
<g id="edge1" class="edge">
<title>llama.files.gracedb.LVCGraceDbEventData&#45;&gt;llama.files.gracedb.RctSlkLmaLVCGraceDbEventData</title>
<path fill="none" stroke="red" d="M475.17,-56.75C475.17,-56.75 500.86,-56.75 500.86,-56.75"/>
<polygon fill="red" stroke="red" points="500.86,-60.25 510.86,-56.75 500.86,-53.25 500.86,-60.25"/>
</g>
<!-- llama.files.skymap_info.SkymapInfo -->
<g id="node3" class="node">
<title>llama.files.skymap_info.SkymapInfo</title>
<g id="a_node3"><a xlink:href="/llama.files.skymap_info.html#llama.files.skymap_info.SkymapInfo" xlink:title="{{&lt;B&gt;SkymapInfo&lt;/B&gt;|&lt;I&gt;skymap_info.json&lt;/I&gt;|EventTriggeredFileHandler&lt;BR/&gt;JSONFile}}" target="_top">
<polygon fill="#cccccc" stroke="black" points="0,-0.5 0,-84.5 215,-84.5 215,-0.5 0,-0.5"/>
<text text-anchor="start" x="59.5" y="-70.3" font-family="Times,serif" font-weight="bold" font-size="14.00">SkymapInfo</text>
<polyline fill="none" stroke="black" points="0,-61.5 215,-61.5 "/>
<text text-anchor="start" x="45.5" y="-47.3" font-family="Times,serif" font-style="italic" font-size="14.00">skymap_info.json</text>
<polyline fill="none" stroke="black" points="0,-38.5 215,-38.5 "/>
<text text-anchor="start" x="8" y="-23.3" font-family="Times,serif" font-size="14.00">EventTriggeredFileHandler</text>
<text text-anchor="start" x="73.5" y="-8.3" font-family="Times,serif" font-size="14.00">JSONFile</text>
</a>
</g>
</g>
<!-- llama.files.skymap_info.SkymapInfo&#45;&gt;llama.files.gracedb.LVCGraceDbEventData -->
<g id="edge2" class="edge">
<title>llama.files.skymap_info.SkymapInfo&#45;&gt;llama.files.gracedb.LVCGraceDbEventData</title>
<path fill="none" stroke="red" d="M215.11,-60.5C215.11,-60.5 241,-60.5 241,-60.5"/>
<polygon fill="red" stroke="red" points="241,-64 251,-60.5 241,-57 241,-64"/>
</g>
<!-- llama.files.skymap_info.SkymapInfo&#45;&gt;llama.files.gracedb.RctSlkLmaLVCGraceDbEventData -->
<g id="edge3" class="edge">
<title>llama.files.skymap_info.SkymapInfo&#45;&gt;llama.files.gracedb.RctSlkLmaLVCGraceDbEventData</title>
<path fill="none" stroke="red" d="M215.11,-21.75C215.11,-21.75 500.72,-21.75 500.72,-21.75"/>
<polygon fill="red" stroke="red" points="500.72,-25.25 510.72,-21.75 500.72,-18.25 500.72,-25.25"/>
</g>
</g>
</svg>
