<?xml version="1.0" encoding="UTF-8" standalone="no"?>
<!DOCTYPE svg PUBLIC "-//W3C//DTD SVG 1.1//EN"
 "http://www.w3.org/Graphics/SVG/1.1/DTD/svg11.dtd">
<!-- Generated by graphviz version 2.42.3 (20191010.1750)
 -->
<!-- Title: llama.files.i3.txt.RctGwaIceCubeNeutrinoListTxt Pages: 1 -->
<svg width="1031pt" height="164pt"
 viewBox="0.00 0.00 1031.00 164.00" xmlns="http://www.w3.org/2000/svg" xmlns:xlink="http://www.w3.org/1999/xlink">
<g id="graph0" class="graph" transform="scale(1 1) rotate(0) translate(4 160)">
<title>llama.files.i3.txt.RctGwaIceCubeNeutrinoListTxt</title>
<polygon fill="transparent" stroke="transparent" points="-4,4 -4,-160 1027,-160 1027,4 -4,4"/>
<!-- llama.files.i3.json.IceCubeNeutrinoList -->
<g id="node1" class="node">
<title>llama.files.i3.json.IceCubeNeutrinoList</title>
<g id="a_node1"><a xlink:href="/llama.files.i3.json.html#llama.files.i3.json.IceCubeNeutrinoList" xlink:title="{{&lt;B&gt;IceCubeNeutrinoList&lt;/B&gt;|&lt;I&gt;icecube_neutrino_list.json&lt;/I&gt;|JSONFile&lt;BR/&gt;HEALPixPSF}}" target="_top">
<polygon fill="#cccccc" stroke="black" points="251,-71.5 251,-155.5 455,-155.5 455,-71.5 251,-71.5"/>
<text text-anchor="start" x="269" y="-141.3" font-family="Times,serif" font-weight="bold" font-size="14.00">IceCubeNeutrinoList</text>
<polyline fill="none" stroke="black" points="251,-132.5 455,-132.5 "/>
<text text-anchor="start" x="259" y="-118.3" font-family="Times,serif" font-style="italic" font-size="14.00">icecube_neutrino_list.json</text>
<polyline fill="none" stroke="black" points="251,-109.5 455,-109.5 "/>
<text text-anchor="start" x="319" y="-94.3" font-family="Times,serif" font-size="14.00">JSONFile</text>
<text text-anchor="start" x="305" y="-79.3" font-family="Times,serif" font-size="14.00">HEALPixPSF</text>
</a>
</g>
</g>
<!-- llama.files.i3.txt.IceCubeNeutrinoListTxt -->
<g id="node2" class="node">
<title>llama.files.i3.txt.IceCubeNeutrinoListTxt</title>
<g id="a_node2"><a xlink:href="/llama.files.i3.txt.html#llama.files.i3.txt.IceCubeNeutrinoListTxt" xlink:title="{{&lt;B&gt;IceCubeNeutrinoListTxt&lt;/B&gt;|&lt;I&gt;icecube_neutrino_list.txt&lt;/I&gt;|FileHandler}}" target="_top">
<polygon fill="#cccccc" stroke="black" points="491,-33 491,-102 700,-102 700,-33 491,-33"/>
<text text-anchor="start" x="499" y="-87.8" font-family="Times,serif" font-weight="bold" font-size="14.00">IceCubeNeutrinoListTxt</text>
<polyline fill="none" stroke="black" points="491,-79 700,-79 "/>
<text text-anchor="start" x="506" y="-64.8" font-family="Times,serif" font-style="italic" font-size="14.00">icecube_neutrino_list.txt</text>
<polyline fill="none" stroke="black" points="491,-56 700,-56 "/>
<text text-anchor="start" x="552.5" y="-40.8" font-family="Times,serif" font-size="14.00">FileHandler</text>
</a>
</g>
</g>
<!-- llama.files.i3.json.IceCubeNeutrinoList&#45;&gt;llama.files.i3.txt.IceCubeNeutrinoListTxt -->
<g id="edge1" class="edge">
<title>llama.files.i3.json.IceCubeNeutrinoList&#45;&gt;llama.files.i3.txt.IceCubeNeutrinoListTxt</title>
<path fill="none" stroke="red" d="M455.14,-86.75C455.14,-86.75 480.76,-86.75 480.76,-86.75"/>
<polygon fill="red" stroke="red" points="480.76,-90.25 490.76,-86.75 480.76,-83.25 480.76,-90.25"/>
</g>
<!-- llama.files.i3.txt.RctGwaIceCubeNeutrinoListTxt -->
<g id="node3" class="node">
<title>llama.files.i3.txt.RctGwaIceCubeNeutrinoListTxt</title>
<g id="a_node3"><a xlink:href="/llama.files.i3.txt.html#llama.files.i3.txt.RctGwaIceCubeNeutrinoListTxt" xlink:title="{{&lt;B&gt;RctGwaIceCubeNeutrinoListTxt&lt;/B&gt;|&lt;I&gt;rct_gwa_icecube_neutrino_list.txt.log&lt;/I&gt;|GWAstroReceipt}}" target="_top">
<polygon fill="#cccccc" stroke="black" points="736,-1 736,-70 1023,-70 1023,-1 736,-1"/>
<text text-anchor="start" x="752.5" y="-55.8" font-family="Times,serif" font-weight="bold" font-size="14.00">RctGwaIceCubeNeutrinoListTxt</text>
<polyline fill="none" stroke="black" points="736,-47 1023,-47 "/>
<text text-anchor="start" x="744" y="-32.8" font-family="Times,serif" font-style="italic" font-size="14.00">rct_gwa_icecube_neutrino_list.txt.log</text>
<polyline fill="none" stroke="black" points="736,-24 1023,-24 "/>
<text text-anchor="start" x="819.5" y="-8.8" font-family="Times,serif" font-size="14.00">GWAstroReceipt</text>
</a>
</g>
</g>
<!-- llama.files.i3.txt.IceCubeNeutrinoListTxt&#45;&gt;llama.files.i3.txt.RctGwaIceCubeNeutrinoListTxt -->
<g id="edge2" class="edge">
<title>llama.files.i3.txt.IceCubeNeutrinoListTxt&#45;&gt;llama.files.i3.txt.RctGwaIceCubeNeutrinoListTxt</title>
<path fill="none" stroke="red" d="M700.04,-51.5C700.04,-51.5 725.9,-51.5 725.9,-51.5"/>
<polygon fill="red" stroke="red" points="725.9,-55 735.9,-51.5 725.9,-48 725.9,-55"/>
</g>
<!-- llama.files.skymap_info.SkymapInfo -->
<g id="node4" class="node">
<title>llama.files.skymap_info.SkymapInfo</title>
<g id="a_node4"><a xlink:href="/llama.files.skymap_info.html#llama.files.skymap_info.SkymapInfo" xlink:title="{{&lt;B&gt;SkymapInfo&lt;/B&gt;|&lt;I&gt;skymap_info.json&lt;/I&gt;|EventTriggeredFileHandler&lt;BR/&gt;JSONFile}}" target="_top">
<polygon fill="#cccccc" stroke="black" points="0,-0.5 0,-84.5 215,-84.5 215,-0.5 0,-0.5"/>
<text text-anchor="start" x="59.5" y="-70.3" font-family="Times,serif" font-weight="bold" font-size="14.00">SkymapInfo</text>
<polyline fill="none" stroke="black" points="0,-61.5 215,-61.5 "/>
<text text-anchor="start" x="45.5" y="-47.3" font-family="Times,serif" font-style="italic" font-size="14.00">skymap_info.json</text>
<polyline fill="none" stroke="black" points="0,-38.5 215,-38.5 "/>
<text text-anchor="start" x="8" y="-23.3" font-family="Times,serif" font-size="14.00">EventTriggeredFileHandler</text>
<text text-anchor="start" x="73.5" y="-8.3" font-family="Times,serif" font-size="14.00">JSONFile</text>
</a>
</g>
</g>
<!-- llama.files.skymap_info.SkymapInfo&#45;&gt;llama.files.i3.json.IceCubeNeutrinoList -->
<g id="edge3" class="edge">
<title>llama.files.skymap_info.SkymapInfo&#45;&gt;llama.files.i3.json.IceCubeNeutrinoList</title>
<path fill="none" stroke="red" d="M215.18,-78C215.18,-78 240.86,-78 240.86,-78"/>
<polygon fill="red" stroke="red" points="240.86,-81.5 250.86,-78 240.86,-74.5 240.86,-81.5"/>
</g>
<!-- llama.files.skymap_info.SkymapInfo&#45;&gt;llama.files.i3.txt.IceCubeNeutrinoListTxt -->
<g id="edge4" class="edge">
<title>llama.files.skymap_info.SkymapInfo&#45;&gt;llama.files.i3.txt.IceCubeNeutrinoListTxt</title>
<path fill="none" stroke="red" d="M215.2,-51.75C215.2,-51.75 480.59,-51.75 480.59,-51.75"/>
<polygon fill="red" stroke="red" points="480.59,-55.25 490.59,-51.75 480.59,-48.25 480.59,-55.25"/>
</g>
<!-- llama.files.skymap_info.SkymapInfo&#45;&gt;llama.files.i3.txt.RctGwaIceCubeNeutrinoListTxt -->
<g id="edge5" class="edge">
<title>llama.files.skymap_info.SkymapInfo&#45;&gt;llama.files.i3.txt.RctGwaIceCubeNeutrinoListTxt</title>
<path fill="none" stroke="red" d="M215.25,-16.5C215.25,-16.5 725.8,-16.5 725.8,-16.5"/>
<polygon fill="red" stroke="red" points="725.8,-20 735.8,-16.5 725.8,-13 725.8,-20"/>
</g>
</g>
</svg>
