<?xml version="1.0" encoding="UTF-8" standalone="no"?>
<!DOCTYPE svg PUBLIC "-//W3C//DTD SVG 1.1//EN"
 "http://www.w3.org/Graphics/SVG/1.1/DTD/svg11.dtd">
<!-- Generated by graphviz version 2.42.3 (20191010.1750)
 -->
<!-- Title: llama.files.coinc_analyses.CoincLikelihoodPltsFrmI3 Pages: 1 -->
<svg width="1012pt" height="196pt"
 viewBox="0.00 0.00 1012.00 196.00" xmlns="http://www.w3.org/2000/svg" xmlns:xlink="http://www.w3.org/1999/xlink">
<g id="graph0" class="graph" transform="scale(1 1) rotate(0) translate(4 192)">
<title>llama.files.coinc_analyses.CoincLikelihoodPltsFrmI3</title>
<polygon fill="transparent" stroke="transparent" points="-4,4 -4,-192 1008,-192 1008,4 -4,4"/>
<!-- llama.files.coinc_analyses.CoincLikelihoodPltsFrmI3 -->
<g id="node1" class="node">
<title>llama.files.coinc_analyses.CoincLikelihoodPltsFrmI3</title>
<g id="a_node1"><a xlink:href="/llama.files.coinc_analyses.html#llama.files.coinc_analyses.CoincLikelihoodPltsFrmI3" xlink:title="{{&lt;B&gt;CoincLikelihoodPltsFrmI3&lt;/B&gt;|&lt;I&gt;likelihood_frm&#45;i3.hdf5&#45;plots.tar.gz&lt;/I&gt;|HEALPixPlots}}" target="_top">
<polygon fill="#cccccc" stroke="black" points="745,-59 745,-128 1004,-128 1004,-59 745,-59"/>
<text text-anchor="start" x="769.5" y="-113.8" font-family="Times,serif" font-weight="bold" font-size="14.00">CoincLikelihoodPltsFrmI3</text>
<polyline fill="none" stroke="black" points="745,-105 1004,-105 "/>
<text text-anchor="start" x="753" y="-90.8" font-family="Times,serif" font-style="italic" font-size="14.00">likelihood_frm&#45;i3.hdf5&#45;plots.tar.gz</text>
<polyline fill="none" stroke="black" points="745,-82 1004,-82 "/>
<text text-anchor="start" x="823" y="-66.8" font-family="Times,serif" font-size="14.00">HEALPixPlots</text>
</a>
</g>
</g>
<!-- llama.files.coinc_analyses.CoincSkymapFrmI3HDF5 -->
<g id="node2" class="node">
<title>llama.files.coinc_analyses.CoincSkymapFrmI3HDF5</title>
<g id="a_node2"><a xlink:href="/llama.files.coinc_analyses.html#llama.files.coinc_analyses.CoincSkymapFrmI3HDF5" xlink:title="{{&lt;B&gt;CoincSkymapFrmI3HDF5&lt;/B&gt;|&lt;I&gt;likelihood_frm&#45;i3.hdf5&lt;/I&gt;|HEALPixSkyMapAnalysis}}" target="_top">
<polygon fill="#cccccc" stroke="black" points="491,-59 491,-128 709,-128 709,-59 491,-59"/>
<text text-anchor="start" x="499" y="-113.8" font-family="Times,serif" font-weight="bold" font-size="14.00">CoincSkymapFrmI3HDF5</text>
<polyline fill="none" stroke="black" points="491,-105 709,-105 "/>
<text text-anchor="start" x="521" y="-90.8" font-family="Times,serif" font-style="italic" font-size="14.00">likelihood_frm&#45;i3.hdf5</text>
<polyline fill="none" stroke="black" points="491,-82 709,-82 "/>
<text text-anchor="start" x="507.5" y="-66.8" font-family="Times,serif" font-size="14.00">HEALPixSkyMapAnalysis</text>
</a>
</g>
</g>
<!-- llama.files.coinc_analyses.CoincSkymapFrmI3HDF5&#45;&gt;llama.files.coinc_analyses.CoincLikelihoodPltsFrmI3 -->
<g id="edge1" class="edge">
<title>llama.files.coinc_analyses.CoincSkymapFrmI3HDF5&#45;&gt;llama.files.coinc_analyses.CoincLikelihoodPltsFrmI3</title>
<path fill="none" stroke="red" d="M709.28,-93.5C709.28,-93.5 734.75,-93.5 734.75,-93.5"/>
<polygon fill="red" stroke="red" points="734.75,-97 744.75,-93.5 734.75,-90 734.75,-97"/>
</g>
<!-- llama.files.fermi_grb.FermiGRBsJSON -->
<g id="node3" class="node">
<title>llama.files.fermi_grb.FermiGRBsJSON</title>
<g id="a_node3"><a xlink:href="/llama.files.fermi_grb.html#llama.files.fermi_grb.FermiGRBsJSON" xlink:title="{{&lt;B&gt;FermiGRBsJSON&lt;/B&gt;|&lt;I&gt;fermi_grbs.json&lt;/I&gt;|JSONFile&lt;BR/&gt;HEALPixPSF}}" target="_top">
<polygon fill="#cccccc" stroke="black" points="278.5,-103.5 278.5,-187.5 427.5,-187.5 427.5,-103.5 278.5,-103.5"/>
<text text-anchor="start" x="286.5" y="-173.3" font-family="Times,serif" font-weight="bold" font-size="14.00">FermiGRBsJSON</text>
<polyline fill="none" stroke="black" points="278.5,-164.5 427.5,-164.5 "/>
<text text-anchor="start" x="297" y="-150.3" font-family="Times,serif" font-style="italic" font-size="14.00">fermi_grbs.json</text>
<polyline fill="none" stroke="black" points="278.5,-141.5 427.5,-141.5 "/>
<text text-anchor="start" x="319" y="-126.3" font-family="Times,serif" font-size="14.00">JSONFile</text>
<text text-anchor="start" x="305" y="-111.3" font-family="Times,serif" font-size="14.00">HEALPixPSF</text>
</a>
</g>
</g>
<!-- llama.files.fermi_grb.FermiGRBsJSON&#45;&gt;llama.files.coinc_analyses.CoincSkymapFrmI3HDF5 -->
<g id="edge2" class="edge">
<title>llama.files.fermi_grb.FermiGRBsJSON&#45;&gt;llama.files.coinc_analyses.CoincSkymapFrmI3HDF5</title>
<path fill="none" stroke="red" d="M427.78,-115.75C427.78,-115.75 480.85,-115.75 480.85,-115.75"/>
<polygon fill="red" stroke="red" points="480.85,-119.25 490.85,-115.75 480.85,-112.25 480.85,-119.25"/>
</g>
<!-- llama.files.i3.json.IceCubeNeutrinoList -->
<g id="node4" class="node">
<title>llama.files.i3.json.IceCubeNeutrinoList</title>
<g id="a_node4"><a xlink:href="/llama.files.i3.json.html#llama.files.i3.json.IceCubeNeutrinoList" xlink:title="{{&lt;B&gt;IceCubeNeutrinoList&lt;/B&gt;|&lt;I&gt;icecube_neutrino_list.json&lt;/I&gt;|JSONFile&lt;BR/&gt;HEALPixPSF}}" target="_top">
<polygon fill="#cccccc" stroke="black" points="251,-0.5 251,-84.5 455,-84.5 455,-0.5 251,-0.5"/>
<text text-anchor="start" x="269" y="-70.3" font-family="Times,serif" font-weight="bold" font-size="14.00">IceCubeNeutrinoList</text>
<polyline fill="none" stroke="black" points="251,-61.5 455,-61.5 "/>
<text text-anchor="start" x="259" y="-47.3" font-family="Times,serif" font-style="italic" font-size="14.00">icecube_neutrino_list.json</text>
<polyline fill="none" stroke="black" points="251,-38.5 455,-38.5 "/>
<text text-anchor="start" x="319" y="-23.3" font-family="Times,serif" font-size="14.00">JSONFile</text>
<text text-anchor="start" x="305" y="-8.3" font-family="Times,serif" font-size="14.00">HEALPixPSF</text>
</a>
</g>
</g>
<!-- llama.files.i3.json.IceCubeNeutrinoList&#45;&gt;llama.files.coinc_analyses.CoincSkymapFrmI3HDF5 -->
<g id="edge3" class="edge">
<title>llama.files.i3.json.IceCubeNeutrinoList&#45;&gt;llama.files.coinc_analyses.CoincSkymapFrmI3HDF5</title>
<path fill="none" stroke="red" d="M455.25,-71.75C455.25,-71.75 480.63,-71.75 480.63,-71.75"/>
<polygon fill="red" stroke="red" points="480.63,-75.25 490.63,-71.75 480.63,-68.25 480.63,-75.25"/>
</g>
<!-- llama.files.skymap_info.SkymapInfo -->
<g id="node5" class="node">
<title>llama.files.skymap_info.SkymapInfo</title>
<g id="a_node5"><a xlink:href="/llama.files.skymap_info.html#llama.files.skymap_info.SkymapInfo" xlink:title="{{&lt;B&gt;SkymapInfo&lt;/B&gt;|&lt;I&gt;skymap_info.json&lt;/I&gt;|EventTriggeredFileHandler&lt;BR/&gt;JSONFile}}" target="_top">
<polygon fill="#cccccc" stroke="black" points="0,-51.5 0,-135.5 215,-135.5 215,-51.5 0,-51.5"/>
<text text-anchor="start" x="59.5" y="-121.3" font-family="Times,serif" font-weight="bold" font-size="14.00">SkymapInfo</text>
<polyline fill="none" stroke="black" points="0,-112.5 215,-112.5 "/>
<text text-anchor="start" x="45.5" y="-98.3" font-family="Times,serif" font-style="italic" font-size="14.00">skymap_info.json</text>
<polyline fill="none" stroke="black" points="0,-89.5 215,-89.5 "/>
<text text-anchor="start" x="8" y="-74.3" font-family="Times,serif" font-size="14.00">EventTriggeredFileHandler</text>
<text text-anchor="start" x="73.5" y="-59.3" font-family="Times,serif" font-size="14.00">JSONFile</text>
</a>
</g>
</g>
<!-- llama.files.skymap_info.SkymapInfo&#45;&gt;llama.files.fermi_grb.FermiGRBsJSON -->
<g id="edge4" class="edge">
<title>llama.files.skymap_info.SkymapInfo&#45;&gt;llama.files.fermi_grb.FermiGRBsJSON</title>
<path fill="none" stroke="red" d="M215.18,-119.5C215.18,-119.5 268.19,-119.5 268.19,-119.5"/>
<polygon fill="red" stroke="red" points="268.19,-123 278.19,-119.5 268.19,-116 268.19,-123"/>
</g>
<!-- llama.files.skymap_info.SkymapInfo&#45;&gt;llama.files.i3.json.IceCubeNeutrinoList -->
<g id="edge5" class="edge">
<title>llama.files.skymap_info.SkymapInfo&#45;&gt;llama.files.i3.json.IceCubeNeutrinoList</title>
<path fill="none" stroke="red" d="M215.18,-68C215.18,-68 240.86,-68 240.86,-68"/>
<polygon fill="red" stroke="red" points="240.86,-71.5 250.86,-68 240.86,-64.5 240.86,-71.5"/>
</g>
</g>
</svg>
