<?xml version="1.0" encoding="UTF-8" standalone="no"?>
<!DOCTYPE svg PUBLIC "-//W3C//DTD SVG 1.1//EN"
 "http://www.w3.org/Graphics/SVG/1.1/DTD/svg11.dtd">
<!-- Generated by graphviz version 2.42.3 (20191010.1750)
 -->
<!-- Title: llama.files.coinc_significance.opa.RctSlkLmaCoincSignificanceI3Lvc Pages: 1 -->
<svg width="1359pt" height="390pt"
 viewBox="0.00 0.00 1359.00 389.50" xmlns="http://www.w3.org/2000/svg" xmlns:xlink="http://www.w3.org/1999/xlink">
<g id="graph0" class="graph" transform="scale(1 1) rotate(0) translate(4 385.5)">
<title>llama.files.coinc_significance.opa.RctSlkLmaCoincSignificanceI3Lvc</title>
<polygon fill="transparent" stroke="transparent" points="-4,4 -4,-385.5 1355,-385.5 1355,4 -4,4"/>
<!-- llama.files.coinc_significance.opa.CoincSignificanceI3Lvc -->
<g id="node1" class="node">
<title>llama.files.coinc_significance.opa.CoincSignificanceI3Lvc</title>
<g id="a_node1"><a xlink:href="/llama.files.coinc_significance.opa.html#llama.files.coinc_significance.opa.CoincSignificanceI3Lvc" xlink:title="{{&lt;B&gt;CoincSignificanceI3Lvc&lt;/B&gt;|&lt;I&gt;significance_lvc&#45;i3.json&lt;/I&gt;|JSONFile}}" target="_top">
<polygon fill="#cccccc" stroke="black" points="803,-222 803,-291 1007,-291 1007,-222 803,-222"/>
<text text-anchor="start" x="811" y="-276.8" font-family="Times,serif" font-weight="bold" font-size="14.00">CoincSignificanceI3Lvc</text>
<polyline fill="none" stroke="black" points="803,-268 1007,-268 "/>
<text text-anchor="start" x="821.5" y="-253.8" font-family="Times,serif" font-style="italic" font-size="14.00">significance_lvc&#45;i3.json</text>
<polyline fill="none" stroke="black" points="803,-245 1007,-245 "/>
<text text-anchor="start" x="871" y="-229.8" font-family="Times,serif" font-size="14.00">JSONFile</text>
</a>
</g>
</g>
<!-- llama.files.coinc_significance.opa.RctSlkLmaCoincSignificanceI3Lvc -->
<g id="node2" class="node">
<title>llama.files.coinc_significance.opa.RctSlkLmaCoincSignificanceI3Lvc</title>
<g id="a_node2"><a xlink:href="/llama.files.coinc_significance.opa.html#llama.files.coinc_significance.opa.RctSlkLmaCoincSignificanceI3Lvc" xlink:title="{{&lt;B&gt;RctSlkLmaCoincSignificanceI3Lvc&lt;/B&gt;|&lt;I&gt;rct_slk_lma_significance_lvc&#45;i3.json.json&lt;/I&gt;|SlackReceiptLlama}}" target="_top">
<polygon fill="#cccccc" stroke="black" points="1043,-312 1043,-381 1351,-381 1351,-312 1043,-312"/>
<text text-anchor="start" x="1059.5" y="-366.8" font-family="Times,serif" font-weight="bold" font-size="14.00">RctSlkLmaCoincSignificanceI3Lvc</text>
<polyline fill="none" stroke="black" points="1043,-358 1351,-358 "/>
<text text-anchor="start" x="1051" y="-343.8" font-family="Times,serif" font-style="italic" font-size="14.00">rct_slk_lma_significance_lvc&#45;i3.json.json</text>
<polyline fill="none" stroke="black" points="1043,-335 1351,-335 "/>
<text text-anchor="start" x="1127.5" y="-319.8" font-family="Times,serif" font-size="14.00">SlackReceiptLlama</text>
</a>
</g>
</g>
<!-- llama.files.coinc_significance.opa.CoincSignificanceI3Lvc&#45;&gt;llama.files.coinc_significance.opa.RctSlkLmaCoincSignificanceI3Lvc -->
<g id="edge1" class="edge">
<title>llama.files.coinc_significance.opa.CoincSignificanceI3Lvc&#45;&gt;llama.files.coinc_significance.opa.RctSlkLmaCoincSignificanceI3Lvc</title>
<path fill="none" stroke="red" d="M905,-291.25C905,-314.46 905,-340.75 905,-340.75 905,-340.75 1032.88,-340.75 1032.88,-340.75"/>
<polygon fill="red" stroke="red" points="1032.88,-344.25 1042.88,-340.75 1032.88,-337.25 1032.88,-344.25"/>
</g>
<!-- llama.files.gracedb.LVCGraceDbEventData -->
<g id="node3" class="node">
<title>llama.files.gracedb.LVCGraceDbEventData</title>
<g id="a_node3"><a xlink:href="/llama.files.gracedb.html#llama.files.gracedb.LVCGraceDbEventData" xlink:title="{{&lt;B&gt;LVCGraceDbEventData&lt;/B&gt;|&lt;I&gt;lvc_gracedb_event_data.json&lt;/I&gt;|JSONFile&lt;BR/&gt;OnlineVetoMixin}}" target="_top">
<polygon fill="#cccccc" stroke="black" points="541.5,-285.5 541.5,-369.5 765.5,-369.5 765.5,-285.5 541.5,-285.5"/>
<text text-anchor="start" x="563" y="-355.3" font-family="Times,serif" font-weight="bold" font-size="14.00">LVCGraceDbEventData</text>
<polyline fill="none" stroke="black" points="541.5,-346.5 765.5,-346.5 "/>
<text text-anchor="start" x="549.5" y="-332.3" font-family="Times,serif" font-style="italic" font-size="14.00">lvc_gracedb_event_data.json</text>
<polyline fill="none" stroke="black" points="541.5,-323.5 765.5,-323.5 "/>
<text text-anchor="start" x="619.5" y="-308.3" font-family="Times,serif" font-size="14.00">JSONFile</text>
<text text-anchor="start" x="593.5" y="-293.3" font-family="Times,serif" font-size="14.00">OnlineVetoMixin</text>
</a>
</g>
</g>
<!-- llama.files.gracedb.LVCGraceDbEventData&#45;&gt;llama.files.coinc_significance.opa.CoincSignificanceI3Lvc -->
<g id="edge2" class="edge">
<title>llama.files.gracedb.LVCGraceDbEventData&#45;&gt;llama.files.coinc_significance.opa.CoincSignificanceI3Lvc</title>
<path fill="none" stroke="red" d="M764,-285.11C764,-279.47 764,-275.58 764,-275.58 764,-275.58 792.9,-275.58 792.9,-275.58"/>
<polygon fill="red" stroke="red" points="792.9,-279.08 802.9,-275.58 792.9,-272.08 792.9,-279.08"/>
</g>
<!-- llama.files.gracedb.PAstro -->
<g id="node4" class="node">
<title>llama.files.gracedb.PAstro</title>
<g id="a_node4"><a xlink:href="/llama.files.gracedb.html#llama.files.gracedb.PAstro" xlink:title="{{&lt;B&gt;PAstro&lt;/B&gt;|&lt;I&gt;p_astro.json&lt;/I&gt;|GraceDBPollingFileHandler&lt;BR/&gt;JSONFile}}" target="_top">
<polygon fill="#cccccc" stroke="black" points="270,-222.5 270,-306.5 485,-306.5 485,-222.5 270,-222.5"/>
<text text-anchor="start" x="350.5" y="-292.3" font-family="Times,serif" font-weight="bold" font-size="14.00">PAstro</text>
<polyline fill="none" stroke="black" points="270,-283.5 485,-283.5 "/>
<text text-anchor="start" x="333.5" y="-269.3" font-family="Times,serif" font-style="italic" font-size="14.00">p_astro.json</text>
<polyline fill="none" stroke="black" points="270,-260.5 485,-260.5 "/>
<text text-anchor="start" x="278" y="-245.3" font-family="Times,serif" font-size="14.00">GraceDBPollingFileHandler</text>
<text text-anchor="start" x="343.5" y="-230.3" font-family="Times,serif" font-size="14.00">JSONFile</text>
</a>
</g>
</g>
<!-- llama.files.gracedb.PAstro&#45;&gt;llama.files.coinc_significance.opa.CoincSignificanceI3Lvc -->
<g id="edge3" class="edge">
<title>llama.files.gracedb.PAstro&#45;&gt;llama.files.coinc_significance.opa.CoincSignificanceI3Lvc</title>
<path fill="none" stroke="red" d="M485.2,-256.75C485.2,-256.75 792.82,-256.75 792.82,-256.75"/>
<polygon fill="red" stroke="red" points="792.82,-260.25 802.82,-256.75 792.82,-253.25 792.82,-260.25"/>
</g>
<!-- llama.files.i3.json.IceCubeNeutrinoList -->
<g id="node5" class="node">
<title>llama.files.i3.json.IceCubeNeutrinoList</title>
<g id="a_node5"><a xlink:href="/llama.files.i3.json.html#llama.files.i3.json.IceCubeNeutrinoList" xlink:title="{{&lt;B&gt;IceCubeNeutrinoList&lt;/B&gt;|&lt;I&gt;icecube_neutrino_list.json&lt;/I&gt;|JSONFile&lt;BR/&gt;HEALPixPSF}}" target="_top">
<polygon fill="#cccccc" stroke="black" points="275.5,-0.5 275.5,-84.5 479.5,-84.5 479.5,-0.5 275.5,-0.5"/>
<text text-anchor="start" x="293.5" y="-70.3" font-family="Times,serif" font-weight="bold" font-size="14.00">IceCubeNeutrinoList</text>
<polyline fill="none" stroke="black" points="275.5,-61.5 479.5,-61.5 "/>
<text text-anchor="start" x="283.5" y="-47.3" font-family="Times,serif" font-style="italic" font-size="14.00">icecube_neutrino_list.json</text>
<polyline fill="none" stroke="black" points="275.5,-38.5 479.5,-38.5 "/>
<text text-anchor="start" x="343.5" y="-23.3" font-family="Times,serif" font-size="14.00">JSONFile</text>
<text text-anchor="start" x="329.5" y="-8.3" font-family="Times,serif" font-size="14.00">HEALPixPSF</text>
</a>
</g>
</g>
<!-- llama.files.i3.json.IceCubeNeutrinoList&#45;&gt;llama.files.coinc_significance.opa.CoincSignificanceI3Lvc -->
<g id="edge4" class="edge">
<title>llama.files.i3.json.IceCubeNeutrinoList&#45;&gt;llama.files.coinc_significance.opa.CoincSignificanceI3Lvc</title>
<path fill="none" stroke="red" d="M479.52,-35.25C632.86,-35.25 905,-35.25 905,-35.25 905,-35.25 905,-211.93 905,-211.93"/>
<polygon fill="red" stroke="red" points="901.5,-211.93 905,-221.93 908.5,-211.93 901.5,-211.93"/>
</g>
<!-- llama.files.lvc_skymap.LvcDistancesJson -->
<g id="node6" class="node">
<title>llama.files.lvc_skymap.LvcDistancesJson</title>
<g id="a_node6"><a xlink:href="/llama.files.lvc_skymap.html#llama.files.lvc_skymap.LvcDistancesJson" xlink:title="{{&lt;B&gt;LvcDistancesJson&lt;/B&gt;|&lt;I&gt;lvc_skymap_distances.json&lt;/I&gt;|JSONFile}}" target="_top">
<polygon fill="#cccccc" stroke="black" points="548.5,-159 548.5,-228 758.5,-228 758.5,-159 548.5,-159"/>
<text text-anchor="start" x="583" y="-213.8" font-family="Times,serif" font-weight="bold" font-size="14.00">LvcDistancesJson</text>
<polyline fill="none" stroke="black" points="548.5,-205 758.5,-205 "/>
<text text-anchor="start" x="556.5" y="-190.8" font-family="Times,serif" font-style="italic" font-size="14.00">lvc_skymap_distances.json</text>
<polyline fill="none" stroke="black" points="548.5,-182 758.5,-182 "/>
<text text-anchor="start" x="619.5" y="-166.8" font-family="Times,serif" font-size="14.00">JSONFile</text>
</a>
</g>
</g>
<!-- llama.files.lvc_skymap.LvcDistancesJson&#45;&gt;llama.files.coinc_significance.opa.CoincSignificanceI3Lvc -->
<g id="edge5" class="edge">
<title>llama.files.lvc_skymap.LvcDistancesJson&#45;&gt;llama.files.coinc_significance.opa.CoincSignificanceI3Lvc</title>
<path fill="none" stroke="red" d="M654,-228.2C654,-238.62 654,-247.33 654,-247.33 654,-247.33 792.91,-247.33 792.91,-247.33"/>
<polygon fill="red" stroke="red" points="792.91,-250.83 802.91,-247.33 792.91,-243.83 792.91,-250.83"/>
</g>
<!-- llama.files.lvc_skymap.LvcSkymapFits -->
<g id="node7" class="node">
<title>llama.files.lvc_skymap.LvcSkymapFits</title>
<g id="a_node7"><a xlink:href="/llama.files.lvc_skymap.html#llama.files.lvc_skymap.LvcSkymapFits" xlink:title="{{&lt;B&gt;LvcSkymapFits&lt;/B&gt;|&lt;I&gt;lvc_skymap.fits.gz&lt;/I&gt;|GenerateOnceMixin&lt;BR/&gt;LvcHEALPixSkyMapFileHandler&lt;BR/&gt;OnlineVetoMixin}}" target="_top">
<polygon fill="#cccccc" stroke="black" points="251,-104 251,-203 504,-203 504,-104 251,-104"/>
<text text-anchor="start" x="317.5" y="-188.8" font-family="Times,serif" font-weight="bold" font-size="14.00">LvcSkymapFits</text>
<polyline fill="none" stroke="black" points="251,-180 504,-180 "/>
<text text-anchor="start" x="311" y="-165.8" font-family="Times,serif" font-style="italic" font-size="14.00">lvc_skymap.fits.gz</text>
<polyline fill="none" stroke="black" points="251,-157 504,-157 "/>
<text text-anchor="start" x="305" y="-141.8" font-family="Times,serif" font-size="14.00">GenerateOnceMixin</text>
<text text-anchor="start" x="259" y="-126.8" font-family="Times,serif" font-size="14.00">LvcHEALPixSkyMapFileHandler</text>
<text text-anchor="start" x="317.5" y="-111.8" font-family="Times,serif" font-size="14.00">OnlineVetoMixin</text>
</a>
</g>
</g>
<!-- llama.files.lvc_skymap.LvcSkymapFits&#45;&gt;llama.files.lvc_skymap.LvcDistancesJson -->
<g id="edge6" class="edge">
<title>llama.files.lvc_skymap.LvcSkymapFits&#45;&gt;llama.files.lvc_skymap.LvcDistancesJson</title>
<path fill="none" stroke="red" d="M504.19,-181C504.19,-181 538.25,-181 538.25,-181"/>
<polygon fill="red" stroke="red" points="538.25,-184.5 548.25,-181 538.25,-177.5 538.25,-184.5"/>
</g>
<!-- llama.files.lvc_skymap.LvcSkymapHdf5 -->
<g id="node8" class="node">
<title>llama.files.lvc_skymap.LvcSkymapHdf5</title>
<g id="a_node8"><a xlink:href="/llama.files.lvc_skymap.html#llama.files.lvc_skymap.LvcSkymapHdf5" xlink:title="{{&lt;B&gt;LvcSkymapHdf5&lt;/B&gt;|&lt;I&gt;lvc_skymap.hdf5&lt;/I&gt;|HEALPixSkyMapFileHandler}}" target="_top">
<polygon fill="#cccccc" stroke="black" points="540,-71 540,-140 767,-140 767,-71 540,-71"/>
<text text-anchor="start" x="589" y="-125.8" font-family="Times,serif" font-weight="bold" font-size="14.00">LvcSkymapHdf5</text>
<polyline fill="none" stroke="black" points="540,-117 767,-117 "/>
<text text-anchor="start" x="593" y="-102.8" font-family="Times,serif" font-style="italic" font-size="14.00">lvc_skymap.hdf5</text>
<polyline fill="none" stroke="black" points="540,-94 767,-94 "/>
<text text-anchor="start" x="548" y="-78.8" font-family="Times,serif" font-size="14.00">HEALPixSkyMapFileHandler</text>
</a>
</g>
</g>
<!-- llama.files.lvc_skymap.LvcSkymapFits&#45;&gt;llama.files.lvc_skymap.LvcSkymapHdf5 -->
<g id="edge7" class="edge">
<title>llama.files.lvc_skymap.LvcSkymapFits&#45;&gt;llama.files.lvc_skymap.LvcSkymapHdf5</title>
<path fill="none" stroke="red" d="M504.19,-122C504.19,-122 529.88,-122 529.88,-122"/>
<polygon fill="red" stroke="red" points="529.88,-125.5 539.88,-122 529.88,-118.5 529.88,-125.5"/>
</g>
<!-- llama.files.lvc_skymap.LvcSkymapHdf5&#45;&gt;llama.files.coinc_significance.opa.CoincSignificanceI3Lvc -->
<g id="edge8" class="edge">
<title>llama.files.lvc_skymap.LvcSkymapHdf5&#45;&gt;llama.files.coinc_significance.opa.CoincSignificanceI3Lvc</title>
<path fill="none" stroke="red" d="M761,-140.29C761,-179.52 761,-237.92 761,-237.92 761,-237.92 792.65,-237.92 792.65,-237.92"/>
<polygon fill="red" stroke="red" points="792.65,-241.42 802.65,-237.92 792.65,-234.42 792.65,-241.42"/>
</g>
<!-- llama.files.skymap_info.SkymapInfo -->
<g id="node9" class="node">
<title>llama.files.skymap_info.SkymapInfo</title>
<g id="a_node9"><a xlink:href="/llama.files.skymap_info.html#llama.files.skymap_info.SkymapInfo" xlink:title="{{&lt;B&gt;SkymapInfo&lt;/B&gt;|&lt;I&gt;skymap_info.json&lt;/I&gt;|EventTriggeredFileHandler&lt;BR/&gt;JSONFile}}" target="_top">
<polygon fill="#cccccc" stroke="black" points="0,-257.5 0,-341.5 215,-341.5 215,-257.5 0,-257.5"/>
<text text-anchor="start" x="59.5" y="-327.3" font-family="Times,serif" font-weight="bold" font-size="14.00">SkymapInfo</text>
<polyline fill="none" stroke="black" points="0,-318.5 215,-318.5 "/>
<text text-anchor="start" x="45.5" y="-304.3" font-family="Times,serif" font-style="italic" font-size="14.00">skymap_info.json</text>
<polyline fill="none" stroke="black" points="0,-295.5 215,-295.5 "/>
<text text-anchor="start" x="8" y="-280.3" font-family="Times,serif" font-size="14.00">EventTriggeredFileHandler</text>
<text text-anchor="start" x="73.5" y="-265.3" font-family="Times,serif" font-size="14.00">JSONFile</text>
</a>
</g>
</g>
<!-- llama.files.skymap_info.SkymapInfo&#45;&gt;llama.files.coinc_significance.opa.CoincSignificanceI3Lvc -->
<g id="edge9" class="edge">
<title>llama.files.skymap_info.SkymapInfo&#45;&gt;llama.files.coinc_significance.opa.CoincSignificanceI3Lvc</title>
<path fill="none" stroke="red" d="M215.18,-318.67C329.85,-318.67 495,-318.67 495,-318.67 495,-318.67 495,-266.17 495,-266.17 495,-266.17 792.86,-266.17 792.86,-266.17"/>
<polygon fill="red" stroke="red" points="792.86,-269.67 802.86,-266.17 792.86,-262.67 792.86,-269.67"/>
</g>
<!-- llama.files.skymap_info.SkymapInfo&#45;&gt;llama.files.coinc_significance.opa.RctSlkLmaCoincSignificanceI3Lvc -->
<g id="edge10" class="edge">
<title>llama.files.skymap_info.SkymapInfo&#45;&gt;llama.files.coinc_significance.opa.RctSlkLmaCoincSignificanceI3Lvc</title>
<path fill="none" stroke="red" d="M108,-341.64C108,-359.27 108,-375.75 108,-375.75 108,-375.75 1032.99,-375.75 1032.99,-375.75"/>
<polygon fill="red" stroke="red" points="1032.99,-379.25 1042.99,-375.75 1032.99,-372.25 1032.99,-379.25"/>
</g>
<!-- llama.files.skymap_info.SkymapInfo&#45;&gt;llama.files.gracedb.LVCGraceDbEventData -->
<g id="edge11" class="edge">
<title>llama.files.skymap_info.SkymapInfo&#45;&gt;llama.files.gracedb.LVCGraceDbEventData</title>
<path fill="none" stroke="red" d="M215.05,-330.33C215.05,-330.33 531.5,-330.33 531.5,-330.33"/>
<polygon fill="red" stroke="red" points="531.5,-333.83 541.5,-330.33 531.5,-326.83 531.5,-333.83"/>
</g>
<!-- llama.files.skymap_info.SkymapInfo&#45;&gt;llama.files.gracedb.PAstro -->
<g id="edge12" class="edge">
<title>llama.files.skymap_info.SkymapInfo&#45;&gt;llama.files.gracedb.PAstro</title>
<path fill="none" stroke="red" d="M215.38,-290.33C215.38,-290.33 259.8,-290.33 259.8,-290.33"/>
<polygon fill="red" stroke="red" points="259.8,-293.83 269.8,-290.33 259.8,-286.83 259.8,-293.83"/>
</g>
<!-- llama.files.skymap_info.SkymapInfo&#45;&gt;llama.files.i3.json.IceCubeNeutrinoList -->
<g id="edge13" class="edge">
<title>llama.files.skymap_info.SkymapInfo&#45;&gt;llama.files.i3.json.IceCubeNeutrinoList</title>
<path fill="none" stroke="red" d="M108,-257.35C108,-184.44 108,-42.5 108,-42.5 108,-42.5 265.23,-42.5 265.23,-42.5"/>
<polygon fill="red" stroke="red" points="265.23,-46 275.23,-42.5 265.23,-39 265.23,-46"/>
</g>
<!-- llama.files.skymap_info.SkymapInfo&#45;&gt;llama.files.lvc_skymap.LvcSkymapFits -->
<g id="edge14" class="edge">
<title>llama.files.skymap_info.SkymapInfo&#45;&gt;llama.files.lvc_skymap.LvcSkymapFits</title>
<path fill="none" stroke="red" d="M215.36,-273.67C240.96,-273.67 261,-273.67 261,-273.67 261,-273.67 261,-213.07 261,-213.07"/>
<polygon fill="red" stroke="red" points="264.5,-213.07 261,-203.07 257.5,-213.07 264.5,-213.07"/>
</g>
</g>
</svg>
