<?xml version="1.0" encoding="UTF-8" standalone="no"?>
<!DOCTYPE svg PUBLIC "-//W3C//DTD SVG 1.1//EN"
 "http://www.w3.org/Graphics/SVG/1.1/DTD/svg11.dtd">
<!-- Generated by graphviz version 2.42.3 (20191010.1750)
 -->
<!-- Title: llama.files.lvc_skymap.LvcSkymapHdf5 Pages: 1 -->
<svg width="775pt" height="108pt"
 viewBox="0.00 0.00 775.00 108.00" xmlns="http://www.w3.org/2000/svg" xmlns:xlink="http://www.w3.org/1999/xlink">
<g id="graph0" class="graph" transform="scale(1 1) rotate(0) translate(4 104)">
<title>llama.files.lvc_skymap.LvcSkymapHdf5</title>
<polygon fill="transparent" stroke="transparent" points="-4,4 -4,-104 771,-104 771,4 -4,4"/>
<!-- llama.files.lvc_skymap.LvcSkymapFits -->
<g id="node1" class="node">
<title>llama.files.lvc_skymap.LvcSkymapFits</title>
<g id="a_node1"><a xlink:href="/llama.files.lvc_skymap.html#llama.files.lvc_skymap.LvcSkymapFits" xlink:title="{{&lt;B&gt;LvcSkymapFits&lt;/B&gt;|&lt;I&gt;lvc_skymap.fits.gz&lt;/I&gt;|GenerateOnceMixin&lt;BR/&gt;LvcHEALPixSkyMapFileHandler&lt;BR/&gt;OnlineVetoMixin}}" target="_top">
<polygon fill="#cccccc" stroke="black" points="251,-0.5 251,-99.5 504,-99.5 504,-0.5 251,-0.5"/>
<text text-anchor="start" x="317.5" y="-85.3" font-family="Times,serif" font-weight="bold" font-size="14.00">LvcSkymapFits</text>
<polyline fill="none" stroke="black" points="251,-76.5 504,-76.5 "/>
<text text-anchor="start" x="311" y="-62.3" font-family="Times,serif" font-style="italic" font-size="14.00">lvc_skymap.fits.gz</text>
<polyline fill="none" stroke="black" points="251,-53.5 504,-53.5 "/>
<text text-anchor="start" x="305" y="-38.3" font-family="Times,serif" font-size="14.00">GenerateOnceMixin</text>
<text text-anchor="start" x="259" y="-23.3" font-family="Times,serif" font-size="14.00">LvcHEALPixSkyMapFileHandler</text>
<text text-anchor="start" x="317.5" y="-8.3" font-family="Times,serif" font-size="14.00">OnlineVetoMixin</text>
</a>
</g>
</g>
<!-- llama.files.lvc_skymap.LvcSkymapHdf5 -->
<g id="node2" class="node">
<title>llama.files.lvc_skymap.LvcSkymapHdf5</title>
<g id="a_node2"><a xlink:href="/llama.files.lvc_skymap.html#llama.files.lvc_skymap.LvcSkymapHdf5" xlink:title="{{&lt;B&gt;LvcSkymapHdf5&lt;/B&gt;|&lt;I&gt;lvc_skymap.hdf5&lt;/I&gt;|HEALPixSkyMapFileHandler}}" target="_top">
<polygon fill="#cccccc" stroke="black" points="540,-15.5 540,-84.5 767,-84.5 767,-15.5 540,-15.5"/>
<text text-anchor="start" x="589" y="-70.3" font-family="Times,serif" font-weight="bold" font-size="14.00">LvcSkymapHdf5</text>
<polyline fill="none" stroke="black" points="540,-61.5 767,-61.5 "/>
<text text-anchor="start" x="593" y="-47.3" font-family="Times,serif" font-style="italic" font-size="14.00">lvc_skymap.hdf5</text>
<polyline fill="none" stroke="black" points="540,-38.5 767,-38.5 "/>
<text text-anchor="start" x="548" y="-23.3" font-family="Times,serif" font-size="14.00">HEALPixSkyMapFileHandler</text>
</a>
</g>
</g>
<!-- llama.files.lvc_skymap.LvcSkymapFits&#45;&gt;llama.files.lvc_skymap.LvcSkymapHdf5 -->
<g id="edge1" class="edge">
<title>llama.files.lvc_skymap.LvcSkymapFits&#45;&gt;llama.files.lvc_skymap.LvcSkymapHdf5</title>
<path fill="none" stroke="red" d="M504.19,-50C504.19,-50 529.88,-50 529.88,-50"/>
<polygon fill="red" stroke="red" points="529.88,-53.5 539.88,-50 529.88,-46.5 529.88,-53.5"/>
</g>
<!-- llama.files.skymap_info.SkymapInfo -->
<g id="node3" class="node">
<title>llama.files.skymap_info.SkymapInfo</title>
<g id="a_node3"><a xlink:href="/llama.files.skymap_info.html#llama.files.skymap_info.SkymapInfo" xlink:title="{{&lt;B&gt;SkymapInfo&lt;/B&gt;|&lt;I&gt;skymap_info.json&lt;/I&gt;|EventTriggeredFileHandler&lt;BR/&gt;JSONFile}}" target="_top">
<polygon fill="#cccccc" stroke="black" points="0,-8 0,-92 215,-92 215,-8 0,-8"/>
<text text-anchor="start" x="59.5" y="-77.8" font-family="Times,serif" font-weight="bold" font-size="14.00">SkymapInfo</text>
<polyline fill="none" stroke="black" points="0,-69 215,-69 "/>
<text text-anchor="start" x="45.5" y="-54.8" font-family="Times,serif" font-style="italic" font-size="14.00">skymap_info.json</text>
<polyline fill="none" stroke="black" points="0,-46 215,-46 "/>
<text text-anchor="start" x="8" y="-30.8" font-family="Times,serif" font-size="14.00">EventTriggeredFileHandler</text>
<text text-anchor="start" x="73.5" y="-15.8" font-family="Times,serif" font-size="14.00">JSONFile</text>
</a>
</g>
</g>
<!-- llama.files.skymap_info.SkymapInfo&#45;&gt;llama.files.lvc_skymap.LvcSkymapFits -->
<g id="edge2" class="edge">
<title>llama.files.skymap_info.SkymapInfo&#45;&gt;llama.files.lvc_skymap.LvcSkymapFits</title>
<path fill="none" stroke="red" d="M215.38,-50C215.38,-50 240.66,-50 240.66,-50"/>
<polygon fill="red" stroke="red" points="240.66,-53.5 250.66,-50 240.66,-46.5 240.66,-53.5"/>
</g>
</g>
</svg>
