<?xml version="1.0" encoding="UTF-8" standalone="no"?>
<!DOCTYPE svg PUBLIC "-//W3C//DTD SVG 1.1//EN"
 "http://www.w3.org/Graphics/SVG/1.1/DTD/svg11.dtd">
<!-- Generated by graphviz version 2.42.3 (20191010.1750)
 -->
<!-- Title: llama.files.coinc_analyses.CoincLikelihoodPltsFrmLvc Pages: 1 -->
<svg width="1342pt" height="188pt"
 viewBox="0.00 0.00 1342.00 187.50" xmlns="http://www.w3.org/2000/svg" xmlns:xlink="http://www.w3.org/1999/xlink">
<g id="graph0" class="graph" transform="scale(1 1) rotate(0) translate(4 183.5)">
<title>llama.files.coinc_analyses.CoincLikelihoodPltsFrmLvc</title>
<polygon fill="transparent" stroke="transparent" points="-4,4 -4,-183.5 1338,-183.5 1338,4 -4,4"/>
<!-- llama.files.coinc_analyses.CoincLikelihoodPltsFrmLvc -->
<g id="node1" class="node">
<title>llama.files.coinc_analyses.CoincLikelihoodPltsFrmLvc</title>
<g id="a_node1"><a xlink:href="/llama.files.coinc_analyses.html#llama.files.coinc_analyses.CoincLikelihoodPltsFrmLvc" xlink:title="{{&lt;B&gt;CoincLikelihoodPltsFrmLvc&lt;/B&gt;|&lt;I&gt;likelihood_frm&#45;lvc.hdf5&#45;plots.tar.gz&lt;/I&gt;|HEALPixPlots}}" target="_top">
<polygon fill="#cccccc" stroke="black" points="1068,-54.5 1068,-123.5 1334,-123.5 1334,-54.5 1068,-54.5"/>
<text text-anchor="start" x="1091" y="-109.3" font-family="Times,serif" font-weight="bold" font-size="14.00">CoincLikelihoodPltsFrmLvc</text>
<polyline fill="none" stroke="black" points="1068,-100.5 1334,-100.5 "/>
<text text-anchor="start" x="1076" y="-86.3" font-family="Times,serif" font-style="italic" font-size="14.00">likelihood_frm&#45;lvc.hdf5&#45;plots.tar.gz</text>
<polyline fill="none" stroke="black" points="1068,-77.5 1334,-77.5 "/>
<text text-anchor="start" x="1149.5" y="-62.3" font-family="Times,serif" font-size="14.00">HEALPixPlots</text>
</a>
</g>
</g>
<!-- llama.files.coinc_analyses.CoincSkymapFrmLvcHDF5 -->
<g id="node2" class="node">
<title>llama.files.coinc_analyses.CoincSkymapFrmLvcHDF5</title>
<g id="a_node2"><a xlink:href="/llama.files.coinc_analyses.html#llama.files.coinc_analyses.CoincSkymapFrmLvcHDF5" xlink:title="{{&lt;B&gt;CoincSkymapFrmLvcHDF5&lt;/B&gt;|&lt;I&gt;likelihood_frm&#45;lvc.hdf5&lt;/I&gt;|HEALPixSkyMapAnalysis}}" target="_top">
<polygon fill="#cccccc" stroke="black" points="803,-54.5 803,-123.5 1032,-123.5 1032,-54.5 803,-54.5"/>
<text text-anchor="start" x="811" y="-109.3" font-family="Times,serif" font-weight="bold" font-size="14.00">CoincSkymapFrmLvcHDF5</text>
<polyline fill="none" stroke="black" points="803,-100.5 1032,-100.5 "/>
<text text-anchor="start" x="834.5" y="-86.3" font-family="Times,serif" font-style="italic" font-size="14.00">likelihood_frm&#45;lvc.hdf5</text>
<polyline fill="none" stroke="black" points="803,-77.5 1032,-77.5 "/>
<text text-anchor="start" x="825" y="-62.3" font-family="Times,serif" font-size="14.00">HEALPixSkyMapAnalysis</text>
</a>
</g>
</g>
<!-- llama.files.coinc_analyses.CoincSkymapFrmLvcHDF5&#45;&gt;llama.files.coinc_analyses.CoincLikelihoodPltsFrmLvc -->
<g id="edge1" class="edge">
<title>llama.files.coinc_analyses.CoincSkymapFrmLvcHDF5&#45;&gt;llama.files.coinc_analyses.CoincLikelihoodPltsFrmLvc</title>
<path fill="none" stroke="red" d="M1032.4,-89C1032.4,-89 1057.82,-89 1057.82,-89"/>
<polygon fill="red" stroke="red" points="1057.82,-92.5 1067.82,-89 1057.82,-85.5 1057.82,-92.5"/>
</g>
<!-- llama.files.fermi_grb.FermiGRBsJSON -->
<g id="node3" class="node">
<title>llama.files.fermi_grb.FermiGRBsJSON</title>
<g id="a_node3"><a xlink:href="/llama.files.fermi_grb.html#llama.files.fermi_grb.FermiGRBsJSON" xlink:title="{{&lt;B&gt;FermiGRBsJSON&lt;/B&gt;|&lt;I&gt;fermi_grbs.json&lt;/I&gt;|JSONFile&lt;BR/&gt;HEALPixPSF}}" target="_top">
<polygon fill="#cccccc" stroke="black" points="579,-95 579,-179 728,-179 728,-95 579,-95"/>
<text text-anchor="start" x="587" y="-164.8" font-family="Times,serif" font-weight="bold" font-size="14.00">FermiGRBsJSON</text>
<polyline fill="none" stroke="black" points="579,-156 728,-156 "/>
<text text-anchor="start" x="597.5" y="-141.8" font-family="Times,serif" font-style="italic" font-size="14.00">fermi_grbs.json</text>
<polyline fill="none" stroke="black" points="579,-133 728,-133 "/>
<text text-anchor="start" x="619.5" y="-117.8" font-family="Times,serif" font-size="14.00">JSONFile</text>
<text text-anchor="start" x="605.5" y="-102.8" font-family="Times,serif" font-size="14.00">HEALPixPSF</text>
</a>
</g>
</g>
<!-- llama.files.fermi_grb.FermiGRBsJSON&#45;&gt;llama.files.coinc_analyses.CoincSkymapFrmLvcHDF5 -->
<g id="edge2" class="edge">
<title>llama.files.fermi_grb.FermiGRBsJSON&#45;&gt;llama.files.coinc_analyses.CoincSkymapFrmLvcHDF5</title>
<path fill="none" stroke="red" d="M728.09,-109.25C728.09,-109.25 792.64,-109.25 792.64,-109.25"/>
<polygon fill="red" stroke="red" points="792.64,-112.75 802.64,-109.25 792.64,-105.75 792.64,-112.75"/>
</g>
<!-- llama.files.lvc_skymap.LvcSkymapFits -->
<g id="node4" class="node">
<title>llama.files.lvc_skymap.LvcSkymapFits</title>
<g id="a_node4"><a xlink:href="/llama.files.lvc_skymap.html#llama.files.lvc_skymap.LvcSkymapFits" xlink:title="{{&lt;B&gt;LvcSkymapFits&lt;/B&gt;|&lt;I&gt;lvc_skymap.fits.gz&lt;/I&gt;|GenerateOnceMixin&lt;BR/&gt;LvcHEALPixSkyMapFileHandler&lt;BR/&gt;OnlineVetoMixin}}" target="_top">
<polygon fill="#cccccc" stroke="black" points="251,-0.5 251,-99.5 504,-99.5 504,-0.5 251,-0.5"/>
<text text-anchor="start" x="317.5" y="-85.3" font-family="Times,serif" font-weight="bold" font-size="14.00">LvcSkymapFits</text>
<polyline fill="none" stroke="black" points="251,-76.5 504,-76.5 "/>
<text text-anchor="start" x="311" y="-62.3" font-family="Times,serif" font-style="italic" font-size="14.00">lvc_skymap.fits.gz</text>
<polyline fill="none" stroke="black" points="251,-53.5 504,-53.5 "/>
<text text-anchor="start" x="305" y="-38.3" font-family="Times,serif" font-size="14.00">GenerateOnceMixin</text>
<text text-anchor="start" x="259" y="-23.3" font-family="Times,serif" font-size="14.00">LvcHEALPixSkyMapFileHandler</text>
<text text-anchor="start" x="317.5" y="-8.3" font-family="Times,serif" font-size="14.00">OnlineVetoMixin</text>
</a>
</g>
</g>
<!-- llama.files.lvc_skymap.LvcSkymapHdf5 -->
<g id="node5" class="node">
<title>llama.files.lvc_skymap.LvcSkymapHdf5</title>
<g id="a_node5"><a xlink:href="/llama.files.lvc_skymap.html#llama.files.lvc_skymap.LvcSkymapHdf5" xlink:title="{{&lt;B&gt;LvcSkymapHdf5&lt;/B&gt;|&lt;I&gt;lvc_skymap.hdf5&lt;/I&gt;|HEALPixSkyMapFileHandler}}" target="_top">
<polygon fill="#cccccc" stroke="black" points="540,-7.5 540,-76.5 767,-76.5 767,-7.5 540,-7.5"/>
<text text-anchor="start" x="589" y="-62.3" font-family="Times,serif" font-weight="bold" font-size="14.00">LvcSkymapHdf5</text>
<polyline fill="none" stroke="black" points="540,-53.5 767,-53.5 "/>
<text text-anchor="start" x="593" y="-39.3" font-family="Times,serif" font-style="italic" font-size="14.00">lvc_skymap.hdf5</text>
<polyline fill="none" stroke="black" points="540,-30.5 767,-30.5 "/>
<text text-anchor="start" x="548" y="-15.3" font-family="Times,serif" font-size="14.00">HEALPixSkyMapFileHandler</text>
</a>
</g>
</g>
<!-- llama.files.lvc_skymap.LvcSkymapFits&#45;&gt;llama.files.lvc_skymap.LvcSkymapHdf5 -->
<g id="edge3" class="edge">
<title>llama.files.lvc_skymap.LvcSkymapFits&#45;&gt;llama.files.lvc_skymap.LvcSkymapHdf5</title>
<path fill="none" stroke="red" d="M504.19,-42C504.19,-42 529.88,-42 529.88,-42"/>
<polygon fill="red" stroke="red" points="529.88,-45.5 539.88,-42 529.88,-38.5 529.88,-45.5"/>
</g>
<!-- llama.files.lvc_skymap.LvcSkymapHdf5&#45;&gt;llama.files.coinc_analyses.CoincSkymapFrmLvcHDF5 -->
<g id="edge4" class="edge">
<title>llama.files.lvc_skymap.LvcSkymapHdf5&#45;&gt;llama.files.coinc_analyses.CoincSkymapFrmLvcHDF5</title>
<path fill="none" stroke="red" d="M767.38,-65.5C767.38,-65.5 792.75,-65.5 792.75,-65.5"/>
<polygon fill="red" stroke="red" points="792.75,-69 802.75,-65.5 792.75,-62 792.75,-69"/>
</g>
<!-- llama.files.skymap_info.SkymapInfo -->
<g id="node6" class="node">
<title>llama.files.skymap_info.SkymapInfo</title>
<g id="a_node6"><a xlink:href="/llama.files.skymap_info.html#llama.files.skymap_info.SkymapInfo" xlink:title="{{&lt;B&gt;SkymapInfo&lt;/B&gt;|&lt;I&gt;skymap_info.json&lt;/I&gt;|EventTriggeredFileHandler&lt;BR/&gt;JSONFile}}" target="_top">
<polygon fill="#cccccc" stroke="black" points="0,-47 0,-131 215,-131 215,-47 0,-47"/>
<text text-anchor="start" x="59.5" y="-116.8" font-family="Times,serif" font-weight="bold" font-size="14.00">SkymapInfo</text>
<polyline fill="none" stroke="black" points="0,-108 215,-108 "/>
<text text-anchor="start" x="45.5" y="-93.8" font-family="Times,serif" font-style="italic" font-size="14.00">skymap_info.json</text>
<polyline fill="none" stroke="black" points="0,-85 215,-85 "/>
<text text-anchor="start" x="8" y="-69.8" font-family="Times,serif" font-size="14.00">EventTriggeredFileHandler</text>
<text text-anchor="start" x="73.5" y="-54.8" font-family="Times,serif" font-size="14.00">JSONFile</text>
</a>
</g>
</g>
<!-- llama.files.skymap_info.SkymapInfo&#45;&gt;llama.files.fermi_grb.FermiGRBsJSON -->
<g id="edge5" class="edge">
<title>llama.files.skymap_info.SkymapInfo&#45;&gt;llama.files.fermi_grb.FermiGRBsJSON</title>
<path fill="none" stroke="red" d="M215.05,-115.75C215.05,-115.75 568.61,-115.75 568.61,-115.75"/>
<polygon fill="red" stroke="red" points="568.61,-119.25 578.61,-115.75 568.61,-112.25 568.61,-119.25"/>
</g>
<!-- llama.files.skymap_info.SkymapInfo&#45;&gt;llama.files.lvc_skymap.LvcSkymapFits -->
<g id="edge6" class="edge">
<title>llama.files.skymap_info.SkymapInfo&#45;&gt;llama.files.lvc_skymap.LvcSkymapFits</title>
<path fill="none" stroke="red" d="M215.38,-73.25C215.38,-73.25 240.66,-73.25 240.66,-73.25"/>
<polygon fill="red" stroke="red" points="240.66,-76.75 250.66,-73.25 240.66,-69.75 240.66,-76.75"/>
</g>
</g>
</svg>
