<?xml version="1.0" encoding="UTF-8" standalone="no"?>
<!DOCTYPE svg PUBLIC "-//W3C//DTD SVG 1.1//EN"
 "http://www.w3.org/Graphics/SVG/1.1/DTD/svg11.dtd">
<!-- Generated by graphviz version 2.42.3 (20191010.1750)
 -->
<!-- Title: llama.test.test_filehandler.MockFh2 Pages: 1 -->
<svg width="262pt" height="78pt"
 viewBox="0.00 0.00 262.00 78.00" xmlns="http://www.w3.org/2000/svg" xmlns:xlink="http://www.w3.org/1999/xlink">
<g id="graph0" class="graph" transform="scale(1 1) rotate(0) translate(4 74)">
<title>llama.test.test_filehandler.MockFh2</title>
<polygon fill="transparent" stroke="transparent" points="-4,4 -4,-74 258,-74 258,4 -4,4"/>
<!-- llama.test.test_filehandler.MockFh1 -->
<g id="node1" class="node">
<title>llama.test.test_filehandler.MockFh1</title>
<g id="a_node1"><a xlink:href="/llama.test.test_filehandler.html#llama.test.test_filehandler.MockFh1" xlink:title="{{&lt;B&gt;MockFh1&lt;/B&gt;|&lt;I&gt;MockFh1.txt&lt;/I&gt;|FileHandler}}" target="_top">
<polygon fill="#cccccc" stroke="black" points="0,-0.5 0,-69.5 109,-69.5 109,-0.5 0,-0.5"/>
<text text-anchor="start" x="17" y="-55.3" font-family="Times,serif" font-weight="bold" font-size="14.00">MockFh1</text>
<polyline fill="none" stroke="black" points="0,-46.5 109,-46.5 "/>
<text text-anchor="start" x="8" y="-32.3" font-family="Times,serif" font-style="italic" font-size="14.00">MockFh1.txt</text>
<polyline fill="none" stroke="black" points="0,-23.5 109,-23.5 "/>
<text text-anchor="start" x="11.5" y="-8.3" font-family="Times,serif" font-size="14.00">FileHandler</text>
</a>
</g>
</g>
<!-- llama.test.test_filehandler.MockFh2 -->
<g id="node2" class="node">
<title>llama.test.test_filehandler.MockFh2</title>
<g id="a_node2"><a xlink:href="/llama.test.test_filehandler.html#llama.test.test_filehandler.MockFh2" xlink:title="{{&lt;B&gt;MockFh2&lt;/B&gt;|&lt;I&gt;MockFh2.txt&lt;/I&gt;|FileHandler}}" target="_top">
<polygon fill="#cccccc" stroke="black" points="145,-0.5 145,-69.5 254,-69.5 254,-0.5 145,-0.5"/>
<text text-anchor="start" x="162" y="-55.3" font-family="Times,serif" font-weight="bold" font-size="14.00">MockFh2</text>
<polyline fill="none" stroke="black" points="145,-46.5 254,-46.5 "/>
<text text-anchor="start" x="153" y="-32.3" font-family="Times,serif" font-style="italic" font-size="14.00">MockFh2.txt</text>
<polyline fill="none" stroke="black" points="145,-23.5 254,-23.5 "/>
<text text-anchor="start" x="156.5" y="-8.3" font-family="Times,serif" font-size="14.00">FileHandler</text>
</a>
</g>
</g>
<!-- llama.test.test_filehandler.MockFh1&#45;&gt;llama.test.test_filehandler.MockFh2 -->
<g id="edge1" class="edge">
<title>llama.test.test_filehandler.MockFh1&#45;&gt;llama.test.test_filehandler.MockFh2</title>
<path fill="none" stroke="red" d="M109.32,-35C109.32,-35 134.6,-35 134.6,-35"/>
<polygon fill="red" stroke="red" points="134.6,-38.5 144.6,-35 134.6,-31.5 134.6,-38.5"/>
</g>
</g>
</svg>
