<?xml version="1.0" encoding="UTF-8" standalone="no"?>
<!DOCTYPE svg PUBLIC "-//W3C//DTD SVG 1.1//EN"
 "http://www.w3.org/Graphics/SVG/1.1/DTD/svg11.dtd">
<!-- Generated by graphviz version 2.42.3 (20191010.1750)
 -->
<!-- Title: llama.files.coinc_o2.RctGwaCoincSkymapO2Large Pages: 1 -->
<svg width="1543pt" height="293pt"
 viewBox="0.00 0.00 1543.00 292.50" xmlns="http://www.w3.org/2000/svg" xmlns:xlink="http://www.w3.org/1999/xlink">
<g id="graph0" class="graph" transform="scale(1 1) rotate(0) translate(4 288.5)">
<title>llama.files.coinc_o2.RctGwaCoincSkymapO2Large</title>
<polygon fill="transparent" stroke="transparent" points="-4,4 -4,-288.5 1539,-288.5 1539,4 -4,4"/>
<!-- llama.files.coinc_o2.CoincSkymapO2Large -->
<g id="node1" class="node">
<title>llama.files.coinc_o2.CoincSkymapO2Large</title>
<g id="a_node1"><a xlink:href="/llama.files.coinc_o2.html#llama.files.coinc_o2.CoincSkymapO2Large" xlink:title="{{&lt;B&gt;CoincSkymapO2Large&lt;/B&gt;|&lt;I&gt;coinc_o2.png&lt;/I&gt;|CoincSkymapInitialIcecube}}" target="_top">
<polygon fill="#cccccc" stroke="black" points="1031,-157 1031,-226 1246,-226 1246,-157 1031,-157"/>
<text text-anchor="start" x="1050.5" y="-211.8" font-family="Times,serif" font-weight="bold" font-size="14.00">CoincSkymapO2Large</text>
<polyline fill="none" stroke="black" points="1031,-203 1246,-203 "/>
<text text-anchor="start" x="1091" y="-188.8" font-family="Times,serif" font-style="italic" font-size="14.00">coinc_o2.png</text>
<polyline fill="none" stroke="black" points="1031,-180 1246,-180 "/>
<text text-anchor="start" x="1039" y="-164.8" font-family="Times,serif" font-size="14.00">CoincSkymapInitialIcecube</text>
</a>
</g>
</g>
<!-- llama.files.coinc_o2.RctGwaCoincSkymapO2Large -->
<g id="node3" class="node">
<title>llama.files.coinc_o2.RctGwaCoincSkymapO2Large</title>
<g id="a_node3"><a xlink:href="/llama.files.coinc_o2.html#llama.files.coinc_o2.RctGwaCoincSkymapO2Large" xlink:title="{{&lt;B&gt;RctGwaCoincSkymapO2Large&lt;/B&gt;|&lt;I&gt;rct_gwa_coinc_o2.png.log&lt;/I&gt;|GWAstroReceipt}}" target="_top">
<polygon fill="#cccccc" stroke="black" points="1282,-215 1282,-284 1535,-284 1535,-215 1282,-215"/>
<text text-anchor="start" x="1290" y="-269.8" font-family="Times,serif" font-weight="bold" font-size="14.00">RctGwaCoincSkymapO2Large</text>
<polyline fill="none" stroke="black" points="1282,-261 1535,-261 "/>
<text text-anchor="start" x="1315" y="-246.8" font-family="Times,serif" font-style="italic" font-size="14.00">rct_gwa_coinc_o2.png.log</text>
<polyline fill="none" stroke="black" points="1282,-238 1535,-238 "/>
<text text-anchor="start" x="1348.5" y="-222.8" font-family="Times,serif" font-size="14.00">GWAstroReceipt</text>
</a>
</g>
</g>
<!-- llama.files.coinc_o2.CoincSkymapO2Large&#45;&gt;llama.files.coinc_o2.RctGwaCoincSkymapO2Large -->
<g id="edge1" class="edge">
<title>llama.files.coinc_o2.CoincSkymapO2Large&#45;&gt;llama.files.coinc_o2.RctGwaCoincSkymapO2Large</title>
<path fill="none" stroke="red" d="M1246.38,-220.5C1246.38,-220.5 1271.66,-220.5 1271.66,-220.5"/>
<polygon fill="red" stroke="red" points="1271.66,-224 1281.66,-220.5 1271.66,-217 1271.66,-224"/>
</g>
<!-- llama.files.coinc_o2.IceCubeNeutrinoListMat -->
<g id="node2" class="node">
<title>llama.files.coinc_o2.IceCubeNeutrinoListMat</title>
<g id="a_node2"><a xlink:href="/llama.files.coinc_o2.html#llama.files.coinc_o2.IceCubeNeutrinoListMat" xlink:title="{{&lt;B&gt;IceCubeNeutrinoListMat&lt;/B&gt;|&lt;I&gt;IceCubeNeutrinoList.mat&lt;/I&gt;|CoincAnalysis}}" target="_top">
<polygon fill="#cccccc" stroke="black" points="780,-87 780,-156 995,-156 995,-87 780,-87"/>
<text text-anchor="start" x="788" y="-141.8" font-family="Times,serif" font-weight="bold" font-size="14.00">IceCubeNeutrinoListMat</text>
<polyline fill="none" stroke="black" points="780,-133 995,-133 "/>
<text text-anchor="start" x="795" y="-118.8" font-family="Times,serif" font-style="italic" font-size="14.00">IceCubeNeutrinoList.mat</text>
<polyline fill="none" stroke="black" points="780,-110 995,-110 "/>
<text text-anchor="start" x="836.5" y="-94.8" font-family="Times,serif" font-size="14.00">CoincAnalysis</text>
</a>
</g>
</g>
<!-- llama.files.coinc_o2.IceCubeNeutrinoListMat&#45;&gt;llama.files.coinc_o2.CoincSkymapO2Large -->
<g id="edge2" class="edge">
<title>llama.files.coinc_o2.IceCubeNeutrinoListMat&#45;&gt;llama.files.coinc_o2.CoincSkymapO2Large</title>
<path fill="none" stroke="red" d="M995.25,-121.5C1063.51,-121.5 1139,-121.5 1139,-121.5 1139,-121.5 1139,-146.91 1139,-146.91"/>
<polygon fill="red" stroke="red" points="1135.5,-146.91 1139,-156.91 1142.5,-146.91 1135.5,-146.91"/>
</g>
<!-- llama.files.i3.json.IceCubeNeutrinoList -->
<g id="node4" class="node">
<title>llama.files.i3.json.IceCubeNeutrinoList</title>
<g id="a_node4"><a xlink:href="/llama.files.i3.json.html#llama.files.i3.json.IceCubeNeutrinoList" xlink:title="{{&lt;B&gt;IceCubeNeutrinoList&lt;/B&gt;|&lt;I&gt;icecube_neutrino_list.json&lt;/I&gt;|JSONFile&lt;BR/&gt;HEALPixPSF}}" target="_top">
<polygon fill="#cccccc" stroke="black" points="540,-0.5 540,-84.5 744,-84.5 744,-0.5 540,-0.5"/>
<text text-anchor="start" x="558" y="-70.3" font-family="Times,serif" font-weight="bold" font-size="14.00">IceCubeNeutrinoList</text>
<polyline fill="none" stroke="black" points="540,-61.5 744,-61.5 "/>
<text text-anchor="start" x="548" y="-47.3" font-family="Times,serif" font-style="italic" font-size="14.00">icecube_neutrino_list.json</text>
<polyline fill="none" stroke="black" points="540,-38.5 744,-38.5 "/>
<text text-anchor="start" x="608" y="-23.3" font-family="Times,serif" font-size="14.00">JSONFile</text>
<text text-anchor="start" x="594" y="-8.3" font-family="Times,serif" font-size="14.00">HEALPixPSF</text>
</a>
</g>
</g>
<!-- llama.files.i3.json.IceCubeNeutrinoList&#45;&gt;llama.files.coinc_o2.IceCubeNeutrinoListMat -->
<g id="edge3" class="edge">
<title>llama.files.i3.json.IceCubeNeutrinoList&#45;&gt;llama.files.coinc_o2.IceCubeNeutrinoListMat</title>
<path fill="none" stroke="red" d="M728,-84.77C728,-95.88 728,-104.83 728,-104.83 728,-104.83 769.79,-104.83 769.79,-104.83"/>
<polygon fill="red" stroke="red" points="769.79,-108.33 779.79,-104.83 769.79,-101.33 769.79,-108.33"/>
</g>
<!-- llama.files.lvc_skymap.LvcSkymapFits -->
<g id="node5" class="node">
<title>llama.files.lvc_skymap.LvcSkymapFits</title>
<g id="a_node5"><a xlink:href="/llama.files.lvc_skymap.html#llama.files.lvc_skymap.LvcSkymapFits" xlink:title="{{&lt;B&gt;LvcSkymapFits&lt;/B&gt;|&lt;I&gt;lvc_skymap.fits.gz&lt;/I&gt;|GenerateOnceMixin&lt;BR/&gt;LvcHEALPixSkyMapFileHandler&lt;BR/&gt;OnlineVetoMixin}}" target="_top">
<polygon fill="#cccccc" stroke="black" points="251,-142 251,-241 504,-241 504,-142 251,-142"/>
<text text-anchor="start" x="317.5" y="-226.8" font-family="Times,serif" font-weight="bold" font-size="14.00">LvcSkymapFits</text>
<polyline fill="none" stroke="black" points="251,-218 504,-218 "/>
<text text-anchor="start" x="311" y="-203.8" font-family="Times,serif" font-style="italic" font-size="14.00">lvc_skymap.fits.gz</text>
<polyline fill="none" stroke="black" points="251,-195 504,-195 "/>
<text text-anchor="start" x="305" y="-179.8" font-family="Times,serif" font-size="14.00">GenerateOnceMixin</text>
<text text-anchor="start" x="259" y="-164.8" font-family="Times,serif" font-size="14.00">LvcHEALPixSkyMapFileHandler</text>
<text text-anchor="start" x="317.5" y="-149.8" font-family="Times,serif" font-size="14.00">OnlineVetoMixin</text>
</a>
</g>
</g>
<!-- llama.files.lvc_skymap_mat.LvcSkymapMat -->
<g id="node6" class="node">
<title>llama.files.lvc_skymap_mat.LvcSkymapMat</title>
<g id="a_node6"><a xlink:href="/llama.files.lvc_skymap_mat.html#llama.files.lvc_skymap_mat.LvcSkymapMat" xlink:title="{{&lt;B&gt;LvcSkymapMat&lt;/B&gt;|&lt;I&gt;lvc_skymap.mat&lt;/I&gt;|FileHandler}}" target="_top">
<polygon fill="#cccccc" stroke="black" points="573.5,-157 573.5,-226 710.5,-226 710.5,-157 573.5,-157"/>
<text text-anchor="start" x="581.5" y="-211.8" font-family="Times,serif" font-weight="bold" font-size="14.00">LvcSkymapMat</text>
<polyline fill="none" stroke="black" points="573.5,-203 710.5,-203 "/>
<text text-anchor="start" x="583.5" y="-188.8" font-family="Times,serif" font-style="italic" font-size="14.00">lvc_skymap.mat</text>
<polyline fill="none" stroke="black" points="573.5,-180 710.5,-180 "/>
<text text-anchor="start" x="599" y="-164.8" font-family="Times,serif" font-size="14.00">FileHandler</text>
</a>
</g>
</g>
<!-- llama.files.lvc_skymap.LvcSkymapFits&#45;&gt;llama.files.lvc_skymap_mat.LvcSkymapMat -->
<g id="edge4" class="edge">
<title>llama.files.lvc_skymap.LvcSkymapFits&#45;&gt;llama.files.lvc_skymap_mat.LvcSkymapMat</title>
<path fill="none" stroke="red" d="M504.33,-191.5C504.33,-191.5 563.16,-191.5 563.16,-191.5"/>
<polygon fill="red" stroke="red" points="563.16,-195 573.16,-191.5 563.16,-188 563.16,-195"/>
</g>
<!-- llama.files.lvc_skymap_mat.LvcSkymapMat&#45;&gt;llama.files.coinc_o2.CoincSkymapO2Large -->
<g id="edge5" class="edge">
<title>llama.files.lvc_skymap_mat.LvcSkymapMat&#45;&gt;llama.files.coinc_o2.CoincSkymapO2Large</title>
<path fill="none" stroke="red" d="M710.51,-191.5C710.51,-191.5 1020.66,-191.5 1020.66,-191.5"/>
<polygon fill="red" stroke="red" points="1020.66,-195 1030.66,-191.5 1020.66,-188 1020.66,-195"/>
</g>
<!-- llama.files.lvc_skymap_mat.LvcSkymapMat&#45;&gt;llama.files.coinc_o2.IceCubeNeutrinoListMat -->
<g id="edge6" class="edge">
<title>llama.files.lvc_skymap_mat.LvcSkymapMat&#45;&gt;llama.files.coinc_o2.IceCubeNeutrinoListMat</title>
<path fill="none" stroke="red" d="M642,-156.8C642,-152.18 642,-149 642,-149 642,-149 769.82,-149 769.82,-149"/>
<polygon fill="red" stroke="red" points="769.82,-152.5 779.82,-149 769.82,-145.5 769.82,-152.5"/>
</g>
<!-- llama.files.skymap_info.SkymapInfo -->
<g id="node7" class="node">
<title>llama.files.skymap_info.SkymapInfo</title>
<g id="a_node7"><a xlink:href="/llama.files.skymap_info.html#llama.files.skymap_info.SkymapInfo" xlink:title="{{&lt;B&gt;SkymapInfo&lt;/B&gt;|&lt;I&gt;skymap_info.json&lt;/I&gt;|EventTriggeredFileHandler&lt;BR/&gt;JSONFile}}" target="_top">
<polygon fill="#cccccc" stroke="black" points="0,-149.5 0,-233.5 215,-233.5 215,-149.5 0,-149.5"/>
<text text-anchor="start" x="59.5" y="-219.3" font-family="Times,serif" font-weight="bold" font-size="14.00">SkymapInfo</text>
<polyline fill="none" stroke="black" points="0,-210.5 215,-210.5 "/>
<text text-anchor="start" x="45.5" y="-196.3" font-family="Times,serif" font-style="italic" font-size="14.00">skymap_info.json</text>
<polyline fill="none" stroke="black" points="0,-187.5 215,-187.5 "/>
<text text-anchor="start" x="8" y="-172.3" font-family="Times,serif" font-size="14.00">EventTriggeredFileHandler</text>
<text text-anchor="start" x="73.5" y="-157.3" font-family="Times,serif" font-size="14.00">JSONFile</text>
</a>
</g>
</g>
<!-- llama.files.skymap_info.SkymapInfo&#45;&gt;llama.files.coinc_o2.IceCubeNeutrinoListMat -->
<g id="edge7" class="edge">
<title>llama.files.skymap_info.SkymapInfo&#45;&gt;llama.files.coinc_o2.IceCubeNeutrinoListMat</title>
<path fill="none" stroke="red" d="M144,-149.39C144,-135.33 144,-123.17 144,-123.17 144,-123.17 769.79,-123.17 769.79,-123.17"/>
<polygon fill="red" stroke="red" points="769.79,-126.67 779.79,-123.17 769.79,-119.67 769.79,-126.67"/>
</g>
<!-- llama.files.skymap_info.SkymapInfo&#45;&gt;llama.files.coinc_o2.RctGwaCoincSkymapO2Large -->
<g id="edge8" class="edge">
<title>llama.files.skymap_info.SkymapInfo&#45;&gt;llama.files.coinc_o2.RctGwaCoincSkymapO2Large</title>
<path fill="none" stroke="red" d="M72,-233.6C72,-252.3 72,-270.17 72,-270.17 72,-270.17 1271.86,-270.17 1271.86,-270.17"/>
<polygon fill="red" stroke="red" points="1271.86,-273.67 1281.86,-270.17 1271.86,-266.67 1271.86,-273.67"/>
</g>
<!-- llama.files.skymap_info.SkymapInfo&#45;&gt;llama.files.i3.json.IceCubeNeutrinoList -->
<g id="edge9" class="edge">
<title>llama.files.skymap_info.SkymapInfo&#45;&gt;llama.files.i3.json.IceCubeNeutrinoList</title>
<path fill="none" stroke="red" d="M72,-149.2C72,-105.15 72,-42.5 72,-42.5 72,-42.5 529.77,-42.5 529.77,-42.5"/>
<polygon fill="red" stroke="red" points="529.77,-46 539.77,-42.5 529.77,-39 529.77,-46"/>
</g>
<!-- llama.files.skymap_info.SkymapInfo&#45;&gt;llama.files.lvc_skymap.LvcSkymapFits -->
<g id="edge10" class="edge">
<title>llama.files.skymap_info.SkymapInfo&#45;&gt;llama.files.lvc_skymap.LvcSkymapFits</title>
<path fill="none" stroke="red" d="M215.38,-191.5C215.38,-191.5 240.66,-191.5 240.66,-191.5"/>
<polygon fill="red" stroke="red" points="240.66,-195 250.66,-191.5 240.66,-188 240.66,-195"/>
</g>
<!-- llama.files.skymap_info.SkymapInfo&#45;&gt;llama.files.lvc_skymap_mat.LvcSkymapMat -->
<g id="edge11" class="edge">
<title>llama.files.skymap_info.SkymapInfo&#45;&gt;llama.files.lvc_skymap_mat.LvcSkymapMat</title>
<path fill="none" stroke="red" d="M144,-233.69C144,-245.82 144,-255.83 144,-255.83 144,-255.83 642,-255.83 642,-255.83 642,-255.83 642,-236.3 642,-236.3"/>
<polygon fill="red" stroke="red" points="645.5,-236.3 642,-226.3 638.5,-236.3 645.5,-236.3"/>
</g>
</g>
</svg>
