<?xml version="1.0" encoding="UTF-8" standalone="no"?>
<!DOCTYPE svg PUBLIC "-//W3C//DTD SVG 1.1//EN"
 "http://www.w3.org/Graphics/SVG/1.1/DTD/svg11.dtd">
<!-- Generated by graphviz version 2.42.3 (20191010.1750)
 -->
<!-- Title: llama.files.coinc_plots.RctSlkLmaCoincSummaryI3LvcPdf Pages: 1 -->
<svg width="2080pt" height="493pt"
 viewBox="0.00 0.00 2080.00 492.50" xmlns="http://www.w3.org/2000/svg" xmlns:xlink="http://www.w3.org/1999/xlink">
<g id="graph0" class="graph" transform="scale(1 1) rotate(0) translate(4 488.5)">
<title>llama.files.coinc_plots.RctSlkLmaCoincSummaryI3LvcPdf</title>
<polygon fill="transparent" stroke="transparent" points="-4,4 -4,-488.5 2076,-488.5 2076,4 -4,4"/>
<!-- llama.files.coinc_plots.CoincScatterI3LvcPdf -->
<g id="node1" class="node">
<title>llama.files.coinc_plots.CoincScatterI3LvcPdf</title>
<g id="a_node1"><a xlink:href="/llama.files.coinc_plots.html#llama.files.coinc_plots.CoincScatterI3LvcPdf" xlink:title="{{&lt;B&gt;CoincScatterI3LvcPdf&lt;/B&gt;|&lt;I&gt;scatterplot_lvc&#45;i3.pdf&lt;/I&gt;|CoincScatterI3Lvc}}" target="_top">
<polygon fill="#cccccc" stroke="black" points="1052.5,-36.5 1052.5,-105.5 1243.5,-105.5 1243.5,-36.5 1052.5,-36.5"/>
<text text-anchor="start" x="1060.5" y="-91.3" font-family="Times,serif" font-weight="bold" font-size="14.00">CoincScatterI3LvcPdf</text>
<polyline fill="none" stroke="black" points="1052.5,-82.5 1243.5,-82.5 "/>
<text text-anchor="start" x="1071" y="-68.3" font-family="Times,serif" font-style="italic" font-size="14.00">scatterplot_lvc&#45;i3.pdf</text>
<polyline fill="none" stroke="black" points="1052.5,-59.5 1243.5,-59.5 "/>
<text text-anchor="start" x="1080" y="-44.3" font-family="Times,serif" font-size="14.00">CoincScatterI3Lvc</text>
</a>
</g>
</g>
<!-- llama.files.coinc_plots.CoincSummaryI3LvcPdf -->
<g id="node2" class="node">
<title>llama.files.coinc_plots.CoincSummaryI3LvcPdf</title>
<g id="a_node2"><a xlink:href="/llama.files.coinc_plots.html#llama.files.coinc_plots.CoincSummaryI3LvcPdf" xlink:title="{{&lt;B&gt;CoincSummaryI3LvcPdf&lt;/B&gt;|&lt;I&gt;summary_lvc&#45;I3.pdf&lt;/I&gt;|FileHandler}}" target="_top">
<polygon fill="#cccccc" stroke="black" points="1533,-36.5 1533,-105.5 1741,-105.5 1741,-36.5 1533,-36.5"/>
<text text-anchor="start" x="1541" y="-91.3" font-family="Times,serif" font-weight="bold" font-size="14.00">CoincSummaryI3LvcPdf</text>
<polyline fill="none" stroke="black" points="1533,-82.5 1741,-82.5 "/>
<text text-anchor="start" x="1565.5" y="-68.3" font-family="Times,serif" font-style="italic" font-size="14.00">summary_lvc&#45;I3.pdf</text>
<polyline fill="none" stroke="black" points="1533,-59.5 1741,-59.5 "/>
<text text-anchor="start" x="1594" y="-44.3" font-family="Times,serif" font-size="14.00">FileHandler</text>
</a>
</g>
</g>
<!-- llama.files.coinc_plots.CoincScatterI3LvcPdf&#45;&gt;llama.files.coinc_plots.CoincSummaryI3LvcPdf -->
<g id="edge1" class="edge">
<title>llama.files.coinc_plots.CoincScatterI3LvcPdf&#45;&gt;llama.files.coinc_plots.CoincSummaryI3LvcPdf</title>
<path fill="none" stroke="red" d="M1243.74,-71C1243.74,-71 1522.61,-71 1522.61,-71"/>
<polygon fill="red" stroke="red" points="1522.61,-74.5 1532.61,-71 1522.61,-67.5 1522.61,-74.5"/>
</g>
<!-- llama.files.coinc_plots.CoincSummaryI3LvcTex -->
<g id="node3" class="node">
<title>llama.files.coinc_plots.CoincSummaryI3LvcTex</title>
<g id="a_node3"><a xlink:href="/llama.files.coinc_plots.html#llama.files.coinc_plots.CoincSummaryI3LvcTex" xlink:title="{{&lt;B&gt;CoincSummaryI3LvcTex&lt;/B&gt;|&lt;I&gt;summary_lvc&#45;I3.tex&lt;/I&gt;|FileHandler}}" target="_top">
<polygon fill="#cccccc" stroke="black" points="1289,-129.5 1289,-198.5 1497,-198.5 1497,-129.5 1289,-129.5"/>
<text text-anchor="start" x="1297" y="-184.3" font-family="Times,serif" font-weight="bold" font-size="14.00">CoincSummaryI3LvcTex</text>
<polyline fill="none" stroke="black" points="1289,-175.5 1497,-175.5 "/>
<text text-anchor="start" x="1322" y="-161.3" font-family="Times,serif" font-style="italic" font-size="14.00">summary_lvc&#45;I3.tex</text>
<polyline fill="none" stroke="black" points="1289,-152.5 1497,-152.5 "/>
<text text-anchor="start" x="1350" y="-137.3" font-family="Times,serif" font-size="14.00">FileHandler</text>
</a>
</g>
</g>
<!-- llama.files.coinc_plots.CoincScatterI3LvcPdf&#45;&gt;llama.files.coinc_plots.CoincSummaryI3LvcTex -->
<g id="edge2" class="edge">
<title>llama.files.coinc_plots.CoincScatterI3LvcPdf&#45;&gt;llama.files.coinc_plots.CoincSummaryI3LvcTex</title>
<path fill="none" stroke="red" d="M1148,-105.86C1148,-127.41 1148,-151 1148,-151 1148,-151 1278.74,-151 1278.74,-151"/>
<polygon fill="red" stroke="red" points="1278.74,-154.5 1288.74,-151 1278.74,-147.5 1278.74,-154.5"/>
</g>
<!-- llama.files.coinc_plots.RctSlkLmaCoincSummaryI3LvcPdf -->
<g id="node4" class="node">
<title>llama.files.coinc_plots.RctSlkLmaCoincSummaryI3LvcPdf</title>
<g id="a_node4"><a xlink:href="/llama.files.coinc_plots.html#llama.files.coinc_plots.RctSlkLmaCoincSummaryI3LvcPdf" xlink:title="{{&lt;B&gt;RctSlkLmaCoincSummaryI3LvcPdf&lt;/B&gt;|&lt;I&gt;rct_slk_lma_summary_lvc&#45;I3.pdf.json&lt;/I&gt;|SlackReceiptLlama}}" target="_top">
<polygon fill="#cccccc" stroke="black" points="1777,-0.5 1777,-69.5 2072,-69.5 2072,-0.5 1777,-0.5"/>
<text text-anchor="start" x="1785" y="-55.3" font-family="Times,serif" font-weight="bold" font-size="14.00">RctSlkLmaCoincSummaryI3LvcPdf</text>
<polyline fill="none" stroke="black" points="1777,-46.5 2072,-46.5 "/>
<text text-anchor="start" x="1791" y="-32.3" font-family="Times,serif" font-style="italic" font-size="14.00">rct_slk_lma_summary_lvc&#45;I3.pdf.json</text>
<polyline fill="none" stroke="black" points="1777,-23.5 2072,-23.5 "/>
<text text-anchor="start" x="1855" y="-8.3" font-family="Times,serif" font-size="14.00">SlackReceiptLlama</text>
</a>
</g>
</g>
<!-- llama.files.coinc_plots.CoincSummaryI3LvcPdf&#45;&gt;llama.files.coinc_plots.RctSlkLmaCoincSummaryI3LvcPdf -->
<g id="edge3" class="edge">
<title>llama.files.coinc_plots.CoincSummaryI3LvcPdf&#45;&gt;llama.files.coinc_plots.RctSlkLmaCoincSummaryI3LvcPdf</title>
<path fill="none" stroke="red" d="M1741.2,-53C1741.2,-53 1766.69,-53 1766.69,-53"/>
<polygon fill="red" stroke="red" points="1766.69,-56.5 1776.69,-53 1766.69,-49.5 1766.69,-56.5"/>
</g>
<!-- llama.files.coinc_plots.CoincSummaryI3LvcTex&#45;&gt;llama.files.coinc_plots.CoincSummaryI3LvcPdf -->
<g id="edge4" class="edge">
<title>llama.files.coinc_plots.CoincSummaryI3LvcTex&#45;&gt;llama.files.coinc_plots.CoincSummaryI3LvcPdf</title>
<path fill="none" stroke="red" d="M1497.19,-164C1563.5,-164 1637,-164 1637,-164 1637,-164 1637,-115.63 1637,-115.63"/>
<polygon fill="red" stroke="red" points="1640.5,-115.63 1637,-105.63 1633.5,-115.63 1640.5,-115.63"/>
</g>
<!-- llama.files.coinc_significance.opa.CoincSignificanceI3Lvc -->
<g id="node5" class="node">
<title>llama.files.coinc_significance.opa.CoincSignificanceI3Lvc</title>
<g id="a_node5"><a xlink:href="/llama.files.coinc_significance.opa.html#llama.files.coinc_significance.opa.CoincSignificanceI3Lvc" xlink:title="{{&lt;B&gt;CoincSignificanceI3Lvc&lt;/B&gt;|&lt;I&gt;significance_lvc&#45;i3.json&lt;/I&gt;|JSONFile}}" target="_top">
<polygon fill="#cccccc" stroke="black" points="803,-223.5 803,-292.5 1007,-292.5 1007,-223.5 803,-223.5"/>
<text text-anchor="start" x="811" y="-278.3" font-family="Times,serif" font-weight="bold" font-size="14.00">CoincSignificanceI3Lvc</text>
<polyline fill="none" stroke="black" points="803,-269.5 1007,-269.5 "/>
<text text-anchor="start" x="821.5" y="-255.3" font-family="Times,serif" font-style="italic" font-size="14.00">significance_lvc&#45;i3.json</text>
<polyline fill="none" stroke="black" points="803,-246.5 1007,-246.5 "/>
<text text-anchor="start" x="871" y="-231.3" font-family="Times,serif" font-size="14.00">JSONFile</text>
</a>
</g>
</g>
<!-- llama.files.coinc_significance.opa.CoincSignificanceI3Lvc&#45;&gt;llama.files.coinc_plots.CoincSummaryI3LvcTex -->
<g id="edge5" class="edge">
<title>llama.files.coinc_significance.opa.CoincSignificanceI3Lvc&#45;&gt;llama.files.coinc_plots.CoincSummaryI3LvcTex</title>
<path fill="none" stroke="red" d="M939,-223.34C939,-197.62 939,-167 939,-167 939,-167 1278.84,-167 1278.84,-167"/>
<polygon fill="red" stroke="red" points="1278.84,-170.5 1288.84,-167 1278.84,-163.5 1278.84,-170.5"/>
</g>
<!-- llama.files.i3.tex.IceCubeNeutrinoListTex -->
<g id="node9" class="node">
<title>llama.files.i3.tex.IceCubeNeutrinoListTex</title>
<g id="a_node9"><a xlink:href="/llama.files.i3.tex.html#llama.files.i3.tex.IceCubeNeutrinoListTex" xlink:title="{{&lt;B&gt;IceCubeNeutrinoListTex&lt;/B&gt;|&lt;I&gt;IceCubeNeutrinoList.tex&lt;/I&gt;|FileHandler}}" target="_top">
<polygon fill="#cccccc" stroke="black" points="1043,-217.5 1043,-286.5 1253,-286.5 1253,-217.5 1043,-217.5"/>
<text text-anchor="start" x="1051" y="-272.3" font-family="Times,serif" font-weight="bold" font-size="14.00">IceCubeNeutrinoListTex</text>
<polyline fill="none" stroke="black" points="1043,-263.5 1253,-263.5 "/>
<text text-anchor="start" x="1058" y="-249.3" font-family="Times,serif" font-style="italic" font-size="14.00">IceCubeNeutrinoList.tex</text>
<polyline fill="none" stroke="black" points="1043,-240.5 1253,-240.5 "/>
<text text-anchor="start" x="1105" y="-225.3" font-family="Times,serif" font-size="14.00">FileHandler</text>
</a>
</g>
</g>
<!-- llama.files.coinc_significance.opa.CoincSignificanceI3Lvc&#45;&gt;llama.files.i3.tex.IceCubeNeutrinoListTex -->
<g id="edge6" class="edge">
<title>llama.files.coinc_significance.opa.CoincSignificanceI3Lvc&#45;&gt;llama.files.i3.tex.IceCubeNeutrinoListTex</title>
<path fill="none" stroke="red" d="M1007.35,-255C1007.35,-255 1032.65,-255 1032.65,-255"/>
<polygon fill="red" stroke="red" points="1032.65,-258.5 1042.65,-255 1032.65,-251.5 1032.65,-258.5"/>
</g>
<!-- llama.files.gracedb.LVCGraceDbEventData -->
<g id="node6" class="node">
<title>llama.files.gracedb.LVCGraceDbEventData</title>
<g id="a_node6"><a xlink:href="/llama.files.gracedb.html#llama.files.gracedb.LVCGraceDbEventData" xlink:title="{{&lt;B&gt;LVCGraceDbEventData&lt;/B&gt;|&lt;I&gt;lvc_gracedb_event_data.json&lt;/I&gt;|JSONFile&lt;BR/&gt;OnlineVetoMixin}}" target="_top">
<polygon fill="#cccccc" stroke="black" points="265.5,-400 265.5,-484 489.5,-484 489.5,-400 265.5,-400"/>
<text text-anchor="start" x="287" y="-469.8" font-family="Times,serif" font-weight="bold" font-size="14.00">LVCGraceDbEventData</text>
<polyline fill="none" stroke="black" points="265.5,-461 489.5,-461 "/>
<text text-anchor="start" x="273.5" y="-446.8" font-family="Times,serif" font-style="italic" font-size="14.00">lvc_gracedb_event_data.json</text>
<polyline fill="none" stroke="black" points="265.5,-438 489.5,-438 "/>
<text text-anchor="start" x="343.5" y="-422.8" font-family="Times,serif" font-size="14.00">JSONFile</text>
<text text-anchor="start" x="317.5" y="-407.8" font-family="Times,serif" font-size="14.00">OnlineVetoMixin</text>
</a>
</g>
</g>
<!-- llama.files.gracedb.LVCGraceDbEventData&#45;&gt;llama.files.coinc_significance.opa.CoincSignificanceI3Lvc -->
<g id="edge7" class="edge">
<title>llama.files.gracedb.LVCGraceDbEventData&#45;&gt;llama.files.coinc_significance.opa.CoincSignificanceI3Lvc</title>
<path fill="none" stroke="red" d="M489.73,-442C657.96,-442 956,-442 956,-442 956,-442 956,-302.61 956,-302.61"/>
<polygon fill="red" stroke="red" points="959.5,-302.61 956,-292.61 952.5,-302.61 959.5,-302.61"/>
</g>
<!-- llama.files.gracedb.PAstro -->
<g id="node7" class="node">
<title>llama.files.gracedb.PAstro</title>
<g id="a_node7"><a xlink:href="/llama.files.gracedb.html#llama.files.gracedb.PAstro" xlink:title="{{&lt;B&gt;PAstro&lt;/B&gt;|&lt;I&gt;p_astro.json&lt;/I&gt;|GraceDBPollingFileHandler&lt;BR/&gt;JSONFile}}" target="_top">
<polygon fill="#cccccc" stroke="black" points="270,-297 270,-381 485,-381 485,-297 270,-297"/>
<text text-anchor="start" x="350.5" y="-366.8" font-family="Times,serif" font-weight="bold" font-size="14.00">PAstro</text>
<polyline fill="none" stroke="black" points="270,-358 485,-358 "/>
<text text-anchor="start" x="333.5" y="-343.8" font-family="Times,serif" font-style="italic" font-size="14.00">p_astro.json</text>
<polyline fill="none" stroke="black" points="270,-335 485,-335 "/>
<text text-anchor="start" x="278" y="-319.8" font-family="Times,serif" font-size="14.00">GraceDBPollingFileHandler</text>
<text text-anchor="start" x="343.5" y="-304.8" font-family="Times,serif" font-size="14.00">JSONFile</text>
</a>
</g>
</g>
<!-- llama.files.gracedb.PAstro&#45;&gt;llama.files.coinc_significance.opa.CoincSignificanceI3Lvc -->
<g id="edge8" class="edge">
<title>llama.files.gracedb.PAstro&#45;&gt;llama.files.coinc_significance.opa.CoincSignificanceI3Lvc</title>
<path fill="none" stroke="red" d="M485.03,-339C625.57,-339 854,-339 854,-339 854,-339 854,-302.82 854,-302.82"/>
<polygon fill="red" stroke="red" points="857.5,-302.82 854,-292.82 850.5,-302.82 857.5,-302.82"/>
</g>
<!-- llama.files.i3.json.IceCubeNeutrinoList -->
<g id="node8" class="node">
<title>llama.files.i3.json.IceCubeNeutrinoList</title>
<g id="a_node8"><a xlink:href="/llama.files.i3.json.html#llama.files.i3.json.IceCubeNeutrinoList" xlink:title="{{&lt;B&gt;IceCubeNeutrinoList&lt;/B&gt;|&lt;I&gt;icecube_neutrino_list.json&lt;/I&gt;|JSONFile&lt;BR/&gt;HEALPixPSF}}" target="_top">
<polygon fill="#cccccc" stroke="black" points="551.5,-33 551.5,-117 755.5,-117 755.5,-33 551.5,-33"/>
<text text-anchor="start" x="569.5" y="-102.8" font-family="Times,serif" font-weight="bold" font-size="14.00">IceCubeNeutrinoList</text>
<polyline fill="none" stroke="black" points="551.5,-94 755.5,-94 "/>
<text text-anchor="start" x="559.5" y="-79.8" font-family="Times,serif" font-style="italic" font-size="14.00">icecube_neutrino_list.json</text>
<polyline fill="none" stroke="black" points="551.5,-71 755.5,-71 "/>
<text text-anchor="start" x="619.5" y="-55.8" font-family="Times,serif" font-size="14.00">JSONFile</text>
<text text-anchor="start" x="605.5" y="-40.8" font-family="Times,serif" font-size="14.00">HEALPixPSF</text>
</a>
</g>
</g>
<!-- llama.files.i3.json.IceCubeNeutrinoList&#45;&gt;llama.files.coinc_plots.CoincScatterI3LvcPdf -->
<g id="edge9" class="edge">
<title>llama.files.i3.json.IceCubeNeutrinoList&#45;&gt;llama.files.coinc_plots.CoincScatterI3LvcPdf</title>
<path fill="none" stroke="red" d="M755.66,-59.33C755.66,-59.33 1042.26,-59.33 1042.26,-59.33"/>
<polygon fill="red" stroke="red" points="1042.26,-62.83 1052.26,-59.33 1042.26,-55.83 1042.26,-62.83"/>
</g>
<!-- llama.files.i3.json.IceCubeNeutrinoList&#45;&gt;llama.files.coinc_plots.CoincSummaryI3LvcTex -->
<g id="edge10" class="edge">
<title>llama.files.i3.json.IceCubeNeutrinoList&#45;&gt;llama.files.coinc_plots.CoincSummaryI3LvcTex</title>
<path fill="none" stroke="red" d="M755.55,-108.88C965.86,-108.88 1428,-108.88 1428,-108.88 1428,-108.88 1428,-119.4 1428,-119.4"/>
<polygon fill="red" stroke="red" points="1424.5,-119.4 1428,-129.4 1431.5,-119.4 1424.5,-119.4"/>
</g>
<!-- llama.files.i3.json.IceCubeNeutrinoList&#45;&gt;llama.files.coinc_significance.opa.CoincSignificanceI3Lvc -->
<g id="edge11" class="edge">
<title>llama.files.i3.json.IceCubeNeutrinoList&#45;&gt;llama.files.coinc_significance.opa.CoincSignificanceI3Lvc</title>
<path fill="none" stroke="red" d="M755.56,-114.62C812.07,-114.62 871,-114.62 871,-114.62 871,-114.62 871,-213.29 871,-213.29"/>
<polygon fill="red" stroke="red" points="867.5,-213.29 871,-223.29 874.5,-213.29 867.5,-213.29"/>
</g>
<!-- llama.files.i3.json.IceCubeNeutrinoList&#45;&gt;llama.files.i3.tex.IceCubeNeutrinoListTex -->
<g id="edge12" class="edge">
<title>llama.files.i3.json.IceCubeNeutrinoList&#45;&gt;llama.files.i3.tex.IceCubeNeutrinoListTex</title>
<path fill="none" stroke="red" d="M755.61,-111.75C873.09,-111.75 1050,-111.75 1050,-111.75 1050,-111.75 1050,-207.33 1050,-207.33"/>
<polygon fill="red" stroke="red" points="1046.5,-207.33 1050,-217.33 1053.5,-207.33 1046.5,-207.33"/>
</g>
<!-- llama.files.i3.tex.IceCubeNeutrinoListTex&#45;&gt;llama.files.coinc_plots.CoincSummaryI3LvcTex -->
<g id="edge13" class="edge">
<title>llama.files.i3.tex.IceCubeNeutrinoListTex&#45;&gt;llama.files.coinc_plots.CoincSummaryI3LvcTex</title>
<path fill="none" stroke="red" d="M1249,-217.1C1249,-199.98 1249,-183 1249,-183 1249,-183 1278.73,-183 1278.73,-183"/>
<polygon fill="red" stroke="red" points="1278.73,-186.5 1288.73,-183 1278.73,-179.5 1278.73,-186.5"/>
</g>
<!-- llama.files.lvc_skymap.LvcDistancesJson -->
<g id="node10" class="node">
<title>llama.files.lvc_skymap.LvcDistancesJson</title>
<g id="a_node10"><a xlink:href="/llama.files.lvc_skymap.html#llama.files.lvc_skymap.LvcDistancesJson" xlink:title="{{&lt;B&gt;LvcDistancesJson&lt;/B&gt;|&lt;I&gt;lvc_skymap_distances.json&lt;/I&gt;|JSONFile}}" target="_top">
<polygon fill="#cccccc" stroke="black" points="548.5,-223.5 548.5,-292.5 758.5,-292.5 758.5,-223.5 548.5,-223.5"/>
<text text-anchor="start" x="583" y="-278.3" font-family="Times,serif" font-weight="bold" font-size="14.00">LvcDistancesJson</text>
<polyline fill="none" stroke="black" points="548.5,-269.5 758.5,-269.5 "/>
<text text-anchor="start" x="556.5" y="-255.3" font-family="Times,serif" font-style="italic" font-size="14.00">lvc_skymap_distances.json</text>
<polyline fill="none" stroke="black" points="548.5,-246.5 758.5,-246.5 "/>
<text text-anchor="start" x="619.5" y="-231.3" font-family="Times,serif" font-size="14.00">JSONFile</text>
</a>
</g>
</g>
<!-- llama.files.lvc_skymap.LvcDistancesJson&#45;&gt;llama.files.coinc_significance.opa.CoincSignificanceI3Lvc -->
<g id="edge14" class="edge">
<title>llama.files.lvc_skymap.LvcDistancesJson&#45;&gt;llama.files.coinc_significance.opa.CoincSignificanceI3Lvc</title>
<path fill="none" stroke="red" d="M758.7,-269.67C758.7,-269.67 792.64,-269.67 792.64,-269.67"/>
<polygon fill="red" stroke="red" points="792.64,-273.17 802.64,-269.67 792.64,-266.17 792.64,-273.17"/>
</g>
<!-- llama.files.lvc_skymap.LvcSkymapFits -->
<g id="node11" class="node">
<title>llama.files.lvc_skymap.LvcSkymapFits</title>
<g id="a_node11"><a xlink:href="/llama.files.lvc_skymap.html#llama.files.lvc_skymap.LvcSkymapFits" xlink:title="{{&lt;B&gt;LvcSkymapFits&lt;/B&gt;|&lt;I&gt;lvc_skymap.fits.gz&lt;/I&gt;|GenerateOnceMixin&lt;BR/&gt;LvcHEALPixSkyMapFileHandler&lt;BR/&gt;OnlineVetoMixin}}" target="_top">
<polygon fill="#cccccc" stroke="black" points="251,-140.5 251,-239.5 504,-239.5 504,-140.5 251,-140.5"/>
<text text-anchor="start" x="317.5" y="-225.3" font-family="Times,serif" font-weight="bold" font-size="14.00">LvcSkymapFits</text>
<polyline fill="none" stroke="black" points="251,-216.5 504,-216.5 "/>
<text text-anchor="start" x="311" y="-202.3" font-family="Times,serif" font-style="italic" font-size="14.00">lvc_skymap.fits.gz</text>
<polyline fill="none" stroke="black" points="251,-193.5 504,-193.5 "/>
<text text-anchor="start" x="305" y="-178.3" font-family="Times,serif" font-size="14.00">GenerateOnceMixin</text>
<text text-anchor="start" x="259" y="-163.3" font-family="Times,serif" font-size="14.00">LvcHEALPixSkyMapFileHandler</text>
<text text-anchor="start" x="317.5" y="-148.3" font-family="Times,serif" font-size="14.00">OnlineVetoMixin</text>
</a>
</g>
</g>
<!-- llama.files.lvc_skymap.LvcSkymapFits&#45;&gt;llama.files.lvc_skymap.LvcDistancesJson -->
<g id="edge15" class="edge">
<title>llama.files.lvc_skymap.LvcSkymapFits&#45;&gt;llama.files.lvc_skymap.LvcDistancesJson</title>
<path fill="none" stroke="red" d="M504.19,-231.5C504.19,-231.5 538.25,-231.5 538.25,-231.5"/>
<polygon fill="red" stroke="red" points="538.25,-235 548.25,-231.5 538.25,-228 538.25,-235"/>
</g>
<!-- llama.files.lvc_skymap.LvcSkymapHdf5 -->
<g id="node12" class="node">
<title>llama.files.lvc_skymap.LvcSkymapHdf5</title>
<g id="a_node12"><a xlink:href="/llama.files.lvc_skymap.html#llama.files.lvc_skymap.LvcSkymapHdf5" xlink:title="{{&lt;B&gt;LvcSkymapHdf5&lt;/B&gt;|&lt;I&gt;lvc_skymap.hdf5&lt;/I&gt;|HEALPixSkyMapFileHandler}}" target="_top">
<polygon fill="#cccccc" stroke="black" points="540,-135.5 540,-204.5 767,-204.5 767,-135.5 540,-135.5"/>
<text text-anchor="start" x="589" y="-190.3" font-family="Times,serif" font-weight="bold" font-size="14.00">LvcSkymapHdf5</text>
<polyline fill="none" stroke="black" points="540,-181.5 767,-181.5 "/>
<text text-anchor="start" x="593" y="-167.3" font-family="Times,serif" font-style="italic" font-size="14.00">lvc_skymap.hdf5</text>
<polyline fill="none" stroke="black" points="540,-158.5 767,-158.5 "/>
<text text-anchor="start" x="548" y="-143.3" font-family="Times,serif" font-size="14.00">HEALPixSkyMapFileHandler</text>
</a>
</g>
</g>
<!-- llama.files.lvc_skymap.LvcSkymapFits&#45;&gt;llama.files.lvc_skymap.LvcSkymapHdf5 -->
<g id="edge16" class="edge">
<title>llama.files.lvc_skymap.LvcSkymapFits&#45;&gt;llama.files.lvc_skymap.LvcSkymapHdf5</title>
<path fill="none" stroke="red" d="M504.19,-172.5C504.19,-172.5 529.88,-172.5 529.88,-172.5"/>
<polygon fill="red" stroke="red" points="529.88,-176 539.88,-172.5 529.88,-169 529.88,-176"/>
</g>
<!-- llama.files.lvc_skymap.LvcSkymapHdf5&#45;&gt;llama.files.coinc_plots.CoincScatterI3LvcPdf -->
<g id="edge17" class="edge">
<title>llama.files.lvc_skymap.LvcSkymapHdf5&#45;&gt;llama.files.coinc_plots.CoincScatterI3LvcPdf</title>
<path fill="none" stroke="red" d="M762,-135.48C762,-111.07 762,-82.67 762,-82.67 762,-82.67 1042.09,-82.67 1042.09,-82.67"/>
<polygon fill="red" stroke="red" points="1042.09,-86.17 1052.09,-82.67 1042.09,-79.17 1042.09,-86.17"/>
</g>
<!-- llama.files.lvc_skymap.LvcSkymapHdf5&#45;&gt;llama.files.coinc_significance.opa.CoincSignificanceI3Lvc -->
<g id="edge18" class="edge">
<title>llama.files.lvc_skymap.LvcSkymapHdf5&#45;&gt;llama.files.coinc_significance.opa.CoincSignificanceI3Lvc</title>
<path fill="none" stroke="red" d="M763,-204.59C763,-224.79 763,-246.33 763,-246.33 763,-246.33 792.93,-246.33 792.93,-246.33"/>
<polygon fill="red" stroke="red" points="792.93,-249.83 802.93,-246.33 792.93,-242.83 792.93,-249.83"/>
</g>
<!-- llama.files.skymap_info.SkymapInfo -->
<g id="node13" class="node">
<title>llama.files.skymap_info.SkymapInfo</title>
<g id="a_node13"><a xlink:href="/llama.files.skymap_info.html#llama.files.skymap_info.SkymapInfo" xlink:title="{{&lt;B&gt;SkymapInfo&lt;/B&gt;|&lt;I&gt;skymap_info.json&lt;/I&gt;|EventTriggeredFileHandler&lt;BR/&gt;JSONFile}}" target="_top">
<polygon fill="#cccccc" stroke="black" points="0,-261 0,-345 215,-345 215,-261 0,-261"/>
<text text-anchor="start" x="59.5" y="-330.8" font-family="Times,serif" font-weight="bold" font-size="14.00">SkymapInfo</text>
<polyline fill="none" stroke="black" points="0,-322 215,-322 "/>
<text text-anchor="start" x="45.5" y="-307.8" font-family="Times,serif" font-style="italic" font-size="14.00">skymap_info.json</text>
<polyline fill="none" stroke="black" points="0,-299 215,-299 "/>
<text text-anchor="start" x="8" y="-283.8" font-family="Times,serif" font-size="14.00">EventTriggeredFileHandler</text>
<text text-anchor="start" x="73.5" y="-268.8" font-family="Times,serif" font-size="14.00">JSONFile</text>
</a>
</g>
</g>
<!-- llama.files.skymap_info.SkymapInfo&#45;&gt;llama.files.coinc_plots.CoincSummaryI3LvcTex -->
<g id="edge19" class="edge">
<title>llama.files.skymap_info.SkymapInfo&#45;&gt;llama.files.coinc_plots.CoincSummaryI3LvcTex</title>
<path fill="none" stroke="red" d="M129,-260.87C129,-207.2 129,-121.33 129,-121.33 129,-121.33 1359,-121.33 1359,-121.33 1359,-121.33 1359,-122.12 1359,-122.12"/>
<polygon fill="red" stroke="red" points="1355.5,-119.16 1359,-129.16 1362.5,-119.16 1355.5,-119.16"/>
</g>
<!-- llama.files.skymap_info.SkymapInfo&#45;&gt;llama.files.coinc_plots.RctSlkLmaCoincSummaryI3LvcPdf -->
<g id="edge20" class="edge">
<title>llama.files.skymap_info.SkymapInfo&#45;&gt;llama.files.coinc_plots.RctSlkLmaCoincSummaryI3LvcPdf</title>
<path fill="none" stroke="red" d="M43,-261C43,-181.35 43,-16.25 43,-16.25 43,-16.25 1766.86,-16.25 1766.86,-16.25"/>
<polygon fill="red" stroke="red" points="1766.86,-19.75 1776.86,-16.25 1766.86,-12.75 1766.86,-19.75"/>
</g>
<!-- llama.files.skymap_info.SkymapInfo&#45;&gt;llama.files.coinc_significance.opa.CoincSignificanceI3Lvc -->
<g id="edge21" class="edge">
<title>llama.files.skymap_info.SkymapInfo&#45;&gt;llama.files.coinc_significance.opa.CoincSignificanceI3Lvc</title>
<path fill="none" stroke="red" d="M144,-345.21C144,-367.59 144,-390.5 144,-390.5 144,-390.5 905,-390.5 905,-390.5 905,-390.5 905,-302.81 905,-302.81"/>
<polygon fill="red" stroke="red" points="908.5,-302.81 905,-292.81 901.5,-302.81 908.5,-302.81"/>
</g>
<!-- llama.files.skymap_info.SkymapInfo&#45;&gt;llama.files.gracedb.LVCGraceDbEventData -->
<g id="edge22" class="edge">
<title>llama.files.skymap_info.SkymapInfo&#45;&gt;llama.files.gracedb.LVCGraceDbEventData</title>
<path fill="none" stroke="red" d="M72,-345.08C72,-385.99 72,-442 72,-442 72,-442 255.48,-442 255.48,-442"/>
<polygon fill="red" stroke="red" points="255.48,-445.5 265.48,-442 255.48,-438.5 255.48,-445.5"/>
</g>
<!-- llama.files.skymap_info.SkymapInfo&#45;&gt;llama.files.gracedb.PAstro -->
<g id="edge23" class="edge">
<title>llama.files.skymap_info.SkymapInfo&#45;&gt;llama.files.gracedb.PAstro</title>
<path fill="none" stroke="red" d="M215.38,-321C215.38,-321 259.8,-321 259.8,-321"/>
<polygon fill="red" stroke="red" points="259.8,-324.5 269.8,-321 259.8,-317.5 259.8,-324.5"/>
</g>
<!-- llama.files.skymap_info.SkymapInfo&#45;&gt;llama.files.i3.json.IceCubeNeutrinoList -->
<g id="edge24" class="edge">
<title>llama.files.skymap_info.SkymapInfo&#45;&gt;llama.files.i3.json.IceCubeNeutrinoList</title>
<path fill="none" stroke="red" d="M86,-260.92C86,-195.04 86,-75 86,-75 86,-75 541.39,-75 541.39,-75"/>
<polygon fill="red" stroke="red" points="541.39,-78.5 551.39,-75 541.39,-71.5 541.39,-78.5"/>
</g>
<!-- llama.files.skymap_info.SkymapInfo&#45;&gt;llama.files.i3.tex.IceCubeNeutrinoListTex -->
<g id="edge25" class="edge">
<title>llama.files.skymap_info.SkymapInfo&#45;&gt;llama.files.i3.tex.IceCubeNeutrinoListTex</title>
<path fill="none" stroke="red" d="M172,-260.86C172,-208.27 172,-125.17 172,-125.17 172,-125.17 1047,-125.17 1047,-125.17 1047,-125.17 1047,-207.34 1047,-207.34"/>
<polygon fill="red" stroke="red" points="1043.5,-207.34 1047,-217.34 1050.5,-207.34 1043.5,-207.34"/>
</g>
<!-- llama.files.skymap_info.SkymapInfo&#45;&gt;llama.files.lvc_skymap.LvcSkymapFits -->
<g id="edge26" class="edge">
<title>llama.files.skymap_info.SkymapInfo&#45;&gt;llama.files.lvc_skymap.LvcSkymapFits</title>
<path fill="none" stroke="red" d="M215.18,-276.75C239.86,-276.75 259,-276.75 259,-276.75 259,-276.75 259,-249.71 259,-249.71"/>
<polygon fill="red" stroke="red" points="262.5,-249.71 259,-239.71 255.5,-249.71 262.5,-249.71"/>
</g>
</g>
</svg>
