<?xml version="1.0" encoding="UTF-8" standalone="no"?>
<!DOCTYPE svg PUBLIC "-//W3C//DTD SVG 1.1//EN"
 "http://www.w3.org/Graphics/SVG/1.1/DTD/svg11.dtd">
<!-- Generated by graphviz version 2.42.3 (20191010.1750)
 -->
<!-- Title: llama.files.coinc_analyses.CoincSkymapI3LvcHDF5 Pages: 1 -->
<svg width="1024pt" height="188pt"
 viewBox="0.00 0.00 1024.00 187.50" xmlns="http://www.w3.org/2000/svg" xmlns:xlink="http://www.w3.org/1999/xlink">
<g id="graph0" class="graph" transform="scale(1 1) rotate(0) translate(4 183.5)">
<title>llama.files.coinc_analyses.CoincSkymapI3LvcHDF5</title>
<polygon fill="transparent" stroke="transparent" points="-4,4 -4,-183.5 1020,-183.5 1020,4 -4,4"/>
<!-- llama.files.coinc_analyses.CoincSkymapI3LvcHDF5 -->
<g id="node1" class="node">
<title>llama.files.coinc_analyses.CoincSkymapI3LvcHDF5</title>
<g id="a_node1"><a xlink:href="/llama.files.coinc_analyses.html#llama.files.coinc_analyses.CoincSkymapI3LvcHDF5" xlink:title="{{&lt;B&gt;CoincSkymapI3LvcHDF5&lt;/B&gt;|&lt;I&gt;likelihood_i3&#45;lvc.hdf5&lt;/I&gt;|HEALPixSkyMapAnalysis}}" target="_top">
<polygon fill="#cccccc" stroke="black" points="803,-54.5 803,-123.5 1016,-123.5 1016,-54.5 803,-54.5"/>
<text text-anchor="start" x="811" y="-109.3" font-family="Times,serif" font-weight="bold" font-size="14.00">CoincSkymapI3LvcHDF5</text>
<polyline fill="none" stroke="black" points="803,-100.5 1016,-100.5 "/>
<text text-anchor="start" x="832.5" y="-86.3" font-family="Times,serif" font-style="italic" font-size="14.00">likelihood_i3&#45;lvc.hdf5</text>
<polyline fill="none" stroke="black" points="803,-77.5 1016,-77.5 "/>
<text text-anchor="start" x="817" y="-62.3" font-family="Times,serif" font-size="14.00">HEALPixSkyMapAnalysis</text>
</a>
</g>
</g>
<!-- llama.files.i3.json.IceCubeNeutrinoList -->
<g id="node2" class="node">
<title>llama.files.i3.json.IceCubeNeutrinoList</title>
<g id="a_node2"><a xlink:href="/llama.files.i3.json.html#llama.files.i3.json.IceCubeNeutrinoList" xlink:title="{{&lt;B&gt;IceCubeNeutrinoList&lt;/B&gt;|&lt;I&gt;icecube_neutrino_list.json&lt;/I&gt;|JSONFile&lt;BR/&gt;HEALPixPSF}}" target="_top">
<polygon fill="#cccccc" stroke="black" points="551.5,-95 551.5,-179 755.5,-179 755.5,-95 551.5,-95"/>
<text text-anchor="start" x="569.5" y="-164.8" font-family="Times,serif" font-weight="bold" font-size="14.00">IceCubeNeutrinoList</text>
<polyline fill="none" stroke="black" points="551.5,-156 755.5,-156 "/>
<text text-anchor="start" x="559.5" y="-141.8" font-family="Times,serif" font-style="italic" font-size="14.00">icecube_neutrino_list.json</text>
<polyline fill="none" stroke="black" points="551.5,-133 755.5,-133 "/>
<text text-anchor="start" x="619.5" y="-117.8" font-family="Times,serif" font-size="14.00">JSONFile</text>
<text text-anchor="start" x="605.5" y="-102.8" font-family="Times,serif" font-size="14.00">HEALPixPSF</text>
</a>
</g>
</g>
<!-- llama.files.i3.json.IceCubeNeutrinoList&#45;&gt;llama.files.coinc_analyses.CoincSkymapI3LvcHDF5 -->
<g id="edge1" class="edge">
<title>llama.files.i3.json.IceCubeNeutrinoList&#45;&gt;llama.files.coinc_analyses.CoincSkymapI3LvcHDF5</title>
<path fill="none" stroke="red" d="M755.78,-109.25C755.78,-109.25 792.77,-109.25 792.77,-109.25"/>
<polygon fill="red" stroke="red" points="792.77,-112.75 802.77,-109.25 792.77,-105.75 792.77,-112.75"/>
</g>
<!-- llama.files.lvc_skymap.LvcSkymapFits -->
<g id="node3" class="node">
<title>llama.files.lvc_skymap.LvcSkymapFits</title>
<g id="a_node3"><a xlink:href="/llama.files.lvc_skymap.html#llama.files.lvc_skymap.LvcSkymapFits" xlink:title="{{&lt;B&gt;LvcSkymapFits&lt;/B&gt;|&lt;I&gt;lvc_skymap.fits.gz&lt;/I&gt;|GenerateOnceMixin&lt;BR/&gt;LvcHEALPixSkyMapFileHandler&lt;BR/&gt;OnlineVetoMixin}}" target="_top">
<polygon fill="#cccccc" stroke="black" points="251,-0.5 251,-99.5 504,-99.5 504,-0.5 251,-0.5"/>
<text text-anchor="start" x="317.5" y="-85.3" font-family="Times,serif" font-weight="bold" font-size="14.00">LvcSkymapFits</text>
<polyline fill="none" stroke="black" points="251,-76.5 504,-76.5 "/>
<text text-anchor="start" x="311" y="-62.3" font-family="Times,serif" font-style="italic" font-size="14.00">lvc_skymap.fits.gz</text>
<polyline fill="none" stroke="black" points="251,-53.5 504,-53.5 "/>
<text text-anchor="start" x="305" y="-38.3" font-family="Times,serif" font-size="14.00">GenerateOnceMixin</text>
<text text-anchor="start" x="259" y="-23.3" font-family="Times,serif" font-size="14.00">LvcHEALPixSkyMapFileHandler</text>
<text text-anchor="start" x="317.5" y="-8.3" font-family="Times,serif" font-size="14.00">OnlineVetoMixin</text>
</a>
</g>
</g>
<!-- llama.files.lvc_skymap.LvcSkymapHdf5 -->
<g id="node4" class="node">
<title>llama.files.lvc_skymap.LvcSkymapHdf5</title>
<g id="a_node4"><a xlink:href="/llama.files.lvc_skymap.html#llama.files.lvc_skymap.LvcSkymapHdf5" xlink:title="{{&lt;B&gt;LvcSkymapHdf5&lt;/B&gt;|&lt;I&gt;lvc_skymap.hdf5&lt;/I&gt;|HEALPixSkyMapFileHandler}}" target="_top">
<polygon fill="#cccccc" stroke="black" points="540,-7.5 540,-76.5 767,-76.5 767,-7.5 540,-7.5"/>
<text text-anchor="start" x="589" y="-62.3" font-family="Times,serif" font-weight="bold" font-size="14.00">LvcSkymapHdf5</text>
<polyline fill="none" stroke="black" points="540,-53.5 767,-53.5 "/>
<text text-anchor="start" x="593" y="-39.3" font-family="Times,serif" font-style="italic" font-size="14.00">lvc_skymap.hdf5</text>
<polyline fill="none" stroke="black" points="540,-30.5 767,-30.5 "/>
<text text-anchor="start" x="548" y="-15.3" font-family="Times,serif" font-size="14.00">HEALPixSkyMapFileHandler</text>
</a>
</g>
</g>
<!-- llama.files.lvc_skymap.LvcSkymapFits&#45;&gt;llama.files.lvc_skymap.LvcSkymapHdf5 -->
<g id="edge2" class="edge">
<title>llama.files.lvc_skymap.LvcSkymapFits&#45;&gt;llama.files.lvc_skymap.LvcSkymapHdf5</title>
<path fill="none" stroke="red" d="M504.19,-42C504.19,-42 529.88,-42 529.88,-42"/>
<polygon fill="red" stroke="red" points="529.88,-45.5 539.88,-42 529.88,-38.5 529.88,-45.5"/>
</g>
<!-- llama.files.lvc_skymap.LvcSkymapHdf5&#45;&gt;llama.files.coinc_analyses.CoincSkymapI3LvcHDF5 -->
<g id="edge3" class="edge">
<title>llama.files.lvc_skymap.LvcSkymapHdf5&#45;&gt;llama.files.coinc_analyses.CoincSkymapI3LvcHDF5</title>
<path fill="none" stroke="red" d="M767.28,-65.5C767.28,-65.5 792.61,-65.5 792.61,-65.5"/>
<polygon fill="red" stroke="red" points="792.61,-69 802.61,-65.5 792.61,-62 792.61,-69"/>
</g>
<!-- llama.files.skymap_info.SkymapInfo -->
<g id="node5" class="node">
<title>llama.files.skymap_info.SkymapInfo</title>
<g id="a_node5"><a xlink:href="/llama.files.skymap_info.html#llama.files.skymap_info.SkymapInfo" xlink:title="{{&lt;B&gt;SkymapInfo&lt;/B&gt;|&lt;I&gt;skymap_info.json&lt;/I&gt;|EventTriggeredFileHandler&lt;BR/&gt;JSONFile}}" target="_top">
<polygon fill="#cccccc" stroke="black" points="0,-47 0,-131 215,-131 215,-47 0,-47"/>
<text text-anchor="start" x="59.5" y="-116.8" font-family="Times,serif" font-weight="bold" font-size="14.00">SkymapInfo</text>
<polyline fill="none" stroke="black" points="0,-108 215,-108 "/>
<text text-anchor="start" x="45.5" y="-93.8" font-family="Times,serif" font-style="italic" font-size="14.00">skymap_info.json</text>
<polyline fill="none" stroke="black" points="0,-85 215,-85 "/>
<text text-anchor="start" x="8" y="-69.8" font-family="Times,serif" font-size="14.00">EventTriggeredFileHandler</text>
<text text-anchor="start" x="73.5" y="-54.8" font-family="Times,serif" font-size="14.00">JSONFile</text>
</a>
</g>
</g>
<!-- llama.files.skymap_info.SkymapInfo&#45;&gt;llama.files.i3.json.IceCubeNeutrinoList -->
<g id="edge4" class="edge">
<title>llama.files.skymap_info.SkymapInfo&#45;&gt;llama.files.i3.json.IceCubeNeutrinoList</title>
<path fill="none" stroke="red" d="M215.05,-115.75C215.05,-115.75 541.27,-115.75 541.27,-115.75"/>
<polygon fill="red" stroke="red" points="541.27,-119.25 551.27,-115.75 541.27,-112.25 541.27,-119.25"/>
</g>
<!-- llama.files.skymap_info.SkymapInfo&#45;&gt;llama.files.lvc_skymap.LvcSkymapFits -->
<g id="edge5" class="edge">
<title>llama.files.skymap_info.SkymapInfo&#45;&gt;llama.files.lvc_skymap.LvcSkymapFits</title>
<path fill="none" stroke="red" d="M215.38,-73.25C215.38,-73.25 240.66,-73.25 240.66,-73.25"/>
<polygon fill="red" stroke="red" points="240.66,-76.75 250.66,-73.25 240.66,-69.75 240.66,-76.75"/>
</g>
</g>
</svg>
