<?xml version="1.0" encoding="UTF-8" standalone="no"?>
<!DOCTYPE svg PUBLIC "-//W3C//DTD SVG 1.1//EN"
 "http://www.w3.org/Graphics/SVG/1.1/DTD/svg11.dtd">
<!-- Generated by graphviz version 2.42.3 (20191010.1750)
 -->
<!-- Title: llama.files.coinc_analyses.CoincLikelihoodPltsFrmI3Lvc Pages: 1 -->
<svg width="1376pt" height="283pt"
 viewBox="0.00 0.00 1376.00 282.50" xmlns="http://www.w3.org/2000/svg" xmlns:xlink="http://www.w3.org/1999/xlink">
<g id="graph0" class="graph" transform="scale(1 1) rotate(0) translate(4 278.5)">
<title>llama.files.coinc_analyses.CoincLikelihoodPltsFrmI3Lvc</title>
<polygon fill="transparent" stroke="transparent" points="-4,4 -4,-278.5 1372,-278.5 1372,4 -4,4"/>
<!-- llama.files.coinc_analyses.CoincLikelihoodPltsFrmI3Lvc -->
<g id="node1" class="node">
<title>llama.files.coinc_analyses.CoincLikelihoodPltsFrmI3Lvc</title>
<g id="a_node1"><a xlink:href="/llama.files.coinc_analyses.html#llama.files.coinc_analyses.CoincLikelihoodPltsFrmI3Lvc" xlink:title="{{&lt;B&gt;CoincLikelihoodPltsFrmI3Lvc&lt;/B&gt;|&lt;I&gt;likelihood_frm&#45;i3&#45;lvc.hdf5&#45;plots.tar.gz&lt;/I&gt;|HEALPixPlots}}" target="_top">
<polygon fill="#cccccc" stroke="black" points="1084,-126.5 1084,-195.5 1368,-195.5 1368,-126.5 1084,-126.5"/>
<text text-anchor="start" x="1107.5" y="-181.3" font-family="Times,serif" font-weight="bold" font-size="14.00">CoincLikelihoodPltsFrmI3Lvc</text>
<polyline fill="none" stroke="black" points="1084,-172.5 1368,-172.5 "/>
<text text-anchor="start" x="1092" y="-158.3" font-family="Times,serif" font-style="italic" font-size="14.00">likelihood_frm&#45;i3&#45;lvc.hdf5&#45;plots.tar.gz</text>
<polyline fill="none" stroke="black" points="1084,-149.5 1368,-149.5 "/>
<text text-anchor="start" x="1174.5" y="-134.3" font-family="Times,serif" font-size="14.00">HEALPixPlots</text>
</a>
</g>
</g>
<!-- llama.files.coinc_analyses.CoincSkymapFrmI3LvcHDF5 -->
<g id="node2" class="node">
<title>llama.files.coinc_analyses.CoincSkymapFrmI3LvcHDF5</title>
<g id="a_node2"><a xlink:href="/llama.files.coinc_analyses.html#llama.files.coinc_analyses.CoincSkymapFrmI3LvcHDF5" xlink:title="{{&lt;B&gt;CoincSkymapFrmI3LvcHDF5&lt;/B&gt;|&lt;I&gt;likelihood_frm&#45;i3&#45;lvc.hdf5&lt;/I&gt;|HEALPixSkyMapAnalysis}}" target="_top">
<polygon fill="#cccccc" stroke="black" points="803,-126.5 803,-195.5 1048,-195.5 1048,-126.5 803,-126.5"/>
<text text-anchor="start" x="811" y="-181.3" font-family="Times,serif" font-weight="bold" font-size="14.00">CoincSkymapFrmI3LvcHDF5</text>
<polyline fill="none" stroke="black" points="803,-172.5 1048,-172.5 "/>
<text text-anchor="start" x="833.5" y="-158.3" font-family="Times,serif" font-style="italic" font-size="14.00">likelihood_frm&#45;i3&#45;lvc.hdf5</text>
<polyline fill="none" stroke="black" points="803,-149.5 1048,-149.5 "/>
<text text-anchor="start" x="833" y="-134.3" font-family="Times,serif" font-size="14.00">HEALPixSkyMapAnalysis</text>
</a>
</g>
</g>
<!-- llama.files.coinc_analyses.CoincSkymapFrmI3LvcHDF5&#45;&gt;llama.files.coinc_analyses.CoincLikelihoodPltsFrmI3Lvc -->
<g id="edge1" class="edge">
<title>llama.files.coinc_analyses.CoincSkymapFrmI3LvcHDF5&#45;&gt;llama.files.coinc_analyses.CoincLikelihoodPltsFrmI3Lvc</title>
<path fill="none" stroke="red" d="M1048.16,-161C1048.16,-161 1073.61,-161 1073.61,-161"/>
<polygon fill="red" stroke="red" points="1073.61,-164.5 1083.61,-161 1073.61,-157.5 1073.61,-164.5"/>
</g>
<!-- llama.files.fermi_grb.FermiGRBsJSON -->
<g id="node3" class="node">
<title>llama.files.fermi_grb.FermiGRBsJSON</title>
<g id="a_node3"><a xlink:href="/llama.files.fermi_grb.html#llama.files.fermi_grb.FermiGRBsJSON" xlink:title="{{&lt;B&gt;FermiGRBsJSON&lt;/B&gt;|&lt;I&gt;fermi_grbs.json&lt;/I&gt;|JSONFile&lt;BR/&gt;HEALPixPSF}}" target="_top">
<polygon fill="#cccccc" stroke="black" points="579,-190 579,-274 728,-274 728,-190 579,-190"/>
<text text-anchor="start" x="587" y="-259.8" font-family="Times,serif" font-weight="bold" font-size="14.00">FermiGRBsJSON</text>
<polyline fill="none" stroke="black" points="579,-251 728,-251 "/>
<text text-anchor="start" x="597.5" y="-236.8" font-family="Times,serif" font-style="italic" font-size="14.00">fermi_grbs.json</text>
<polyline fill="none" stroke="black" points="579,-228 728,-228 "/>
<text text-anchor="start" x="619.5" y="-212.8" font-family="Times,serif" font-size="14.00">JSONFile</text>
<text text-anchor="start" x="605.5" y="-197.8" font-family="Times,serif" font-size="14.00">HEALPixPSF</text>
</a>
</g>
</g>
<!-- llama.files.fermi_grb.FermiGRBsJSON&#45;&gt;llama.files.coinc_analyses.CoincSkymapFrmI3LvcHDF5 -->
<g id="edge2" class="edge">
<title>llama.files.fermi_grb.FermiGRBsJSON&#45;&gt;llama.files.coinc_analyses.CoincSkymapFrmI3LvcHDF5</title>
<path fill="none" stroke="red" d="M654,-189.89C654,-180.68 654,-173.62 654,-173.62 654,-173.62 792.86,-173.62 792.86,-173.62"/>
<polygon fill="red" stroke="red" points="792.86,-177.13 802.86,-173.62 792.86,-170.13 792.86,-177.13"/>
</g>
<!-- llama.files.i3.json.IceCubeNeutrinoList -->
<g id="node4" class="node">
<title>llama.files.i3.json.IceCubeNeutrinoList</title>
<g id="a_node4"><a xlink:href="/llama.files.i3.json.html#llama.files.i3.json.IceCubeNeutrinoList" xlink:title="{{&lt;B&gt;IceCubeNeutrinoList&lt;/B&gt;|&lt;I&gt;icecube_neutrino_list.json&lt;/I&gt;|JSONFile&lt;BR/&gt;HEALPixPSF}}" target="_top">
<polygon fill="#cccccc" stroke="black" points="275.5,-119 275.5,-203 479.5,-203 479.5,-119 275.5,-119"/>
<text text-anchor="start" x="293.5" y="-188.8" font-family="Times,serif" font-weight="bold" font-size="14.00">IceCubeNeutrinoList</text>
<polyline fill="none" stroke="black" points="275.5,-180 479.5,-180 "/>
<text text-anchor="start" x="283.5" y="-165.8" font-family="Times,serif" font-style="italic" font-size="14.00">icecube_neutrino_list.json</text>
<polyline fill="none" stroke="black" points="275.5,-157 479.5,-157 "/>
<text text-anchor="start" x="343.5" y="-141.8" font-family="Times,serif" font-size="14.00">JSONFile</text>
<text text-anchor="start" x="329.5" y="-126.8" font-family="Times,serif" font-size="14.00">HEALPixPSF</text>
</a>
</g>
</g>
<!-- llama.files.i3.json.IceCubeNeutrinoList&#45;&gt;llama.files.coinc_analyses.CoincSkymapFrmI3LvcHDF5 -->
<g id="edge3" class="edge">
<title>llama.files.i3.json.IceCubeNeutrinoList&#45;&gt;llama.files.coinc_analyses.CoincSkymapFrmI3LvcHDF5</title>
<path fill="none" stroke="red" d="M479.61,-157.75C479.61,-157.75 792.83,-157.75 792.83,-157.75"/>
<polygon fill="red" stroke="red" points="792.83,-161.25 802.83,-157.75 792.83,-154.25 792.83,-161.25"/>
</g>
<!-- llama.files.lvc_skymap.LvcSkymapFits -->
<g id="node5" class="node">
<title>llama.files.lvc_skymap.LvcSkymapFits</title>
<g id="a_node5"><a xlink:href="/llama.files.lvc_skymap.html#llama.files.lvc_skymap.LvcSkymapFits" xlink:title="{{&lt;B&gt;LvcSkymapFits&lt;/B&gt;|&lt;I&gt;lvc_skymap.fits.gz&lt;/I&gt;|GenerateOnceMixin&lt;BR/&gt;LvcHEALPixSkyMapFileHandler&lt;BR/&gt;OnlineVetoMixin}}" target="_top">
<polygon fill="#cccccc" stroke="black" points="251,-0.5 251,-99.5 504,-99.5 504,-0.5 251,-0.5"/>
<text text-anchor="start" x="317.5" y="-85.3" font-family="Times,serif" font-weight="bold" font-size="14.00">LvcSkymapFits</text>
<polyline fill="none" stroke="black" points="251,-76.5 504,-76.5 "/>
<text text-anchor="start" x="311" y="-62.3" font-family="Times,serif" font-style="italic" font-size="14.00">lvc_skymap.fits.gz</text>
<polyline fill="none" stroke="black" points="251,-53.5 504,-53.5 "/>
<text text-anchor="start" x="305" y="-38.3" font-family="Times,serif" font-size="14.00">GenerateOnceMixin</text>
<text text-anchor="start" x="259" y="-23.3" font-family="Times,serif" font-size="14.00">LvcHEALPixSkyMapFileHandler</text>
<text text-anchor="start" x="317.5" y="-8.3" font-family="Times,serif" font-size="14.00">OnlineVetoMixin</text>
</a>
</g>
</g>
<!-- llama.files.lvc_skymap.LvcSkymapHdf5 -->
<g id="node6" class="node">
<title>llama.files.lvc_skymap.LvcSkymapHdf5</title>
<g id="a_node6"><a xlink:href="/llama.files.lvc_skymap.html#llama.files.lvc_skymap.LvcSkymapHdf5" xlink:title="{{&lt;B&gt;LvcSkymapHdf5&lt;/B&gt;|&lt;I&gt;lvc_skymap.hdf5&lt;/I&gt;|HEALPixSkyMapFileHandler}}" target="_top">
<polygon fill="#cccccc" stroke="black" points="540,-39.5 540,-108.5 767,-108.5 767,-39.5 540,-39.5"/>
<text text-anchor="start" x="589" y="-94.3" font-family="Times,serif" font-weight="bold" font-size="14.00">LvcSkymapHdf5</text>
<polyline fill="none" stroke="black" points="540,-85.5 767,-85.5 "/>
<text text-anchor="start" x="593" y="-71.3" font-family="Times,serif" font-style="italic" font-size="14.00">lvc_skymap.hdf5</text>
<polyline fill="none" stroke="black" points="540,-62.5 767,-62.5 "/>
<text text-anchor="start" x="548" y="-47.3" font-family="Times,serif" font-size="14.00">HEALPixSkyMapFileHandler</text>
</a>
</g>
</g>
<!-- llama.files.lvc_skymap.LvcSkymapFits&#45;&gt;llama.files.lvc_skymap.LvcSkymapHdf5 -->
<g id="edge4" class="edge">
<title>llama.files.lvc_skymap.LvcSkymapFits&#45;&gt;llama.files.lvc_skymap.LvcSkymapHdf5</title>
<path fill="none" stroke="red" d="M504.19,-69.5C504.19,-69.5 529.88,-69.5 529.88,-69.5"/>
<polygon fill="red" stroke="red" points="529.88,-73 539.88,-69.5 529.88,-66 529.88,-73"/>
</g>
<!-- llama.files.lvc_skymap.LvcSkymapHdf5&#45;&gt;llama.files.coinc_analyses.CoincSkymapFrmI3LvcHDF5 -->
<g id="edge5" class="edge">
<title>llama.files.lvc_skymap.LvcSkymapHdf5&#45;&gt;llama.files.coinc_analyses.CoincSkymapFrmI3LvcHDF5</title>
<path fill="none" stroke="red" d="M748,-108.73C748,-125.43 748,-141.88 748,-141.88 748,-141.88 792.7,-141.88 792.7,-141.88"/>
<polygon fill="red" stroke="red" points="792.7,-145.38 802.7,-141.88 792.7,-138.38 792.7,-145.38"/>
</g>
<!-- llama.files.skymap_info.SkymapInfo -->
<g id="node7" class="node">
<title>llama.files.skymap_info.SkymapInfo</title>
<g id="a_node7"><a xlink:href="/llama.files.skymap_info.html#llama.files.skymap_info.SkymapInfo" xlink:title="{{&lt;B&gt;SkymapInfo&lt;/B&gt;|&lt;I&gt;skymap_info.json&lt;/I&gt;|EventTriggeredFileHandler&lt;BR/&gt;JSONFile}}" target="_top">
<polygon fill="#cccccc" stroke="black" points="0,-119 0,-203 215,-203 215,-119 0,-119"/>
<text text-anchor="start" x="59.5" y="-188.8" font-family="Times,serif" font-weight="bold" font-size="14.00">SkymapInfo</text>
<polyline fill="none" stroke="black" points="0,-180 215,-180 "/>
<text text-anchor="start" x="45.5" y="-165.8" font-family="Times,serif" font-style="italic" font-size="14.00">skymap_info.json</text>
<polyline fill="none" stroke="black" points="0,-157 215,-157 "/>
<text text-anchor="start" x="8" y="-141.8" font-family="Times,serif" font-size="14.00">EventTriggeredFileHandler</text>
<text text-anchor="start" x="73.5" y="-126.8" font-family="Times,serif" font-size="14.00">JSONFile</text>
</a>
</g>
</g>
<!-- llama.files.skymap_info.SkymapInfo&#45;&gt;llama.files.fermi_grb.FermiGRBsJSON -->
<g id="edge6" class="edge">
<title>llama.files.skymap_info.SkymapInfo&#45;&gt;llama.files.fermi_grb.FermiGRBsJSON</title>
<path fill="none" stroke="red" d="M108,-203.2C108,-221.57 108,-239 108,-239 108,-239 568.79,-239 568.79,-239"/>
<polygon fill="red" stroke="red" points="568.79,-242.5 578.79,-239 568.79,-235.5 568.79,-242.5"/>
</g>
<!-- llama.files.skymap_info.SkymapInfo&#45;&gt;llama.files.i3.json.IceCubeNeutrinoList -->
<g id="edge7" class="edge">
<title>llama.files.skymap_info.SkymapInfo&#45;&gt;llama.files.i3.json.IceCubeNeutrinoList</title>
<path fill="none" stroke="red" d="M215.38,-175.17C215.38,-175.17 265.5,-175.17 265.5,-175.17"/>
<polygon fill="red" stroke="red" points="265.5,-178.67 275.5,-175.17 265.5,-171.67 265.5,-178.67"/>
</g>
<!-- llama.files.skymap_info.SkymapInfo&#45;&gt;llama.files.lvc_skymap.LvcSkymapFits -->
<g id="edge8" class="edge">
<title>llama.files.skymap_info.SkymapInfo&#45;&gt;llama.files.lvc_skymap.LvcSkymapFits</title>
<path fill="none" stroke="red" d="M215.34,-146.83C242.45,-146.83 264,-146.83 264,-146.83 264,-146.83 264,-109.55 264,-109.55"/>
<polygon fill="red" stroke="red" points="267.5,-109.55 264,-99.55 260.5,-109.55 267.5,-109.55"/>
</g>
</g>
</svg>
