<?xml version="1.0" encoding="UTF-8" standalone="no"?>
<!DOCTYPE svg PUBLIC "-//W3C//DTD SVG 1.1//EN"
 "http://www.w3.org/Graphics/SVG/1.1/DTD/svg11.dtd">
<!-- Generated by graphviz version 2.42.3 (20191010.1750)
 -->
<!-- Title: llama.test.test_filehandler.MockFh3 Pages: 1 -->
<svg width="407pt" height="110pt"
 viewBox="0.00 0.00 407.00 110.00" xmlns="http://www.w3.org/2000/svg" xmlns:xlink="http://www.w3.org/1999/xlink">
<g id="graph0" class="graph" transform="scale(1 1) rotate(0) translate(4 106)">
<title>llama.test.test_filehandler.MockFh3</title>
<polygon fill="transparent" stroke="transparent" points="-4,4 -4,-106 403,-106 403,4 -4,4"/>
<!-- llama.test.test_filehandler.MockFh1 -->
<g id="node1" class="node">
<title>llama.test.test_filehandler.MockFh1</title>
<g id="a_node1"><a xlink:href="/llama.test.test_filehandler.html#llama.test.test_filehandler.MockFh1" xlink:title="{{&lt;B&gt;MockFh1&lt;/B&gt;|&lt;I&gt;MockFh1.txt&lt;/I&gt;|FileHandler}}" target="_top">
<polygon fill="#cccccc" stroke="black" points="0,-0.5 0,-69.5 109,-69.5 109,-0.5 0,-0.5"/>
<text text-anchor="start" x="17" y="-55.3" font-family="Times,serif" font-weight="bold" font-size="14.00">MockFh1</text>
<polyline fill="none" stroke="black" points="0,-46.5 109,-46.5 "/>
<text text-anchor="start" x="8" y="-32.3" font-family="Times,serif" font-style="italic" font-size="14.00">MockFh1.txt</text>
<polyline fill="none" stroke="black" points="0,-23.5 109,-23.5 "/>
<text text-anchor="start" x="11.5" y="-8.3" font-family="Times,serif" font-size="14.00">FileHandler</text>
</a>
</g>
</g>
<!-- llama.test.test_filehandler.MockFh2 -->
<g id="node2" class="node">
<title>llama.test.test_filehandler.MockFh2</title>
<g id="a_node2"><a xlink:href="/llama.test.test_filehandler.html#llama.test.test_filehandler.MockFh2" xlink:title="{{&lt;B&gt;MockFh2&lt;/B&gt;|&lt;I&gt;MockFh2.txt&lt;/I&gt;|FileHandler}}" target="_top">
<polygon fill="#cccccc" stroke="black" points="145,-32.5 145,-101.5 254,-101.5 254,-32.5 145,-32.5"/>
<text text-anchor="start" x="162" y="-87.3" font-family="Times,serif" font-weight="bold" font-size="14.00">MockFh2</text>
<polyline fill="none" stroke="black" points="145,-78.5 254,-78.5 "/>
<text text-anchor="start" x="153" y="-64.3" font-family="Times,serif" font-style="italic" font-size="14.00">MockFh2.txt</text>
<polyline fill="none" stroke="black" points="145,-55.5 254,-55.5 "/>
<text text-anchor="start" x="156.5" y="-40.3" font-family="Times,serif" font-size="14.00">FileHandler</text>
</a>
</g>
</g>
<!-- llama.test.test_filehandler.MockFh1&#45;&gt;llama.test.test_filehandler.MockFh2 -->
<g id="edge1" class="edge">
<title>llama.test.test_filehandler.MockFh1&#45;&gt;llama.test.test_filehandler.MockFh2</title>
<path fill="none" stroke="red" d="M109.32,-51C109.32,-51 134.6,-51 134.6,-51"/>
<polygon fill="red" stroke="red" points="134.6,-54.5 144.6,-51 134.6,-47.5 134.6,-54.5"/>
</g>
<!-- llama.test.test_filehandler.MockFh3 -->
<g id="node3" class="node">
<title>llama.test.test_filehandler.MockFh3</title>
<g id="a_node3"><a xlink:href="/llama.test.test_filehandler.html#llama.test.test_filehandler.MockFh3" xlink:title="{{&lt;B&gt;MockFh3&lt;/B&gt;|&lt;I&gt;MockFh3.txt&lt;/I&gt;|FileHandler}}" target="_top">
<polygon fill="#cccccc" stroke="black" points="290,-0.5 290,-69.5 399,-69.5 399,-0.5 290,-0.5"/>
<text text-anchor="start" x="307" y="-55.3" font-family="Times,serif" font-weight="bold" font-size="14.00">MockFh3</text>
<polyline fill="none" stroke="black" points="290,-46.5 399,-46.5 "/>
<text text-anchor="start" x="298" y="-32.3" font-family="Times,serif" font-style="italic" font-size="14.00">MockFh3.txt</text>
<polyline fill="none" stroke="black" points="290,-23.5 399,-23.5 "/>
<text text-anchor="start" x="301.5" y="-8.3" font-family="Times,serif" font-size="14.00">FileHandler</text>
</a>
</g>
</g>
<!-- llama.test.test_filehandler.MockFh1&#45;&gt;llama.test.test_filehandler.MockFh3 -->
<g id="edge2" class="edge">
<title>llama.test.test_filehandler.MockFh1&#45;&gt;llama.test.test_filehandler.MockFh3</title>
<path fill="none" stroke="red" d="M109.05,-16C109.05,-16 279.71,-16 279.71,-16"/>
<polygon fill="red" stroke="red" points="279.71,-19.5 289.71,-16 279.71,-12.5 279.71,-19.5"/>
</g>
<!-- llama.test.test_filehandler.MockFh2&#45;&gt;llama.test.test_filehandler.MockFh3 -->
<g id="edge3" class="edge">
<title>llama.test.test_filehandler.MockFh2&#45;&gt;llama.test.test_filehandler.MockFh3</title>
<path fill="none" stroke="red" d="M254.32,-51C254.32,-51 279.6,-51 279.6,-51"/>
<polygon fill="red" stroke="red" points="279.6,-54.5 289.6,-51 279.6,-47.5 279.6,-54.5"/>
</g>
</g>
</svg>
