<?xml version="1.0" encoding="UTF-8" standalone="no"?>
<!DOCTYPE svg PUBLIC "-//W3C//DTD SVG 1.1//EN"
 "http://www.w3.org/Graphics/SVG/1.1/DTD/svg11.dtd">
<!-- Generated by graphviz version 2.42.3 (20191010.1750)
 -->
<!-- Title: llama.files.coinc_plots.CoincSummaryI3LvcTex Pages: 1 -->
<svg width="1505pt" height="401pt"
 viewBox="0.00 0.00 1505.00 401.00" xmlns="http://www.w3.org/2000/svg" xmlns:xlink="http://www.w3.org/1999/xlink">
<g id="graph0" class="graph" transform="scale(1 1) rotate(0) translate(4 397)">
<title>llama.files.coinc_plots.CoincSummaryI3LvcTex</title>
<polygon fill="transparent" stroke="transparent" points="-4,4 -4,-397 1501,-397 1501,4 -4,4"/>
<!-- llama.files.coinc_plots.CoincScatterI3LvcPdf -->
<g id="node1" class="node">
<title>llama.files.coinc_plots.CoincScatterI3LvcPdf</title>
<g id="a_node1"><a xlink:href="/llama.files.coinc_plots.html#llama.files.coinc_plots.CoincScatterI3LvcPdf" xlink:title="{{&lt;B&gt;CoincScatterI3LvcPdf&lt;/B&gt;|&lt;I&gt;scatterplot_lvc&#45;i3.pdf&lt;/I&gt;|CoincScatterI3Lvc}}" target="_top">
<polygon fill="#cccccc" stroke="black" points="809.5,-229 809.5,-298 1000.5,-298 1000.5,-229 809.5,-229"/>
<text text-anchor="start" x="817.5" y="-283.8" font-family="Times,serif" font-weight="bold" font-size="14.00">CoincScatterI3LvcPdf</text>
<polyline fill="none" stroke="black" points="809.5,-275 1000.5,-275 "/>
<text text-anchor="start" x="828" y="-260.8" font-family="Times,serif" font-style="italic" font-size="14.00">scatterplot_lvc&#45;i3.pdf</text>
<polyline fill="none" stroke="black" points="809.5,-252 1000.5,-252 "/>
<text text-anchor="start" x="837" y="-236.8" font-family="Times,serif" font-size="14.00">CoincScatterI3Lvc</text>
</a>
</g>
</g>
<!-- llama.files.coinc_plots.CoincSummaryI3LvcTex -->
<g id="node2" class="node">
<title>llama.files.coinc_plots.CoincSummaryI3LvcTex</title>
<g id="a_node2"><a xlink:href="/llama.files.coinc_plots.html#llama.files.coinc_plots.CoincSummaryI3LvcTex" xlink:title="{{&lt;B&gt;CoincSummaryI3LvcTex&lt;/B&gt;|&lt;I&gt;summary_lvc&#45;I3.tex&lt;/I&gt;|FileHandler}}" target="_top">
<polygon fill="#cccccc" stroke="black" points="1289,-166 1289,-235 1497,-235 1497,-166 1289,-166"/>
<text text-anchor="start" x="1297" y="-220.8" font-family="Times,serif" font-weight="bold" font-size="14.00">CoincSummaryI3LvcTex</text>
<polyline fill="none" stroke="black" points="1289,-212 1497,-212 "/>
<text text-anchor="start" x="1322" y="-197.8" font-family="Times,serif" font-style="italic" font-size="14.00">summary_lvc&#45;I3.tex</text>
<polyline fill="none" stroke="black" points="1289,-189 1497,-189 "/>
<text text-anchor="start" x="1350" y="-173.8" font-family="Times,serif" font-size="14.00">FileHandler</text>
</a>
</g>
</g>
<!-- llama.files.coinc_plots.CoincScatterI3LvcPdf&#45;&gt;llama.files.coinc_plots.CoincSummaryI3LvcTex -->
<g id="edge1" class="edge">
<title>llama.files.coinc_plots.CoincScatterI3LvcPdf&#45;&gt;llama.files.coinc_plots.CoincSummaryI3LvcTex</title>
<path fill="none" stroke="red" d="M1000.73,-267C1133.93,-267 1359,-267 1359,-267 1359,-267 1359,-245.31 1359,-245.31"/>
<polygon fill="red" stroke="red" points="1362.5,-245.31 1359,-235.31 1355.5,-245.31 1362.5,-245.31"/>
</g>
<!-- llama.files.coinc_significance.opa.CoincSignificanceI3Lvc -->
<g id="node3" class="node">
<title>llama.files.coinc_significance.opa.CoincSignificanceI3Lvc</title>
<g id="a_node3"><a xlink:href="/llama.files.coinc_significance.opa.html#llama.files.coinc_significance.opa.CoincSignificanceI3Lvc" xlink:title="{{&lt;B&gt;CoincSignificanceI3Lvc&lt;/B&gt;|&lt;I&gt;significance_lvc&#45;i3.json&lt;/I&gt;|JSONFile}}" target="_top">
<polygon fill="#cccccc" stroke="black" points="803,-103 803,-172 1007,-172 1007,-103 803,-103"/>
<text text-anchor="start" x="811" y="-157.8" font-family="Times,serif" font-weight="bold" font-size="14.00">CoincSignificanceI3Lvc</text>
<polyline fill="none" stroke="black" points="803,-149 1007,-149 "/>
<text text-anchor="start" x="821.5" y="-134.8" font-family="Times,serif" font-style="italic" font-size="14.00">significance_lvc&#45;i3.json</text>
<polyline fill="none" stroke="black" points="803,-126 1007,-126 "/>
<text text-anchor="start" x="871" y="-110.8" font-family="Times,serif" font-size="14.00">JSONFile</text>
</a>
</g>
</g>
<!-- llama.files.coinc_significance.opa.CoincSignificanceI3Lvc&#45;&gt;llama.files.coinc_plots.CoincSummaryI3LvcTex -->
<g id="edge2" class="edge">
<title>llama.files.coinc_significance.opa.CoincSignificanceI3Lvc&#45;&gt;llama.files.coinc_plots.CoincSummaryI3LvcTex</title>
<path fill="none" stroke="red" d="M1007.08,-134C1159.28,-134 1428,-134 1428,-134 1428,-134 1428,-155.69 1428,-155.69"/>
<polygon fill="red" stroke="red" points="1424.5,-155.69 1428,-165.69 1431.5,-155.69 1424.5,-155.69"/>
</g>
<!-- llama.files.i3.tex.IceCubeNeutrinoListTex -->
<g id="node7" class="node">
<title>llama.files.i3.tex.IceCubeNeutrinoListTex</title>
<g id="a_node7"><a xlink:href="/llama.files.i3.tex.html#llama.files.i3.tex.IceCubeNeutrinoListTex" xlink:title="{{&lt;B&gt;IceCubeNeutrinoListTex&lt;/B&gt;|&lt;I&gt;IceCubeNeutrinoList.tex&lt;/I&gt;|FileHandler}}" target="_top">
<polygon fill="#cccccc" stroke="black" points="1043,-166 1043,-235 1253,-235 1253,-166 1043,-166"/>
<text text-anchor="start" x="1051" y="-220.8" font-family="Times,serif" font-weight="bold" font-size="14.00">IceCubeNeutrinoListTex</text>
<polyline fill="none" stroke="black" points="1043,-212 1253,-212 "/>
<text text-anchor="start" x="1058" y="-197.8" font-family="Times,serif" font-style="italic" font-size="14.00">IceCubeNeutrinoList.tex</text>
<polyline fill="none" stroke="black" points="1043,-189 1253,-189 "/>
<text text-anchor="start" x="1105" y="-173.8" font-family="Times,serif" font-size="14.00">FileHandler</text>
</a>
</g>
</g>
<!-- llama.files.coinc_significance.opa.CoincSignificanceI3Lvc&#45;&gt;llama.files.i3.tex.IceCubeNeutrinoListTex -->
<g id="edge3" class="edge">
<title>llama.files.coinc_significance.opa.CoincSignificanceI3Lvc&#45;&gt;llama.files.i3.tex.IceCubeNeutrinoListTex</title>
<path fill="none" stroke="red" d="M1007.35,-169C1007.35,-169 1032.65,-169 1032.65,-169"/>
<polygon fill="red" stroke="red" points="1032.65,-172.5 1042.65,-169 1032.65,-165.5 1032.65,-172.5"/>
</g>
<!-- llama.files.gracedb.LVCGraceDbEventData -->
<g id="node4" class="node">
<title>llama.files.gracedb.LVCGraceDbEventData</title>
<g id="a_node4"><a xlink:href="/llama.files.gracedb.html#llama.files.gracedb.LVCGraceDbEventData" xlink:title="{{&lt;B&gt;LVCGraceDbEventData&lt;/B&gt;|&lt;I&gt;lvc_gracedb_event_data.json&lt;/I&gt;|JSONFile&lt;BR/&gt;OnlineVetoMixin}}" target="_top">
<polygon fill="#cccccc" stroke="black" points="265.5,-121.5 265.5,-205.5 489.5,-205.5 489.5,-121.5 265.5,-121.5"/>
<text text-anchor="start" x="287" y="-191.3" font-family="Times,serif" font-weight="bold" font-size="14.00">LVCGraceDbEventData</text>
<polyline fill="none" stroke="black" points="265.5,-182.5 489.5,-182.5 "/>
<text text-anchor="start" x="273.5" y="-168.3" font-family="Times,serif" font-style="italic" font-size="14.00">lvc_gracedb_event_data.json</text>
<polyline fill="none" stroke="black" points="265.5,-159.5 489.5,-159.5 "/>
<text text-anchor="start" x="343.5" y="-144.3" font-family="Times,serif" font-size="14.00">JSONFile</text>
<text text-anchor="start" x="317.5" y="-129.3" font-family="Times,serif" font-size="14.00">OnlineVetoMixin</text>
</a>
</g>
</g>
<!-- llama.files.gracedb.LVCGraceDbEventData&#45;&gt;llama.files.coinc_significance.opa.CoincSignificanceI3Lvc -->
<g id="edge4" class="edge">
<title>llama.files.gracedb.LVCGraceDbEventData&#45;&gt;llama.files.coinc_significance.opa.CoincSignificanceI3Lvc</title>
<path fill="none" stroke="red" d="M489.69,-126.75C489.69,-126.75 792.8,-126.75 792.8,-126.75"/>
<polygon fill="red" stroke="red" points="792.8,-130.25 802.8,-126.75 792.8,-123.25 792.8,-130.25"/>
</g>
<!-- llama.files.gracedb.PAstro -->
<g id="node5" class="node">
<title>llama.files.gracedb.PAstro</title>
<g id="a_node5"><a xlink:href="/llama.files.gracedb.html#llama.files.gracedb.PAstro" xlink:title="{{&lt;B&gt;PAstro&lt;/B&gt;|&lt;I&gt;p_astro.json&lt;/I&gt;|GraceDBPollingFileHandler&lt;BR/&gt;JSONFile}}" target="_top">
<polygon fill="#cccccc" stroke="black" points="270,-18.5 270,-102.5 485,-102.5 485,-18.5 270,-18.5"/>
<text text-anchor="start" x="350.5" y="-88.3" font-family="Times,serif" font-weight="bold" font-size="14.00">PAstro</text>
<polyline fill="none" stroke="black" points="270,-79.5 485,-79.5 "/>
<text text-anchor="start" x="333.5" y="-65.3" font-family="Times,serif" font-style="italic" font-size="14.00">p_astro.json</text>
<polyline fill="none" stroke="black" points="270,-56.5 485,-56.5 "/>
<text text-anchor="start" x="278" y="-41.3" font-family="Times,serif" font-size="14.00">GraceDBPollingFileHandler</text>
<text text-anchor="start" x="343.5" y="-26.3" font-family="Times,serif" font-size="14.00">JSONFile</text>
</a>
</g>
</g>
<!-- llama.files.gracedb.PAstro&#45;&gt;llama.files.coinc_significance.opa.CoincSignificanceI3Lvc -->
<g id="edge5" class="edge">
<title>llama.files.gracedb.PAstro&#45;&gt;llama.files.coinc_significance.opa.CoincSignificanceI3Lvc</title>
<path fill="none" stroke="red" d="M378,-102.66C378,-106.51 378,-109 378,-109 378,-109 792.76,-109 792.76,-109"/>
<polygon fill="red" stroke="red" points="792.76,-112.5 802.76,-109 792.76,-105.5 792.76,-112.5"/>
</g>
<!-- llama.files.i3.json.IceCubeNeutrinoList -->
<g id="node6" class="node">
<title>llama.files.i3.json.IceCubeNeutrinoList</title>
<g id="a_node6"><a xlink:href="/llama.files.i3.json.html#llama.files.i3.json.IceCubeNeutrinoList" xlink:title="{{&lt;B&gt;IceCubeNeutrinoList&lt;/B&gt;|&lt;I&gt;icecube_neutrino_list.json&lt;/I&gt;|JSONFile&lt;BR/&gt;HEALPixPSF}}" target="_top">
<polygon fill="#cccccc" stroke="black" points="551.5,-308.5 551.5,-392.5 755.5,-392.5 755.5,-308.5 551.5,-308.5"/>
<text text-anchor="start" x="569.5" y="-378.3" font-family="Times,serif" font-weight="bold" font-size="14.00">IceCubeNeutrinoList</text>
<polyline fill="none" stroke="black" points="551.5,-369.5 755.5,-369.5 "/>
<text text-anchor="start" x="559.5" y="-355.3" font-family="Times,serif" font-style="italic" font-size="14.00">icecube_neutrino_list.json</text>
<polyline fill="none" stroke="black" points="551.5,-346.5 755.5,-346.5 "/>
<text text-anchor="start" x="619.5" y="-331.3" font-family="Times,serif" font-size="14.00">JSONFile</text>
<text text-anchor="start" x="605.5" y="-316.3" font-family="Times,serif" font-size="14.00">HEALPixPSF</text>
</a>
</g>
</g>
<!-- llama.files.i3.json.IceCubeNeutrinoList&#45;&gt;llama.files.coinc_plots.CoincScatterI3LvcPdf -->
<g id="edge6" class="edge">
<title>llama.files.i3.json.IceCubeNeutrinoList&#45;&gt;llama.files.coinc_plots.CoincScatterI3LvcPdf</title>
<path fill="none" stroke="red" d="M654,-308.34C654,-300.39 654,-294.5 654,-294.5 654,-294.5 799.39,-294.5 799.39,-294.5"/>
<polygon fill="red" stroke="red" points="799.39,-298 809.39,-294.5 799.39,-291 799.39,-298"/>
</g>
<!-- llama.files.i3.json.IceCubeNeutrinoList&#45;&gt;llama.files.coinc_plots.CoincSummaryI3LvcTex -->
<g id="edge7" class="edge">
<title>llama.files.i3.json.IceCubeNeutrinoList&#45;&gt;llama.files.coinc_plots.CoincSummaryI3LvcTex</title>
<path fill="none" stroke="red" d="M755.55,-371.75C965.86,-371.75 1428,-371.75 1428,-371.75 1428,-371.75 1428,-245.15 1428,-245.15"/>
<polygon fill="red" stroke="red" points="1431.5,-245.15 1428,-235.15 1424.5,-245.16 1431.5,-245.15"/>
</g>
<!-- llama.files.i3.json.IceCubeNeutrinoList&#45;&gt;llama.files.coinc_significance.opa.CoincSignificanceI3Lvc -->
<g id="edge8" class="edge">
<title>llama.files.i3.json.IceCubeNeutrinoList&#45;&gt;llama.files.coinc_significance.opa.CoincSignificanceI3Lvc</title>
<path fill="none" stroke="red" d="M755.82,-329.25C772.79,-329.25 785,-329.25 785,-329.25 785,-329.25 785,-162.5 785,-162.5 785,-162.5 792.97,-162.5 792.97,-162.5"/>
<polygon fill="red" stroke="red" points="792.97,-166 802.97,-162.5 792.97,-159 792.97,-166"/>
</g>
<!-- llama.files.i3.json.IceCubeNeutrinoList&#45;&gt;llama.files.i3.tex.IceCubeNeutrinoListTex -->
<g id="edge9" class="edge">
<title>llama.files.i3.json.IceCubeNeutrinoList&#45;&gt;llama.files.i3.tex.IceCubeNeutrinoListTex</title>
<path fill="none" stroke="red" d="M755.66,-350.5C900.46,-350.5 1148,-350.5 1148,-350.5 1148,-350.5 1148,-245.29 1148,-245.29"/>
<polygon fill="red" stroke="red" points="1151.5,-245.29 1148,-235.29 1144.5,-245.29 1151.5,-245.29"/>
</g>
<!-- llama.files.i3.tex.IceCubeNeutrinoListTex&#45;&gt;llama.files.coinc_plots.CoincSummaryI3LvcTex -->
<g id="edge10" class="edge">
<title>llama.files.i3.tex.IceCubeNeutrinoListTex&#45;&gt;llama.files.coinc_plots.CoincSummaryI3LvcTex</title>
<path fill="none" stroke="red" d="M1253.32,-200.5C1253.32,-200.5 1278.93,-200.5 1278.93,-200.5"/>
<polygon fill="red" stroke="red" points="1278.93,-204 1288.93,-200.5 1278.93,-197 1278.93,-204"/>
</g>
<!-- llama.files.lvc_skymap.LvcDistancesJson -->
<g id="node8" class="node">
<title>llama.files.lvc_skymap.LvcDistancesJson</title>
<g id="a_node8"><a xlink:href="/llama.files.lvc_skymap.html#llama.files.lvc_skymap.LvcDistancesJson" xlink:title="{{&lt;B&gt;LvcDistancesJson&lt;/B&gt;|&lt;I&gt;lvc_skymap_distances.json&lt;/I&gt;|JSONFile}}" target="_top">
<polygon fill="#cccccc" stroke="black" points="548.5,-133 548.5,-202 758.5,-202 758.5,-133 548.5,-133"/>
<text text-anchor="start" x="583" y="-187.8" font-family="Times,serif" font-weight="bold" font-size="14.00">LvcDistancesJson</text>
<polyline fill="none" stroke="black" points="548.5,-179 758.5,-179 "/>
<text text-anchor="start" x="556.5" y="-164.8" font-family="Times,serif" font-style="italic" font-size="14.00">lvc_skymap_distances.json</text>
<polyline fill="none" stroke="black" points="548.5,-156 758.5,-156 "/>
<text text-anchor="start" x="619.5" y="-140.8" font-family="Times,serif" font-size="14.00">JSONFile</text>
</a>
</g>
</g>
<!-- llama.files.lvc_skymap.LvcDistancesJson&#45;&gt;llama.files.coinc_significance.opa.CoincSignificanceI3Lvc -->
<g id="edge11" class="edge">
<title>llama.files.lvc_skymap.LvcDistancesJson&#45;&gt;llama.files.coinc_significance.opa.CoincSignificanceI3Lvc</title>
<path fill="none" stroke="red" d="M758.7,-142.5C758.7,-142.5 792.64,-142.5 792.64,-142.5"/>
<polygon fill="red" stroke="red" points="792.64,-146 802.64,-142.5 792.64,-139 792.64,-146"/>
</g>
<!-- llama.files.lvc_skymap.LvcSkymapFits -->
<g id="node9" class="node">
<title>llama.files.lvc_skymap.LvcSkymapFits</title>
<g id="a_node9"><a xlink:href="/llama.files.lvc_skymap.html#llama.files.lvc_skymap.LvcSkymapFits" xlink:title="{{&lt;B&gt;LvcSkymapFits&lt;/B&gt;|&lt;I&gt;lvc_skymap.fits.gz&lt;/I&gt;|GenerateOnceMixin&lt;BR/&gt;LvcHEALPixSkyMapFileHandler&lt;BR/&gt;OnlineVetoMixin}}" target="_top">
<polygon fill="#cccccc" stroke="black" points="251,-225 251,-324 504,-324 504,-225 251,-225"/>
<text text-anchor="start" x="317.5" y="-309.8" font-family="Times,serif" font-weight="bold" font-size="14.00">LvcSkymapFits</text>
<polyline fill="none" stroke="black" points="251,-301 504,-301 "/>
<text text-anchor="start" x="311" y="-286.8" font-family="Times,serif" font-style="italic" font-size="14.00">lvc_skymap.fits.gz</text>
<polyline fill="none" stroke="black" points="251,-278 504,-278 "/>
<text text-anchor="start" x="305" y="-262.8" font-family="Times,serif" font-size="14.00">GenerateOnceMixin</text>
<text text-anchor="start" x="259" y="-247.8" font-family="Times,serif" font-size="14.00">LvcHEALPixSkyMapFileHandler</text>
<text text-anchor="start" x="317.5" y="-232.8" font-family="Times,serif" font-size="14.00">OnlineVetoMixin</text>
</a>
</g>
</g>
<!-- llama.files.lvc_skymap.LvcSkymapFits&#45;&gt;llama.files.lvc_skymap.LvcDistancesJson -->
<g id="edge12" class="edge">
<title>llama.files.lvc_skymap.LvcSkymapFits&#45;&gt;llama.files.lvc_skymap.LvcDistancesJson</title>
<path fill="none" stroke="red" d="M497,-224.76C497,-196.82 497,-167.5 497,-167.5 497,-167.5 538.24,-167.5 538.24,-167.5"/>
<polygon fill="red" stroke="red" points="538.24,-171 548.24,-167.5 538.24,-164 538.24,-171"/>
</g>
<!-- llama.files.lvc_skymap.LvcSkymapHdf5 -->
<g id="node10" class="node">
<title>llama.files.lvc_skymap.LvcSkymapHdf5</title>
<g id="a_node10"><a xlink:href="/llama.files.lvc_skymap.html#llama.files.lvc_skymap.LvcSkymapHdf5" xlink:title="{{&lt;B&gt;LvcSkymapHdf5&lt;/B&gt;|&lt;I&gt;lvc_skymap.hdf5&lt;/I&gt;|HEALPixSkyMapFileHandler}}" target="_top">
<polygon fill="#cccccc" stroke="black" points="540,-221 540,-290 767,-290 767,-221 540,-221"/>
<text text-anchor="start" x="589" y="-275.8" font-family="Times,serif" font-weight="bold" font-size="14.00">LvcSkymapHdf5</text>
<polyline fill="none" stroke="black" points="540,-267 767,-267 "/>
<text text-anchor="start" x="593" y="-252.8" font-family="Times,serif" font-style="italic" font-size="14.00">lvc_skymap.hdf5</text>
<polyline fill="none" stroke="black" points="540,-244 767,-244 "/>
<text text-anchor="start" x="548" y="-228.8" font-family="Times,serif" font-size="14.00">HEALPixSkyMapFileHandler</text>
</a>
</g>
</g>
<!-- llama.files.lvc_skymap.LvcSkymapFits&#45;&gt;llama.files.lvc_skymap.LvcSkymapHdf5 -->
<g id="edge13" class="edge">
<title>llama.files.lvc_skymap.LvcSkymapFits&#45;&gt;llama.files.lvc_skymap.LvcSkymapHdf5</title>
<path fill="none" stroke="red" d="M504.19,-257.5C504.19,-257.5 529.88,-257.5 529.88,-257.5"/>
<polygon fill="red" stroke="red" points="529.88,-261 539.88,-257.5 529.88,-254 529.88,-261"/>
</g>
<!-- llama.files.lvc_skymap.LvcSkymapHdf5&#45;&gt;llama.files.coinc_plots.CoincScatterI3LvcPdf -->
<g id="edge14" class="edge">
<title>llama.files.lvc_skymap.LvcSkymapHdf5&#45;&gt;llama.files.coinc_plots.CoincScatterI3LvcPdf</title>
<path fill="none" stroke="red" d="M767.11,-259.5C767.11,-259.5 799.19,-259.5 799.19,-259.5"/>
<polygon fill="red" stroke="red" points="799.19,-263 809.19,-259.5 799.19,-256 799.19,-263"/>
</g>
<!-- llama.files.lvc_skymap.LvcSkymapHdf5&#45;&gt;llama.files.coinc_significance.opa.CoincSignificanceI3Lvc -->
<g id="edge15" class="edge">
<title>llama.files.lvc_skymap.LvcSkymapHdf5&#45;&gt;llama.files.coinc_significance.opa.CoincSignificanceI3Lvc</title>
<path fill="none" stroke="red" d="M763,-220.92C763,-190.99 763,-152.5 763,-152.5 763,-152.5 792.93,-152.5 792.93,-152.5"/>
<polygon fill="red" stroke="red" points="792.93,-156 802.93,-152.5 792.93,-149 792.93,-156"/>
</g>
<!-- llama.files.skymap_info.SkymapInfo -->
<g id="node11" class="node">
<title>llama.files.skymap_info.SkymapInfo</title>
<g id="a_node11"><a xlink:href="/llama.files.skymap_info.html#llama.files.skymap_info.SkymapInfo" xlink:title="{{&lt;B&gt;SkymapInfo&lt;/B&gt;|&lt;I&gt;skymap_info.json&lt;/I&gt;|EventTriggeredFileHandler&lt;BR/&gt;JSONFile}}" target="_top">
<polygon fill="#cccccc" stroke="black" points="0,-18.5 0,-102.5 215,-102.5 215,-18.5 0,-18.5"/>
<text text-anchor="start" x="59.5" y="-88.3" font-family="Times,serif" font-weight="bold" font-size="14.00">SkymapInfo</text>
<polyline fill="none" stroke="black" points="0,-79.5 215,-79.5 "/>
<text text-anchor="start" x="45.5" y="-65.3" font-family="Times,serif" font-style="italic" font-size="14.00">skymap_info.json</text>
<polyline fill="none" stroke="black" points="0,-56.5 215,-56.5 "/>
<text text-anchor="start" x="8" y="-41.3" font-family="Times,serif" font-size="14.00">EventTriggeredFileHandler</text>
<text text-anchor="start" x="73.5" y="-26.3" font-family="Times,serif" font-size="14.00">JSONFile</text>
</a>
</g>
</g>
<!-- llama.files.skymap_info.SkymapInfo&#45;&gt;llama.files.coinc_plots.CoincSummaryI3LvcTex -->
<g id="edge16" class="edge">
<title>llama.files.skymap_info.SkymapInfo&#45;&gt;llama.files.coinc_plots.CoincSummaryI3LvcTex</title>
<path fill="none" stroke="red" d="M108,-18.48C108,-8.16 108,0 108,0 108,0 1359,0 1359,0 1359,0 1359,-155.58 1359,-155.58"/>
<polygon fill="red" stroke="red" points="1355.5,-155.58 1359,-165.58 1362.5,-155.58 1355.5,-155.58"/>
</g>
<!-- llama.files.skymap_info.SkymapInfo&#45;&gt;llama.files.coinc_significance.opa.CoincSignificanceI3Lvc -->
<g id="edge17" class="edge">
<title>llama.files.skymap_info.SkymapInfo&#45;&gt;llama.files.coinc_significance.opa.CoincSignificanceI3Lvc</title>
<path fill="none" stroke="red" d="M43,-102.63C43,-109.81 43,-115 43,-115 43,-115 792.73,-115 792.73,-115"/>
<polygon fill="red" stroke="red" points="792.73,-118.5 802.73,-115 792.73,-111.5 792.73,-118.5"/>
</g>
<!-- llama.files.skymap_info.SkymapInfo&#45;&gt;llama.files.gracedb.LVCGraceDbEventData -->
<g id="edge18" class="edge">
<title>llama.files.skymap_info.SkymapInfo&#45;&gt;llama.files.gracedb.LVCGraceDbEventData</title>
<path fill="none" stroke="red" d="M172,-102.69C172,-131.14 172,-163.5 172,-163.5 172,-163.5 255.43,-163.5 255.43,-163.5"/>
<polygon fill="red" stroke="red" points="255.43,-167 265.43,-163.5 255.43,-160 255.43,-167"/>
</g>
<!-- llama.files.skymap_info.SkymapInfo&#45;&gt;llama.files.gracedb.PAstro -->
<g id="edge19" class="edge">
<title>llama.files.skymap_info.SkymapInfo&#45;&gt;llama.files.gracedb.PAstro</title>
<path fill="none" stroke="red" d="M215.38,-46.33C215.38,-46.33 259.8,-46.33 259.8,-46.33"/>
<polygon fill="red" stroke="red" points="259.8,-49.83 269.8,-46.33 259.8,-42.83 259.8,-49.83"/>
</g>
<!-- llama.files.skymap_info.SkymapInfo&#45;&gt;llama.files.i3.json.IceCubeNeutrinoList -->
<g id="edge20" class="edge">
<title>llama.files.skymap_info.SkymapInfo&#45;&gt;llama.files.i3.json.IceCubeNeutrinoList</title>
<path fill="none" stroke="red" d="M86,-102.6C86,-184.81 86,-358.75 86,-358.75 86,-358.75 541.39,-358.75 541.39,-358.75"/>
<polygon fill="red" stroke="red" points="541.39,-362.25 551.39,-358.75 541.39,-355.25 541.39,-362.25"/>
</g>
<!-- llama.files.skymap_info.SkymapInfo&#45;&gt;llama.files.i3.tex.IceCubeNeutrinoListTex -->
<g id="edge21" class="edge">
<title>llama.files.skymap_info.SkymapInfo&#45;&gt;llama.files.i3.tex.IceCubeNeutrinoListTex</title>
<path fill="none" stroke="red" d="M129,-102.64C129,-147.86 129,-213.25 129,-213.25 129,-213.25 1032.79,-213.25 1032.79,-213.25"/>
<polygon fill="red" stroke="red" points="1032.79,-216.75 1042.79,-213.25 1032.79,-209.75 1032.79,-216.75"/>
</g>
<!-- llama.files.skymap_info.SkymapInfo&#45;&gt;llama.files.lvc_skymap.LvcSkymapFits -->
<g id="edge22" class="edge">
<title>llama.files.skymap_info.SkymapInfo&#45;&gt;llama.files.lvc_skymap.LvcSkymapFits</title>
<path fill="none" stroke="red" d="M215.18,-74.67C239.86,-74.67 259,-74.67 259,-74.67 259,-74.67 259,-214.85 259,-214.85"/>
<polygon fill="red" stroke="red" points="255.5,-214.85 259,-224.85 262.5,-214.85 255.5,-214.85"/>
</g>
</g>
</svg>
