<?xml version="1.0" encoding="UTF-8" standalone="no"?>
<!DOCTYPE svg PUBLIC "-//W3C//DTD SVG 1.1//EN"
 "http://www.w3.org/Graphics/SVG/1.1/DTD/svg11.dtd">
<!-- Generated by graphviz version 2.42.3 (20191010.1750)
 -->
<!-- Title: llama.files.coinc_plots.CoincSummaryI3LvcPdf Pages: 1 -->
<svg width="1749pt" height="383pt"
 viewBox="0.00 0.00 1749.00 383.00" xmlns="http://www.w3.org/2000/svg" xmlns:xlink="http://www.w3.org/1999/xlink">
<g id="graph0" class="graph" transform="scale(1 1) rotate(0) translate(4 379)">
<title>llama.files.coinc_plots.CoincSummaryI3LvcPdf</title>
<polygon fill="transparent" stroke="transparent" points="-4,4 -4,-379 1745,-379 1745,4 -4,4"/>
<!-- llama.files.coinc_plots.CoincScatterI3LvcPdf -->
<g id="node1" class="node">
<title>llama.files.coinc_plots.CoincScatterI3LvcPdf</title>
<g id="a_node1"><a xlink:href="/llama.files.coinc_plots.html#llama.files.coinc_plots.CoincScatterI3LvcPdf" xlink:title="{{&lt;B&gt;CoincScatterI3LvcPdf&lt;/B&gt;|&lt;I&gt;scatterplot_lvc&#45;i3.pdf&lt;/I&gt;|CoincScatterI3Lvc}}" target="_top">
<polygon fill="#cccccc" stroke="black" points="1052.5,-205 1052.5,-274 1243.5,-274 1243.5,-205 1052.5,-205"/>
<text text-anchor="start" x="1060.5" y="-259.8" font-family="Times,serif" font-weight="bold" font-size="14.00">CoincScatterI3LvcPdf</text>
<polyline fill="none" stroke="black" points="1052.5,-251 1243.5,-251 "/>
<text text-anchor="start" x="1071" y="-236.8" font-family="Times,serif" font-style="italic" font-size="14.00">scatterplot_lvc&#45;i3.pdf</text>
<polyline fill="none" stroke="black" points="1052.5,-228 1243.5,-228 "/>
<text text-anchor="start" x="1080" y="-212.8" font-family="Times,serif" font-size="14.00">CoincScatterI3Lvc</text>
</a>
</g>
</g>
<!-- llama.files.coinc_plots.CoincSummaryI3LvcPdf -->
<g id="node2" class="node">
<title>llama.files.coinc_plots.CoincSummaryI3LvcPdf</title>
<g id="a_node2"><a xlink:href="/llama.files.coinc_plots.html#llama.files.coinc_plots.CoincSummaryI3LvcPdf" xlink:title="{{&lt;B&gt;CoincSummaryI3LvcPdf&lt;/B&gt;|&lt;I&gt;summary_lvc&#45;I3.pdf&lt;/I&gt;|FileHandler}}" target="_top">
<polygon fill="#cccccc" stroke="black" points="1533,-173 1533,-242 1741,-242 1741,-173 1533,-173"/>
<text text-anchor="start" x="1541" y="-227.8" font-family="Times,serif" font-weight="bold" font-size="14.00">CoincSummaryI3LvcPdf</text>
<polyline fill="none" stroke="black" points="1533,-219 1741,-219 "/>
<text text-anchor="start" x="1565.5" y="-204.8" font-family="Times,serif" font-style="italic" font-size="14.00">summary_lvc&#45;I3.pdf</text>
<polyline fill="none" stroke="black" points="1533,-196 1741,-196 "/>
<text text-anchor="start" x="1594" y="-180.8" font-family="Times,serif" font-size="14.00">FileHandler</text>
</a>
</g>
</g>
<!-- llama.files.coinc_plots.CoincScatterI3LvcPdf&#45;&gt;llama.files.coinc_plots.CoincSummaryI3LvcPdf -->
<g id="edge1" class="edge">
<title>llama.files.coinc_plots.CoincScatterI3LvcPdf&#45;&gt;llama.files.coinc_plots.CoincSummaryI3LvcPdf</title>
<path fill="none" stroke="red" d="M1243.74,-227C1243.74,-227 1522.61,-227 1522.61,-227"/>
<polygon fill="red" stroke="red" points="1522.61,-230.5 1532.61,-227 1522.61,-223.5 1522.61,-230.5"/>
</g>
<!-- llama.files.coinc_plots.CoincSummaryI3LvcTex -->
<g id="node3" class="node">
<title>llama.files.coinc_plots.CoincSummaryI3LvcTex</title>
<g id="a_node3"><a xlink:href="/llama.files.coinc_plots.html#llama.files.coinc_plots.CoincSummaryI3LvcTex" xlink:title="{{&lt;B&gt;CoincSummaryI3LvcTex&lt;/B&gt;|&lt;I&gt;summary_lvc&#45;I3.tex&lt;/I&gt;|FileHandler}}" target="_top">
<polygon fill="#cccccc" stroke="black" points="1289,-142 1289,-211 1497,-211 1497,-142 1289,-142"/>
<text text-anchor="start" x="1297" y="-196.8" font-family="Times,serif" font-weight="bold" font-size="14.00">CoincSummaryI3LvcTex</text>
<polyline fill="none" stroke="black" points="1289,-188 1497,-188 "/>
<text text-anchor="start" x="1322" y="-173.8" font-family="Times,serif" font-style="italic" font-size="14.00">summary_lvc&#45;I3.tex</text>
<polyline fill="none" stroke="black" points="1289,-165 1497,-165 "/>
<text text-anchor="start" x="1350" y="-149.8" font-family="Times,serif" font-size="14.00">FileHandler</text>
</a>
</g>
</g>
<!-- llama.files.coinc_plots.CoincScatterI3LvcPdf&#45;&gt;llama.files.coinc_plots.CoincSummaryI3LvcTex -->
<g id="edge2" class="edge">
<title>llama.files.coinc_plots.CoincScatterI3LvcPdf&#45;&gt;llama.files.coinc_plots.CoincSummaryI3LvcTex</title>
<path fill="none" stroke="red" d="M1148,-204.95C1148,-200.62 1148,-197.67 1148,-197.67 1148,-197.67 1278.74,-197.67 1278.74,-197.67"/>
<polygon fill="red" stroke="red" points="1278.74,-201.17 1288.74,-197.67 1278.74,-194.17 1278.74,-201.17"/>
</g>
<!-- llama.files.coinc_plots.CoincSummaryI3LvcTex&#45;&gt;llama.files.coinc_plots.CoincSummaryI3LvcPdf -->
<g id="edge3" class="edge">
<title>llama.files.coinc_plots.CoincSummaryI3LvcTex&#45;&gt;llama.files.coinc_plots.CoincSummaryI3LvcPdf</title>
<path fill="none" stroke="red" d="M1497.19,-192C1497.19,-192 1522.77,-192 1522.77,-192"/>
<polygon fill="red" stroke="red" points="1522.77,-195.5 1532.77,-192 1522.77,-188.5 1522.77,-195.5"/>
</g>
<!-- llama.files.coinc_significance.opa.CoincSignificanceI3Lvc -->
<g id="node4" class="node">
<title>llama.files.coinc_significance.opa.CoincSignificanceI3Lvc</title>
<g id="a_node4"><a xlink:href="/llama.files.coinc_significance.opa.html#llama.files.coinc_significance.opa.CoincSignificanceI3Lvc" xlink:title="{{&lt;B&gt;CoincSignificanceI3Lvc&lt;/B&gt;|&lt;I&gt;significance_lvc&#45;i3.json&lt;/I&gt;|JSONFile}}" target="_top">
<polygon fill="#cccccc" stroke="black" points="803,-107 803,-176 1007,-176 1007,-107 803,-107"/>
<text text-anchor="start" x="811" y="-161.8" font-family="Times,serif" font-weight="bold" font-size="14.00">CoincSignificanceI3Lvc</text>
<polyline fill="none" stroke="black" points="803,-153 1007,-153 "/>
<text text-anchor="start" x="821.5" y="-138.8" font-family="Times,serif" font-style="italic" font-size="14.00">significance_lvc&#45;i3.json</text>
<polyline fill="none" stroke="black" points="803,-130 1007,-130 "/>
<text text-anchor="start" x="871" y="-114.8" font-family="Times,serif" font-size="14.00">JSONFile</text>
</a>
</g>
</g>
<!-- llama.files.coinc_significance.opa.CoincSignificanceI3Lvc&#45;&gt;llama.files.coinc_plots.CoincSummaryI3LvcTex -->
<g id="edge4" class="edge">
<title>llama.files.coinc_significance.opa.CoincSignificanceI3Lvc&#45;&gt;llama.files.coinc_plots.CoincSummaryI3LvcTex</title>
<path fill="none" stroke="red" d="M1007,-167.17C1007,-167.17 1278.61,-167.17 1278.61,-167.17"/>
<polygon fill="red" stroke="red" points="1278.61,-170.67 1288.61,-167.17 1278.61,-163.67 1278.61,-170.67"/>
</g>
<!-- llama.files.i3.tex.IceCubeNeutrinoListTex -->
<g id="node8" class="node">
<title>llama.files.i3.tex.IceCubeNeutrinoListTex</title>
<g id="a_node8"><a xlink:href="/llama.files.i3.tex.html#llama.files.i3.tex.IceCubeNeutrinoListTex" xlink:title="{{&lt;B&gt;IceCubeNeutrinoListTex&lt;/B&gt;|&lt;I&gt;IceCubeNeutrinoList.tex&lt;/I&gt;|FileHandler}}" target="_top">
<polygon fill="#cccccc" stroke="black" points="1043,-79 1043,-148 1253,-148 1253,-79 1043,-79"/>
<text text-anchor="start" x="1051" y="-133.8" font-family="Times,serif" font-weight="bold" font-size="14.00">IceCubeNeutrinoListTex</text>
<polyline fill="none" stroke="black" points="1043,-125 1253,-125 "/>
<text text-anchor="start" x="1058" y="-110.8" font-family="Times,serif" font-style="italic" font-size="14.00">IceCubeNeutrinoList.tex</text>
<polyline fill="none" stroke="black" points="1043,-102 1253,-102 "/>
<text text-anchor="start" x="1105" y="-86.8" font-family="Times,serif" font-size="14.00">FileHandler</text>
</a>
</g>
</g>
<!-- llama.files.coinc_significance.opa.CoincSignificanceI3Lvc&#45;&gt;llama.files.i3.tex.IceCubeNeutrinoListTex -->
<g id="edge5" class="edge">
<title>llama.files.coinc_significance.opa.CoincSignificanceI3Lvc&#45;&gt;llama.files.i3.tex.IceCubeNeutrinoListTex</title>
<path fill="none" stroke="red" d="M1007.35,-127.5C1007.35,-127.5 1032.65,-127.5 1032.65,-127.5"/>
<polygon fill="red" stroke="red" points="1032.65,-131 1042.65,-127.5 1032.65,-124 1032.65,-131"/>
</g>
<!-- llama.files.gracedb.LVCGraceDbEventData -->
<g id="node5" class="node">
<title>llama.files.gracedb.LVCGraceDbEventData</title>
<g id="a_node5"><a xlink:href="/llama.files.gracedb.html#llama.files.gracedb.LVCGraceDbEventData" xlink:title="{{&lt;B&gt;LVCGraceDbEventData&lt;/B&gt;|&lt;I&gt;lvc_gracedb_event_data.json&lt;/I&gt;|JSONFile&lt;BR/&gt;OnlineVetoMixin}}" target="_top">
<polygon fill="#cccccc" stroke="black" points="265.5,-103.5 265.5,-187.5 489.5,-187.5 489.5,-103.5 265.5,-103.5"/>
<text text-anchor="start" x="287" y="-173.3" font-family="Times,serif" font-weight="bold" font-size="14.00">LVCGraceDbEventData</text>
<polyline fill="none" stroke="black" points="265.5,-164.5 489.5,-164.5 "/>
<text text-anchor="start" x="273.5" y="-150.3" font-family="Times,serif" font-style="italic" font-size="14.00">lvc_gracedb_event_data.json</text>
<polyline fill="none" stroke="black" points="265.5,-141.5 489.5,-141.5 "/>
<text text-anchor="start" x="343.5" y="-126.3" font-family="Times,serif" font-size="14.00">JSONFile</text>
<text text-anchor="start" x="317.5" y="-111.3" font-family="Times,serif" font-size="14.00">OnlineVetoMixin</text>
</a>
</g>
</g>
<!-- llama.files.gracedb.LVCGraceDbEventData&#45;&gt;llama.files.coinc_significance.opa.CoincSignificanceI3Lvc -->
<g id="edge6" class="edge">
<title>llama.files.gracedb.LVCGraceDbEventData&#45;&gt;llama.files.coinc_significance.opa.CoincSignificanceI3Lvc</title>
<path fill="none" stroke="red" d="M489.69,-110.5C489.69,-110.5 792.8,-110.5 792.8,-110.5"/>
<polygon fill="red" stroke="red" points="792.8,-114 802.8,-110.5 792.8,-107 792.8,-114"/>
</g>
<!-- llama.files.gracedb.PAstro -->
<g id="node6" class="node">
<title>llama.files.gracedb.PAstro</title>
<g id="a_node6"><a xlink:href="/llama.files.gracedb.html#llama.files.gracedb.PAstro" xlink:title="{{&lt;B&gt;PAstro&lt;/B&gt;|&lt;I&gt;p_astro.json&lt;/I&gt;|GraceDBPollingFileHandler&lt;BR/&gt;JSONFile}}" target="_top">
<polygon fill="#cccccc" stroke="black" points="270,-0.5 270,-84.5 485,-84.5 485,-0.5 270,-0.5"/>
<text text-anchor="start" x="350.5" y="-70.3" font-family="Times,serif" font-weight="bold" font-size="14.00">PAstro</text>
<polyline fill="none" stroke="black" points="270,-61.5 485,-61.5 "/>
<text text-anchor="start" x="333.5" y="-47.3" font-family="Times,serif" font-style="italic" font-size="14.00">p_astro.json</text>
<polyline fill="none" stroke="black" points="270,-38.5 485,-38.5 "/>
<text text-anchor="start" x="278" y="-23.3" font-family="Times,serif" font-size="14.00">GraceDBPollingFileHandler</text>
<text text-anchor="start" x="343.5" y="-8.3" font-family="Times,serif" font-size="14.00">JSONFile</text>
</a>
</g>
</g>
<!-- llama.files.gracedb.PAstro&#45;&gt;llama.files.coinc_significance.opa.CoincSignificanceI3Lvc -->
<g id="edge7" class="edge">
<title>llama.files.gracedb.PAstro&#45;&gt;llama.files.coinc_significance.opa.CoincSignificanceI3Lvc</title>
<path fill="none" stroke="red" d="M485.1,-39.25C648.14,-39.25 939,-39.25 939,-39.25 939,-39.25 939,-96.88 939,-96.88"/>
<polygon fill="red" stroke="red" points="935.5,-96.88 939,-106.88 942.5,-96.88 935.5,-96.88"/>
</g>
<!-- llama.files.i3.json.IceCubeNeutrinoList -->
<g id="node7" class="node">
<title>llama.files.i3.json.IceCubeNeutrinoList</title>
<g id="a_node7"><a xlink:href="/llama.files.i3.json.html#llama.files.i3.json.IceCubeNeutrinoList" xlink:title="{{&lt;B&gt;IceCubeNeutrinoList&lt;/B&gt;|&lt;I&gt;icecube_neutrino_list.json&lt;/I&gt;|JSONFile&lt;BR/&gt;HEALPixPSF}}" target="_top">
<polygon fill="#cccccc" stroke="black" points="551.5,-290.5 551.5,-374.5 755.5,-374.5 755.5,-290.5 551.5,-290.5"/>
<text text-anchor="start" x="569.5" y="-360.3" font-family="Times,serif" font-weight="bold" font-size="14.00">IceCubeNeutrinoList</text>
<polyline fill="none" stroke="black" points="551.5,-351.5 755.5,-351.5 "/>
<text text-anchor="start" x="559.5" y="-337.3" font-family="Times,serif" font-style="italic" font-size="14.00">icecube_neutrino_list.json</text>
<polyline fill="none" stroke="black" points="551.5,-328.5 755.5,-328.5 "/>
<text text-anchor="start" x="619.5" y="-313.3" font-family="Times,serif" font-size="14.00">JSONFile</text>
<text text-anchor="start" x="605.5" y="-298.3" font-family="Times,serif" font-size="14.00">HEALPixPSF</text>
</a>
</g>
</g>
<!-- llama.files.i3.json.IceCubeNeutrinoList&#45;&gt;llama.files.coinc_plots.CoincScatterI3LvcPdf -->
<g id="edge8" class="edge">
<title>llama.files.i3.json.IceCubeNeutrinoList&#45;&gt;llama.files.coinc_plots.CoincScatterI3LvcPdf</title>
<path fill="none" stroke="red" d="M755.66,-341C900.46,-341 1148,-341 1148,-341 1148,-341 1148,-284.15 1148,-284.15"/>
<polygon fill="red" stroke="red" points="1151.5,-284.15 1148,-274.15 1144.5,-284.15 1151.5,-284.15"/>
</g>
<!-- llama.files.i3.json.IceCubeNeutrinoList&#45;&gt;llama.files.coinc_plots.CoincSummaryI3LvcTex -->
<g id="edge9" class="edge">
<title>llama.files.i3.json.IceCubeNeutrinoList&#45;&gt;llama.files.coinc_plots.CoincSummaryI3LvcTex</title>
<path fill="none" stroke="red" d="M755.55,-358C958.41,-358 1393,-358 1393,-358 1393,-358 1393,-221.07 1393,-221.07"/>
<polygon fill="red" stroke="red" points="1396.5,-221.07 1393,-211.07 1389.5,-221.07 1396.5,-221.07"/>
</g>
<!-- llama.files.i3.json.IceCubeNeutrinoList&#45;&gt;llama.files.coinc_significance.opa.CoincSignificanceI3Lvc -->
<g id="edge10" class="edge">
<title>llama.files.i3.json.IceCubeNeutrinoList&#45;&gt;llama.files.coinc_significance.opa.CoincSignificanceI3Lvc</title>
<path fill="none" stroke="red" d="M755.79,-307C825.42,-307 905,-307 905,-307 905,-307 905,-186.19 905,-186.19"/>
<polygon fill="red" stroke="red" points="908.5,-186.19 905,-176.19 901.5,-186.19 908.5,-186.19"/>
</g>
<!-- llama.files.i3.json.IceCubeNeutrinoList&#45;&gt;llama.files.i3.tex.IceCubeNeutrinoListTex -->
<g id="edge11" class="edge">
<title>llama.files.i3.json.IceCubeNeutrinoList&#45;&gt;llama.files.i3.tex.IceCubeNeutrinoListTex</title>
<path fill="none" stroke="red" d="M755.61,-324C872.5,-324 1048,-324 1048,-324 1048,-324 1048,-158.26 1048,-158.26"/>
<polygon fill="red" stroke="red" points="1051.5,-158.26 1048,-148.26 1044.5,-158.26 1051.5,-158.26"/>
</g>
<!-- llama.files.i3.tex.IceCubeNeutrinoListTex&#45;&gt;llama.files.coinc_plots.CoincSummaryI3LvcTex -->
<g id="edge12" class="edge">
<title>llama.files.i3.tex.IceCubeNeutrinoListTex&#45;&gt;llama.files.coinc_plots.CoincSummaryI3LvcTex</title>
<path fill="none" stroke="red" d="M1249,-148.43C1249,-153.93 1249,-157.83 1249,-157.83 1249,-157.83 1278.73,-157.83 1278.73,-157.83"/>
<polygon fill="red" stroke="red" points="1278.73,-161.33 1288.73,-157.83 1278.73,-154.33 1278.73,-161.33"/>
</g>
<!-- llama.files.lvc_skymap.LvcDistancesJson -->
<g id="node9" class="node">
<title>llama.files.lvc_skymap.LvcDistancesJson</title>
<g id="a_node9"><a xlink:href="/llama.files.lvc_skymap.html#llama.files.lvc_skymap.LvcDistancesJson" xlink:title="{{&lt;B&gt;LvcDistancesJson&lt;/B&gt;|&lt;I&gt;lvc_skymap_distances.json&lt;/I&gt;|JSONFile}}" target="_top">
<polygon fill="#cccccc" stroke="black" points="548.5,-115 548.5,-184 758.5,-184 758.5,-115 548.5,-115"/>
<text text-anchor="start" x="583" y="-169.8" font-family="Times,serif" font-weight="bold" font-size="14.00">LvcDistancesJson</text>
<polyline fill="none" stroke="black" points="548.5,-161 758.5,-161 "/>
<text text-anchor="start" x="556.5" y="-146.8" font-family="Times,serif" font-style="italic" font-size="14.00">lvc_skymap_distances.json</text>
<polyline fill="none" stroke="black" points="548.5,-138 758.5,-138 "/>
<text text-anchor="start" x="619.5" y="-122.8" font-family="Times,serif" font-size="14.00">JSONFile</text>
</a>
</g>
</g>
<!-- llama.files.lvc_skymap.LvcDistancesJson&#45;&gt;llama.files.coinc_significance.opa.CoincSignificanceI3Lvc -->
<g id="edge13" class="edge">
<title>llama.files.lvc_skymap.LvcDistancesJson&#45;&gt;llama.files.coinc_significance.opa.CoincSignificanceI3Lvc</title>
<path fill="none" stroke="red" d="M758.7,-135.17C758.7,-135.17 792.64,-135.17 792.64,-135.17"/>
<polygon fill="red" stroke="red" points="792.64,-138.67 802.64,-135.17 792.64,-131.67 792.64,-138.67"/>
</g>
<!-- llama.files.lvc_skymap.LvcSkymapFits -->
<g id="node10" class="node">
<title>llama.files.lvc_skymap.LvcSkymapFits</title>
<g id="a_node10"><a xlink:href="/llama.files.lvc_skymap.html#llama.files.lvc_skymap.LvcSkymapFits" xlink:title="{{&lt;B&gt;LvcSkymapFits&lt;/B&gt;|&lt;I&gt;lvc_skymap.fits.gz&lt;/I&gt;|GenerateOnceMixin&lt;BR/&gt;LvcHEALPixSkyMapFileHandler&lt;BR/&gt;OnlineVetoMixin}}" target="_top">
<polygon fill="#cccccc" stroke="black" points="251,-207 251,-306 504,-306 504,-207 251,-207"/>
<text text-anchor="start" x="317.5" y="-291.8" font-family="Times,serif" font-weight="bold" font-size="14.00">LvcSkymapFits</text>
<polyline fill="none" stroke="black" points="251,-283 504,-283 "/>
<text text-anchor="start" x="311" y="-268.8" font-family="Times,serif" font-style="italic" font-size="14.00">lvc_skymap.fits.gz</text>
<polyline fill="none" stroke="black" points="251,-260 504,-260 "/>
<text text-anchor="start" x="305" y="-244.8" font-family="Times,serif" font-size="14.00">GenerateOnceMixin</text>
<text text-anchor="start" x="259" y="-229.8" font-family="Times,serif" font-size="14.00">LvcHEALPixSkyMapFileHandler</text>
<text text-anchor="start" x="317.5" y="-214.8" font-family="Times,serif" font-size="14.00">OnlineVetoMixin</text>
</a>
</g>
</g>
<!-- llama.files.lvc_skymap.LvcSkymapFits&#45;&gt;llama.files.lvc_skymap.LvcDistancesJson -->
<g id="edge14" class="edge">
<title>llama.files.lvc_skymap.LvcSkymapFits&#45;&gt;llama.files.lvc_skymap.LvcDistancesJson</title>
<path fill="none" stroke="red" d="M497,-206.76C497,-178.82 497,-149.5 497,-149.5 497,-149.5 538.24,-149.5 538.24,-149.5"/>
<polygon fill="red" stroke="red" points="538.24,-153 548.24,-149.5 538.24,-146 538.24,-153"/>
</g>
<!-- llama.files.lvc_skymap.LvcSkymapHdf5 -->
<g id="node11" class="node">
<title>llama.files.lvc_skymap.LvcSkymapHdf5</title>
<g id="a_node11"><a xlink:href="/llama.files.lvc_skymap.html#llama.files.lvc_skymap.LvcSkymapHdf5" xlink:title="{{&lt;B&gt;LvcSkymapHdf5&lt;/B&gt;|&lt;I&gt;lvc_skymap.hdf5&lt;/I&gt;|HEALPixSkyMapFileHandler}}" target="_top">
<polygon fill="#cccccc" stroke="black" points="540,-203 540,-272 767,-272 767,-203 540,-203"/>
<text text-anchor="start" x="589" y="-257.8" font-family="Times,serif" font-weight="bold" font-size="14.00">LvcSkymapHdf5</text>
<polyline fill="none" stroke="black" points="540,-249 767,-249 "/>
<text text-anchor="start" x="593" y="-234.8" font-family="Times,serif" font-style="italic" font-size="14.00">lvc_skymap.hdf5</text>
<polyline fill="none" stroke="black" points="540,-226 767,-226 "/>
<text text-anchor="start" x="548" y="-210.8" font-family="Times,serif" font-size="14.00">HEALPixSkyMapFileHandler</text>
</a>
</g>
</g>
<!-- llama.files.lvc_skymap.LvcSkymapFits&#45;&gt;llama.files.lvc_skymap.LvcSkymapHdf5 -->
<g id="edge15" class="edge">
<title>llama.files.lvc_skymap.LvcSkymapFits&#45;&gt;llama.files.lvc_skymap.LvcSkymapHdf5</title>
<path fill="none" stroke="red" d="M504.19,-239.5C504.19,-239.5 529.88,-239.5 529.88,-239.5"/>
<polygon fill="red" stroke="red" points="529.88,-243 539.88,-239.5 529.88,-236 529.88,-243"/>
</g>
<!-- llama.files.lvc_skymap.LvcSkymapHdf5&#45;&gt;llama.files.coinc_plots.CoincScatterI3LvcPdf -->
<g id="edge16" class="edge">
<title>llama.files.lvc_skymap.LvcSkymapHdf5&#45;&gt;llama.files.coinc_plots.CoincScatterI3LvcPdf</title>
<path fill="none" stroke="red" d="M767.26,-238.5C767.26,-238.5 1042.26,-238.5 1042.26,-238.5"/>
<polygon fill="red" stroke="red" points="1042.26,-242 1052.26,-238.5 1042.26,-235 1042.26,-242"/>
</g>
<!-- llama.files.lvc_skymap.LvcSkymapHdf5&#45;&gt;llama.files.coinc_significance.opa.CoincSignificanceI3Lvc -->
<g id="edge17" class="edge">
<title>llama.files.lvc_skymap.LvcSkymapHdf5&#45;&gt;llama.files.coinc_significance.opa.CoincSignificanceI3Lvc</title>
<path fill="none" stroke="red" d="M763,-202.87C763,-180.61 763,-155.83 763,-155.83 763,-155.83 792.93,-155.83 792.93,-155.83"/>
<polygon fill="red" stroke="red" points="792.93,-159.33 802.93,-155.83 792.93,-152.33 792.93,-159.33"/>
</g>
<!-- llama.files.skymap_info.SkymapInfo -->
<g id="node12" class="node">
<title>llama.files.skymap_info.SkymapInfo</title>
<g id="a_node12"><a xlink:href="/llama.files.skymap_info.html#llama.files.skymap_info.SkymapInfo" xlink:title="{{&lt;B&gt;SkymapInfo&lt;/B&gt;|&lt;I&gt;skymap_info.json&lt;/I&gt;|EventTriggeredFileHandler&lt;BR/&gt;JSONFile}}" target="_top">
<polygon fill="#cccccc" stroke="black" points="0,-0.5 0,-84.5 215,-84.5 215,-0.5 0,-0.5"/>
<text text-anchor="start" x="59.5" y="-70.3" font-family="Times,serif" font-weight="bold" font-size="14.00">SkymapInfo</text>
<polyline fill="none" stroke="black" points="0,-61.5 215,-61.5 "/>
<text text-anchor="start" x="45.5" y="-47.3" font-family="Times,serif" font-style="italic" font-size="14.00">skymap_info.json</text>
<polyline fill="none" stroke="black" points="0,-38.5 215,-38.5 "/>
<text text-anchor="start" x="8" y="-23.3" font-family="Times,serif" font-size="14.00">EventTriggeredFileHandler</text>
<text text-anchor="start" x="73.5" y="-8.3" font-family="Times,serif" font-size="14.00">JSONFile</text>
</a>
</g>
</g>
<!-- llama.files.skymap_info.SkymapInfo&#45;&gt;llama.files.coinc_plots.CoincSummaryI3LvcTex -->
<g id="edge18" class="edge">
<title>llama.files.skymap_info.SkymapInfo&#45;&gt;llama.files.coinc_plots.CoincSummaryI3LvcTex</title>
<path fill="none" stroke="red" d="M144,-84.78C144,-129.24 144,-192.83 144,-192.83 144,-192.83 1278.93,-192.83 1278.93,-192.83"/>
<polygon fill="red" stroke="red" points="1278.93,-196.33 1288.93,-192.83 1278.93,-189.33 1278.93,-196.33"/>
</g>
<!-- llama.files.skymap_info.SkymapInfo&#45;&gt;llama.files.coinc_significance.opa.CoincSignificanceI3Lvc -->
<g id="edge19" class="edge">
<title>llama.files.skymap_info.SkymapInfo&#45;&gt;llama.files.coinc_significance.opa.CoincSignificanceI3Lvc</title>
<path fill="none" stroke="red" d="M36,-84.63C36,-91.81 36,-97 36,-97 36,-97 871,-97 871,-97 871,-97 871,-97.99 871,-97.99"/>
<polygon fill="red" stroke="red" points="867.5,-96.88 871,-106.88 874.5,-96.88 867.5,-96.88"/>
</g>
<!-- llama.files.skymap_info.SkymapInfo&#45;&gt;llama.files.gracedb.LVCGraceDbEventData -->
<g id="edge20" class="edge">
<title>llama.files.skymap_info.SkymapInfo&#45;&gt;llama.files.gracedb.LVCGraceDbEventData</title>
<path fill="none" stroke="red" d="M180,-84.69C180,-113.14 180,-145.5 180,-145.5 180,-145.5 255.48,-145.5 255.48,-145.5"/>
<polygon fill="red" stroke="red" points="255.48,-149 265.48,-145.5 255.48,-142 255.48,-149"/>
</g>
<!-- llama.files.skymap_info.SkymapInfo&#45;&gt;llama.files.gracedb.PAstro -->
<g id="edge21" class="edge">
<title>llama.files.skymap_info.SkymapInfo&#45;&gt;llama.files.gracedb.PAstro</title>
<path fill="none" stroke="red" d="M215.38,-28.33C215.38,-28.33 259.8,-28.33 259.8,-28.33"/>
<polygon fill="red" stroke="red" points="259.8,-31.83 269.8,-28.33 259.8,-24.83 259.8,-31.83"/>
</g>
<!-- llama.files.skymap_info.SkymapInfo&#45;&gt;llama.files.i3.json.IceCubeNeutrinoList -->
<g id="edge22" class="edge">
<title>llama.files.skymap_info.SkymapInfo&#45;&gt;llama.files.i3.json.IceCubeNeutrinoList</title>
<path fill="none" stroke="red" d="M108,-84.6C108,-166.81 108,-340.75 108,-340.75 108,-340.75 541.22,-340.75 541.22,-340.75"/>
<polygon fill="red" stroke="red" points="541.22,-344.25 551.22,-340.75 541.22,-337.25 541.22,-344.25"/>
</g>
<!-- llama.files.skymap_info.SkymapInfo&#45;&gt;llama.files.i3.tex.IceCubeNeutrinoListTex -->
<g id="edge23" class="edge">
<title>llama.files.skymap_info.SkymapInfo&#45;&gt;llama.files.i3.tex.IceCubeNeutrinoListTex</title>
<path fill="none" stroke="red" d="M72,-84.66C72,-88.51 72,-91 72,-91 72,-91 1032.87,-91 1032.87,-91"/>
<polygon fill="red" stroke="red" points="1032.87,-94.5 1042.87,-91 1032.87,-87.5 1032.87,-94.5"/>
</g>
<!-- llama.files.skymap_info.SkymapInfo&#45;&gt;llama.files.lvc_skymap.LvcSkymapFits -->
<g id="edge24" class="edge">
<title>llama.files.skymap_info.SkymapInfo&#45;&gt;llama.files.lvc_skymap.LvcSkymapFits</title>
<path fill="none" stroke="red" d="M215.18,-56.67C239.86,-56.67 259,-56.67 259,-56.67 259,-56.67 259,-196.85 259,-196.85"/>
<polygon fill="red" stroke="red" points="255.5,-196.85 259,-206.85 262.5,-196.85 255.5,-196.85"/>
</g>
</g>
</svg>
