<?xml version="1.0" encoding="UTF-8" standalone="no"?>
<!DOCTYPE svg PUBLIC "-//W3C//DTD SVG 1.1//EN"
 "http://www.w3.org/Graphics/SVG/1.1/DTD/svg11.dtd">
<!-- Generated by graphviz version 2.42.3 (20191010.1750)
 -->
<!-- Title: llama.files.i3.txt.IceCubeNeutrinoListCoincTxt Pages: 1 -->
<svg width="1306pt" height="433pt"
 viewBox="0.00 0.00 1306.00 432.50" xmlns="http://www.w3.org/2000/svg" xmlns:xlink="http://www.w3.org/1999/xlink">
<g id="graph0" class="graph" transform="scale(1 1) rotate(0) translate(4 428.5)">
<title>llama.files.i3.txt.IceCubeNeutrinoListCoincTxt</title>
<polygon fill="transparent" stroke="transparent" points="-4,4 -4,-428.5 1302,-428.5 1302,4 -4,4"/>
<!-- llama.files.coinc_significance.opa.CoincSignificanceI3Lvc -->
<g id="node1" class="node">
<title>llama.files.coinc_significance.opa.CoincSignificanceI3Lvc</title>
<g id="a_node1"><a xlink:href="/llama.files.coinc_significance.opa.html#llama.files.coinc_significance.opa.CoincSignificanceI3Lvc" xlink:title="{{&lt;B&gt;CoincSignificanceI3Lvc&lt;/B&gt;|&lt;I&gt;significance_lvc&#45;i3.json&lt;/I&gt;|JSONFile}}" target="_top">
<polygon fill="#cccccc" stroke="black" points="803,-133 803,-202 1007,-202 1007,-133 803,-133"/>
<text text-anchor="start" x="811" y="-187.8" font-family="Times,serif" font-weight="bold" font-size="14.00">CoincSignificanceI3Lvc</text>
<polyline fill="none" stroke="black" points="803,-179 1007,-179 "/>
<text text-anchor="start" x="821.5" y="-164.8" font-family="Times,serif" font-style="italic" font-size="14.00">significance_lvc&#45;i3.json</text>
<polyline fill="none" stroke="black" points="803,-156 1007,-156 "/>
<text text-anchor="start" x="871" y="-140.8" font-family="Times,serif" font-size="14.00">JSONFile</text>
</a>
</g>
</g>
<!-- llama.files.i3.txt.IceCubeNeutrinoListCoincTxt -->
<g id="node5" class="node">
<title>llama.files.i3.txt.IceCubeNeutrinoListCoincTxt</title>
<g id="a_node5"><a xlink:href="/llama.files.i3.txt.html#llama.files.i3.txt.IceCubeNeutrinoListCoincTxt" xlink:title="{{&lt;B&gt;IceCubeNeutrinoListCoincTxt&lt;/B&gt;|&lt;I&gt;icecube_neutrino_list_coinc.txt&lt;/I&gt;|FileHandler}}" target="_top">
<polygon fill="#cccccc" stroke="black" points="1043,-8 1043,-77 1298,-77 1298,-8 1043,-8"/>
<text text-anchor="start" x="1051" y="-62.8" font-family="Times,serif" font-weight="bold" font-size="14.00">IceCubeNeutrinoListCoincTxt</text>
<polyline fill="none" stroke="black" points="1043,-54 1298,-54 "/>
<text text-anchor="start" x="1058" y="-39.8" font-family="Times,serif" font-style="italic" font-size="14.00">icecube_neutrino_list_coinc.txt</text>
<polyline fill="none" stroke="black" points="1043,-31 1298,-31 "/>
<text text-anchor="start" x="1127.5" y="-15.8" font-family="Times,serif" font-size="14.00">FileHandler</text>
</a>
</g>
</g>
<!-- llama.files.coinc_significance.opa.CoincSignificanceI3Lvc&#45;&gt;llama.files.i3.txt.IceCubeNeutrinoListCoincTxt -->
<g id="edge1" class="edge">
<title>llama.files.coinc_significance.opa.CoincSignificanceI3Lvc&#45;&gt;llama.files.i3.txt.IceCubeNeutrinoListCoincTxt</title>
<path fill="none" stroke="red" d="M967,-132.88C967,-99.55 967,-54.17 967,-54.17 967,-54.17 1032.78,-54.17 1032.78,-54.17"/>
<polygon fill="red" stroke="red" points="1032.78,-57.67 1042.78,-54.17 1032.78,-50.67 1032.78,-57.67"/>
</g>
<!-- llama.files.gracedb.LVCGraceDbEventData -->
<g id="node2" class="node">
<title>llama.files.gracedb.LVCGraceDbEventData</title>
<g id="a_node2"><a xlink:href="/llama.files.gracedb.html#llama.files.gracedb.LVCGraceDbEventData" xlink:title="{{&lt;B&gt;LVCGraceDbEventData&lt;/B&gt;|&lt;I&gt;lvc_gracedb_event_data.json&lt;/I&gt;|JSONFile&lt;BR/&gt;OnlineVetoMixin}}" target="_top">
<polygon fill="#cccccc" stroke="black" points="265.5,-125.5 265.5,-209.5 489.5,-209.5 489.5,-125.5 265.5,-125.5"/>
<text text-anchor="start" x="287" y="-195.3" font-family="Times,serif" font-weight="bold" font-size="14.00">LVCGraceDbEventData</text>
<polyline fill="none" stroke="black" points="265.5,-186.5 489.5,-186.5 "/>
<text text-anchor="start" x="273.5" y="-172.3" font-family="Times,serif" font-style="italic" font-size="14.00">lvc_gracedb_event_data.json</text>
<polyline fill="none" stroke="black" points="265.5,-163.5 489.5,-163.5 "/>
<text text-anchor="start" x="343.5" y="-148.3" font-family="Times,serif" font-size="14.00">JSONFile</text>
<text text-anchor="start" x="317.5" y="-133.3" font-family="Times,serif" font-size="14.00">OnlineVetoMixin</text>
</a>
</g>
</g>
<!-- llama.files.gracedb.LVCGraceDbEventData&#45;&gt;llama.files.coinc_significance.opa.CoincSignificanceI3Lvc -->
<g id="edge2" class="edge">
<title>llama.files.gracedb.LVCGraceDbEventData&#45;&gt;llama.files.coinc_significance.opa.CoincSignificanceI3Lvc</title>
<path fill="none" stroke="red" d="M489.69,-155.83C489.69,-155.83 792.8,-155.83 792.8,-155.83"/>
<polygon fill="red" stroke="red" points="792.8,-159.33 802.8,-155.83 792.8,-152.33 792.8,-159.33"/>
</g>
<!-- llama.files.gracedb.PAstro -->
<g id="node3" class="node">
<title>llama.files.gracedb.PAstro</title>
<g id="a_node3"><a xlink:href="/llama.files.gracedb.html#llama.files.gracedb.PAstro" xlink:title="{{&lt;B&gt;PAstro&lt;/B&gt;|&lt;I&gt;p_astro.json&lt;/I&gt;|GraceDBPollingFileHandler&lt;BR/&gt;JSONFile}}" target="_top">
<polygon fill="#cccccc" stroke="black" points="270,-22.5 270,-106.5 485,-106.5 485,-22.5 270,-22.5"/>
<text text-anchor="start" x="350.5" y="-92.3" font-family="Times,serif" font-weight="bold" font-size="14.00">PAstro</text>
<polyline fill="none" stroke="black" points="270,-83.5 485,-83.5 "/>
<text text-anchor="start" x="333.5" y="-69.3" font-family="Times,serif" font-style="italic" font-size="14.00">p_astro.json</text>
<polyline fill="none" stroke="black" points="270,-60.5 485,-60.5 "/>
<text text-anchor="start" x="278" y="-45.3" font-family="Times,serif" font-size="14.00">GraceDBPollingFileHandler</text>
<text text-anchor="start" x="343.5" y="-30.3" font-family="Times,serif" font-size="14.00">JSONFile</text>
</a>
</g>
</g>
<!-- llama.files.gracedb.PAstro&#45;&gt;llama.files.coinc_significance.opa.CoincSignificanceI3Lvc -->
<g id="edge3" class="edge">
<title>llama.files.gracedb.PAstro&#45;&gt;llama.files.coinc_significance.opa.CoincSignificanceI3Lvc</title>
<path fill="none" stroke="red" d="M485.13,-96C634.1,-96 885,-96 885,-96 885,-96 885,-122.59 885,-122.59"/>
<polygon fill="red" stroke="red" points="881.5,-122.59 885,-132.59 888.5,-122.59 881.5,-122.59"/>
</g>
<!-- llama.files.i3.json.IceCubeNeutrinoList -->
<g id="node4" class="node">
<title>llama.files.i3.json.IceCubeNeutrinoList</title>
<g id="a_node4"><a xlink:href="/llama.files.i3.json.html#llama.files.i3.json.IceCubeNeutrinoList" xlink:title="{{&lt;B&gt;IceCubeNeutrinoList&lt;/B&gt;|&lt;I&gt;icecube_neutrino_list.json&lt;/I&gt;|JSONFile&lt;BR/&gt;HEALPixPSF}}" target="_top">
<polygon fill="#cccccc" stroke="black" points="551.5,-0.5 551.5,-84.5 755.5,-84.5 755.5,-0.5 551.5,-0.5"/>
<text text-anchor="start" x="569.5" y="-70.3" font-family="Times,serif" font-weight="bold" font-size="14.00">IceCubeNeutrinoList</text>
<polyline fill="none" stroke="black" points="551.5,-61.5 755.5,-61.5 "/>
<text text-anchor="start" x="559.5" y="-47.3" font-family="Times,serif" font-style="italic" font-size="14.00">icecube_neutrino_list.json</text>
<polyline fill="none" stroke="black" points="551.5,-38.5 755.5,-38.5 "/>
<text text-anchor="start" x="619.5" y="-23.3" font-family="Times,serif" font-size="14.00">JSONFile</text>
<text text-anchor="start" x="605.5" y="-8.3" font-family="Times,serif" font-size="14.00">HEALPixPSF</text>
</a>
</g>
</g>
<!-- llama.files.i3.json.IceCubeNeutrinoList&#45;&gt;llama.files.coinc_significance.opa.CoincSignificanceI3Lvc -->
<g id="edge4" class="edge">
<title>llama.files.i3.json.IceCubeNeutrinoList&#45;&gt;llama.files.coinc_significance.opa.CoincSignificanceI3Lvc</title>
<path fill="none" stroke="red" d="M755.74,-81.25C833.07,-81.25 926,-81.25 926,-81.25 926,-81.25 926,-122.92 926,-122.92"/>
<polygon fill="red" stroke="red" points="922.5,-122.92 926,-132.92 929.5,-122.92 922.5,-122.92"/>
</g>
<!-- llama.files.i3.json.IceCubeNeutrinoList&#45;&gt;llama.files.i3.txt.IceCubeNeutrinoListCoincTxt -->
<g id="edge5" class="edge">
<title>llama.files.i3.json.IceCubeNeutrinoList&#45;&gt;llama.files.i3.txt.IceCubeNeutrinoListCoincTxt</title>
<path fill="none" stroke="red" d="M755.64,-30.83C755.64,-30.83 1032.91,-30.83 1032.91,-30.83"/>
<polygon fill="red" stroke="red" points="1032.91,-34.33 1042.91,-30.83 1032.91,-27.33 1032.91,-34.33"/>
</g>
<!-- llama.files.lvc_skymap.LvcDistancesJson -->
<g id="node6" class="node">
<title>llama.files.lvc_skymap.LvcDistancesJson</title>
<g id="a_node6"><a xlink:href="/llama.files.lvc_skymap.html#llama.files.lvc_skymap.LvcDistancesJson" xlink:title="{{&lt;B&gt;LvcDistancesJson&lt;/B&gt;|&lt;I&gt;lvc_skymap_distances.json&lt;/I&gt;|JSONFile}}" target="_top">
<polygon fill="#cccccc" stroke="black" points="548.5,-267 548.5,-336 758.5,-336 758.5,-267 548.5,-267"/>
<text text-anchor="start" x="583" y="-321.8" font-family="Times,serif" font-weight="bold" font-size="14.00">LvcDistancesJson</text>
<polyline fill="none" stroke="black" points="548.5,-313 758.5,-313 "/>
<text text-anchor="start" x="556.5" y="-298.8" font-family="Times,serif" font-style="italic" font-size="14.00">lvc_skymap_distances.json</text>
<polyline fill="none" stroke="black" points="548.5,-290 758.5,-290 "/>
<text text-anchor="start" x="619.5" y="-274.8" font-family="Times,serif" font-size="14.00">JSONFile</text>
</a>
</g>
</g>
<!-- llama.files.lvc_skymap.LvcDistancesJson&#45;&gt;llama.files.coinc_significance.opa.CoincSignificanceI3Lvc -->
<g id="edge6" class="edge">
<title>llama.files.lvc_skymap.LvcDistancesJson&#45;&gt;llama.files.coinc_significance.opa.CoincSignificanceI3Lvc</title>
<path fill="none" stroke="red" d="M758.7,-301.5C827.62,-301.5 905,-301.5 905,-301.5 905,-301.5 905,-212.01 905,-212.01"/>
<polygon fill="red" stroke="red" points="908.5,-212.01 905,-202.01 901.5,-212.01 908.5,-212.01"/>
</g>
<!-- llama.files.lvc_skymap.LvcSkymapFits -->
<g id="node7" class="node">
<title>llama.files.lvc_skymap.LvcSkymapFits</title>
<g id="a_node7"><a xlink:href="/llama.files.lvc_skymap.html#llama.files.lvc_skymap.LvcSkymapFits" xlink:title="{{&lt;B&gt;LvcSkymapFits&lt;/B&gt;|&lt;I&gt;lvc_skymap.fits.gz&lt;/I&gt;|GenerateOnceMixin&lt;BR/&gt;LvcHEALPixSkyMapFileHandler&lt;BR/&gt;OnlineVetoMixin}}" target="_top">
<polygon fill="#cccccc" stroke="black" points="251,-267 251,-366 504,-366 504,-267 251,-267"/>
<text text-anchor="start" x="317.5" y="-351.8" font-family="Times,serif" font-weight="bold" font-size="14.00">LvcSkymapFits</text>
<polyline fill="none" stroke="black" points="251,-343 504,-343 "/>
<text text-anchor="start" x="311" y="-328.8" font-family="Times,serif" font-style="italic" font-size="14.00">lvc_skymap.fits.gz</text>
<polyline fill="none" stroke="black" points="251,-320 504,-320 "/>
<text text-anchor="start" x="305" y="-304.8" font-family="Times,serif" font-size="14.00">GenerateOnceMixin</text>
<text text-anchor="start" x="259" y="-289.8" font-family="Times,serif" font-size="14.00">LvcHEALPixSkyMapFileHandler</text>
<text text-anchor="start" x="317.5" y="-274.8" font-family="Times,serif" font-size="14.00">OnlineVetoMixin</text>
</a>
</g>
</g>
<!-- llama.files.lvc_skymap.LvcSkymapFits&#45;&gt;llama.files.lvc_skymap.LvcDistancesJson -->
<g id="edge7" class="edge">
<title>llama.files.lvc_skymap.LvcSkymapFits&#45;&gt;llama.files.lvc_skymap.LvcDistancesJson</title>
<path fill="none" stroke="red" d="M504.19,-301.5C504.19,-301.5 538.25,-301.5 538.25,-301.5"/>
<polygon fill="red" stroke="red" points="538.25,-305 548.25,-301.5 538.25,-298 538.25,-305"/>
</g>
<!-- llama.files.lvc_skymap.LvcSkymapHdf5 -->
<g id="node8" class="node">
<title>llama.files.lvc_skymap.LvcSkymapHdf5</title>
<g id="a_node8"><a xlink:href="/llama.files.lvc_skymap.html#llama.files.lvc_skymap.LvcSkymapHdf5" xlink:title="{{&lt;B&gt;LvcSkymapHdf5&lt;/B&gt;|&lt;I&gt;lvc_skymap.hdf5&lt;/I&gt;|HEALPixSkyMapFileHandler}}" target="_top">
<polygon fill="#cccccc" stroke="black" points="540,-355 540,-424 767,-424 767,-355 540,-355"/>
<text text-anchor="start" x="589" y="-409.8" font-family="Times,serif" font-weight="bold" font-size="14.00">LvcSkymapHdf5</text>
<polyline fill="none" stroke="black" points="540,-401 767,-401 "/>
<text text-anchor="start" x="593" y="-386.8" font-family="Times,serif" font-style="italic" font-size="14.00">lvc_skymap.hdf5</text>
<polyline fill="none" stroke="black" points="540,-378 767,-378 "/>
<text text-anchor="start" x="548" y="-362.8" font-family="Times,serif" font-size="14.00">HEALPixSkyMapFileHandler</text>
</a>
</g>
</g>
<!-- llama.files.lvc_skymap.LvcSkymapFits&#45;&gt;llama.files.lvc_skymap.LvcSkymapHdf5 -->
<g id="edge8" class="edge">
<title>llama.files.lvc_skymap.LvcSkymapFits&#45;&gt;llama.files.lvc_skymap.LvcSkymapHdf5</title>
<path fill="none" stroke="red" d="M504.19,-360.5C504.19,-360.5 529.88,-360.5 529.88,-360.5"/>
<polygon fill="red" stroke="red" points="529.88,-364 539.88,-360.5 529.88,-357 529.88,-364"/>
</g>
<!-- llama.files.lvc_skymap.LvcSkymapHdf5&#45;&gt;llama.files.coinc_significance.opa.CoincSignificanceI3Lvc -->
<g id="edge9" class="edge">
<title>llama.files.lvc_skymap.LvcSkymapHdf5&#45;&gt;llama.files.coinc_significance.opa.CoincSignificanceI3Lvc</title>
<path fill="none" stroke="red" d="M763,-354.77C763,-295.03 763,-179.17 763,-179.17 763,-179.17 792.93,-179.17 792.93,-179.17"/>
<polygon fill="red" stroke="red" points="792.93,-182.67 802.93,-179.17 792.93,-175.67 792.93,-182.67"/>
</g>
<!-- llama.files.skymap_info.SkymapInfo -->
<g id="node9" class="node">
<title>llama.files.skymap_info.SkymapInfo</title>
<g id="a_node9"><a xlink:href="/llama.files.skymap_info.html#llama.files.skymap_info.SkymapInfo" xlink:title="{{&lt;B&gt;SkymapInfo&lt;/B&gt;|&lt;I&gt;skymap_info.json&lt;/I&gt;|EventTriggeredFileHandler&lt;BR/&gt;JSONFile}}" target="_top">
<polygon fill="#cccccc" stroke="black" points="0,-73.5 0,-157.5 215,-157.5 215,-73.5 0,-73.5"/>
<text text-anchor="start" x="59.5" y="-143.3" font-family="Times,serif" font-weight="bold" font-size="14.00">SkymapInfo</text>
<polyline fill="none" stroke="black" points="0,-134.5 215,-134.5 "/>
<text text-anchor="start" x="45.5" y="-120.3" font-family="Times,serif" font-style="italic" font-size="14.00">skymap_info.json</text>
<polyline fill="none" stroke="black" points="0,-111.5 215,-111.5 "/>
<text text-anchor="start" x="8" y="-96.3" font-family="Times,serif" font-size="14.00">EventTriggeredFileHandler</text>
<text text-anchor="start" x="73.5" y="-81.3" font-family="Times,serif" font-size="14.00">JSONFile</text>
</a>
</g>
</g>
<!-- llama.files.skymap_info.SkymapInfo&#45;&gt;llama.files.coinc_significance.opa.CoincSignificanceI3Lvc -->
<g id="edge10" class="edge">
<title>llama.files.skymap_info.SkymapInfo&#45;&gt;llama.files.coinc_significance.opa.CoincSignificanceI3Lvc</title>
<path fill="none" stroke="red" d="M215.38,-120.5C419.95,-120.5 844,-120.5 844,-120.5 844,-120.5 844,-122.85 844,-122.85"/>
<polygon fill="red" stroke="red" points="840.5,-122.85 844,-132.85 847.5,-122.85 840.5,-122.85"/>
</g>
<!-- llama.files.skymap_info.SkymapInfo&#45;&gt;llama.files.gracedb.LVCGraceDbEventData -->
<g id="edge11" class="edge">
<title>llama.files.skymap_info.SkymapInfo&#45;&gt;llama.files.gracedb.LVCGraceDbEventData</title>
<path fill="none" stroke="red" d="M215.38,-136C215.38,-136 255.38,-136 255.38,-136"/>
<polygon fill="red" stroke="red" points="255.38,-139.5 265.38,-136 255.38,-132.5 255.38,-139.5"/>
</g>
<!-- llama.files.skymap_info.SkymapInfo&#45;&gt;llama.files.gracedb.PAstro -->
<g id="edge12" class="edge">
<title>llama.files.skymap_info.SkymapInfo&#45;&gt;llama.files.gracedb.PAstro</title>
<path fill="none" stroke="red" d="M215.38,-90C215.38,-90 259.8,-90 259.8,-90"/>
<polygon fill="red" stroke="red" points="259.8,-93.5 269.8,-90 259.8,-86.5 259.8,-93.5"/>
</g>
<!-- llama.files.skymap_info.SkymapInfo&#45;&gt;llama.files.i3.json.IceCubeNeutrinoList -->
<g id="edge13" class="edge">
<title>llama.files.skymap_info.SkymapInfo&#45;&gt;llama.files.i3.json.IceCubeNeutrinoList</title>
<path fill="none" stroke="red" d="M215.14,-111.5C374.36,-111.5 654,-111.5 654,-111.5 654,-111.5 654,-94.63 654,-94.63"/>
<polygon fill="red" stroke="red" points="657.5,-94.63 654,-84.63 650.5,-94.63 657.5,-94.63"/>
</g>
<!-- llama.files.skymap_info.SkymapInfo&#45;&gt;llama.files.i3.txt.IceCubeNeutrinoListCoincTxt -->
<g id="edge14" class="edge">
<title>llama.files.skymap_info.SkymapInfo&#45;&gt;llama.files.i3.txt.IceCubeNeutrinoListCoincTxt</title>
<path fill="none" stroke="red" d="M215.33,-116C485.7,-116 1171,-116 1171,-116 1171,-116 1171,-87.1 1171,-87.1"/>
<polygon fill="red" stroke="red" points="1174.5,-87.1 1171,-77.1 1167.5,-87.1 1174.5,-87.1"/>
</g>
<!-- llama.files.skymap_info.SkymapInfo&#45;&gt;llama.files.lvc_skymap.LvcSkymapFits -->
<g id="edge15" class="edge">
<title>llama.files.skymap_info.SkymapInfo&#45;&gt;llama.files.lvc_skymap.LvcSkymapFits</title>
<path fill="none" stroke="red" d="M215.18,-147C239.86,-147 259,-147 259,-147 259,-147 259,-256.56 259,-256.56"/>
<polygon fill="red" stroke="red" points="255.5,-256.56 259,-266.56 262.5,-256.56 255.5,-256.56"/>
</g>
</g>
</svg>
