<?xml version="1.0" encoding="UTF-8" standalone="no"?>
<!DOCTYPE svg PUBLIC "-//W3C//DTD SVG 1.1//EN"
 "http://www.w3.org/Graphics/SVG/1.1/DTD/svg11.dtd">
<!-- Generated by graphviz version 2.42.3 (20191010.1750)
 -->
<!-- Title: llama.files.coinc_significance.opa.CoincSignificanceI3Lvc Pages: 1 -->
<svg width="1015pt" height="357pt"
 viewBox="0.00 0.00 1015.00 356.50" xmlns="http://www.w3.org/2000/svg" xmlns:xlink="http://www.w3.org/1999/xlink">
<g id="graph0" class="graph" transform="scale(1 1) rotate(0) translate(4 352.5)">
<title>llama.files.coinc_significance.opa.CoincSignificanceI3Lvc</title>
<polygon fill="transparent" stroke="transparent" points="-4,4 -4,-352.5 1011,-352.5 1011,4 -4,4"/>
<!-- llama.files.coinc_significance.opa.CoincSignificanceI3Lvc -->
<g id="node1" class="node">
<title>llama.files.coinc_significance.opa.CoincSignificanceI3Lvc</title>
<g id="a_node1"><a xlink:href="/llama.files.coinc_significance.opa.html#llama.files.coinc_significance.opa.CoincSignificanceI3Lvc" xlink:title="{{&lt;B&gt;CoincSignificanceI3Lvc&lt;/B&gt;|&lt;I&gt;significance_lvc&#45;i3.json&lt;/I&gt;|JSONFile}}" target="_top">
<polygon fill="#cccccc" stroke="black" points="803,-181.5 803,-250.5 1007,-250.5 1007,-181.5 803,-181.5"/>
<text text-anchor="start" x="811" y="-236.3" font-family="Times,serif" font-weight="bold" font-size="14.00">CoincSignificanceI3Lvc</text>
<polyline fill="none" stroke="black" points="803,-227.5 1007,-227.5 "/>
<text text-anchor="start" x="821.5" y="-213.3" font-family="Times,serif" font-style="italic" font-size="14.00">significance_lvc&#45;i3.json</text>
<polyline fill="none" stroke="black" points="803,-204.5 1007,-204.5 "/>
<text text-anchor="start" x="871" y="-189.3" font-family="Times,serif" font-size="14.00">JSONFile</text>
</a>
</g>
</g>
<!-- llama.files.gracedb.LVCGraceDbEventData -->
<g id="node2" class="node">
<title>llama.files.gracedb.LVCGraceDbEventData</title>
<g id="a_node2"><a xlink:href="/llama.files.gracedb.html#llama.files.gracedb.LVCGraceDbEventData" xlink:title="{{&lt;B&gt;LVCGraceDbEventData&lt;/B&gt;|&lt;I&gt;lvc_gracedb_event_data.json&lt;/I&gt;|JSONFile&lt;BR/&gt;OnlineVetoMixin}}" target="_top">
<polygon fill="#cccccc" stroke="black" points="541.5,-264 541.5,-348 765.5,-348 765.5,-264 541.5,-264"/>
<text text-anchor="start" x="563" y="-333.8" font-family="Times,serif" font-weight="bold" font-size="14.00">LVCGraceDbEventData</text>
<polyline fill="none" stroke="black" points="541.5,-325 765.5,-325 "/>
<text text-anchor="start" x="549.5" y="-310.8" font-family="Times,serif" font-style="italic" font-size="14.00">lvc_gracedb_event_data.json</text>
<polyline fill="none" stroke="black" points="541.5,-302 765.5,-302 "/>
<text text-anchor="start" x="619.5" y="-286.8" font-family="Times,serif" font-size="14.00">JSONFile</text>
<text text-anchor="start" x="593.5" y="-271.8" font-family="Times,serif" font-size="14.00">OnlineVetoMixin</text>
</a>
</g>
</g>
<!-- llama.files.gracedb.LVCGraceDbEventData&#45;&gt;llama.files.coinc_significance.opa.CoincSignificanceI3Lvc -->
<g id="edge1" class="edge">
<title>llama.files.gracedb.LVCGraceDbEventData&#45;&gt;llama.files.coinc_significance.opa.CoincSignificanceI3Lvc</title>
<path fill="none" stroke="red" d="M764,-263.84C764,-251.46 764,-241.17 764,-241.17 764,-241.17 792.9,-241.17 792.9,-241.17"/>
<polygon fill="red" stroke="red" points="792.9,-244.67 802.9,-241.17 792.9,-237.67 792.9,-244.67"/>
</g>
<!-- llama.files.gracedb.PAstro -->
<g id="node3" class="node">
<title>llama.files.gracedb.PAstro</title>
<g id="a_node3"><a xlink:href="/llama.files.gracedb.html#llama.files.gracedb.PAstro" xlink:title="{{&lt;B&gt;PAstro&lt;/B&gt;|&lt;I&gt;p_astro.json&lt;/I&gt;|GraceDBPollingFileHandler&lt;BR/&gt;JSONFile}}" target="_top">
<polygon fill="#cccccc" stroke="black" points="270,-222 270,-306 485,-306 485,-222 270,-222"/>
<text text-anchor="start" x="350.5" y="-291.8" font-family="Times,serif" font-weight="bold" font-size="14.00">PAstro</text>
<polyline fill="none" stroke="black" points="270,-283 485,-283 "/>
<text text-anchor="start" x="333.5" y="-268.8" font-family="Times,serif" font-style="italic" font-size="14.00">p_astro.json</text>
<polyline fill="none" stroke="black" points="270,-260 485,-260 "/>
<text text-anchor="start" x="278" y="-244.8" font-family="Times,serif" font-size="14.00">GraceDBPollingFileHandler</text>
<text text-anchor="start" x="343.5" y="-229.8" font-family="Times,serif" font-size="14.00">JSONFile</text>
</a>
</g>
</g>
<!-- llama.files.gracedb.PAstro&#45;&gt;llama.files.coinc_significance.opa.CoincSignificanceI3Lvc -->
<g id="edge2" class="edge">
<title>llama.files.gracedb.PAstro&#45;&gt;llama.files.coinc_significance.opa.CoincSignificanceI3Lvc</title>
<path fill="none" stroke="red" d="M485.2,-231.33C485.2,-231.33 792.82,-231.33 792.82,-231.33"/>
<polygon fill="red" stroke="red" points="792.82,-234.83 802.82,-231.33 792.82,-227.83 792.82,-234.83"/>
</g>
<!-- llama.files.i3.json.IceCubeNeutrinoList -->
<g id="node4" class="node">
<title>llama.files.i3.json.IceCubeNeutrinoList</title>
<g id="a_node4"><a xlink:href="/llama.files.i3.json.html#llama.files.i3.json.IceCubeNeutrinoList" xlink:title="{{&lt;B&gt;IceCubeNeutrinoList&lt;/B&gt;|&lt;I&gt;icecube_neutrino_list.json&lt;/I&gt;|JSONFile&lt;BR/&gt;HEALPixPSF}}" target="_top">
<polygon fill="#cccccc" stroke="black" points="275.5,-119 275.5,-203 479.5,-203 479.5,-119 275.5,-119"/>
<text text-anchor="start" x="293.5" y="-188.8" font-family="Times,serif" font-weight="bold" font-size="14.00">IceCubeNeutrinoList</text>
<polyline fill="none" stroke="black" points="275.5,-180 479.5,-180 "/>
<text text-anchor="start" x="283.5" y="-165.8" font-family="Times,serif" font-style="italic" font-size="14.00">icecube_neutrino_list.json</text>
<polyline fill="none" stroke="black" points="275.5,-157 479.5,-157 "/>
<text text-anchor="start" x="343.5" y="-141.8" font-family="Times,serif" font-size="14.00">JSONFile</text>
<text text-anchor="start" x="329.5" y="-126.8" font-family="Times,serif" font-size="14.00">HEALPixPSF</text>
</a>
</g>
</g>
<!-- llama.files.i3.json.IceCubeNeutrinoList&#45;&gt;llama.files.coinc_significance.opa.CoincSignificanceI3Lvc -->
<g id="edge3" class="edge">
<title>llama.files.i3.json.IceCubeNeutrinoList&#45;&gt;llama.files.coinc_significance.opa.CoincSignificanceI3Lvc</title>
<path fill="none" stroke="red" d="M479.52,-197.88C479.52,-197.88 792.83,-197.88 792.83,-197.88"/>
<polygon fill="red" stroke="red" points="792.83,-201.38 802.83,-197.88 792.83,-194.38 792.83,-201.38"/>
</g>
<!-- llama.files.lvc_skymap.LvcDistancesJson -->
<g id="node5" class="node">
<title>llama.files.lvc_skymap.LvcDistancesJson</title>
<g id="a_node5"><a xlink:href="/llama.files.lvc_skymap.html#llama.files.lvc_skymap.LvcDistancesJson" xlink:title="{{&lt;B&gt;LvcDistancesJson&lt;/B&gt;|&lt;I&gt;lvc_skymap_distances.json&lt;/I&gt;|JSONFile}}" target="_top">
<polygon fill="#cccccc" stroke="black" points="548.5,-99.5 548.5,-168.5 758.5,-168.5 758.5,-99.5 548.5,-99.5"/>
<text text-anchor="start" x="583" y="-154.3" font-family="Times,serif" font-weight="bold" font-size="14.00">LvcDistancesJson</text>
<polyline fill="none" stroke="black" points="548.5,-145.5 758.5,-145.5 "/>
<text text-anchor="start" x="556.5" y="-131.3" font-family="Times,serif" font-style="italic" font-size="14.00">lvc_skymap_distances.json</text>
<polyline fill="none" stroke="black" points="548.5,-122.5 758.5,-122.5 "/>
<text text-anchor="start" x="619.5" y="-107.3" font-family="Times,serif" font-size="14.00">JSONFile</text>
</a>
</g>
</g>
<!-- llama.files.lvc_skymap.LvcDistancesJson&#45;&gt;llama.files.coinc_significance.opa.CoincSignificanceI3Lvc -->
<g id="edge4" class="edge">
<title>llama.files.lvc_skymap.LvcDistancesJson&#45;&gt;llama.files.coinc_significance.opa.CoincSignificanceI3Lvc</title>
<path fill="none" stroke="red" d="M654,-168.56C654,-181.1 654,-192.25 654,-192.25 654,-192.25 792.91,-192.25 792.91,-192.25"/>
<polygon fill="red" stroke="red" points="792.91,-195.75 802.91,-192.25 792.91,-188.75 792.91,-195.75"/>
</g>
<!-- llama.files.lvc_skymap.LvcSkymapFits -->
<g id="node6" class="node">
<title>llama.files.lvc_skymap.LvcSkymapFits</title>
<g id="a_node6"><a xlink:href="/llama.files.lvc_skymap.html#llama.files.lvc_skymap.LvcSkymapFits" xlink:title="{{&lt;B&gt;LvcSkymapFits&lt;/B&gt;|&lt;I&gt;lvc_skymap.fits.gz&lt;/I&gt;|GenerateOnceMixin&lt;BR/&gt;LvcHEALPixSkyMapFileHandler&lt;BR/&gt;OnlineVetoMixin}}" target="_top">
<polygon fill="#cccccc" stroke="black" points="251,-0.5 251,-99.5 504,-99.5 504,-0.5 251,-0.5"/>
<text text-anchor="start" x="317.5" y="-85.3" font-family="Times,serif" font-weight="bold" font-size="14.00">LvcSkymapFits</text>
<polyline fill="none" stroke="black" points="251,-76.5 504,-76.5 "/>
<text text-anchor="start" x="311" y="-62.3" font-family="Times,serif" font-style="italic" font-size="14.00">lvc_skymap.fits.gz</text>
<polyline fill="none" stroke="black" points="251,-53.5 504,-53.5 "/>
<text text-anchor="start" x="305" y="-38.3" font-family="Times,serif" font-size="14.00">GenerateOnceMixin</text>
<text text-anchor="start" x="259" y="-23.3" font-family="Times,serif" font-size="14.00">LvcHEALPixSkyMapFileHandler</text>
<text text-anchor="start" x="317.5" y="-8.3" font-family="Times,serif" font-size="14.00">OnlineVetoMixin</text>
</a>
</g>
</g>
<!-- llama.files.lvc_skymap.LvcSkymapFits&#45;&gt;llama.files.lvc_skymap.LvcDistancesJson -->
<g id="edge5" class="edge">
<title>llama.files.lvc_skymap.LvcSkymapFits&#45;&gt;llama.files.lvc_skymap.LvcDistancesJson</title>
<path fill="none" stroke="red" d="M495,-99.73C495,-105.43 495,-109.25 495,-109.25 495,-109.25 538.22,-109.25 538.22,-109.25"/>
<polygon fill="red" stroke="red" points="538.22,-112.75 548.22,-109.25 538.22,-105.75 538.22,-112.75"/>
</g>
<!-- llama.files.lvc_skymap.LvcSkymapHdf5 -->
<g id="node7" class="node">
<title>llama.files.lvc_skymap.LvcSkymapHdf5</title>
<g id="a_node7"><a xlink:href="/llama.files.lvc_skymap.html#llama.files.lvc_skymap.LvcSkymapHdf5" xlink:title="{{&lt;B&gt;LvcSkymapHdf5&lt;/B&gt;|&lt;I&gt;lvc_skymap.hdf5&lt;/I&gt;|HEALPixSkyMapFileHandler}}" target="_top">
<polygon fill="#cccccc" stroke="black" points="540,-11.5 540,-80.5 767,-80.5 767,-11.5 540,-11.5"/>
<text text-anchor="start" x="589" y="-66.3" font-family="Times,serif" font-weight="bold" font-size="14.00">LvcSkymapHdf5</text>
<polyline fill="none" stroke="black" points="540,-57.5 767,-57.5 "/>
<text text-anchor="start" x="593" y="-43.3" font-family="Times,serif" font-style="italic" font-size="14.00">lvc_skymap.hdf5</text>
<polyline fill="none" stroke="black" points="540,-34.5 767,-34.5 "/>
<text text-anchor="start" x="548" y="-19.3" font-family="Times,serif" font-size="14.00">HEALPixSkyMapFileHandler</text>
</a>
</g>
</g>
<!-- llama.files.lvc_skymap.LvcSkymapFits&#45;&gt;llama.files.lvc_skymap.LvcSkymapHdf5 -->
<g id="edge6" class="edge">
<title>llama.files.lvc_skymap.LvcSkymapFits&#45;&gt;llama.files.lvc_skymap.LvcSkymapHdf5</title>
<path fill="none" stroke="red" d="M504.19,-46C504.19,-46 529.88,-46 529.88,-46"/>
<polygon fill="red" stroke="red" points="529.88,-49.5 539.88,-46 529.88,-42.5 529.88,-49.5"/>
</g>
<!-- llama.files.lvc_skymap.LvcSkymapHdf5&#45;&gt;llama.files.coinc_significance.opa.CoincSignificanceI3Lvc -->
<g id="edge7" class="edge">
<title>llama.files.lvc_skymap.LvcSkymapHdf5&#45;&gt;llama.files.coinc_significance.opa.CoincSignificanceI3Lvc</title>
<path fill="none" stroke="red" d="M761,-80.76C761,-122.4 761,-186.62 761,-186.62 761,-186.62 792.65,-186.62 792.65,-186.62"/>
<polygon fill="red" stroke="red" points="792.65,-190.13 802.65,-186.62 792.65,-183.13 792.65,-190.13"/>
</g>
<!-- llama.files.skymap_info.SkymapInfo -->
<g id="node8" class="node">
<title>llama.files.skymap_info.SkymapInfo</title>
<g id="a_node8"><a xlink:href="/llama.files.skymap_info.html#llama.files.skymap_info.SkymapInfo" xlink:title="{{&lt;B&gt;SkymapInfo&lt;/B&gt;|&lt;I&gt;skymap_info.json&lt;/I&gt;|EventTriggeredFileHandler&lt;BR/&gt;JSONFile}}" target="_top">
<polygon fill="#cccccc" stroke="black" points="0,-222 0,-306 215,-306 215,-222 0,-222"/>
<text text-anchor="start" x="59.5" y="-291.8" font-family="Times,serif" font-weight="bold" font-size="14.00">SkymapInfo</text>
<polyline fill="none" stroke="black" points="0,-283 215,-283 "/>
<text text-anchor="start" x="45.5" y="-268.8" font-family="Times,serif" font-style="italic" font-size="14.00">skymap_info.json</text>
<polyline fill="none" stroke="black" points="0,-260 215,-260 "/>
<text text-anchor="start" x="8" y="-244.8" font-family="Times,serif" font-size="14.00">EventTriggeredFileHandler</text>
<text text-anchor="start" x="73.5" y="-229.8" font-family="Times,serif" font-size="14.00">JSONFile</text>
</a>
</g>
</g>
<!-- llama.files.skymap_info.SkymapInfo&#45;&gt;llama.files.coinc_significance.opa.CoincSignificanceI3Lvc -->
<g id="edge8" class="edge">
<title>llama.files.skymap_info.SkymapInfo&#45;&gt;llama.files.coinc_significance.opa.CoincSignificanceI3Lvc</title>
<path fill="none" stroke="red" d="M72,-221.95C72,-216.35 72,-212.5 72,-212.5 72,-212.5 792.86,-212.5 792.86,-212.5"/>
<polygon fill="red" stroke="red" points="792.86,-216 802.86,-212.5 792.86,-209 792.86,-216"/>
</g>
<!-- llama.files.skymap_info.SkymapInfo&#45;&gt;llama.files.gracedb.LVCGraceDbEventData -->
<g id="edge9" class="edge">
<title>llama.files.skymap_info.SkymapInfo&#45;&gt;llama.files.gracedb.LVCGraceDbEventData</title>
<path fill="none" stroke="red" d="M108,-306C108,-317.81 108,-327.5 108,-327.5 108,-327.5 531.46,-327.5 531.46,-327.5"/>
<polygon fill="red" stroke="red" points="531.46,-331 541.46,-327.5 531.46,-324 531.46,-331"/>
</g>
<!-- llama.files.skymap_info.SkymapInfo&#45;&gt;llama.files.gracedb.PAstro -->
<g id="edge10" class="edge">
<title>llama.files.skymap_info.SkymapInfo&#45;&gt;llama.files.gracedb.PAstro</title>
<path fill="none" stroke="red" d="M215.38,-278.17C215.38,-278.17 259.8,-278.17 259.8,-278.17"/>
<polygon fill="red" stroke="red" points="259.8,-281.67 269.8,-278.17 259.8,-274.67 259.8,-281.67"/>
</g>
<!-- llama.files.skymap_info.SkymapInfo&#45;&gt;llama.files.i3.json.IceCubeNeutrinoList -->
<g id="edge11" class="edge">
<title>llama.files.skymap_info.SkymapInfo&#45;&gt;llama.files.i3.json.IceCubeNeutrinoList</title>
<path fill="none" stroke="red" d="M144,-221.81C144,-193.36 144,-161 144,-161 144,-161 265.42,-161 265.42,-161"/>
<polygon fill="red" stroke="red" points="265.42,-164.5 275.42,-161 265.42,-157.5 265.42,-164.5"/>
</g>
<!-- llama.files.skymap_info.SkymapInfo&#45;&gt;llama.files.lvc_skymap.LvcSkymapFits -->
<g id="edge12" class="edge">
<title>llama.files.skymap_info.SkymapInfo&#45;&gt;llama.files.lvc_skymap.LvcSkymapFits</title>
<path fill="none" stroke="red" d="M215.36,-249.83C240.96,-249.83 261,-249.83 261,-249.83 261,-249.83 261,-109.65 261,-109.65"/>
<polygon fill="red" stroke="red" points="264.5,-109.65 261,-99.65 257.5,-109.65 264.5,-109.65"/>
</g>
</g>
</svg>
