<?xml version="1.0" encoding="UTF-8" standalone="no"?>
<!DOCTYPE svg PUBLIC "-//W3C//DTD SVG 1.1//EN"
 "http://www.w3.org/Graphics/SVG/1.1/DTD/svg11.dtd">
<!-- Generated by graphviz version 2.42.3 (20191010.1750)
 -->
<!-- Title: llama.test.test_filehandler.MockFh5 Pages: 1 -->
<svg width="697pt" height="173pt"
 viewBox="0.00 0.00 697.00 173.00" xmlns="http://www.w3.org/2000/svg" xmlns:xlink="http://www.w3.org/1999/xlink">
<g id="graph0" class="graph" transform="scale(1 1) rotate(0) translate(4 169)">
<title>llama.test.test_filehandler.MockFh5</title>
<polygon fill="transparent" stroke="transparent" points="-4,4 -4,-169 693,-169 693,4 -4,4"/>
<!-- llama.test.test_filehandler.MockFh1 -->
<g id="node1" class="node">
<title>llama.test.test_filehandler.MockFh1</title>
<g id="a_node1"><a xlink:href="/llama.test.test_filehandler.html#llama.test.test_filehandler.MockFh1" xlink:title="{{&lt;B&gt;MockFh1&lt;/B&gt;|&lt;I&gt;MockFh1.txt&lt;/I&gt;|FileHandler}}" target="_top">
<polygon fill="#cccccc" stroke="black" points="0,-32.5 0,-101.5 109,-101.5 109,-32.5 0,-32.5"/>
<text text-anchor="start" x="17" y="-87.3" font-family="Times,serif" font-weight="bold" font-size="14.00">MockFh1</text>
<polyline fill="none" stroke="black" points="0,-78.5 109,-78.5 "/>
<text text-anchor="start" x="8" y="-64.3" font-family="Times,serif" font-style="italic" font-size="14.00">MockFh1.txt</text>
<polyline fill="none" stroke="black" points="0,-55.5 109,-55.5 "/>
<text text-anchor="start" x="11.5" y="-40.3" font-family="Times,serif" font-size="14.00">FileHandler</text>
</a>
</g>
</g>
<!-- llama.test.test_filehandler.MockFh2 -->
<g id="node2" class="node">
<title>llama.test.test_filehandler.MockFh2</title>
<g id="a_node2"><a xlink:href="/llama.test.test_filehandler.html#llama.test.test_filehandler.MockFh2" xlink:title="{{&lt;B&gt;MockFh2&lt;/B&gt;|&lt;I&gt;MockFh2.txt&lt;/I&gt;|FileHandler}}" target="_top">
<polygon fill="#cccccc" stroke="black" points="145,-32.5 145,-101.5 254,-101.5 254,-32.5 145,-32.5"/>
<text text-anchor="start" x="162" y="-87.3" font-family="Times,serif" font-weight="bold" font-size="14.00">MockFh2</text>
<polyline fill="none" stroke="black" points="145,-78.5 254,-78.5 "/>
<text text-anchor="start" x="153" y="-64.3" font-family="Times,serif" font-style="italic" font-size="14.00">MockFh2.txt</text>
<polyline fill="none" stroke="black" points="145,-55.5 254,-55.5 "/>
<text text-anchor="start" x="156.5" y="-40.3" font-family="Times,serif" font-size="14.00">FileHandler</text>
</a>
</g>
</g>
<!-- llama.test.test_filehandler.MockFh1&#45;&gt;llama.test.test_filehandler.MockFh2 -->
<g id="edge1" class="edge">
<title>llama.test.test_filehandler.MockFh1&#45;&gt;llama.test.test_filehandler.MockFh2</title>
<path fill="none" stroke="red" d="M109.32,-67C109.32,-67 134.6,-67 134.6,-67"/>
<polygon fill="red" stroke="red" points="134.6,-70.5 144.6,-67 134.6,-63.5 134.6,-70.5"/>
</g>
<!-- llama.test.test_filehandler.MockFh3 -->
<g id="node3" class="node">
<title>llama.test.test_filehandler.MockFh3</title>
<g id="a_node3"><a xlink:href="/llama.test.test_filehandler.html#llama.test.test_filehandler.MockFh3" xlink:title="{{&lt;B&gt;MockFh3&lt;/B&gt;|&lt;I&gt;MockFh3.txt&lt;/I&gt;|FileHandler}}" target="_top">
<polygon fill="#cccccc" stroke="black" points="290,-95.5 290,-164.5 399,-164.5 399,-95.5 290,-95.5"/>
<text text-anchor="start" x="307" y="-150.3" font-family="Times,serif" font-weight="bold" font-size="14.00">MockFh3</text>
<polyline fill="none" stroke="black" points="290,-141.5 399,-141.5 "/>
<text text-anchor="start" x="298" y="-127.3" font-family="Times,serif" font-style="italic" font-size="14.00">MockFh3.txt</text>
<polyline fill="none" stroke="black" points="290,-118.5 399,-118.5 "/>
<text text-anchor="start" x="301.5" y="-103.3" font-family="Times,serif" font-size="14.00">FileHandler</text>
</a>
</g>
</g>
<!-- llama.test.test_filehandler.MockFh1&#45;&gt;llama.test.test_filehandler.MockFh3 -->
<g id="edge2" class="edge">
<title>llama.test.test_filehandler.MockFh1&#45;&gt;llama.test.test_filehandler.MockFh3</title>
<path fill="none" stroke="red" d="M55,-101.9C55,-122.27 55,-144 55,-144 55,-144 279.71,-144 279.71,-144"/>
<polygon fill="red" stroke="red" points="279.71,-147.5 289.71,-144 279.71,-140.5 279.71,-147.5"/>
</g>
<!-- llama.test.test_filehandler.MockFh5 -->
<g id="node5" class="node">
<title>llama.test.test_filehandler.MockFh5</title>
<g id="a_node5"><a xlink:href="/llama.test.test_filehandler.html#llama.test.test_filehandler.MockFh5" xlink:title="{{&lt;B&gt;MockFh5&lt;/B&gt;|&lt;I&gt;MockFh5.txt&lt;/I&gt;|FileHandler}}" target="_top">
<polygon fill="#cccccc" stroke="black" points="580,-0.5 580,-69.5 689,-69.5 689,-0.5 580,-0.5"/>
<text text-anchor="start" x="597" y="-55.3" font-family="Times,serif" font-weight="bold" font-size="14.00">MockFh5</text>
<polyline fill="none" stroke="black" points="580,-46.5 689,-46.5 "/>
<text text-anchor="start" x="588" y="-32.3" font-family="Times,serif" font-style="italic" font-size="14.00">MockFh5.txt</text>
<polyline fill="none" stroke="black" points="580,-23.5 689,-23.5 "/>
<text text-anchor="start" x="591.5" y="-8.3" font-family="Times,serif" font-size="14.00">FileHandler</text>
</a>
</g>
</g>
<!-- llama.test.test_filehandler.MockFh1&#45;&gt;llama.test.test_filehandler.MockFh5 -->
<g id="edge3" class="edge">
<title>llama.test.test_filehandler.MockFh1&#45;&gt;llama.test.test_filehandler.MockFh5</title>
<path fill="none" stroke="red" d="M55,-32.42C55,-23.32 55,-16 55,-16 55,-16 569.98,-16 569.98,-16"/>
<polygon fill="red" stroke="red" points="569.98,-19.5 579.98,-16 569.98,-12.5 569.98,-19.5"/>
</g>
<!-- llama.test.test_filehandler.MockFh2&#45;&gt;llama.test.test_filehandler.MockFh3 -->
<g id="edge4" class="edge">
<title>llama.test.test_filehandler.MockFh2&#45;&gt;llama.test.test_filehandler.MockFh3</title>
<path fill="none" stroke="red" d="M200,-101.51C200,-113.03 200,-123 200,-123 200,-123 279.87,-123 279.87,-123"/>
<polygon fill="red" stroke="red" points="279.87,-126.5 289.87,-123 279.87,-119.5 279.87,-126.5"/>
</g>
<!-- llama.test.test_filehandler.MockFh4 -->
<g id="node4" class="node">
<title>llama.test.test_filehandler.MockFh4</title>
<g id="a_node4"><a xlink:href="/llama.test.test_filehandler.html#llama.test.test_filehandler.MockFh4" xlink:title="{{&lt;B&gt;MockFh4&lt;/B&gt;|&lt;I&gt;MockFh4.txt&lt;/I&gt;|FileHandler}}" target="_top">
<polygon fill="#cccccc" stroke="black" points="435,-32.5 435,-101.5 544,-101.5 544,-32.5 435,-32.5"/>
<text text-anchor="start" x="452" y="-87.3" font-family="Times,serif" font-weight="bold" font-size="14.00">MockFh4</text>
<polyline fill="none" stroke="black" points="435,-78.5 544,-78.5 "/>
<text text-anchor="start" x="443" y="-64.3" font-family="Times,serif" font-style="italic" font-size="14.00">MockFh4.txt</text>
<polyline fill="none" stroke="black" points="435,-55.5 544,-55.5 "/>
<text text-anchor="start" x="446.5" y="-40.3" font-family="Times,serif" font-size="14.00">FileHandler</text>
</a>
</g>
</g>
<!-- llama.test.test_filehandler.MockFh2&#45;&gt;llama.test.test_filehandler.MockFh4 -->
<g id="edge5" class="edge">
<title>llama.test.test_filehandler.MockFh2&#45;&gt;llama.test.test_filehandler.MockFh4</title>
<path fill="none" stroke="red" d="M254.05,-53C254.05,-53 424.71,-53 424.71,-53"/>
<polygon fill="red" stroke="red" points="424.71,-56.5 434.71,-53 424.71,-49.5 424.71,-56.5"/>
</g>
<!-- llama.test.test_filehandler.MockFh3&#45;&gt;llama.test.test_filehandler.MockFh4 -->
<g id="edge6" class="edge">
<title>llama.test.test_filehandler.MockFh3&#45;&gt;llama.test.test_filehandler.MockFh4</title>
<path fill="none" stroke="red" d="M345,-95.49C345,-83.97 345,-74 345,-74 345,-74 424.87,-74 424.87,-74"/>
<polygon fill="red" stroke="red" points="424.87,-77.5 434.87,-74 424.87,-70.5 424.87,-77.5"/>
</g>
<!-- llama.test.test_filehandler.MockFh4&#45;&gt;llama.test.test_filehandler.MockFh5 -->
<g id="edge7" class="edge">
<title>llama.test.test_filehandler.MockFh4&#45;&gt;llama.test.test_filehandler.MockFh5</title>
<path fill="none" stroke="red" d="M544.32,-51C544.32,-51 569.6,-51 569.6,-51"/>
<polygon fill="red" stroke="red" points="569.6,-54.5 579.6,-51 569.6,-47.5 569.6,-54.5"/>
</g>
</g>
</svg>
