<?xml version="1.0" encoding="UTF-8" standalone="no"?>
<!DOCTYPE svg PUBLIC "-//W3C//DTD SVG 1.1//EN"
 "http://www.w3.org/Graphics/SVG/1.1/DTD/svg11.dtd">
<!-- Generated by graphviz version 2.42.3 (20191010.1750)
 -->
<!-- Title: llama.files.i3.txt.IceCubeNeutrinoListTxt Pages: 1 -->
<svg width="708pt" height="129pt"
 viewBox="0.00 0.00 708.00 129.00" xmlns="http://www.w3.org/2000/svg" xmlns:xlink="http://www.w3.org/1999/xlink">
<g id="graph0" class="graph" transform="scale(1 1) rotate(0) translate(4 125)">
<title>llama.files.i3.txt.IceCubeNeutrinoListTxt</title>
<polygon fill="transparent" stroke="transparent" points="-4,4 -4,-125 704,-125 704,4 -4,4"/>
<!-- llama.files.i3.json.IceCubeNeutrinoList -->
<g id="node1" class="node">
<title>llama.files.i3.json.IceCubeNeutrinoList</title>
<g id="a_node1"><a xlink:href="/llama.files.i3.json.html#llama.files.i3.json.IceCubeNeutrinoList" xlink:title="{{&lt;B&gt;IceCubeNeutrinoList&lt;/B&gt;|&lt;I&gt;icecube_neutrino_list.json&lt;/I&gt;|JSONFile&lt;BR/&gt;HEALPixPSF}}" target="_top">
<polygon fill="#cccccc" stroke="black" points="251,-36.5 251,-120.5 455,-120.5 455,-36.5 251,-36.5"/>
<text text-anchor="start" x="269" y="-106.3" font-family="Times,serif" font-weight="bold" font-size="14.00">IceCubeNeutrinoList</text>
<polyline fill="none" stroke="black" points="251,-97.5 455,-97.5 "/>
<text text-anchor="start" x="259" y="-83.3" font-family="Times,serif" font-style="italic" font-size="14.00">icecube_neutrino_list.json</text>
<polyline fill="none" stroke="black" points="251,-74.5 455,-74.5 "/>
<text text-anchor="start" x="319" y="-59.3" font-family="Times,serif" font-size="14.00">JSONFile</text>
<text text-anchor="start" x="305" y="-44.3" font-family="Times,serif" font-size="14.00">HEALPixPSF</text>
</a>
</g>
</g>
<!-- llama.files.i3.txt.IceCubeNeutrinoListTxt -->
<g id="node2" class="node">
<title>llama.files.i3.txt.IceCubeNeutrinoListTxt</title>
<g id="a_node2"><a xlink:href="/llama.files.i3.txt.html#llama.files.i3.txt.IceCubeNeutrinoListTxt" xlink:title="{{&lt;B&gt;IceCubeNeutrinoListTxt&lt;/B&gt;|&lt;I&gt;icecube_neutrino_list.txt&lt;/I&gt;|FileHandler}}" target="_top">
<polygon fill="#cccccc" stroke="black" points="491,-8 491,-77 700,-77 700,-8 491,-8"/>
<text text-anchor="start" x="499" y="-62.8" font-family="Times,serif" font-weight="bold" font-size="14.00">IceCubeNeutrinoListTxt</text>
<polyline fill="none" stroke="black" points="491,-54 700,-54 "/>
<text text-anchor="start" x="506" y="-39.8" font-family="Times,serif" font-style="italic" font-size="14.00">icecube_neutrino_list.txt</text>
<polyline fill="none" stroke="black" points="491,-31 700,-31 "/>
<text text-anchor="start" x="552.5" y="-15.8" font-family="Times,serif" font-size="14.00">FileHandler</text>
</a>
</g>
</g>
<!-- llama.files.i3.json.IceCubeNeutrinoList&#45;&gt;llama.files.i3.txt.IceCubeNeutrinoListTxt -->
<g id="edge1" class="edge">
<title>llama.files.i3.json.IceCubeNeutrinoList&#45;&gt;llama.files.i3.txt.IceCubeNeutrinoListTxt</title>
<path fill="none" stroke="red" d="M455.14,-56.75C455.14,-56.75 480.76,-56.75 480.76,-56.75"/>
<polygon fill="red" stroke="red" points="480.76,-60.25 490.76,-56.75 480.76,-53.25 480.76,-60.25"/>
</g>
<!-- llama.files.skymap_info.SkymapInfo -->
<g id="node3" class="node">
<title>llama.files.skymap_info.SkymapInfo</title>
<g id="a_node3"><a xlink:href="/llama.files.skymap_info.html#llama.files.skymap_info.SkymapInfo" xlink:title="{{&lt;B&gt;SkymapInfo&lt;/B&gt;|&lt;I&gt;skymap_info.json&lt;/I&gt;|EventTriggeredFileHandler&lt;BR/&gt;JSONFile}}" target="_top">
<polygon fill="#cccccc" stroke="black" points="0,-0.5 0,-84.5 215,-84.5 215,-0.5 0,-0.5"/>
<text text-anchor="start" x="59.5" y="-70.3" font-family="Times,serif" font-weight="bold" font-size="14.00">SkymapInfo</text>
<polyline fill="none" stroke="black" points="0,-61.5 215,-61.5 "/>
<text text-anchor="start" x="45.5" y="-47.3" font-family="Times,serif" font-style="italic" font-size="14.00">skymap_info.json</text>
<polyline fill="none" stroke="black" points="0,-38.5 215,-38.5 "/>
<text text-anchor="start" x="8" y="-23.3" font-family="Times,serif" font-size="14.00">EventTriggeredFileHandler</text>
<text text-anchor="start" x="73.5" y="-8.3" font-family="Times,serif" font-size="14.00">JSONFile</text>
</a>
</g>
</g>
<!-- llama.files.skymap_info.SkymapInfo&#45;&gt;llama.files.i3.json.IceCubeNeutrinoList -->
<g id="edge2" class="edge">
<title>llama.files.skymap_info.SkymapInfo&#45;&gt;llama.files.i3.json.IceCubeNeutrinoList</title>
<path fill="none" stroke="red" d="M215.18,-60.5C215.18,-60.5 240.86,-60.5 240.86,-60.5"/>
<polygon fill="red" stroke="red" points="240.86,-64 250.86,-60.5 240.86,-57 240.86,-64"/>
</g>
<!-- llama.files.skymap_info.SkymapInfo&#45;&gt;llama.files.i3.txt.IceCubeNeutrinoListTxt -->
<g id="edge3" class="edge">
<title>llama.files.skymap_info.SkymapInfo&#45;&gt;llama.files.i3.txt.IceCubeNeutrinoListTxt</title>
<path fill="none" stroke="red" d="M215.2,-21.75C215.2,-21.75 480.59,-21.75 480.59,-21.75"/>
<polygon fill="red" stroke="red" points="480.59,-25.25 490.59,-21.75 480.59,-18.25 480.59,-25.25"/>
</g>
</g>
</svg>
