<?xml version="1.0" encoding="UTF-8" standalone="no"?>
<!DOCTYPE svg PUBLIC "-//W3C//DTD SVG 1.1//EN"
 "http://www.w3.org/Graphics/SVG/1.1/DTD/svg11.dtd">
<!-- Generated by graphviz version 2.42.3 (20191010.1750)
 -->
<!-- Title: llama.files.coinc_significance.subthreshold.CoincSignificanceSubthresholdI3Lvc Pages: 1 -->
<svg width="1123pt" height="448pt"
 viewBox="0.00 0.00 1123.00 448.00" xmlns="http://www.w3.org/2000/svg" xmlns:xlink="http://www.w3.org/1999/xlink">
<g id="graph0" class="graph" transform="scale(1 1) rotate(0) translate(4 444)">
<title>llama.files.coinc_significance.subthreshold.CoincSignificanceSubthresholdI3Lvc</title>
<polygon fill="transparent" stroke="transparent" points="-4,4 -4,-444 1119,-444 1119,4 -4,4"/>
<!-- llama.files.coinc_significance.subthreshold.CoincSignificanceSubthresholdI3Lvc -->
<g id="node1" class="node">
<title>llama.files.coinc_significance.subthreshold.CoincSignificanceSubthresholdI3Lvc</title>
<g id="a_node1"><a xlink:href="/llama.files.coinc_significance.subthreshold.html#llama.files.coinc_significance.subthreshold.CoincSignificanceSubthresholdI3Lvc" xlink:title="{{&lt;B&gt;CoincSignificanceSubthresholdI3Lvc&lt;/B&gt;|&lt;I&gt;significance_subthresh_lvc&#45;i3.json&lt;/I&gt;|JSONFile}}" target="_top">
<polygon fill="#cccccc" stroke="black" points="803,-254 803,-323 1115,-323 1115,-254 803,-254"/>
<text text-anchor="start" x="811" y="-308.8" font-family="Times,serif" font-weight="bold" font-size="14.00">CoincSignificanceSubthresholdI3Lvc</text>
<polyline fill="none" stroke="black" points="803,-300 1115,-300 "/>
<text text-anchor="start" x="835.5" y="-285.8" font-family="Times,serif" font-style="italic" font-size="14.00">significance_subthresh_lvc&#45;i3.json</text>
<polyline fill="none" stroke="black" points="803,-277 1115,-277 "/>
<text text-anchor="start" x="925" y="-261.8" font-family="Times,serif" font-size="14.00">JSONFile</text>
</a>
</g>
</g>
<!-- llama.files.gracedb.LVCGraceDbEventData -->
<g id="node2" class="node">
<title>llama.files.gracedb.LVCGraceDbEventData</title>
<g id="a_node2"><a xlink:href="/llama.files.gracedb.html#llama.files.gracedb.LVCGraceDbEventData" xlink:title="{{&lt;B&gt;LVCGraceDbEventData&lt;/B&gt;|&lt;I&gt;lvc_gracedb_event_data.json&lt;/I&gt;|JSONFile&lt;BR/&gt;OnlineVetoMixin}}" target="_top">
<polygon fill="#cccccc" stroke="black" points="541.5,-355.5 541.5,-439.5 765.5,-439.5 765.5,-355.5 541.5,-355.5"/>
<text text-anchor="start" x="563" y="-425.3" font-family="Times,serif" font-weight="bold" font-size="14.00">LVCGraceDbEventData</text>
<polyline fill="none" stroke="black" points="541.5,-416.5 765.5,-416.5 "/>
<text text-anchor="start" x="549.5" y="-402.3" font-family="Times,serif" font-style="italic" font-size="14.00">lvc_gracedb_event_data.json</text>
<polyline fill="none" stroke="black" points="541.5,-393.5 765.5,-393.5 "/>
<text text-anchor="start" x="619.5" y="-378.3" font-family="Times,serif" font-size="14.00">JSONFile</text>
<text text-anchor="start" x="593.5" y="-363.3" font-family="Times,serif" font-size="14.00">OnlineVetoMixin</text>
</a>
</g>
</g>
<!-- llama.files.gracedb.LVCGraceDbEventData&#45;&gt;llama.files.coinc_significance.subthreshold.CoincSignificanceSubthresholdI3Lvc -->
<g id="edge1" class="edge">
<title>llama.files.gracedb.LVCGraceDbEventData&#45;&gt;llama.files.coinc_significance.subthreshold.CoincSignificanceSubthresholdI3Lvc</title>
<path fill="none" stroke="red" d="M764,-355.12C764,-337.03 764,-320 764,-320 764,-320 792.99,-320 792.99,-320"/>
<polygon fill="red" stroke="red" points="792.99,-323.5 802.99,-320 792.99,-316.5 792.99,-323.5"/>
</g>
<!-- llama.files.gracedb.PAstro -->
<g id="node3" class="node">
<title>llama.files.gracedb.PAstro</title>
<g id="a_node3"><a xlink:href="/llama.files.gracedb.html#llama.files.gracedb.PAstro" xlink:title="{{&lt;B&gt;PAstro&lt;/B&gt;|&lt;I&gt;p_astro.json&lt;/I&gt;|GraceDBPollingFileHandler&lt;BR/&gt;JSONFile}}" target="_top">
<polygon fill="#cccccc" stroke="black" points="270,-313.5 270,-397.5 485,-397.5 485,-313.5 270,-313.5"/>
<text text-anchor="start" x="350.5" y="-383.3" font-family="Times,serif" font-weight="bold" font-size="14.00">PAstro</text>
<polyline fill="none" stroke="black" points="270,-374.5 485,-374.5 "/>
<text text-anchor="start" x="333.5" y="-360.3" font-family="Times,serif" font-style="italic" font-size="14.00">p_astro.json</text>
<polyline fill="none" stroke="black" points="270,-351.5 485,-351.5 "/>
<text text-anchor="start" x="278" y="-336.3" font-family="Times,serif" font-size="14.00">GraceDBPollingFileHandler</text>
<text text-anchor="start" x="343.5" y="-321.3" font-family="Times,serif" font-size="14.00">JSONFile</text>
</a>
</g>
</g>
<!-- llama.files.gracedb.PAstro&#45;&gt;llama.files.coinc_significance.subthreshold.CoincSignificanceSubthresholdI3Lvc -->
<g id="edge2" class="edge">
<title>llama.files.gracedb.PAstro&#45;&gt;llama.files.coinc_significance.subthreshold.CoincSignificanceSubthresholdI3Lvc</title>
<path fill="none" stroke="red" d="M485.17,-316.5C485.17,-316.5 792.86,-316.5 792.86,-316.5"/>
<polygon fill="red" stroke="red" points="792.86,-320 802.86,-316.5 792.86,-313 792.86,-320"/>
</g>
<!-- llama.files.i3.json.IceCubeNeutrinoList -->
<g id="node4" class="node">
<title>llama.files.i3.json.IceCubeNeutrinoList</title>
<g id="a_node4"><a xlink:href="/llama.files.i3.json.html#llama.files.i3.json.IceCubeNeutrinoList" xlink:title="{{&lt;B&gt;IceCubeNeutrinoList&lt;/B&gt;|&lt;I&gt;icecube_neutrino_list.json&lt;/I&gt;|JSONFile&lt;BR/&gt;HEALPixPSF}}" target="_top">
<polygon fill="#cccccc" stroke="black" points="275.5,-210.5 275.5,-294.5 479.5,-294.5 479.5,-210.5 275.5,-210.5"/>
<text text-anchor="start" x="293.5" y="-280.3" font-family="Times,serif" font-weight="bold" font-size="14.00">IceCubeNeutrinoList</text>
<polyline fill="none" stroke="black" points="275.5,-271.5 479.5,-271.5 "/>
<text text-anchor="start" x="283.5" y="-257.3" font-family="Times,serif" font-style="italic" font-size="14.00">icecube_neutrino_list.json</text>
<polyline fill="none" stroke="black" points="275.5,-248.5 479.5,-248.5 "/>
<text text-anchor="start" x="343.5" y="-233.3" font-family="Times,serif" font-size="14.00">JSONFile</text>
<text text-anchor="start" x="329.5" y="-218.3" font-family="Times,serif" font-size="14.00">HEALPixPSF</text>
</a>
</g>
</g>
<!-- llama.files.i3.json.IceCubeNeutrinoList&#45;&gt;llama.files.coinc_significance.subthreshold.CoincSignificanceSubthresholdI3Lvc -->
<g id="edge3" class="edge">
<title>llama.files.i3.json.IceCubeNeutrinoList&#45;&gt;llama.files.coinc_significance.subthreshold.CoincSignificanceSubthresholdI3Lvc</title>
<path fill="none" stroke="red" d="M479.79,-277.75C479.79,-277.75 792.79,-277.75 792.79,-277.75"/>
<polygon fill="red" stroke="red" points="792.79,-281.25 802.79,-277.75 792.79,-274.25 792.79,-281.25"/>
</g>
<!-- llama.files.lvalert_json.LVAlertJSON -->
<g id="node5" class="node">
<title>llama.files.lvalert_json.LVAlertJSON</title>
<g id="a_node5"><a xlink:href="/llama.files.lvalert_json.html#llama.files.lvalert_json.LVAlertJSON" xlink:title="{{&lt;B&gt;LVAlertJSON&lt;/B&gt;|&lt;I&gt;lvalert.json&lt;/I&gt;|EventTriggeredFileHandler&lt;BR/&gt;JSONFile}}" target="_top">
<polygon fill="#cccccc" stroke="black" points="546,-0.5 546,-84.5 761,-84.5 761,-0.5 546,-0.5"/>
<text text-anchor="start" x="602.5" y="-70.3" font-family="Times,serif" font-weight="bold" font-size="14.00">LVAlertJSON</text>
<polyline fill="none" stroke="black" points="546,-61.5 761,-61.5 "/>
<text text-anchor="start" x="613" y="-47.3" font-family="Times,serif" font-style="italic" font-size="14.00">lvalert.json</text>
<polyline fill="none" stroke="black" points="546,-38.5 761,-38.5 "/>
<text text-anchor="start" x="554" y="-23.3" font-family="Times,serif" font-size="14.00">EventTriggeredFileHandler</text>
<text text-anchor="start" x="619.5" y="-8.3" font-family="Times,serif" font-size="14.00">JSONFile</text>
</a>
</g>
</g>
<!-- llama.files.lvalert_json.LVAlertJSON&#45;&gt;llama.files.coinc_significance.subthreshold.CoincSignificanceSubthresholdI3Lvc -->
<g id="edge4" class="edge">
<title>llama.files.lvalert_json.LVAlertJSON&#45;&gt;llama.files.coinc_significance.subthreshold.CoincSignificanceSubthresholdI3Lvc</title>
<path fill="none" stroke="red" d="M761.21,-42.5C849.16,-42.5 959,-42.5 959,-42.5 959,-42.5 959,-243.78 959,-243.78"/>
<polygon fill="red" stroke="red" points="955.5,-243.78 959,-253.78 962.5,-243.78 955.5,-243.78"/>
</g>
<!-- llama.files.lvc_skymap.LvcDistancesJson -->
<g id="node6" class="node">
<title>llama.files.lvc_skymap.LvcDistancesJson</title>
<g id="a_node6"><a xlink:href="/llama.files.lvc_skymap.html#llama.files.lvc_skymap.LvcDistancesJson" xlink:title="{{&lt;B&gt;LvcDistancesJson&lt;/B&gt;|&lt;I&gt;lvc_skymap_distances.json&lt;/I&gt;|JSONFile}}" target="_top">
<polygon fill="#cccccc" stroke="black" points="548.5,-191 548.5,-260 758.5,-260 758.5,-191 548.5,-191"/>
<text text-anchor="start" x="583" y="-245.8" font-family="Times,serif" font-weight="bold" font-size="14.00">LvcDistancesJson</text>
<polyline fill="none" stroke="black" points="548.5,-237 758.5,-237 "/>
<text text-anchor="start" x="556.5" y="-222.8" font-family="Times,serif" font-style="italic" font-size="14.00">lvc_skymap_distances.json</text>
<polyline fill="none" stroke="black" points="548.5,-214 758.5,-214 "/>
<text text-anchor="start" x="619.5" y="-198.8" font-family="Times,serif" font-size="14.00">JSONFile</text>
</a>
</g>
</g>
<!-- llama.files.lvc_skymap.LvcDistancesJson&#45;&gt;llama.files.coinc_significance.subthreshold.CoincSignificanceSubthresholdI3Lvc -->
<g id="edge5" class="edge">
<title>llama.files.lvc_skymap.LvcDistancesJson&#45;&gt;llama.files.coinc_significance.subthreshold.CoincSignificanceSubthresholdI3Lvc</title>
<path fill="none" stroke="red" d="M758.64,-258.17C758.64,-258.17 792.9,-258.17 792.9,-258.17"/>
<polygon fill="red" stroke="red" points="792.9,-261.67 802.9,-258.17 792.9,-254.67 792.9,-261.67"/>
</g>
<!-- llama.files.lvc_skymap.LvcSkymapFits -->
<g id="node7" class="node">
<title>llama.files.lvc_skymap.LvcSkymapFits</title>
<g id="a_node7"><a xlink:href="/llama.files.lvc_skymap.html#llama.files.lvc_skymap.LvcSkymapFits" xlink:title="{{&lt;B&gt;LvcSkymapFits&lt;/B&gt;|&lt;I&gt;lvc_skymap.fits.gz&lt;/I&gt;|GenerateOnceMixin&lt;BR/&gt;LvcHEALPixSkyMapFileHandler&lt;BR/&gt;OnlineVetoMixin}}" target="_top">
<polygon fill="#cccccc" stroke="black" points="251,-92 251,-191 504,-191 504,-92 251,-92"/>
<text text-anchor="start" x="317.5" y="-176.8" font-family="Times,serif" font-weight="bold" font-size="14.00">LvcSkymapFits</text>
<polyline fill="none" stroke="black" points="251,-168 504,-168 "/>
<text text-anchor="start" x="311" y="-153.8" font-family="Times,serif" font-style="italic" font-size="14.00">lvc_skymap.fits.gz</text>
<polyline fill="none" stroke="black" points="251,-145 504,-145 "/>
<text text-anchor="start" x="305" y="-129.8" font-family="Times,serif" font-size="14.00">GenerateOnceMixin</text>
<text text-anchor="start" x="259" y="-114.8" font-family="Times,serif" font-size="14.00">LvcHEALPixSkyMapFileHandler</text>
<text text-anchor="start" x="317.5" y="-99.8" font-family="Times,serif" font-size="14.00">OnlineVetoMixin</text>
</a>
</g>
</g>
<!-- llama.files.lvc_skymap.LvcSkymapFits&#45;&gt;llama.files.lvc_skymap.LvcDistancesJson -->
<g id="edge6" class="edge">
<title>llama.files.lvc_skymap.LvcSkymapFits&#45;&gt;llama.files.lvc_skymap.LvcDistancesJson</title>
<path fill="none" stroke="red" d="M495,-191.23C495,-196.93 495,-200.75 495,-200.75 495,-200.75 538.22,-200.75 538.22,-200.75"/>
<polygon fill="red" stroke="red" points="538.22,-204.25 548.22,-200.75 538.22,-197.25 538.22,-204.25"/>
</g>
<!-- llama.files.lvc_skymap.LvcSkymapHdf5 -->
<g id="node8" class="node">
<title>llama.files.lvc_skymap.LvcSkymapHdf5</title>
<g id="a_node8"><a xlink:href="/llama.files.lvc_skymap.html#llama.files.lvc_skymap.LvcSkymapHdf5" xlink:title="{{&lt;B&gt;LvcSkymapHdf5&lt;/B&gt;|&lt;I&gt;lvc_skymap.hdf5&lt;/I&gt;|HEALPixSkyMapFileHandler}}" target="_top">
<polygon fill="#cccccc" stroke="black" points="540,-103 540,-172 767,-172 767,-103 540,-103"/>
<text text-anchor="start" x="589" y="-157.8" font-family="Times,serif" font-weight="bold" font-size="14.00">LvcSkymapHdf5</text>
<polyline fill="none" stroke="black" points="540,-149 767,-149 "/>
<text text-anchor="start" x="593" y="-134.8" font-family="Times,serif" font-style="italic" font-size="14.00">lvc_skymap.hdf5</text>
<polyline fill="none" stroke="black" points="540,-126 767,-126 "/>
<text text-anchor="start" x="548" y="-110.8" font-family="Times,serif" font-size="14.00">HEALPixSkyMapFileHandler</text>
</a>
</g>
</g>
<!-- llama.files.lvc_skymap.LvcSkymapFits&#45;&gt;llama.files.lvc_skymap.LvcSkymapHdf5 -->
<g id="edge7" class="edge">
<title>llama.files.lvc_skymap.LvcSkymapFits&#45;&gt;llama.files.lvc_skymap.LvcSkymapHdf5</title>
<path fill="none" stroke="red" d="M504.19,-137.5C504.19,-137.5 529.88,-137.5 529.88,-137.5"/>
<polygon fill="red" stroke="red" points="529.88,-141 539.88,-137.5 529.88,-134 529.88,-141"/>
</g>
<!-- llama.files.lvc_skymap.LvcSkymapHdf5&#45;&gt;llama.files.coinc_significance.subthreshold.CoincSignificanceSubthresholdI3Lvc -->
<g id="edge8" class="edge">
<title>llama.files.lvc_skymap.LvcSkymapHdf5&#45;&gt;llama.files.coinc_significance.subthreshold.CoincSignificanceSubthresholdI3Lvc</title>
<path fill="none" stroke="red" d="M761,-172.05C761,-206.97 761,-255.83 761,-255.83 761,-255.83 792.99,-255.83 792.99,-255.83"/>
<polygon fill="red" stroke="red" points="792.99,-259.33 802.99,-255.83 792.99,-252.33 792.99,-259.33"/>
</g>
<!-- llama.files.skymap_info.SkymapInfo -->
<g id="node9" class="node">
<title>llama.files.skymap_info.SkymapInfo</title>
<g id="a_node9"><a xlink:href="/llama.files.skymap_info.html#llama.files.skymap_info.SkymapInfo" xlink:title="{{&lt;B&gt;SkymapInfo&lt;/B&gt;|&lt;I&gt;skymap_info.json&lt;/I&gt;|EventTriggeredFileHandler&lt;BR/&gt;JSONFile}}" target="_top">
<polygon fill="#cccccc" stroke="black" points="0,-313.5 0,-397.5 215,-397.5 215,-313.5 0,-313.5"/>
<text text-anchor="start" x="59.5" y="-383.3" font-family="Times,serif" font-weight="bold" font-size="14.00">SkymapInfo</text>
<polyline fill="none" stroke="black" points="0,-374.5 215,-374.5 "/>
<text text-anchor="start" x="45.5" y="-360.3" font-family="Times,serif" font-style="italic" font-size="14.00">skymap_info.json</text>
<polyline fill="none" stroke="black" points="0,-351.5 215,-351.5 "/>
<text text-anchor="start" x="8" y="-336.3" font-family="Times,serif" font-size="14.00">EventTriggeredFileHandler</text>
<text text-anchor="start" x="73.5" y="-321.3" font-family="Times,serif" font-size="14.00">JSONFile</text>
</a>
</g>
</g>
<!-- llama.files.skymap_info.SkymapInfo&#45;&gt;llama.files.coinc_significance.subthreshold.CoincSignificanceSubthresholdI3Lvc -->
<g id="edge9" class="edge">
<title>llama.files.skymap_info.SkymapInfo&#45;&gt;llama.files.coinc_significance.subthreshold.CoincSignificanceSubthresholdI3Lvc</title>
<path fill="none" stroke="red" d="M72,-313.45C72,-307.85 72,-304 72,-304 72,-304 792.97,-304 792.97,-304"/>
<polygon fill="red" stroke="red" points="792.97,-307.5 802.97,-304 792.97,-300.5 792.97,-307.5"/>
</g>
<!-- llama.files.skymap_info.SkymapInfo&#45;&gt;llama.files.gracedb.LVCGraceDbEventData -->
<g id="edge10" class="edge">
<title>llama.files.skymap_info.SkymapInfo&#45;&gt;llama.files.gracedb.LVCGraceDbEventData</title>
<path fill="none" stroke="red" d="M108,-397.5C108,-409.31 108,-419 108,-419 108,-419 531.46,-419 531.46,-419"/>
<polygon fill="red" stroke="red" points="531.46,-422.5 541.46,-419 531.46,-415.5 531.46,-422.5"/>
</g>
<!-- llama.files.skymap_info.SkymapInfo&#45;&gt;llama.files.gracedb.PAstro -->
<g id="edge11" class="edge">
<title>llama.files.skymap_info.SkymapInfo&#45;&gt;llama.files.gracedb.PAstro</title>
<path fill="none" stroke="red" d="M215.38,-369.67C215.38,-369.67 259.8,-369.67 259.8,-369.67"/>
<polygon fill="red" stroke="red" points="259.8,-373.17 269.8,-369.67 259.8,-366.17 259.8,-373.17"/>
</g>
<!-- llama.files.skymap_info.SkymapInfo&#45;&gt;llama.files.i3.json.IceCubeNeutrinoList -->
<g id="edge12" class="edge">
<title>llama.files.skymap_info.SkymapInfo&#45;&gt;llama.files.i3.json.IceCubeNeutrinoList</title>
<path fill="none" stroke="red" d="M144,-313.31C144,-284.86 144,-252.5 144,-252.5 144,-252.5 265.42,-252.5 265.42,-252.5"/>
<polygon fill="red" stroke="red" points="265.42,-256 275.42,-252.5 265.42,-249 265.42,-256"/>
</g>
<!-- llama.files.skymap_info.SkymapInfo&#45;&gt;llama.files.lvc_skymap.LvcSkymapFits -->
<g id="edge13" class="edge">
<title>llama.files.skymap_info.SkymapInfo&#45;&gt;llama.files.lvc_skymap.LvcSkymapFits</title>
<path fill="none" stroke="red" d="M215.36,-341.33C240.96,-341.33 261,-341.33 261,-341.33 261,-341.33 261,-201.15 261,-201.15"/>
<polygon fill="red" stroke="red" points="264.5,-201.15 261,-191.15 257.5,-201.15 264.5,-201.15"/>
</g>
</g>
</svg>
