<?xml version="1.0" encoding="UTF-8" standalone="no"?>
<!DOCTYPE svg PUBLIC "-//W3C//DTD SVG 1.1//EN"
 "http://www.w3.org/Graphics/SVG/1.1/DTD/svg11.dtd">
<!-- Generated by graphviz version 2.42.3 (20191010.1750)
 -->
<!-- Title: llama.files.coinc_plots.CoincScatterZtfLVCPdf Pages: 1 -->
<svg width="1012pt" height="191pt"
 viewBox="0.00 0.00 1012.00 190.50" xmlns="http://www.w3.org/2000/svg" xmlns:xlink="http://www.w3.org/1999/xlink">
<g id="graph0" class="graph" transform="scale(1 1) rotate(0) translate(4 186.5)">
<title>llama.files.coinc_plots.CoincScatterZtfLVCPdf</title>
<polygon fill="transparent" stroke="transparent" points="-4,4 -4,-186.5 1008,-186.5 1008,4 -4,4"/>
<!-- llama.files.coinc_plots.CoincScatterZtfLVCPdf -->
<g id="node1" class="node">
<title>llama.files.coinc_plots.CoincScatterZtfLVCPdf</title>
<g id="a_node1"><a xlink:href="/llama.files.coinc_plots.html#llama.files.coinc_plots.CoincScatterZtfLVCPdf" xlink:title="{{&lt;B&gt;CoincScatterZtfLVCPdf&lt;/B&gt;|&lt;I&gt;scatterplot_lvc&#45;ztf.pdf&lt;/I&gt;|CoincScatterZtfLVC}}" target="_top">
<polygon fill="#cccccc" stroke="black" points="803,-55 803,-124 1004,-124 1004,-55 803,-55"/>
<text text-anchor="start" x="811" y="-109.8" font-family="Times,serif" font-weight="bold" font-size="14.00">CoincScatterZtfLVCPdf</text>
<polyline fill="none" stroke="black" points="803,-101 1004,-101 "/>
<text text-anchor="start" x="824.5" y="-86.8" font-family="Times,serif" font-style="italic" font-size="14.00">scatterplot_lvc&#45;ztf.pdf</text>
<polyline fill="none" stroke="black" points="803,-78 1004,-78 "/>
<text text-anchor="start" x="830.5" y="-62.8" font-family="Times,serif" font-size="14.00">CoincScatterZtfLVC</text>
</a>
</g>
</g>
<!-- llama.files.lvc_skymap.LvcSkymapFits -->
<g id="node2" class="node">
<title>llama.files.lvc_skymap.LvcSkymapFits</title>
<g id="a_node2"><a xlink:href="/llama.files.lvc_skymap.html#llama.files.lvc_skymap.LvcSkymapFits" xlink:title="{{&lt;B&gt;LvcSkymapFits&lt;/B&gt;|&lt;I&gt;lvc_skymap.fits.gz&lt;/I&gt;|GenerateOnceMixin&lt;BR/&gt;LvcHEALPixSkyMapFileHandler&lt;BR/&gt;OnlineVetoMixin}}" target="_top">
<polygon fill="#cccccc" stroke="black" points="251,-83 251,-182 504,-182 504,-83 251,-83"/>
<text text-anchor="start" x="317.5" y="-167.8" font-family="Times,serif" font-weight="bold" font-size="14.00">LvcSkymapFits</text>
<polyline fill="none" stroke="black" points="251,-159 504,-159 "/>
<text text-anchor="start" x="311" y="-144.8" font-family="Times,serif" font-style="italic" font-size="14.00">lvc_skymap.fits.gz</text>
<polyline fill="none" stroke="black" points="251,-136 504,-136 "/>
<text text-anchor="start" x="305" y="-120.8" font-family="Times,serif" font-size="14.00">GenerateOnceMixin</text>
<text text-anchor="start" x="259" y="-105.8" font-family="Times,serif" font-size="14.00">LvcHEALPixSkyMapFileHandler</text>
<text text-anchor="start" x="317.5" y="-90.8" font-family="Times,serif" font-size="14.00">OnlineVetoMixin</text>
</a>
</g>
</g>
<!-- llama.files.lvc_skymap.LvcSkymapHdf5 -->
<g id="node3" class="node">
<title>llama.files.lvc_skymap.LvcSkymapHdf5</title>
<g id="a_node3"><a xlink:href="/llama.files.lvc_skymap.html#llama.files.lvc_skymap.LvcSkymapHdf5" xlink:title="{{&lt;B&gt;LvcSkymapHdf5&lt;/B&gt;|&lt;I&gt;lvc_skymap.hdf5&lt;/I&gt;|HEALPixSkyMapFileHandler}}" target="_top">
<polygon fill="#cccccc" stroke="black" points="540,-103 540,-172 767,-172 767,-103 540,-103"/>
<text text-anchor="start" x="589" y="-157.8" font-family="Times,serif" font-weight="bold" font-size="14.00">LvcSkymapHdf5</text>
<polyline fill="none" stroke="black" points="540,-149 767,-149 "/>
<text text-anchor="start" x="593" y="-134.8" font-family="Times,serif" font-style="italic" font-size="14.00">lvc_skymap.hdf5</text>
<polyline fill="none" stroke="black" points="540,-126 767,-126 "/>
<text text-anchor="start" x="548" y="-110.8" font-family="Times,serif" font-size="14.00">HEALPixSkyMapFileHandler</text>
</a>
</g>
</g>
<!-- llama.files.lvc_skymap.LvcSkymapFits&#45;&gt;llama.files.lvc_skymap.LvcSkymapHdf5 -->
<g id="edge1" class="edge">
<title>llama.files.lvc_skymap.LvcSkymapFits&#45;&gt;llama.files.lvc_skymap.LvcSkymapHdf5</title>
<path fill="none" stroke="red" d="M504.19,-137.5C504.19,-137.5 529.88,-137.5 529.88,-137.5"/>
<polygon fill="red" stroke="red" points="529.88,-141 539.88,-137.5 529.88,-134 529.88,-141"/>
</g>
<!-- llama.files.lvc_skymap.LvcSkymapHdf5&#45;&gt;llama.files.coinc_plots.CoincScatterZtfLVCPdf -->
<g id="edge2" class="edge">
<title>llama.files.lvc_skymap.LvcSkymapHdf5&#45;&gt;llama.files.coinc_plots.CoincScatterZtfLVCPdf</title>
<path fill="none" stroke="red" d="M767.16,-113.5C767.16,-113.5 792.74,-113.5 792.74,-113.5"/>
<polygon fill="red" stroke="red" points="792.74,-117 802.74,-113.5 792.74,-110 792.74,-117"/>
</g>
<!-- llama.files.skymap_info.SkymapInfo -->
<g id="node4" class="node">
<title>llama.files.skymap_info.SkymapInfo</title>
<g id="a_node4"><a xlink:href="/llama.files.skymap_info.html#llama.files.skymap_info.SkymapInfo" xlink:title="{{&lt;B&gt;SkymapInfo&lt;/B&gt;|&lt;I&gt;skymap_info.json&lt;/I&gt;|EventTriggeredFileHandler&lt;BR/&gt;JSONFile}}" target="_top">
<polygon fill="#cccccc" stroke="black" points="0,-47.5 0,-131.5 215,-131.5 215,-47.5 0,-47.5"/>
<text text-anchor="start" x="59.5" y="-117.3" font-family="Times,serif" font-weight="bold" font-size="14.00">SkymapInfo</text>
<polyline fill="none" stroke="black" points="0,-108.5 215,-108.5 "/>
<text text-anchor="start" x="45.5" y="-94.3" font-family="Times,serif" font-style="italic" font-size="14.00">skymap_info.json</text>
<polyline fill="none" stroke="black" points="0,-85.5 215,-85.5 "/>
<text text-anchor="start" x="8" y="-70.3" font-family="Times,serif" font-size="14.00">EventTriggeredFileHandler</text>
<text text-anchor="start" x="73.5" y="-55.3" font-family="Times,serif" font-size="14.00">JSONFile</text>
</a>
</g>
</g>
<!-- llama.files.skymap_info.SkymapInfo&#45;&gt;llama.files.lvc_skymap.LvcSkymapFits -->
<g id="edge3" class="edge">
<title>llama.files.skymap_info.SkymapInfo&#45;&gt;llama.files.lvc_skymap.LvcSkymapFits</title>
<path fill="none" stroke="red" d="M215.38,-107.25C215.38,-107.25 240.66,-107.25 240.66,-107.25"/>
<polygon fill="red" stroke="red" points="240.66,-110.75 250.66,-107.25 240.66,-103.75 240.66,-110.75"/>
</g>
<!-- llama.files.ztf_trigger_list.ZtfTriggerList -->
<g id="node5" class="node">
<title>llama.files.ztf_trigger_list.ZtfTriggerList</title>
<g id="a_node5"><a xlink:href="/llama.files.ztf_trigger_list.html#llama.files.ztf_trigger_list.ZtfTriggerList" xlink:title="{{&lt;B&gt;ZtfTriggerList&lt;/B&gt;|&lt;I&gt;ztf_trigger_list.json&lt;/I&gt;|JSONFile&lt;BR/&gt;HEALPixPSF}}" target="_top">
<polygon fill="#cccccc" stroke="black" points="575,-0.5 575,-84.5 732,-84.5 732,-0.5 575,-0.5"/>
<text text-anchor="start" x="597.5" y="-70.3" font-family="Times,serif" font-weight="bold" font-size="14.00">ZtfTriggerList</text>
<polyline fill="none" stroke="black" points="575,-61.5 732,-61.5 "/>
<text text-anchor="start" x="583" y="-47.3" font-family="Times,serif" font-style="italic" font-size="14.00">ztf_trigger_list.json</text>
<polyline fill="none" stroke="black" points="575,-38.5 732,-38.5 "/>
<text text-anchor="start" x="619.5" y="-23.3" font-family="Times,serif" font-size="14.00">JSONFile</text>
<text text-anchor="start" x="605.5" y="-8.3" font-family="Times,serif" font-size="14.00">HEALPixPSF</text>
</a>
</g>
</g>
<!-- llama.files.skymap_info.SkymapInfo&#45;&gt;llama.files.ztf_trigger_list.ZtfTriggerList -->
<g id="edge4" class="edge">
<title>llama.files.skymap_info.SkymapInfo&#45;&gt;llama.files.ztf_trigger_list.ZtfTriggerList</title>
<path fill="none" stroke="red" d="M215.05,-64.75C215.05,-64.75 564.9,-64.75 564.9,-64.75"/>
<polygon fill="red" stroke="red" points="564.9,-68.25 574.9,-64.75 564.9,-61.25 564.9,-68.25"/>
</g>
<!-- llama.files.ztf_trigger_list.ZtfTriggerList&#45;&gt;llama.files.coinc_plots.CoincScatterZtfLVCPdf -->
<g id="edge5" class="edge">
<title>llama.files.ztf_trigger_list.ZtfTriggerList&#45;&gt;llama.files.coinc_plots.CoincScatterZtfLVCPdf</title>
<path fill="none" stroke="red" d="M732.26,-69.75C732.26,-69.75 792.65,-69.75 792.65,-69.75"/>
<polygon fill="red" stroke="red" points="792.65,-73.25 802.65,-69.75 792.65,-66.25 792.65,-73.25"/>
</g>
</g>
</svg>
