<?xml version="1.0" encoding="UTF-8" standalone="no"?>
<!DOCTYPE svg PUBLIC "-//W3C//DTD SVG 1.1//EN"
 "http://www.w3.org/Graphics/SVG/1.1/DTD/svg11.dtd">
<!-- Generated by graphviz version 2.42.3 (20191010.1750)
 -->
<!-- Title: llama.pipeline.LLAMA2_REVIEW_PIPELINE Pages: 1 -->
<svg width="1555pt" height="555pt"
 viewBox="0.00 0.00 1555.00 554.50" xmlns="http://www.w3.org/2000/svg" xmlns:xlink="http://www.w3.org/1999/xlink">
<g id="graph0" class="graph" transform="scale(1 1) rotate(0) translate(4 550.5)">
<title>llama.pipeline.LLAMA2_REVIEW_PIPELINE</title>
<polygon fill="transparent" stroke="transparent" points="-4,4 -4,-550.5 1551,-550.5 1551,4 -4,4"/>
<!-- llama.files.coinc_plots.CoincScatterI3LvcPdf -->
<g id="node1" class="node">
<title>llama.files.coinc_plots.CoincScatterI3LvcPdf</title>
<g id="a_node1"><a xlink:href="/llama.files.coinc_plots.html#llama.files.coinc_plots.CoincScatterI3LvcPdf" xlink:title="{{&lt;B&gt;CoincScatterI3LvcPdf&lt;/B&gt;|&lt;I&gt;scatterplot_lvc&#45;i3.pdf&lt;/I&gt;|CoincScatterI3Lvc}}" target="_top">
<polygon fill="#cccccc" stroke="black" points="812,-164.5 812,-233.5 1003,-233.5 1003,-164.5 812,-164.5"/>
<text text-anchor="start" x="820" y="-219.3" font-family="Times,serif" font-weight="bold" font-size="14.00">CoincScatterI3LvcPdf</text>
<polyline fill="none" stroke="black" points="812,-210.5 1003,-210.5 "/>
<text text-anchor="start" x="830.5" y="-196.3" font-family="Times,serif" font-style="italic" font-size="14.00">scatterplot_lvc&#45;i3.pdf</text>
<polyline fill="none" stroke="black" points="812,-187.5 1003,-187.5 "/>
<text text-anchor="start" x="839.5" y="-172.3" font-family="Times,serif" font-size="14.00">CoincScatterI3Lvc</text>
</a>
</g>
</g>
<!-- llama.files.coinc_plots.CoincSummaryI3LvcTex -->
<g id="node3" class="node">
<title>llama.files.coinc_plots.CoincSummaryI3LvcTex</title>
<g id="a_node3"><a xlink:href="/llama.files.coinc_plots.html#llama.files.coinc_plots.CoincSummaryI3LvcTex" xlink:title="{{&lt;B&gt;CoincSummaryI3LvcTex&lt;/B&gt;|&lt;I&gt;summary_lvc&#45;I3.tex&lt;/I&gt;|FileHandler}}" target="_top">
<polygon fill="#cccccc" stroke="black" points="1339,-315.5 1339,-384.5 1547,-384.5 1547,-315.5 1339,-315.5"/>
<text text-anchor="start" x="1347" y="-370.3" font-family="Times,serif" font-weight="bold" font-size="14.00">CoincSummaryI3LvcTex</text>
<polyline fill="none" stroke="black" points="1339,-361.5 1547,-361.5 "/>
<text text-anchor="start" x="1372" y="-347.3" font-family="Times,serif" font-style="italic" font-size="14.00">summary_lvc&#45;I3.tex</text>
<polyline fill="none" stroke="black" points="1339,-338.5 1547,-338.5 "/>
<text text-anchor="start" x="1400" y="-323.3" font-family="Times,serif" font-size="14.00">FileHandler</text>
</a>
</g>
</g>
<!-- llama.files.coinc_plots.CoincScatterI3LvcPdf&#45;&gt;llama.files.coinc_plots.CoincSummaryI3LvcTex -->
<g id="edge1" class="edge">
<title>llama.files.coinc_plots.CoincScatterI3LvcPdf&#45;&gt;llama.files.coinc_plots.CoincSummaryI3LvcTex</title>
<path fill="none" stroke="red" d="M1003.01,-199C1148.51,-199 1409,-199 1409,-199 1409,-199 1409,-305.36 1409,-305.36"/>
<polygon fill="red" stroke="red" points="1405.5,-305.36 1409,-315.36 1412.5,-305.36 1405.5,-305.36"/>
</g>
<!-- llama.files.coinc_plots.CoincScatterI3LvcPng -->
<g id="node2" class="node">
<title>llama.files.coinc_plots.CoincScatterI3LvcPng</title>
<g id="a_node2"><a xlink:href="/llama.files.coinc_plots.html#llama.files.coinc_plots.CoincScatterI3LvcPng" xlink:title="{{&lt;B&gt;CoincScatterI3LvcPng&lt;/B&gt;|&lt;I&gt;scatterplot_lvc&#45;i3.png&lt;/I&gt;|CoincScatterI3Lvc}}" target="_top">
<polygon fill="#cccccc" stroke="black" points="810,-290.5 810,-359.5 1005,-359.5 1005,-290.5 810,-290.5"/>
<text text-anchor="start" x="818" y="-345.3" font-family="Times,serif" font-weight="bold" font-size="14.00">CoincScatterI3LvcPng</text>
<polyline fill="none" stroke="black" points="810,-336.5 1005,-336.5 "/>
<text text-anchor="start" x="829" y="-322.3" font-family="Times,serif" font-style="italic" font-size="14.00">scatterplot_lvc&#45;i3.png</text>
<polyline fill="none" stroke="black" points="810,-313.5 1005,-313.5 "/>
<text text-anchor="start" x="839.5" y="-298.3" font-family="Times,serif" font-size="14.00">CoincScatterI3Lvc</text>
</a>
</g>
</g>
<!-- llama.files.coinc_significance.opa.CoincSignificanceI3Lvc -->
<g id="node4" class="node">
<title>llama.files.coinc_significance.opa.CoincSignificanceI3Lvc</title>
<g id="a_node4"><a xlink:href="/llama.files.coinc_significance.opa.html#llama.files.coinc_significance.opa.CoincSignificanceI3Lvc" xlink:title="{{&lt;B&gt;CoincSignificanceI3Lvc&lt;/B&gt;|&lt;I&gt;significance_lvc&#45;i3.json&lt;/I&gt;|JSONFile}}" target="_top">
<polygon fill="#cccccc" stroke="black" points="805.5,-378.5 805.5,-447.5 1009.5,-447.5 1009.5,-378.5 805.5,-378.5"/>
<text text-anchor="start" x="813.5" y="-433.3" font-family="Times,serif" font-weight="bold" font-size="14.00">CoincSignificanceI3Lvc</text>
<polyline fill="none" stroke="black" points="805.5,-424.5 1009.5,-424.5 "/>
<text text-anchor="start" x="824" y="-410.3" font-family="Times,serif" font-style="italic" font-size="14.00">significance_lvc&#45;i3.json</text>
<polyline fill="none" stroke="black" points="805.5,-401.5 1009.5,-401.5 "/>
<text text-anchor="start" x="873.5" y="-386.3" font-family="Times,serif" font-size="14.00">JSONFile</text>
</a>
</g>
</g>
<!-- llama.files.coinc_significance.opa.CoincSignificanceI3Lvc&#45;&gt;llama.files.coinc_plots.CoincSummaryI3LvcTex -->
<g id="edge2" class="edge">
<title>llama.files.coinc_significance.opa.CoincSignificanceI3Lvc&#45;&gt;llama.files.coinc_plots.CoincSummaryI3LvcTex</title>
<path fill="none" stroke="red" d="M940,-378.35C940,-371.3 940,-366 940,-366 940,-366 1328.78,-366 1328.78,-366"/>
<polygon fill="red" stroke="red" points="1328.78,-369.5 1338.78,-366 1328.78,-362.5 1328.78,-369.5"/>
</g>
<!-- llama.files.i3.tex.IceCubeNeutrinoListTex -->
<g id="node8" class="node">
<title>llama.files.i3.tex.IceCubeNeutrinoListTex</title>
<g id="a_node8"><a xlink:href="/llama.files.i3.tex.html#llama.files.i3.tex.IceCubeNeutrinoListTex" xlink:title="{{&lt;B&gt;IceCubeNeutrinoListTex&lt;/B&gt;|&lt;I&gt;IceCubeNeutrinoList.tex&lt;/I&gt;|FileHandler}}" target="_top">
<polygon fill="#cccccc" stroke="black" points="1070.5,-378.5 1070.5,-447.5 1280.5,-447.5 1280.5,-378.5 1070.5,-378.5"/>
<text text-anchor="start" x="1078.5" y="-433.3" font-family="Times,serif" font-weight="bold" font-size="14.00">IceCubeNeutrinoListTex</text>
<polyline fill="none" stroke="black" points="1070.5,-424.5 1280.5,-424.5 "/>
<text text-anchor="start" x="1085.5" y="-410.3" font-family="Times,serif" font-style="italic" font-size="14.00">IceCubeNeutrinoList.tex</text>
<polyline fill="none" stroke="black" points="1070.5,-401.5 1280.5,-401.5 "/>
<text text-anchor="start" x="1132.5" y="-386.3" font-family="Times,serif" font-size="14.00">FileHandler</text>
</a>
</g>
</g>
<!-- llama.files.coinc_significance.opa.CoincSignificanceI3Lvc&#45;&gt;llama.files.i3.tex.IceCubeNeutrinoListTex -->
<g id="edge3" class="edge">
<title>llama.files.coinc_significance.opa.CoincSignificanceI3Lvc&#45;&gt;llama.files.i3.tex.IceCubeNeutrinoListTex</title>
<path fill="none" stroke="red" d="M1009.58,-424.67C1009.58,-424.67 1060.14,-424.67 1060.14,-424.67"/>
<polygon fill="red" stroke="red" points="1060.14,-428.17 1070.14,-424.67 1060.14,-421.17 1060.14,-428.17"/>
</g>
<!-- llama.files.i3.txt.IceCubeNeutrinoListCoincTxt -->
<g id="node9" class="node">
<title>llama.files.i3.txt.IceCubeNeutrinoListCoincTxt</title>
<g id="a_node9"><a xlink:href="/llama.files.i3.txt.html#llama.files.i3.txt.IceCubeNeutrinoListCoincTxt" xlink:title="{{&lt;B&gt;IceCubeNeutrinoListCoincTxt&lt;/B&gt;|&lt;I&gt;icecube_neutrino_list_coinc.txt&lt;/I&gt;|FileHandler}}" target="_top">
<polygon fill="#cccccc" stroke="black" points="1048,-38.5 1048,-107.5 1303,-107.5 1303,-38.5 1048,-38.5"/>
<text text-anchor="start" x="1056" y="-93.3" font-family="Times,serif" font-weight="bold" font-size="14.00">IceCubeNeutrinoListCoincTxt</text>
<polyline fill="none" stroke="black" points="1048,-84.5 1303,-84.5 "/>
<text text-anchor="start" x="1063" y="-70.3" font-family="Times,serif" font-style="italic" font-size="14.00">icecube_neutrino_list_coinc.txt</text>
<polyline fill="none" stroke="black" points="1048,-61.5 1303,-61.5 "/>
<text text-anchor="start" x="1132.5" y="-46.3" font-family="Times,serif" font-size="14.00">FileHandler</text>
</a>
</g>
</g>
<!-- llama.files.coinc_significance.opa.CoincSignificanceI3Lvc&#45;&gt;llama.files.i3.txt.IceCubeNeutrinoListCoincTxt -->
<g id="edge4" class="edge">
<title>llama.files.coinc_significance.opa.CoincSignificanceI3Lvc&#45;&gt;llama.files.i3.txt.IceCubeNeutrinoListCoincTxt</title>
<path fill="none" stroke="red" d="M1009.64,-401.33C1037.42,-401.33 1060,-401.33 1060,-401.33 1060,-401.33 1060,-117.52 1060,-117.52"/>
<polygon fill="red" stroke="red" points="1063.5,-117.52 1060,-107.52 1056.5,-117.52 1063.5,-117.52"/>
</g>
<!-- llama.files.gracedb.LVCGraceDbEventData -->
<g id="node5" class="node">
<title>llama.files.gracedb.LVCGraceDbEventData</title>
<g id="a_node5"><a xlink:href="/llama.files.gracedb.html#llama.files.gracedb.LVCGraceDbEventData" xlink:title="{{&lt;B&gt;LVCGraceDbEventData&lt;/B&gt;|&lt;I&gt;lvc_gracedb_event_data.json&lt;/I&gt;|JSONFile&lt;BR/&gt;OnlineVetoMixin}}" target="_top">
<polygon fill="#cccccc" stroke="black" points="265.5,-296 265.5,-380 489.5,-380 489.5,-296 265.5,-296"/>
<text text-anchor="start" x="287" y="-365.8" font-family="Times,serif" font-weight="bold" font-size="14.00">LVCGraceDbEventData</text>
<polyline fill="none" stroke="black" points="265.5,-357 489.5,-357 "/>
<text text-anchor="start" x="273.5" y="-342.8" font-family="Times,serif" font-style="italic" font-size="14.00">lvc_gracedb_event_data.json</text>
<polyline fill="none" stroke="black" points="265.5,-334 489.5,-334 "/>
<text text-anchor="start" x="343.5" y="-318.8" font-family="Times,serif" font-size="14.00">JSONFile</text>
<text text-anchor="start" x="317.5" y="-303.8" font-family="Times,serif" font-size="14.00">OnlineVetoMixin</text>
</a>
</g>
</g>
<!-- llama.files.gracedb.LVCGraceDbEventData&#45;&gt;llama.files.coinc_significance.opa.CoincSignificanceI3Lvc -->
<g id="edge5" class="edge">
<title>llama.files.gracedb.LVCGraceDbEventData&#45;&gt;llama.files.coinc_significance.opa.CoincSignificanceI3Lvc</title>
<path fill="none" stroke="red" d="M489.77,-372C636.5,-372 875,-372 875,-372 875,-372 875,-372.64 875,-372.64"/>
<polygon fill="red" stroke="red" points="871.5,-368.41 875,-378.41 878.5,-368.41 871.5,-368.41"/>
</g>
<!-- llama.files.gracedb.PAstro -->
<g id="node6" class="node">
<title>llama.files.gracedb.PAstro</title>
<g id="a_node6"><a xlink:href="/llama.files.gracedb.html#llama.files.gracedb.PAstro" xlink:title="{{&lt;B&gt;PAstro&lt;/B&gt;|&lt;I&gt;p_astro.json&lt;/I&gt;|GraceDBPollingFileHandler&lt;BR/&gt;JSONFile}}" target="_top">
<polygon fill="#cccccc" stroke="black" points="270,-438 270,-522 485,-522 485,-438 270,-438"/>
<text text-anchor="start" x="350.5" y="-507.8" font-family="Times,serif" font-weight="bold" font-size="14.00">PAstro</text>
<polyline fill="none" stroke="black" points="270,-499 485,-499 "/>
<text text-anchor="start" x="333.5" y="-484.8" font-family="Times,serif" font-style="italic" font-size="14.00">p_astro.json</text>
<polyline fill="none" stroke="black" points="270,-476 485,-476 "/>
<text text-anchor="start" x="278" y="-460.8" font-family="Times,serif" font-size="14.00">GraceDBPollingFileHandler</text>
<text text-anchor="start" x="343.5" y="-445.8" font-family="Times,serif" font-size="14.00">JSONFile</text>
</a>
</g>
</g>
<!-- llama.files.gracedb.PAstro&#45;&gt;llama.files.coinc_significance.opa.CoincSignificanceI3Lvc -->
<g id="edge6" class="edge">
<title>llama.files.gracedb.PAstro&#45;&gt;llama.files.coinc_significance.opa.CoincSignificanceI3Lvc</title>
<path fill="none" stroke="red" d="M485.07,-442.75C485.07,-442.75 795.48,-442.75 795.48,-442.75"/>
<polygon fill="red" stroke="red" points="795.48,-446.25 805.48,-442.75 795.48,-439.25 795.48,-446.25"/>
</g>
<!-- llama.files.i3.json.IceCubeNeutrinoList -->
<g id="node7" class="node">
<title>llama.files.i3.json.IceCubeNeutrinoList</title>
<g id="a_node7"><a xlink:href="/llama.files.i3.json.html#llama.files.i3.json.IceCubeNeutrinoList" xlink:title="{{&lt;B&gt;IceCubeNeutrinoList&lt;/B&gt;|&lt;I&gt;icecube_neutrino_list.json&lt;/I&gt;|JSONFile&lt;BR/&gt;HEALPixPSF}}" target="_top">
<polygon fill="#cccccc" stroke="black" points="551.5,-90 551.5,-174 755.5,-174 755.5,-90 551.5,-90"/>
<text text-anchor="start" x="569.5" y="-159.8" font-family="Times,serif" font-weight="bold" font-size="14.00">IceCubeNeutrinoList</text>
<polyline fill="none" stroke="black" points="551.5,-151 755.5,-151 "/>
<text text-anchor="start" x="559.5" y="-136.8" font-family="Times,serif" font-style="italic" font-size="14.00">icecube_neutrino_list.json</text>
<polyline fill="none" stroke="black" points="551.5,-128 755.5,-128 "/>
<text text-anchor="start" x="619.5" y="-112.8" font-family="Times,serif" font-size="14.00">JSONFile</text>
<text text-anchor="start" x="605.5" y="-97.8" font-family="Times,serif" font-size="14.00">HEALPixPSF</text>
</a>
</g>
</g>
<!-- llama.files.i3.json.IceCubeNeutrinoList&#45;&gt;llama.files.coinc_plots.CoincScatterI3LvcPdf -->
<g id="edge7" class="edge">
<title>llama.files.i3.json.IceCubeNeutrinoList&#45;&gt;llama.files.coinc_plots.CoincScatterI3LvcPdf</title>
<path fill="none" stroke="red" d="M755.71,-166.62C755.71,-166.62 801.67,-166.62 801.67,-166.62"/>
<polygon fill="red" stroke="red" points="801.67,-170.13 811.67,-166.62 801.67,-163.13 801.67,-170.13"/>
</g>
<!-- llama.files.i3.json.IceCubeNeutrinoList&#45;&gt;llama.files.coinc_plots.CoincScatterI3LvcPng -->
<g id="edge8" class="edge">
<title>llama.files.i3.json.IceCubeNeutrinoList&#45;&gt;llama.files.coinc_plots.CoincScatterI3LvcPng</title>
<path fill="none" stroke="red" d="M755.59,-169.25C775.84,-169.25 791,-169.25 791,-169.25 791,-169.25 791,-310 791,-310 791,-310 799.98,-310 799.98,-310"/>
<polygon fill="red" stroke="red" points="799.98,-313.5 809.98,-310 799.98,-306.5 799.98,-313.5"/>
</g>
<!-- llama.files.i3.json.IceCubeNeutrinoList&#45;&gt;llama.files.coinc_plots.CoincSummaryI3LvcTex -->
<g id="edge9" class="edge">
<title>llama.files.i3.json.IceCubeNeutrinoList&#45;&gt;llama.files.coinc_plots.CoincSummaryI3LvcTex</title>
<path fill="none" stroke="red" d="M755.84,-126.67C976.65,-126.67 1478,-126.67 1478,-126.67 1478,-126.67 1478,-305.1 1478,-305.1"/>
<polygon fill="red" stroke="red" points="1474.5,-305.1 1478,-315.1 1481.5,-305.1 1474.5,-305.1"/>
</g>
<!-- llama.files.i3.json.IceCubeNeutrinoList&#45;&gt;llama.files.coinc_significance.opa.CoincSignificanceI3Lvc -->
<g id="edge10" class="edge">
<title>llama.files.i3.json.IceCubeNeutrinoList&#45;&gt;llama.files.coinc_significance.opa.CoincSignificanceI3Lvc</title>
<path fill="none" stroke="red" d="M755.69,-171.88C769.48,-171.88 779,-171.88 779,-171.88 779,-171.88 779,-391.9 779,-391.9 779,-391.9 795.31,-391.9 795.31,-391.9"/>
<polygon fill="red" stroke="red" points="795.31,-395.4 805.31,-391.9 795.31,-388.4 795.31,-395.4"/>
</g>
<!-- llama.files.i3.json.IceCubeNeutrinoList&#45;&gt;llama.files.i3.tex.IceCubeNeutrinoListTex -->
<g id="edge11" class="edge">
<title>llama.files.i3.json.IceCubeNeutrinoList&#45;&gt;llama.files.i3.tex.IceCubeNeutrinoListTex</title>
<path fill="none" stroke="red" d="M755.79,-145.33C907.91,-145.33 1176,-145.33 1176,-145.33 1176,-145.33 1176,-368.28 1176,-368.28"/>
<polygon fill="red" stroke="red" points="1172.5,-368.28 1176,-378.28 1179.5,-368.28 1172.5,-368.28"/>
</g>
<!-- llama.files.i3.json.IceCubeNeutrinoList&#45;&gt;llama.files.i3.txt.IceCubeNeutrinoListCoincTxt -->
<g id="edge12" class="edge">
<title>llama.files.i3.json.IceCubeNeutrinoList&#45;&gt;llama.files.i3.txt.IceCubeNeutrinoListCoincTxt</title>
<path fill="none" stroke="red" d="M755.7,-101.83C755.7,-101.83 1037.66,-101.83 1037.66,-101.83"/>
<polygon fill="red" stroke="red" points="1037.66,-105.33 1047.66,-101.83 1037.66,-98.33 1037.66,-105.33"/>
</g>
<!-- llama.files.i3.txt.IceCubeNeutrinoListTxt -->
<g id="node10" class="node">
<title>llama.files.i3.txt.IceCubeNeutrinoListTxt</title>
<g id="a_node10"><a xlink:href="/llama.files.i3.txt.html#llama.files.i3.txt.IceCubeNeutrinoListTxt" xlink:title="{{&lt;B&gt;IceCubeNeutrinoListTxt&lt;/B&gt;|&lt;I&gt;icecube_neutrino_list.txt&lt;/I&gt;|FileHandler}}" target="_top">
<polygon fill="#cccccc" stroke="black" points="803,-0.5 803,-69.5 1012,-69.5 1012,-0.5 803,-0.5"/>
<text text-anchor="start" x="811" y="-55.3" font-family="Times,serif" font-weight="bold" font-size="14.00">IceCubeNeutrinoListTxt</text>
<polyline fill="none" stroke="black" points="803,-46.5 1012,-46.5 "/>
<text text-anchor="start" x="818" y="-32.3" font-family="Times,serif" font-style="italic" font-size="14.00">icecube_neutrino_list.txt</text>
<polyline fill="none" stroke="black" points="803,-23.5 1012,-23.5 "/>
<text text-anchor="start" x="864.5" y="-8.3" font-family="Times,serif" font-size="14.00">FileHandler</text>
</a>
</g>
</g>
<!-- llama.files.i3.json.IceCubeNeutrinoList&#45;&gt;llama.files.i3.txt.IceCubeNeutrinoListTxt -->
<g id="edge13" class="edge">
<title>llama.files.i3.json.IceCubeNeutrinoList&#45;&gt;llama.files.i3.txt.IceCubeNeutrinoListTxt</title>
<path fill="none" stroke="red" d="M755.55,-95.67C826.35,-95.67 908,-95.67 908,-95.67 908,-95.67 908,-79.59 908,-79.59"/>
<polygon fill="red" stroke="red" points="911.5,-79.59 908,-69.59 904.5,-79.59 911.5,-79.59"/>
</g>
<!-- llama.files.i3.tex.IceCubeNeutrinoListTex&#45;&gt;llama.files.coinc_plots.CoincSummaryI3LvcTex -->
<g id="edge14" class="edge">
<title>llama.files.i3.tex.IceCubeNeutrinoListTex&#45;&gt;llama.files.coinc_plots.CoincSummaryI3LvcTex</title>
<path fill="none" stroke="red" d="M1280.84,-381.5C1280.84,-381.5 1328.63,-381.5 1328.63,-381.5"/>
<polygon fill="red" stroke="red" points="1328.63,-385 1338.63,-381.5 1328.63,-378 1328.63,-385"/>
</g>
<!-- llama.files.lvc_skymap.LvcDistancesJson -->
<g id="node11" class="node">
<title>llama.files.lvc_skymap.LvcDistancesJson</title>
<g id="a_node11"><a xlink:href="/llama.files.lvc_skymap.html#llama.files.lvc_skymap.LvcDistancesJson" xlink:title="{{&lt;B&gt;LvcDistancesJson&lt;/B&gt;|&lt;I&gt;lvc_skymap_distances.json&lt;/I&gt;|JSONFile}}" target="_top">
<polygon fill="#cccccc" stroke="black" points="548.5,-280.5 548.5,-349.5 758.5,-349.5 758.5,-280.5 548.5,-280.5"/>
<text text-anchor="start" x="583" y="-335.3" font-family="Times,serif" font-weight="bold" font-size="14.00">LvcDistancesJson</text>
<polyline fill="none" stroke="black" points="548.5,-326.5 758.5,-326.5 "/>
<text text-anchor="start" x="556.5" y="-312.3" font-family="Times,serif" font-style="italic" font-size="14.00">lvc_skymap_distances.json</text>
<polyline fill="none" stroke="black" points="548.5,-303.5 758.5,-303.5 "/>
<text text-anchor="start" x="619.5" y="-288.3" font-family="Times,serif" font-size="14.00">JSONFile</text>
</a>
</g>
</g>
<!-- llama.files.lvc_skymap.LvcDistancesJson&#45;&gt;llama.files.coinc_significance.opa.CoincSignificanceI3Lvc -->
<g id="edge15" class="edge">
<title>llama.files.lvc_skymap.LvcDistancesJson&#45;&gt;llama.files.coinc_significance.opa.CoincSignificanceI3Lvc</title>
<path fill="none" stroke="red" d="M654,-349.59C654,-378.39 654,-414.7 654,-414.7 654,-414.7 795.49,-414.7 795.49,-414.7"/>
<polygon fill="red" stroke="red" points="795.49,-418.2 805.49,-414.7 795.49,-411.2 795.49,-418.2"/>
</g>
<!-- llama.files.lvc_skymap.LvcSkymapFits -->
<g id="node12" class="node">
<title>llama.files.lvc_skymap.LvcSkymapFits</title>
<g id="a_node12"><a xlink:href="/llama.files.lvc_skymap.html#llama.files.lvc_skymap.LvcSkymapFits" xlink:title="{{&lt;B&gt;LvcSkymapFits&lt;/B&gt;|&lt;I&gt;lvc_skymap.fits.gz&lt;/I&gt;|GenerateOnceMixin&lt;BR/&gt;LvcHEALPixSkyMapFileHandler&lt;BR/&gt;OnlineVetoMixin}}" target="_top">
<polygon fill="#cccccc" stroke="black" points="251,-177.5 251,-276.5 504,-276.5 504,-177.5 251,-177.5"/>
<text text-anchor="start" x="317.5" y="-262.3" font-family="Times,serif" font-weight="bold" font-size="14.00">LvcSkymapFits</text>
<polyline fill="none" stroke="black" points="251,-253.5 504,-253.5 "/>
<text text-anchor="start" x="311" y="-239.3" font-family="Times,serif" font-style="italic" font-size="14.00">lvc_skymap.fits.gz</text>
<polyline fill="none" stroke="black" points="251,-230.5 504,-230.5 "/>
<text text-anchor="start" x="305" y="-215.3" font-family="Times,serif" font-size="14.00">GenerateOnceMixin</text>
<text text-anchor="start" x="259" y="-200.3" font-family="Times,serif" font-size="14.00">LvcHEALPixSkyMapFileHandler</text>
<text text-anchor="start" x="317.5" y="-185.3" font-family="Times,serif" font-size="14.00">OnlineVetoMixin</text>
</a>
</g>
</g>
<!-- llama.files.lvc_skymap.LvcSkymapFits&#45;&gt;llama.files.lvc_skymap.LvcDistancesJson -->
<g id="edge16" class="edge">
<title>llama.files.lvc_skymap.LvcSkymapFits&#45;&gt;llama.files.lvc_skymap.LvcDistancesJson</title>
<path fill="none" stroke="red" d="M497,-276.61C497,-283.21 497,-287.75 497,-287.75 497,-287.75 538.24,-287.75 538.24,-287.75"/>
<polygon fill="red" stroke="red" points="538.24,-291.25 548.24,-287.75 538.24,-284.25 538.24,-291.25"/>
</g>
<!-- llama.files.lvc_skymap.LvcSkymapHdf5 -->
<g id="node13" class="node">
<title>llama.files.lvc_skymap.LvcSkymapHdf5</title>
<g id="a_node13"><a xlink:href="/llama.files.lvc_skymap.html#llama.files.lvc_skymap.LvcSkymapHdf5" xlink:title="{{&lt;B&gt;LvcSkymapHdf5&lt;/B&gt;|&lt;I&gt;lvc_skymap.hdf5&lt;/I&gt;|HEALPixSkyMapFileHandler}}" target="_top">
<polygon fill="#cccccc" stroke="black" points="540,-192.5 540,-261.5 767,-261.5 767,-192.5 540,-192.5"/>
<text text-anchor="start" x="589" y="-247.3" font-family="Times,serif" font-weight="bold" font-size="14.00">LvcSkymapHdf5</text>
<polyline fill="none" stroke="black" points="540,-238.5 767,-238.5 "/>
<text text-anchor="start" x="593" y="-224.3" font-family="Times,serif" font-style="italic" font-size="14.00">lvc_skymap.hdf5</text>
<polyline fill="none" stroke="black" points="540,-215.5 767,-215.5 "/>
<text text-anchor="start" x="548" y="-200.3" font-family="Times,serif" font-size="14.00">HEALPixSkyMapFileHandler</text>
</a>
</g>
</g>
<!-- llama.files.lvc_skymap.LvcSkymapFits&#45;&gt;llama.files.lvc_skymap.LvcSkymapHdf5 -->
<g id="edge17" class="edge">
<title>llama.files.lvc_skymap.LvcSkymapFits&#45;&gt;llama.files.lvc_skymap.LvcSkymapHdf5</title>
<path fill="none" stroke="red" d="M504.19,-227C504.19,-227 529.88,-227 529.88,-227"/>
<polygon fill="red" stroke="red" points="529.88,-230.5 539.88,-227 529.88,-223.5 529.88,-230.5"/>
</g>
<!-- llama.files.lvc_skymap.LvcSkymapHdf5&#45;&gt;llama.files.coinc_plots.CoincScatterI3LvcPdf -->
<g id="edge18" class="edge">
<title>llama.files.lvc_skymap.LvcSkymapHdf5&#45;&gt;llama.files.coinc_plots.CoincScatterI3LvcPdf</title>
<path fill="none" stroke="red" d="M767.13,-213C767.13,-213 801.82,-213 801.82,-213"/>
<polygon fill="red" stroke="red" points="801.82,-216.5 811.82,-213 801.82,-209.5 801.82,-216.5"/>
</g>
<!-- llama.files.lvc_skymap.LvcSkymapHdf5&#45;&gt;llama.files.coinc_plots.CoincScatterI3LvcPng -->
<g id="edge19" class="edge">
<title>llama.files.lvc_skymap.LvcSkymapHdf5&#45;&gt;llama.files.coinc_plots.CoincScatterI3LvcPng</title>
<path fill="none" stroke="red" d="M765,-261.58C765,-291.51 765,-330 765,-330 765,-330 799.7,-330 799.7,-330"/>
<polygon fill="red" stroke="red" points="799.7,-333.5 809.7,-330 799.7,-326.5 799.7,-333.5"/>
</g>
<!-- llama.files.lvc_skymap.LvcSkymapHdf5&#45;&gt;llama.files.coinc_significance.opa.CoincSignificanceI3Lvc -->
<g id="edge20" class="edge">
<title>llama.files.lvc_skymap.LvcSkymapHdf5&#45;&gt;llama.files.coinc_significance.opa.CoincSignificanceI3Lvc</title>
<path fill="none" stroke="red" d="M762,-261.83C762,-313.21 762,-403.3 762,-403.3 762,-403.3 795.26,-403.3 795.26,-403.3"/>
<polygon fill="red" stroke="red" points="795.26,-406.8 805.26,-403.3 795.26,-399.8 795.26,-406.8"/>
</g>
<!-- llama.files.skymap_info.SkymapInfo -->
<g id="node14" class="node">
<title>llama.files.skymap_info.SkymapInfo</title>
<g id="a_node14"><a xlink:href="/llama.files.skymap_info.html#llama.files.skymap_info.SkymapInfo" xlink:title="{{&lt;B&gt;SkymapInfo&lt;/B&gt;|&lt;I&gt;skymap_info.json&lt;/I&gt;|EventTriggeredFileHandler&lt;BR/&gt;JSONFile}}" target="_top">
<polygon fill="#cccccc" stroke="black" points="0,-296 0,-380 215,-380 215,-296 0,-296"/>
<text text-anchor="start" x="59.5" y="-365.8" font-family="Times,serif" font-weight="bold" font-size="14.00">SkymapInfo</text>
<polyline fill="none" stroke="black" points="0,-357 215,-357 "/>
<text text-anchor="start" x="45.5" y="-342.8" font-family="Times,serif" font-style="italic" font-size="14.00">skymap_info.json</text>
<polyline fill="none" stroke="black" points="0,-334 215,-334 "/>
<text text-anchor="start" x="8" y="-318.8" font-family="Times,serif" font-size="14.00">EventTriggeredFileHandler</text>
<text text-anchor="start" x="73.5" y="-303.8" font-family="Times,serif" font-size="14.00">JSONFile</text>
</a>
</g>
</g>
<!-- llama.files.skymap_info.SkymapInfo&#45;&gt;llama.files.coinc_plots.CoincSummaryI3LvcTex -->
<g id="edge21" class="edge">
<title>llama.files.skymap_info.SkymapInfo&#45;&gt;llama.files.coinc_plots.CoincSummaryI3LvcTex</title>
<path fill="none" stroke="red" d="M43,-380.19C43,-441.12 43,-546.5 43,-546.5 43,-546.5 1443,-546.5 1443,-546.5 1443,-546.5 1443,-394.68 1443,-394.68"/>
<polygon fill="red" stroke="red" points="1446.5,-394.68 1443,-384.68 1439.5,-394.68 1446.5,-394.68"/>
</g>
<!-- llama.files.skymap_info.SkymapInfo&#45;&gt;llama.files.coinc_significance.opa.CoincSignificanceI3Lvc -->
<g id="edge22" class="edge">
<title>llama.files.skymap_info.SkymapInfo&#45;&gt;llama.files.coinc_significance.opa.CoincSignificanceI3Lvc</title>
<path fill="none" stroke="red" d="M129,-380.24C129,-402.85 129,-426.1 129,-426.1 129,-426.1 795.32,-426.1 795.32,-426.1"/>
<polygon fill="red" stroke="red" points="795.32,-429.6 805.32,-426.1 795.32,-422.6 795.32,-429.6"/>
</g>
<!-- llama.files.skymap_info.SkymapInfo&#45;&gt;llama.files.gracedb.LVCGraceDbEventData -->
<g id="edge23" class="edge">
<title>llama.files.skymap_info.SkymapInfo&#45;&gt;llama.files.gracedb.LVCGraceDbEventData</title>
<path fill="none" stroke="red" d="M215.38,-352.17C215.38,-352.17 255.38,-352.17 255.38,-352.17"/>
<polygon fill="red" stroke="red" points="255.38,-355.67 265.38,-352.17 255.38,-348.67 255.38,-355.67"/>
</g>
<!-- llama.files.skymap_info.SkymapInfo&#45;&gt;llama.files.gracedb.PAstro -->
<g id="edge24" class="edge">
<title>llama.files.skymap_info.SkymapInfo&#45;&gt;llama.files.gracedb.PAstro</title>
<path fill="none" stroke="red" d="M172,-380.22C172,-422.08 172,-480 172,-480 172,-480 259.94,-480 259.94,-480"/>
<polygon fill="red" stroke="red" points="259.94,-483.5 269.94,-480 259.94,-476.5 259.94,-483.5"/>
</g>
<!-- llama.files.skymap_info.SkymapInfo&#45;&gt;llama.files.i3.json.IceCubeNeutrinoList -->
<g id="edge25" class="edge">
<title>llama.files.skymap_info.SkymapInfo&#45;&gt;llama.files.i3.json.IceCubeNeutrinoList</title>
<path fill="none" stroke="red" d="M162,-295.82C162,-235.55 162,-132 162,-132 162,-132 541.36,-132 541.36,-132"/>
<polygon fill="red" stroke="red" points="541.36,-135.5 551.36,-132 541.36,-128.5 541.36,-135.5"/>
</g>
<!-- llama.files.skymap_info.SkymapInfo&#45;&gt;llama.files.i3.tex.IceCubeNeutrinoListTex -->
<g id="edge26" class="edge">
<title>llama.files.skymap_info.SkymapInfo&#45;&gt;llama.files.i3.tex.IceCubeNeutrinoListTex</title>
<path fill="none" stroke="red" d="M86,-380.15C86,-437.89 86,-534.5 86,-534.5 86,-534.5 1176,-534.5 1176,-534.5 1176,-534.5 1176,-457.82 1176,-457.82"/>
<polygon fill="red" stroke="red" points="1179.5,-457.82 1176,-447.82 1172.5,-457.82 1179.5,-457.82"/>
</g>
<!-- llama.files.skymap_info.SkymapInfo&#45;&gt;llama.files.i3.txt.IceCubeNeutrinoListCoincTxt -->
<g id="edge27" class="edge">
<title>llama.files.skymap_info.SkymapInfo&#45;&gt;llama.files.i3.txt.IceCubeNeutrinoListCoincTxt</title>
<path fill="none" stroke="red" d="M108,-295.93C108,-222.75 108,-79.75 108,-79.75 108,-79.75 1037.79,-79.75 1037.79,-79.75"/>
<polygon fill="red" stroke="red" points="1037.79,-83.25 1047.79,-79.75 1037.79,-76.25 1037.79,-83.25"/>
</g>
<!-- llama.files.skymap_info.SkymapInfo&#45;&gt;llama.files.i3.txt.IceCubeNeutrinoListTxt -->
<g id="edge28" class="edge">
<title>llama.files.skymap_info.SkymapInfo&#45;&gt;llama.files.i3.txt.IceCubeNeutrinoListTxt</title>
<path fill="none" stroke="red" d="M54,-295.87C54,-212.61 54,-35 54,-35 54,-35 792.84,-35 792.84,-35"/>
<polygon fill="red" stroke="red" points="792.84,-38.5 802.84,-35 792.84,-31.5 792.84,-38.5"/>
</g>
<!-- llama.files.skymap_info.SkymapInfo&#45;&gt;llama.files.lvc_skymap.LvcSkymapFits -->
<g id="edge29" class="edge">
<title>llama.files.skymap_info.SkymapInfo&#45;&gt;llama.files.lvc_skymap.LvcSkymapFits</title>
<path fill="none" stroke="red" d="M215.18,-323.83C239.86,-323.83 259,-323.83 259,-323.83 259,-323.83 259,-286.55 259,-286.55"/>
<polygon fill="red" stroke="red" points="262.5,-286.55 259,-276.55 255.5,-286.55 262.5,-286.55"/>
</g>
</g>
</svg>
