<?xml version="1.0" encoding="UTF-8" standalone="no"?>
<!DOCTYPE svg PUBLIC "-//W3C//DTD SVG 1.1//EN"
 "http://www.w3.org/Graphics/SVG/1.1/DTD/svg11.dtd">
<!-- Generated by graphviz version 2.42.3 (20191010.1750)
 -->
<!-- Title: llama.files.coinc_plots.RctSlkLmaCoincScatterZtfI3LvcPng Pages: 1 -->
<svg width="1385pt" height="292pt"
 viewBox="0.00 0.00 1385.00 292.00" xmlns="http://www.w3.org/2000/svg" xmlns:xlink="http://www.w3.org/1999/xlink">
<g id="graph0" class="graph" transform="scale(1 1) rotate(0) translate(4 288)">
<title>llama.files.coinc_plots.RctSlkLmaCoincScatterZtfI3LvcPng</title>
<polygon fill="transparent" stroke="transparent" points="-4,4 -4,-288 1381,-288 1381,4 -4,4"/>
<!-- llama.files.coinc_plots.CoincScatterZtfI3LvcPng -->
<g id="node1" class="node">
<title>llama.files.coinc_plots.CoincScatterZtfI3LvcPng</title>
<g id="a_node1"><a xlink:href="/llama.files.coinc_plots.html#llama.files.coinc_plots.CoincScatterZtfI3LvcPng" xlink:title="{{&lt;B&gt;CoincScatterZtfI3LvcPng&lt;/B&gt;|&lt;I&gt;scatterplot_lvc&#45;i3&#45;ztf.png&lt;/I&gt;|CoincScatterZtfI3Lvc}}" target="_top">
<polygon fill="#cccccc" stroke="black" points="803,-142 803,-211 1021,-211 1021,-142 803,-142"/>
<text text-anchor="start" x="811" y="-196.8" font-family="Times,serif" font-weight="bold" font-size="14.00">CoincScatterZtfI3LvcPng</text>
<polyline fill="none" stroke="black" points="803,-188 1021,-188 "/>
<text text-anchor="start" x="822" y="-173.8" font-family="Times,serif" font-style="italic" font-size="14.00">scatterplot_lvc&#45;i3&#45;ztf.png</text>
<polyline fill="none" stroke="black" points="803,-165 1021,-165 "/>
<text text-anchor="start" x="833.5" y="-149.8" font-family="Times,serif" font-size="14.00">CoincScatterZtfI3Lvc</text>
</a>
</g>
</g>
<!-- llama.files.coinc_plots.RctSlkLmaCoincScatterZtfI3LvcPng -->
<g id="node2" class="node">
<title>llama.files.coinc_plots.RctSlkLmaCoincScatterZtfI3LvcPng</title>
<g id="a_node2"><a xlink:href="/llama.files.coinc_plots.html#llama.files.coinc_plots.RctSlkLmaCoincScatterZtfI3LvcPng" xlink:title="{{&lt;B&gt;RctSlkLmaCoincScatterZtfI3LvcPng&lt;/B&gt;|&lt;I&gt;rct_slk_lma_scatterplot_lvc&#45;i3&#45;ztf.png.json&lt;/I&gt;|SlackReceiptLlama}}" target="_top">
<polygon fill="#cccccc" stroke="black" points="1057,-177 1057,-246 1377,-246 1377,-177 1057,-177"/>
<text text-anchor="start" x="1072.5" y="-231.8" font-family="Times,serif" font-weight="bold" font-size="14.00">RctSlkLmaCoincScatterZtfI3LvcPng</text>
<polyline fill="none" stroke="black" points="1057,-223 1377,-223 "/>
<text text-anchor="start" x="1065" y="-208.8" font-family="Times,serif" font-style="italic" font-size="14.00">rct_slk_lma_scatterplot_lvc&#45;i3&#45;ztf.png.json</text>
<polyline fill="none" stroke="black" points="1057,-200 1377,-200 "/>
<text text-anchor="start" x="1147.5" y="-184.8" font-family="Times,serif" font-size="14.00">SlackReceiptLlama</text>
</a>
</g>
</g>
<!-- llama.files.coinc_plots.CoincScatterZtfI3LvcPng&#45;&gt;llama.files.coinc_plots.RctSlkLmaCoincScatterZtfI3LvcPng -->
<g id="edge1" class="edge">
<title>llama.files.coinc_plots.CoincScatterZtfI3LvcPng&#45;&gt;llama.files.coinc_plots.RctSlkLmaCoincScatterZtfI3LvcPng</title>
<path fill="none" stroke="red" d="M1021.25,-194C1021.25,-194 1046.91,-194 1046.91,-194"/>
<polygon fill="red" stroke="red" points="1046.91,-197.5 1056.91,-194 1046.91,-190.5 1046.91,-197.5"/>
</g>
<!-- llama.files.i3.json.IceCubeNeutrinoList -->
<g id="node3" class="node">
<title>llama.files.i3.json.IceCubeNeutrinoList</title>
<g id="a_node3"><a xlink:href="/llama.files.i3.json.html#llama.files.i3.json.IceCubeNeutrinoList" xlink:title="{{&lt;B&gt;IceCubeNeutrinoList&lt;/B&gt;|&lt;I&gt;icecube_neutrino_list.json&lt;/I&gt;|JSONFile&lt;BR/&gt;HEALPixPSF}}" target="_top">
<polygon fill="#cccccc" stroke="black" points="551.5,-181.5 551.5,-265.5 755.5,-265.5 755.5,-181.5 551.5,-181.5"/>
<text text-anchor="start" x="569.5" y="-251.3" font-family="Times,serif" font-weight="bold" font-size="14.00">IceCubeNeutrinoList</text>
<polyline fill="none" stroke="black" points="551.5,-242.5 755.5,-242.5 "/>
<text text-anchor="start" x="559.5" y="-228.3" font-family="Times,serif" font-style="italic" font-size="14.00">icecube_neutrino_list.json</text>
<polyline fill="none" stroke="black" points="551.5,-219.5 755.5,-219.5 "/>
<text text-anchor="start" x="619.5" y="-204.3" font-family="Times,serif" font-size="14.00">JSONFile</text>
<text text-anchor="start" x="605.5" y="-189.3" font-family="Times,serif" font-size="14.00">HEALPixPSF</text>
</a>
</g>
</g>
<!-- llama.files.i3.json.IceCubeNeutrinoList&#45;&gt;llama.files.coinc_plots.CoincScatterZtfI3LvcPng -->
<g id="edge2" class="edge">
<title>llama.files.i3.json.IceCubeNeutrinoList&#45;&gt;llama.files.coinc_plots.CoincScatterZtfI3LvcPng</title>
<path fill="none" stroke="red" d="M755.67,-196.25C755.67,-196.25 792.92,-196.25 792.92,-196.25"/>
<polygon fill="red" stroke="red" points="792.92,-199.75 802.92,-196.25 792.92,-192.75 792.92,-199.75"/>
</g>
<!-- llama.files.lvc_skymap.LvcSkymapFits -->
<g id="node4" class="node">
<title>llama.files.lvc_skymap.LvcSkymapFits</title>
<g id="a_node4"><a xlink:href="/llama.files.lvc_skymap.html#llama.files.lvc_skymap.LvcSkymapFits" xlink:title="{{&lt;B&gt;LvcSkymapFits&lt;/B&gt;|&lt;I&gt;lvc_skymap.fits.gz&lt;/I&gt;|GenerateOnceMixin&lt;BR/&gt;LvcHEALPixSkyMapFileHandler&lt;BR/&gt;OnlineVetoMixin}}" target="_top">
<polygon fill="#cccccc" stroke="black" points="251,-104 251,-203 504,-203 504,-104 251,-104"/>
<text text-anchor="start" x="317.5" y="-188.8" font-family="Times,serif" font-weight="bold" font-size="14.00">LvcSkymapFits</text>
<polyline fill="none" stroke="black" points="251,-180 504,-180 "/>
<text text-anchor="start" x="311" y="-165.8" font-family="Times,serif" font-style="italic" font-size="14.00">lvc_skymap.fits.gz</text>
<polyline fill="none" stroke="black" points="251,-157 504,-157 "/>
<text text-anchor="start" x="305" y="-141.8" font-family="Times,serif" font-size="14.00">GenerateOnceMixin</text>
<text text-anchor="start" x="259" y="-126.8" font-family="Times,serif" font-size="14.00">LvcHEALPixSkyMapFileHandler</text>
<text text-anchor="start" x="317.5" y="-111.8" font-family="Times,serif" font-size="14.00">OnlineVetoMixin</text>
</a>
</g>
</g>
<!-- llama.files.lvc_skymap.LvcSkymapHdf5 -->
<g id="node5" class="node">
<title>llama.files.lvc_skymap.LvcSkymapHdf5</title>
<g id="a_node5"><a xlink:href="/llama.files.lvc_skymap.html#llama.files.lvc_skymap.LvcSkymapHdf5" xlink:title="{{&lt;B&gt;LvcSkymapHdf5&lt;/B&gt;|&lt;I&gt;lvc_skymap.hdf5&lt;/I&gt;|HEALPixSkyMapFileHandler}}" target="_top">
<polygon fill="#cccccc" stroke="black" points="540,-94 540,-163 767,-163 767,-94 540,-94"/>
<text text-anchor="start" x="589" y="-148.8" font-family="Times,serif" font-weight="bold" font-size="14.00">LvcSkymapHdf5</text>
<polyline fill="none" stroke="black" points="540,-140 767,-140 "/>
<text text-anchor="start" x="593" y="-125.8" font-family="Times,serif" font-style="italic" font-size="14.00">lvc_skymap.hdf5</text>
<polyline fill="none" stroke="black" points="540,-117 767,-117 "/>
<text text-anchor="start" x="548" y="-101.8" font-family="Times,serif" font-size="14.00">HEALPixSkyMapFileHandler</text>
</a>
</g>
</g>
<!-- llama.files.lvc_skymap.LvcSkymapFits&#45;&gt;llama.files.lvc_skymap.LvcSkymapHdf5 -->
<g id="edge3" class="edge">
<title>llama.files.lvc_skymap.LvcSkymapFits&#45;&gt;llama.files.lvc_skymap.LvcSkymapHdf5</title>
<path fill="none" stroke="red" d="M504.19,-133.5C504.19,-133.5 529.88,-133.5 529.88,-133.5"/>
<polygon fill="red" stroke="red" points="529.88,-137 539.88,-133.5 529.88,-130 529.88,-137"/>
</g>
<!-- llama.files.lvc_skymap.LvcSkymapHdf5&#45;&gt;llama.files.coinc_plots.CoincScatterZtfI3LvcPng -->
<g id="edge4" class="edge">
<title>llama.files.lvc_skymap.LvcSkymapHdf5&#45;&gt;llama.files.coinc_plots.CoincScatterZtfI3LvcPng</title>
<path fill="none" stroke="red" d="M767.26,-152.5C767.26,-152.5 792.73,-152.5 792.73,-152.5"/>
<polygon fill="red" stroke="red" points="792.74,-156 802.73,-152.5 792.73,-149 792.74,-156"/>
</g>
<!-- llama.files.skymap_info.SkymapInfo -->
<g id="node6" class="node">
<title>llama.files.skymap_info.SkymapInfo</title>
<g id="a_node6"><a xlink:href="/llama.files.skymap_info.html#llama.files.skymap_info.SkymapInfo" xlink:title="{{&lt;B&gt;SkymapInfo&lt;/B&gt;|&lt;I&gt;skymap_info.json&lt;/I&gt;|EventTriggeredFileHandler&lt;BR/&gt;JSONFile}}" target="_top">
<polygon fill="#cccccc" stroke="black" points="0,-150.5 0,-234.5 215,-234.5 215,-150.5 0,-150.5"/>
<text text-anchor="start" x="59.5" y="-220.3" font-family="Times,serif" font-weight="bold" font-size="14.00">SkymapInfo</text>
<polyline fill="none" stroke="black" points="0,-211.5 215,-211.5 "/>
<text text-anchor="start" x="45.5" y="-197.3" font-family="Times,serif" font-style="italic" font-size="14.00">skymap_info.json</text>
<polyline fill="none" stroke="black" points="0,-188.5 215,-188.5 "/>
<text text-anchor="start" x="8" y="-173.3" font-family="Times,serif" font-size="14.00">EventTriggeredFileHandler</text>
<text text-anchor="start" x="73.5" y="-158.3" font-family="Times,serif" font-size="14.00">JSONFile</text>
</a>
</g>
</g>
<!-- llama.files.skymap_info.SkymapInfo&#45;&gt;llama.files.coinc_plots.RctSlkLmaCoincScatterZtfI3LvcPng -->
<g id="edge5" class="edge">
<title>llama.files.skymap_info.SkymapInfo&#45;&gt;llama.files.coinc_plots.RctSlkLmaCoincScatterZtfI3LvcPng</title>
<path fill="none" stroke="red" d="M108,-234.5C108,-258.55 108,-284 108,-284 108,-284 1217,-284 1217,-284 1217,-284 1217,-256.05 1217,-256.05"/>
<polygon fill="red" stroke="red" points="1220.5,-256.05 1217,-246.05 1213.5,-256.05 1220.5,-256.05"/>
</g>
<!-- llama.files.skymap_info.SkymapInfo&#45;&gt;llama.files.i3.json.IceCubeNeutrinoList -->
<g id="edge6" class="edge">
<title>llama.files.skymap_info.SkymapInfo&#45;&gt;llama.files.i3.json.IceCubeNeutrinoList</title>
<path fill="none" stroke="red" d="M215.05,-219.25C215.05,-219.25 541.27,-219.25 541.27,-219.25"/>
<polygon fill="red" stroke="red" points="541.27,-222.75 551.27,-219.25 541.27,-215.75 541.27,-222.75"/>
</g>
<!-- llama.files.skymap_info.SkymapInfo&#45;&gt;llama.files.lvc_skymap.LvcSkymapFits -->
<g id="edge7" class="edge">
<title>llama.files.skymap_info.SkymapInfo&#45;&gt;llama.files.lvc_skymap.LvcSkymapFits</title>
<path fill="none" stroke="red" d="M215.38,-176.75C215.38,-176.75 240.66,-176.75 240.66,-176.75"/>
<polygon fill="red" stroke="red" points="240.66,-180.25 250.66,-176.75 240.66,-173.25 240.66,-180.25"/>
</g>
<!-- llama.files.ztf_trigger_list.ZtfTriggerList -->
<g id="node7" class="node">
<title>llama.files.ztf_trigger_list.ZtfTriggerList</title>
<g id="a_node7"><a xlink:href="/llama.files.ztf_trigger_list.html#llama.files.ztf_trigger_list.ZtfTriggerList" xlink:title="{{&lt;B&gt;ZtfTriggerList&lt;/B&gt;|&lt;I&gt;ztf_trigger_list.json&lt;/I&gt;|JSONFile&lt;BR/&gt;HEALPixPSF}}" target="_top">
<polygon fill="#cccccc" stroke="black" points="299,-0.5 299,-84.5 456,-84.5 456,-0.5 299,-0.5"/>
<text text-anchor="start" x="321.5" y="-70.3" font-family="Times,serif" font-weight="bold" font-size="14.00">ZtfTriggerList</text>
<polyline fill="none" stroke="black" points="299,-61.5 456,-61.5 "/>
<text text-anchor="start" x="307" y="-47.3" font-family="Times,serif" font-style="italic" font-size="14.00">ztf_trigger_list.json</text>
<polyline fill="none" stroke="black" points="299,-38.5 456,-38.5 "/>
<text text-anchor="start" x="343.5" y="-23.3" font-family="Times,serif" font-size="14.00">JSONFile</text>
<text text-anchor="start" x="329.5" y="-8.3" font-family="Times,serif" font-size="14.00">HEALPixPSF</text>
</a>
</g>
</g>
<!-- llama.files.skymap_info.SkymapInfo&#45;&gt;llama.files.ztf_trigger_list.ZtfTriggerList -->
<g id="edge8" class="edge">
<title>llama.files.skymap_info.SkymapInfo&#45;&gt;llama.files.ztf_trigger_list.ZtfTriggerList</title>
<path fill="none" stroke="red" d="M108,-150.32C108,-105.95 108,-42.5 108,-42.5 108,-42.5 288.82,-42.5 288.82,-42.5"/>
<polygon fill="red" stroke="red" points="288.83,-46 298.82,-42.5 288.82,-39 288.83,-46"/>
</g>
<!-- llama.files.ztf_trigger_list.ZtfTriggerList&#45;&gt;llama.files.coinc_plots.CoincScatterZtfI3LvcPng -->
<g id="edge9" class="edge">
<title>llama.files.ztf_trigger_list.ZtfTriggerList&#45;&gt;llama.files.coinc_plots.CoincScatterZtfI3LvcPng</title>
<path fill="none" stroke="red" d="M456.08,-42.5C604.65,-42.5 912,-42.5 912,-42.5 912,-42.5 912,-131.99 912,-131.99"/>
<polygon fill="red" stroke="red" points="908.5,-131.99 912,-141.99 915.5,-131.99 908.5,-131.99"/>
</g>
</g>
</svg>
