<?xml version="1.0" encoding="UTF-8" standalone="no"?>
<!DOCTYPE svg PUBLIC "-//W3C//DTD SVG 1.1//EN"
 "http://www.w3.org/Graphics/SVG/1.1/DTD/svg11.dtd">
<!-- Generated by graphviz version 2.42.3 (20191010.1750)
 -->
<!-- Title: llama.files.uw_summary.UwSummary Pages: 1 -->
<svg width="396pt" height="93pt"
 viewBox="0.00 0.00 396.00 93.00" xmlns="http://www.w3.org/2000/svg" xmlns:xlink="http://www.w3.org/1999/xlink">
<g id="graph0" class="graph" transform="scale(1 1) rotate(0) translate(4 89)">
<title>llama.files.uw_summary.UwSummary</title>
<polygon fill="transparent" stroke="transparent" points="-4,4 -4,-89 392,-89 392,4 -4,4"/>
<!-- llama.files.lvc_gcn_xml.LvcGcnXml -->
<g id="node1" class="node">
<title>llama.files.lvc_gcn_xml.LvcGcnXml</title>
<g id="a_node1"><a xlink:href="/llama.files.lvc_gcn_xml.html#llama.files.lvc_gcn_xml.LvcGcnXml" xlink:title="{{&lt;B&gt;LvcGcnXml&lt;/B&gt;|&lt;I&gt;lvc_gcn.xml&lt;/I&gt;|EventTriggeredFileHandler}}" target="_top">
<polygon fill="#cccccc" stroke="black" points="0,-8 0,-77 215,-77 215,-8 0,-8"/>
<text text-anchor="start" x="62" y="-62.8" font-family="Times,serif" font-weight="bold" font-size="14.00">LvcGcnXml</text>
<polyline fill="none" stroke="black" points="0,-54 215,-54 "/>
<text text-anchor="start" x="64.5" y="-39.8" font-family="Times,serif" font-style="italic" font-size="14.00">lvc_gcn.xml</text>
<polyline fill="none" stroke="black" points="0,-31 215,-31 "/>
<text text-anchor="start" x="8" y="-15.8" font-family="Times,serif" font-size="14.00">EventTriggeredFileHandler</text>
</a>
</g>
</g>
<!-- llama.files.uw_summary.UwSummary -->
<g id="node2" class="node">
<title>llama.files.uw_summary.UwSummary</title>
<g id="a_node2"><a xlink:href="/llama.files.uw_summary.html#llama.files.uw_summary.UwSummary" xlink:title="{{&lt;B&gt;UwSummary&lt;/B&gt;|&lt;I&gt;uw_summary.tex&lt;/I&gt;|FileHandler&lt;BR/&gt;OnlineVetoMixin}}" target="_top">
<polygon fill="#cccccc" stroke="black" points="251,-0.5 251,-84.5 388,-84.5 388,-0.5 251,-0.5"/>
<text text-anchor="start" x="269" y="-70.3" font-family="Times,serif" font-weight="bold" font-size="14.00">UwSummary</text>
<polyline fill="none" stroke="black" points="251,-61.5 388,-61.5 "/>
<text text-anchor="start" x="259" y="-47.3" font-family="Times,serif" font-style="italic" font-size="14.00">uw_summary.tex</text>
<polyline fill="none" stroke="black" points="251,-38.5 388,-38.5 "/>
<text text-anchor="start" x="276.5" y="-23.3" font-family="Times,serif" font-size="14.00">FileHandler</text>
<text text-anchor="start" x="259.5" y="-8.3" font-family="Times,serif" font-size="14.00">OnlineVetoMixin</text>
</a>
</g>
</g>
<!-- llama.files.lvc_gcn_xml.LvcGcnXml&#45;&gt;llama.files.uw_summary.UwSummary -->
<g id="edge1" class="edge">
<title>llama.files.lvc_gcn_xml.LvcGcnXml&#45;&gt;llama.files.uw_summary.UwSummary</title>
<path fill="none" stroke="red" d="M215.05,-42.5C215.05,-42.5 240.92,-42.5 240.92,-42.5"/>
<polygon fill="red" stroke="red" points="240.92,-46 250.92,-42.5 240.91,-39 240.92,-46"/>
</g>
</g>
</svg>
