<?xml version="1.0" encoding="UTF-8" standalone="no"?>
<!DOCTYPE svg PUBLIC "-//W3C//DTD SVG 1.1//EN"
 "http://www.w3.org/Graphics/SVG/1.1/DTD/svg11.dtd">
<!-- Generated by graphviz version 2.42.3 (20191010.1750)
 -->
<!-- Title: llama.files.slack.RctSlkLmaLvcGcnXml Pages: 1 -->
<svg width="486pt" height="181pt"
 viewBox="0.00 0.00 486.00 180.50" xmlns="http://www.w3.org/2000/svg" xmlns:xlink="http://www.w3.org/1999/xlink">
<g id="graph0" class="graph" transform="scale(1 1) rotate(0) translate(4 176.5)">
<title>llama.files.slack.RctSlkLmaLvcGcnXml</title>
<polygon fill="transparent" stroke="transparent" points="-4,4 -4,-176.5 482,-176.5 482,4 -4,4"/>
<!-- llama.files.lvc_gcn_xml.LvcGcnXml -->
<g id="node1" class="node">
<title>llama.files.lvc_gcn_xml.LvcGcnXml</title>
<g id="a_node1"><a xlink:href="/llama.files.lvc_gcn_xml.html#llama.files.lvc_gcn_xml.LvcGcnXml" xlink:title="{{&lt;B&gt;LvcGcnXml&lt;/B&gt;|&lt;I&gt;lvc_gcn.xml&lt;/I&gt;|EventTriggeredFileHandler}}" target="_top">
<polygon fill="#cccccc" stroke="black" points="0,-103 0,-172 215,-172 215,-103 0,-103"/>
<text text-anchor="start" x="62" y="-157.8" font-family="Times,serif" font-weight="bold" font-size="14.00">LvcGcnXml</text>
<polyline fill="none" stroke="black" points="0,-149 215,-149 "/>
<text text-anchor="start" x="64.5" y="-134.8" font-family="Times,serif" font-style="italic" font-size="14.00">lvc_gcn.xml</text>
<polyline fill="none" stroke="black" points="0,-126 215,-126 "/>
<text text-anchor="start" x="8" y="-110.8" font-family="Times,serif" font-size="14.00">EventTriggeredFileHandler</text>
</a>
</g>
</g>
<!-- llama.files.slack.RctSlkLmaLvcGcnXml -->
<g id="node3" class="node">
<title>llama.files.slack.RctSlkLmaLvcGcnXml</title>
<g id="a_node3"><a xlink:href="/llama.files.slack.html#llama.files.slack.RctSlkLmaLvcGcnXml" xlink:title="{{&lt;B&gt;RctSlkLmaLvcGcnXml&lt;/B&gt;|&lt;I&gt;rct_slk_lma_lvc_gcn.xml.json&lt;/I&gt;|SlackReceiptLlama}}" target="_top">
<polygon fill="#cccccc" stroke="black" points="251,-55 251,-124 478,-124 478,-55 251,-55"/>
<text text-anchor="start" x="275.5" y="-109.8" font-family="Times,serif" font-weight="bold" font-size="14.00">RctSlkLmaLvcGcnXml</text>
<polyline fill="none" stroke="black" points="251,-101 478,-101 "/>
<text text-anchor="start" x="259" y="-86.8" font-family="Times,serif" font-style="italic" font-size="14.00">rct_slk_lma_lvc_gcn.xml.json</text>
<polyline fill="none" stroke="black" points="251,-78 478,-78 "/>
<text text-anchor="start" x="295" y="-62.8" font-family="Times,serif" font-size="14.00">SlackReceiptLlama</text>
</a>
</g>
</g>
<!-- llama.files.lvc_gcn_xml.LvcGcnXml&#45;&gt;llama.files.slack.RctSlkLmaLvcGcnXml -->
<g id="edge1" class="edge">
<title>llama.files.lvc_gcn_xml.LvcGcnXml&#45;&gt;llama.files.slack.RctSlkLmaLvcGcnXml</title>
<path fill="none" stroke="red" d="M215,-113.5C215,-113.5 240.81,-113.5 240.81,-113.5"/>
<polygon fill="red" stroke="red" points="240.81,-117 250.81,-113.5 240.81,-110 240.81,-117"/>
</g>
<!-- llama.files.skymap_info.SkymapInfo -->
<g id="node2" class="node">
<title>llama.files.skymap_info.SkymapInfo</title>
<g id="a_node2"><a xlink:href="/llama.files.skymap_info.html#llama.files.skymap_info.SkymapInfo" xlink:title="{{&lt;B&gt;SkymapInfo&lt;/B&gt;|&lt;I&gt;skymap_info.json&lt;/I&gt;|EventTriggeredFileHandler&lt;BR/&gt;JSONFile}}" target="_top">
<polygon fill="#cccccc" stroke="black" points="0,-0.5 0,-84.5 215,-84.5 215,-0.5 0,-0.5"/>
<text text-anchor="start" x="59.5" y="-70.3" font-family="Times,serif" font-weight="bold" font-size="14.00">SkymapInfo</text>
<polyline fill="none" stroke="black" points="0,-61.5 215,-61.5 "/>
<text text-anchor="start" x="45.5" y="-47.3" font-family="Times,serif" font-style="italic" font-size="14.00">skymap_info.json</text>
<polyline fill="none" stroke="black" points="0,-38.5 215,-38.5 "/>
<text text-anchor="start" x="8" y="-23.3" font-family="Times,serif" font-size="14.00">EventTriggeredFileHandler</text>
<text text-anchor="start" x="73.5" y="-8.3" font-family="Times,serif" font-size="14.00">JSONFile</text>
</a>
</g>
</g>
<!-- llama.files.skymap_info.SkymapInfo&#45;&gt;llama.files.slack.RctSlkLmaLvcGcnXml -->
<g id="edge2" class="edge">
<title>llama.files.skymap_info.SkymapInfo&#45;&gt;llama.files.slack.RctSlkLmaLvcGcnXml</title>
<path fill="none" stroke="red" d="M215,-69.75C215,-69.75 240.81,-69.75 240.81,-69.75"/>
<polygon fill="red" stroke="red" points="240.81,-73.25 250.81,-69.75 240.81,-66.25 240.81,-73.25"/>
</g>
</g>
</svg>
