<?xml version="1.0" encoding="UTF-8" standalone="no"?>
<!DOCTYPE svg PUBLIC "-//W3C//DTD SVG 1.1//EN"
 "http://www.w3.org/Graphics/SVG/1.1/DTD/svg11.dtd">
<!-- Generated by graphviz version 2.42.3 (20191010.1750)
 -->
<!-- Title: llama.files.coinc_plots.RctSlkLmaCoincScatterI3LvcPdf Pages: 1 -->
<svg width="1331pt" height="214pt"
 viewBox="0.00 0.00 1331.00 214.00" xmlns="http://www.w3.org/2000/svg" xmlns:xlink="http://www.w3.org/1999/xlink">
<g id="graph0" class="graph" transform="scale(1 1) rotate(0) translate(4 210)">
<title>llama.files.coinc_plots.RctSlkLmaCoincScatterI3LvcPdf</title>
<polygon fill="transparent" stroke="transparent" points="-4,4 -4,-210 1327,-210 1327,4 -4,4"/>
<!-- llama.files.coinc_plots.CoincScatterI3LvcPdf -->
<g id="node1" class="node">
<title>llama.files.coinc_plots.CoincScatterI3LvcPdf</title>
<g id="a_node1"><a xlink:href="/llama.files.coinc_plots.html#llama.files.coinc_plots.CoincScatterI3LvcPdf" xlink:title="{{&lt;B&gt;CoincScatterI3LvcPdf&lt;/B&gt;|&lt;I&gt;scatterplot_lvc&#45;i3.pdf&lt;/I&gt;|CoincScatterI3Lvc}}" target="_top">
<polygon fill="#cccccc" stroke="black" points="803,-101.5 803,-170.5 994,-170.5 994,-101.5 803,-101.5"/>
<text text-anchor="start" x="811" y="-156.3" font-family="Times,serif" font-weight="bold" font-size="14.00">CoincScatterI3LvcPdf</text>
<polyline fill="none" stroke="black" points="803,-147.5 994,-147.5 "/>
<text text-anchor="start" x="821.5" y="-133.3" font-family="Times,serif" font-style="italic" font-size="14.00">scatterplot_lvc&#45;i3.pdf</text>
<polyline fill="none" stroke="black" points="803,-124.5 994,-124.5 "/>
<text text-anchor="start" x="830.5" y="-109.3" font-family="Times,serif" font-size="14.00">CoincScatterI3Lvc</text>
</a>
</g>
</g>
<!-- llama.files.coinc_plots.RctSlkLmaCoincScatterI3LvcPdf -->
<g id="node2" class="node">
<title>llama.files.coinc_plots.RctSlkLmaCoincScatterI3LvcPdf</title>
<g id="a_node2"><a xlink:href="/llama.files.coinc_plots.html#llama.files.coinc_plots.RctSlkLmaCoincScatterI3LvcPdf" xlink:title="{{&lt;B&gt;RctSlkLmaCoincScatterI3LvcPdf&lt;/B&gt;|&lt;I&gt;rct_slk_lma_scatterplot_lvc&#45;i3.pdf.json&lt;/I&gt;|SlackReceiptLlama}}" target="_top">
<polygon fill="#cccccc" stroke="black" points="1030,-136.5 1030,-205.5 1323,-205.5 1323,-136.5 1030,-136.5"/>
<text text-anchor="start" x="1045.5" y="-191.3" font-family="Times,serif" font-weight="bold" font-size="14.00">RctSlkLmaCoincScatterI3LvcPdf</text>
<polyline fill="none" stroke="black" points="1030,-182.5 1323,-182.5 "/>
<text text-anchor="start" x="1038" y="-168.3" font-family="Times,serif" font-style="italic" font-size="14.00">rct_slk_lma_scatterplot_lvc&#45;i3.pdf.json</text>
<polyline fill="none" stroke="black" points="1030,-159.5 1323,-159.5 "/>
<text text-anchor="start" x="1107" y="-144.3" font-family="Times,serif" font-size="14.00">SlackReceiptLlama</text>
</a>
</g>
</g>
<!-- llama.files.coinc_plots.CoincScatterI3LvcPdf&#45;&gt;llama.files.coinc_plots.RctSlkLmaCoincScatterI3LvcPdf -->
<g id="edge1" class="edge">
<title>llama.files.coinc_plots.CoincScatterI3LvcPdf&#45;&gt;llama.files.coinc_plots.RctSlkLmaCoincScatterI3LvcPdf</title>
<path fill="none" stroke="red" d="M994.17,-153.5C994.17,-153.5 1019.52,-153.5 1019.52,-153.5"/>
<polygon fill="red" stroke="red" points="1019.52,-157 1029.52,-153.5 1019.52,-150 1019.52,-157"/>
</g>
<!-- llama.files.i3.json.IceCubeNeutrinoList -->
<g id="node3" class="node">
<title>llama.files.i3.json.IceCubeNeutrinoList</title>
<g id="a_node3"><a xlink:href="/llama.files.i3.json.html#llama.files.i3.json.IceCubeNeutrinoList" xlink:title="{{&lt;B&gt;IceCubeNeutrinoList&lt;/B&gt;|&lt;I&gt;icecube_neutrino_list.json&lt;/I&gt;|JSONFile&lt;BR/&gt;HEALPixPSF}}" target="_top">
<polygon fill="#cccccc" stroke="black" points="551.5,-94 551.5,-178 755.5,-178 755.5,-94 551.5,-94"/>
<text text-anchor="start" x="569.5" y="-163.8" font-family="Times,serif" font-weight="bold" font-size="14.00">IceCubeNeutrinoList</text>
<polyline fill="none" stroke="black" points="551.5,-155 755.5,-155 "/>
<text text-anchor="start" x="559.5" y="-140.8" font-family="Times,serif" font-style="italic" font-size="14.00">icecube_neutrino_list.json</text>
<polyline fill="none" stroke="black" points="551.5,-132 755.5,-132 "/>
<text text-anchor="start" x="619.5" y="-116.8" font-family="Times,serif" font-size="14.00">JSONFile</text>
<text text-anchor="start" x="605.5" y="-101.8" font-family="Times,serif" font-size="14.00">HEALPixPSF</text>
</a>
</g>
</g>
<!-- llama.files.i3.json.IceCubeNeutrinoList&#45;&gt;llama.files.coinc_plots.CoincScatterI3LvcPdf -->
<g id="edge2" class="edge">
<title>llama.files.i3.json.IceCubeNeutrinoList&#45;&gt;llama.files.coinc_plots.CoincScatterI3LvcPdf</title>
<path fill="none" stroke="red" d="M755.63,-147.67C755.63,-147.67 792.81,-147.67 792.81,-147.67"/>
<polygon fill="red" stroke="red" points="792.81,-151.17 802.81,-147.67 792.81,-144.17 792.81,-151.17"/>
</g>
<!-- llama.files.lvc_skymap.LvcSkymapFits -->
<g id="node4" class="node">
<title>llama.files.lvc_skymap.LvcSkymapFits</title>
<g id="a_node4"><a xlink:href="/llama.files.lvc_skymap.html#llama.files.lvc_skymap.LvcSkymapFits" xlink:title="{{&lt;B&gt;LvcSkymapFits&lt;/B&gt;|&lt;I&gt;lvc_skymap.fits.gz&lt;/I&gt;|GenerateOnceMixin&lt;BR/&gt;LvcHEALPixSkyMapFileHandler&lt;BR/&gt;OnlineVetoMixin}}" target="_top">
<polygon fill="#cccccc" stroke="black" points="251,-0.5 251,-99.5 504,-99.5 504,-0.5 251,-0.5"/>
<text text-anchor="start" x="317.5" y="-85.3" font-family="Times,serif" font-weight="bold" font-size="14.00">LvcSkymapFits</text>
<polyline fill="none" stroke="black" points="251,-76.5 504,-76.5 "/>
<text text-anchor="start" x="311" y="-62.3" font-family="Times,serif" font-style="italic" font-size="14.00">lvc_skymap.fits.gz</text>
<polyline fill="none" stroke="black" points="251,-53.5 504,-53.5 "/>
<text text-anchor="start" x="305" y="-38.3" font-family="Times,serif" font-size="14.00">GenerateOnceMixin</text>
<text text-anchor="start" x="259" y="-23.3" font-family="Times,serif" font-size="14.00">LvcHEALPixSkyMapFileHandler</text>
<text text-anchor="start" x="317.5" y="-8.3" font-family="Times,serif" font-size="14.00">OnlineVetoMixin</text>
</a>
</g>
</g>
<!-- llama.files.lvc_skymap.LvcSkymapHdf5 -->
<g id="node5" class="node">
<title>llama.files.lvc_skymap.LvcSkymapHdf5</title>
<g id="a_node5"><a xlink:href="/llama.files.lvc_skymap.html#llama.files.lvc_skymap.LvcSkymapHdf5" xlink:title="{{&lt;B&gt;LvcSkymapHdf5&lt;/B&gt;|&lt;I&gt;lvc_skymap.hdf5&lt;/I&gt;|HEALPixSkyMapFileHandler}}" target="_top">
<polygon fill="#cccccc" stroke="black" points="540,-6.5 540,-75.5 767,-75.5 767,-6.5 540,-6.5"/>
<text text-anchor="start" x="589" y="-61.3" font-family="Times,serif" font-weight="bold" font-size="14.00">LvcSkymapHdf5</text>
<polyline fill="none" stroke="black" points="540,-52.5 767,-52.5 "/>
<text text-anchor="start" x="593" y="-38.3" font-family="Times,serif" font-style="italic" font-size="14.00">lvc_skymap.hdf5</text>
<polyline fill="none" stroke="black" points="540,-29.5 767,-29.5 "/>
<text text-anchor="start" x="548" y="-14.3" font-family="Times,serif" font-size="14.00">HEALPixSkyMapFileHandler</text>
</a>
</g>
</g>
<!-- llama.files.lvc_skymap.LvcSkymapFits&#45;&gt;llama.files.lvc_skymap.LvcSkymapHdf5 -->
<g id="edge3" class="edge">
<title>llama.files.lvc_skymap.LvcSkymapFits&#45;&gt;llama.files.lvc_skymap.LvcSkymapHdf5</title>
<path fill="none" stroke="red" d="M504.19,-41C504.19,-41 529.88,-41 529.88,-41"/>
<polygon fill="red" stroke="red" points="529.88,-44.5 539.88,-41 529.88,-37.5 529.88,-44.5"/>
</g>
<!-- llama.files.lvc_skymap.LvcSkymapHdf5&#45;&gt;llama.files.coinc_plots.CoincScatterI3LvcPdf -->
<g id="edge4" class="edge">
<title>llama.files.lvc_skymap.LvcSkymapHdf5&#45;&gt;llama.files.coinc_plots.CoincScatterI3LvcPdf</title>
<path fill="none" stroke="red" d="M762,-75.86C762,-98.69 762,-124.33 762,-124.33 762,-124.33 792.95,-124.33 792.95,-124.33"/>
<polygon fill="red" stroke="red" points="792.95,-127.83 802.95,-124.33 792.95,-120.83 792.95,-127.83"/>
</g>
<!-- llama.files.skymap_info.SkymapInfo -->
<g id="node6" class="node">
<title>llama.files.skymap_info.SkymapInfo</title>
<g id="a_node6"><a xlink:href="/llama.files.skymap_info.html#llama.files.skymap_info.SkymapInfo" xlink:title="{{&lt;B&gt;SkymapInfo&lt;/B&gt;|&lt;I&gt;skymap_info.json&lt;/I&gt;|EventTriggeredFileHandler&lt;BR/&gt;JSONFile}}" target="_top">
<polygon fill="#cccccc" stroke="black" points="0,-94 0,-178 215,-178 215,-94 0,-94"/>
<text text-anchor="start" x="59.5" y="-163.8" font-family="Times,serif" font-weight="bold" font-size="14.00">SkymapInfo</text>
<polyline fill="none" stroke="black" points="0,-155 215,-155 "/>
<text text-anchor="start" x="45.5" y="-140.8" font-family="Times,serif" font-style="italic" font-size="14.00">skymap_info.json</text>
<polyline fill="none" stroke="black" points="0,-132 215,-132 "/>
<text text-anchor="start" x="8" y="-116.8" font-family="Times,serif" font-size="14.00">EventTriggeredFileHandler</text>
<text text-anchor="start" x="73.5" y="-101.8" font-family="Times,serif" font-size="14.00">JSONFile</text>
</a>
</g>
</g>
<!-- llama.files.skymap_info.SkymapInfo&#45;&gt;llama.files.coinc_plots.RctSlkLmaCoincScatterI3LvcPdf -->
<g id="edge5" class="edge">
<title>llama.files.skymap_info.SkymapInfo&#45;&gt;llama.files.coinc_plots.RctSlkLmaCoincScatterI3LvcPdf</title>
<path fill="none" stroke="red" d="M108,-178.06C108,-186.19 108,-192.25 108,-192.25 108,-192.25 1019.89,-192.25 1019.89,-192.25"/>
<polygon fill="red" stroke="red" points="1019.89,-195.75 1029.89,-192.25 1019.89,-188.75 1019.89,-195.75"/>
</g>
<!-- llama.files.skymap_info.SkymapInfo&#45;&gt;llama.files.i3.json.IceCubeNeutrinoList -->
<g id="edge6" class="edge">
<title>llama.files.skymap_info.SkymapInfo&#45;&gt;llama.files.i3.json.IceCubeNeutrinoList</title>
<path fill="none" stroke="red" d="M215.05,-139.25C215.05,-139.25 541.27,-139.25 541.27,-139.25"/>
<polygon fill="red" stroke="red" points="541.27,-142.75 551.27,-139.25 541.27,-135.75 541.27,-142.75"/>
</g>
<!-- llama.files.skymap_info.SkymapInfo&#45;&gt;llama.files.lvc_skymap.LvcSkymapFits -->
<g id="edge7" class="edge">
<title>llama.files.skymap_info.SkymapInfo&#45;&gt;llama.files.lvc_skymap.LvcSkymapFits</title>
<path fill="none" stroke="red" d="M108,-93.99C108,-70.84 108,-46.75 108,-46.75 108,-46.75 240.64,-46.75 240.64,-46.75"/>
<polygon fill="red" stroke="red" points="240.64,-50.25 250.64,-46.75 240.64,-43.25 240.64,-50.25"/>
</g>
</g>
</svg>
