<?xml version="1.0" encoding="UTF-8" standalone="no"?>
<!DOCTYPE svg PUBLIC "-//W3C//DTD SVG 1.1//EN"
 "http://www.w3.org/Graphics/SVG/1.1/DTD/svg11.dtd">
<!-- Generated by graphviz version 2.42.3 (20191010.1750)
 -->
<!-- Title: llama.files.gwastro.RctGwaLvcGcnXml Pages: 1 -->
<svg width="453pt" height="181pt"
 viewBox="0.00 0.00 453.00 180.50" xmlns="http://www.w3.org/2000/svg" xmlns:xlink="http://www.w3.org/1999/xlink">
<g id="graph0" class="graph" transform="scale(1 1) rotate(0) translate(4 176.5)">
<title>llama.files.gwastro.RctGwaLvcGcnXml</title>
<polygon fill="transparent" stroke="transparent" points="-4,4 -4,-176.5 449,-176.5 449,4 -4,4"/>
<!-- llama.files.gwastro.RctGwaLvcGcnXml -->
<g id="node1" class="node">
<title>llama.files.gwastro.RctGwaLvcGcnXml</title>
<g id="a_node1"><a xlink:href="/llama.files.gwastro.html#llama.files.gwastro.RctGwaLvcGcnXml" xlink:title="{{&lt;B&gt;RctGwaLvcGcnXml&lt;/B&gt;|&lt;I&gt;rct_gwa_lvc_gcn.xml.log&lt;/I&gt;|GWAstroReceipt}}" target="_top">
<polygon fill="#cccccc" stroke="black" points="251,-55 251,-124 445,-124 445,-55 251,-55"/>
<text text-anchor="start" x="272.5" y="-109.8" font-family="Times,serif" font-weight="bold" font-size="14.00">RctGwaLvcGcnXml</text>
<polyline fill="none" stroke="black" points="251,-101 445,-101 "/>
<text text-anchor="start" x="259" y="-86.8" font-family="Times,serif" font-style="italic" font-size="14.00">rct_gwa_lvc_gcn.xml.log</text>
<polyline fill="none" stroke="black" points="251,-78 445,-78 "/>
<text text-anchor="start" x="288" y="-62.8" font-family="Times,serif" font-size="14.00">GWAstroReceipt</text>
</a>
</g>
</g>
<!-- llama.files.lvc_gcn_xml.LvcGcnXml -->
<g id="node2" class="node">
<title>llama.files.lvc_gcn_xml.LvcGcnXml</title>
<g id="a_node2"><a xlink:href="/llama.files.lvc_gcn_xml.html#llama.files.lvc_gcn_xml.LvcGcnXml" xlink:title="{{&lt;B&gt;LvcGcnXml&lt;/B&gt;|&lt;I&gt;lvc_gcn.xml&lt;/I&gt;|EventTriggeredFileHandler}}" target="_top">
<polygon fill="#cccccc" stroke="black" points="0,-103 0,-172 215,-172 215,-103 0,-103"/>
<text text-anchor="start" x="62" y="-157.8" font-family="Times,serif" font-weight="bold" font-size="14.00">LvcGcnXml</text>
<polyline fill="none" stroke="black" points="0,-149 215,-149 "/>
<text text-anchor="start" x="64.5" y="-134.8" font-family="Times,serif" font-style="italic" font-size="14.00">lvc_gcn.xml</text>
<polyline fill="none" stroke="black" points="0,-126 215,-126 "/>
<text text-anchor="start" x="8" y="-110.8" font-family="Times,serif" font-size="14.00">EventTriggeredFileHandler</text>
</a>
</g>
</g>
<!-- llama.files.lvc_gcn_xml.LvcGcnXml&#45;&gt;llama.files.gwastro.RctGwaLvcGcnXml -->
<g id="edge1" class="edge">
<title>llama.files.lvc_gcn_xml.LvcGcnXml&#45;&gt;llama.files.gwastro.RctGwaLvcGcnXml</title>
<path fill="none" stroke="red" d="M215.09,-113.5C215.09,-113.5 240.76,-113.5 240.76,-113.5"/>
<polygon fill="red" stroke="red" points="240.76,-117 250.76,-113.5 240.76,-110 240.76,-117"/>
</g>
<!-- llama.files.skymap_info.SkymapInfo -->
<g id="node3" class="node">
<title>llama.files.skymap_info.SkymapInfo</title>
<g id="a_node3"><a xlink:href="/llama.files.skymap_info.html#llama.files.skymap_info.SkymapInfo" xlink:title="{{&lt;B&gt;SkymapInfo&lt;/B&gt;|&lt;I&gt;skymap_info.json&lt;/I&gt;|EventTriggeredFileHandler&lt;BR/&gt;JSONFile}}" target="_top">
<polygon fill="#cccccc" stroke="black" points="0,-0.5 0,-84.5 215,-84.5 215,-0.5 0,-0.5"/>
<text text-anchor="start" x="59.5" y="-70.3" font-family="Times,serif" font-weight="bold" font-size="14.00">SkymapInfo</text>
<polyline fill="none" stroke="black" points="0,-61.5 215,-61.5 "/>
<text text-anchor="start" x="45.5" y="-47.3" font-family="Times,serif" font-style="italic" font-size="14.00">skymap_info.json</text>
<polyline fill="none" stroke="black" points="0,-38.5 215,-38.5 "/>
<text text-anchor="start" x="8" y="-23.3" font-family="Times,serif" font-size="14.00">EventTriggeredFileHandler</text>
<text text-anchor="start" x="73.5" y="-8.3" font-family="Times,serif" font-size="14.00">JSONFile</text>
</a>
</g>
</g>
<!-- llama.files.skymap_info.SkymapInfo&#45;&gt;llama.files.gwastro.RctGwaLvcGcnXml -->
<g id="edge2" class="edge">
<title>llama.files.skymap_info.SkymapInfo&#45;&gt;llama.files.gwastro.RctGwaLvcGcnXml</title>
<path fill="none" stroke="red" d="M215.09,-69.75C215.09,-69.75 240.76,-69.75 240.76,-69.75"/>
<polygon fill="red" stroke="red" points="240.76,-73.25 250.76,-69.75 240.76,-66.25 240.76,-73.25"/>
</g>
</g>
</svg>
