<?xml version="1.0" encoding="UTF-8" standalone="no"?>
<!DOCTYPE svg PUBLIC "-//W3C//DTD SVG 1.1//EN"
 "http://www.w3.org/Graphics/SVG/1.1/DTD/svg11.dtd">
<!-- Generated by graphviz version 2.42.3 (20191010.1750)
 -->
<!-- Title: llama.files.coinc_o2.CoincAnalysisInitialIcecubeJson Pages: 1 -->
<svg width="1063pt" height="199pt"
 viewBox="0.00 0.00 1063.00 198.50" xmlns="http://www.w3.org/2000/svg" xmlns:xlink="http://www.w3.org/1999/xlink">
<g id="graph0" class="graph" transform="scale(1 1) rotate(0) translate(4 194.5)">
<title>llama.files.coinc_o2.CoincAnalysisInitialIcecubeJson</title>
<polygon fill="transparent" stroke="transparent" points="-4,4 -4,-194.5 1059,-194.5 1059,4 -4,4"/>
<!-- llama.files.coinc_o2.CoincAnalysisInitialIcecubeJson -->
<g id="node1" class="node">
<title>llama.files.coinc_o2.CoincAnalysisInitialIcecubeJson</title>
<g id="a_node1"><a xlink:href="/llama.files.coinc_o2.html#llama.files.coinc_o2.CoincAnalysisInitialIcecubeJson" xlink:title="{{&lt;B&gt;CoincAnalysisInitialIcecubeJson&lt;/B&gt;|&lt;I&gt;coinc_analysis_initial_icecube.json&lt;/I&gt;|CoincAnalysis&lt;BR/&gt;JSONFile}}" target="_top">
<polygon fill="#cccccc" stroke="black" points="780,-88 780,-172 1055,-172 1055,-88 780,-88"/>
<text text-anchor="start" x="788" y="-157.8" font-family="Times,serif" font-weight="bold" font-size="14.00">CoincAnalysisInitialIcecubeJson</text>
<polyline fill="none" stroke="black" points="780,-149 1055,-149 "/>
<text text-anchor="start" x="792.5" y="-134.8" font-family="Times,serif" font-style="italic" font-size="14.00">coinc_analysis_initial_icecube.json</text>
<polyline fill="none" stroke="black" points="780,-126 1055,-126 "/>
<text text-anchor="start" x="866.5" y="-110.8" font-family="Times,serif" font-size="14.00">CoincAnalysis</text>
<text text-anchor="start" x="883.5" y="-95.8" font-family="Times,serif" font-size="14.00">JSONFile</text>
</a>
</g>
</g>
<!-- llama.files.i3.json.IceCubeNeutrinoList -->
<g id="node2" class="node">
<title>llama.files.i3.json.IceCubeNeutrinoList</title>
<g id="a_node2"><a xlink:href="/llama.files.i3.json.html#llama.files.i3.json.IceCubeNeutrinoList" xlink:title="{{&lt;B&gt;IceCubeNeutrinoList&lt;/B&gt;|&lt;I&gt;icecube_neutrino_list.json&lt;/I&gt;|JSONFile&lt;BR/&gt;HEALPixPSF}}" target="_top">
<polygon fill="#cccccc" stroke="black" points="540,-88 540,-172 744,-172 744,-88 540,-88"/>
<text text-anchor="start" x="558" y="-157.8" font-family="Times,serif" font-weight="bold" font-size="14.00">IceCubeNeutrinoList</text>
<polyline fill="none" stroke="black" points="540,-149 744,-149 "/>
<text text-anchor="start" x="548" y="-134.8" font-family="Times,serif" font-style="italic" font-size="14.00">icecube_neutrino_list.json</text>
<polyline fill="none" stroke="black" points="540,-126 744,-126 "/>
<text text-anchor="start" x="608" y="-110.8" font-family="Times,serif" font-size="14.00">JSONFile</text>
<text text-anchor="start" x="594" y="-95.8" font-family="Times,serif" font-size="14.00">HEALPixPSF</text>
</a>
</g>
</g>
<!-- llama.files.i3.json.IceCubeNeutrinoList&#45;&gt;llama.files.coinc_o2.CoincAnalysisInitialIcecubeJson -->
<g id="edge1" class="edge">
<title>llama.files.i3.json.IceCubeNeutrinoList&#45;&gt;llama.files.coinc_o2.CoincAnalysisInitialIcecubeJson</title>
<path fill="none" stroke="red" d="M744.19,-130C744.19,-130 769.84,-130 769.84,-130"/>
<polygon fill="red" stroke="red" points="769.84,-133.5 779.84,-130 769.84,-126.5 769.84,-133.5"/>
</g>
<!-- llama.files.lvc_skymap.LvcSkymapFits -->
<g id="node3" class="node">
<title>llama.files.lvc_skymap.LvcSkymapFits</title>
<g id="a_node3"><a xlink:href="/llama.files.lvc_skymap.html#llama.files.lvc_skymap.LvcSkymapFits" xlink:title="{{&lt;B&gt;LvcSkymapFits&lt;/B&gt;|&lt;I&gt;lvc_skymap.fits.gz&lt;/I&gt;|GenerateOnceMixin&lt;BR/&gt;LvcHEALPixSkyMapFileHandler&lt;BR/&gt;OnlineVetoMixin}}" target="_top">
<polygon fill="#cccccc" stroke="black" points="251,-19.5 251,-118.5 504,-118.5 504,-19.5 251,-19.5"/>
<text text-anchor="start" x="317.5" y="-104.3" font-family="Times,serif" font-weight="bold" font-size="14.00">LvcSkymapFits</text>
<polyline fill="none" stroke="black" points="251,-95.5 504,-95.5 "/>
<text text-anchor="start" x="311" y="-81.3" font-family="Times,serif" font-style="italic" font-size="14.00">lvc_skymap.fits.gz</text>
<polyline fill="none" stroke="black" points="251,-72.5 504,-72.5 "/>
<text text-anchor="start" x="305" y="-57.3" font-family="Times,serif" font-size="14.00">GenerateOnceMixin</text>
<text text-anchor="start" x="259" y="-42.3" font-family="Times,serif" font-size="14.00">LvcHEALPixSkyMapFileHandler</text>
<text text-anchor="start" x="317.5" y="-27.3" font-family="Times,serif" font-size="14.00">OnlineVetoMixin</text>
</a>
</g>
</g>
<!-- llama.files.lvc_skymap_mat.LvcSkymapMat -->
<g id="node4" class="node">
<title>llama.files.lvc_skymap_mat.LvcSkymapMat</title>
<g id="a_node4"><a xlink:href="/llama.files.lvc_skymap_mat.html#llama.files.lvc_skymap_mat.LvcSkymapMat" xlink:title="{{&lt;B&gt;LvcSkymapMat&lt;/B&gt;|&lt;I&gt;lvc_skymap.mat&lt;/I&gt;|FileHandler}}" target="_top">
<polygon fill="#cccccc" stroke="black" points="573.5,-0.5 573.5,-69.5 710.5,-69.5 710.5,-0.5 573.5,-0.5"/>
<text text-anchor="start" x="581.5" y="-55.3" font-family="Times,serif" font-weight="bold" font-size="14.00">LvcSkymapMat</text>
<polyline fill="none" stroke="black" points="573.5,-46.5 710.5,-46.5 "/>
<text text-anchor="start" x="583.5" y="-32.3" font-family="Times,serif" font-style="italic" font-size="14.00">lvc_skymap.mat</text>
<polyline fill="none" stroke="black" points="573.5,-23.5 710.5,-23.5 "/>
<text text-anchor="start" x="599" y="-8.3" font-family="Times,serif" font-size="14.00">FileHandler</text>
</a>
</g>
</g>
<!-- llama.files.lvc_skymap.LvcSkymapFits&#45;&gt;llama.files.lvc_skymap_mat.LvcSkymapMat -->
<g id="edge2" class="edge">
<title>llama.files.lvc_skymap.LvcSkymapFits&#45;&gt;llama.files.lvc_skymap_mat.LvcSkymapMat</title>
<path fill="none" stroke="red" d="M504.33,-44.5C504.33,-44.5 563.16,-44.5 563.16,-44.5"/>
<polygon fill="red" stroke="red" points="563.16,-48 573.16,-44.5 563.16,-41 563.16,-48"/>
</g>
<!-- llama.files.lvc_skymap_mat.LvcSkymapMat&#45;&gt;llama.files.coinc_o2.CoincAnalysisInitialIcecubeJson -->
<g id="edge3" class="edge">
<title>llama.files.lvc_skymap_mat.LvcSkymapMat&#45;&gt;llama.files.coinc_o2.CoincAnalysisInitialIcecubeJson</title>
<path fill="none" stroke="red" d="M710.58,-35C792.32,-35 918,-35 918,-35 918,-35 918,-77.78 918,-77.78"/>
<polygon fill="red" stroke="red" points="914.5,-77.78 918,-87.78 921.5,-77.78 914.5,-77.78"/>
</g>
<!-- llama.files.skymap_info.SkymapInfo -->
<g id="node5" class="node">
<title>llama.files.skymap_info.SkymapInfo</title>
<g id="a_node5"><a xlink:href="/llama.files.skymap_info.html#llama.files.skymap_info.SkymapInfo" xlink:title="{{&lt;B&gt;SkymapInfo&lt;/B&gt;|&lt;I&gt;skymap_info.json&lt;/I&gt;|EventTriggeredFileHandler&lt;BR/&gt;JSONFile}}" target="_top">
<polygon fill="#cccccc" stroke="black" points="0,-66 0,-150 215,-150 215,-66 0,-66"/>
<text text-anchor="start" x="59.5" y="-135.8" font-family="Times,serif" font-weight="bold" font-size="14.00">SkymapInfo</text>
<polyline fill="none" stroke="black" points="0,-127 215,-127 "/>
<text text-anchor="start" x="45.5" y="-112.8" font-family="Times,serif" font-style="italic" font-size="14.00">skymap_info.json</text>
<polyline fill="none" stroke="black" points="0,-104 215,-104 "/>
<text text-anchor="start" x="8" y="-88.8" font-family="Times,serif" font-size="14.00">EventTriggeredFileHandler</text>
<text text-anchor="start" x="73.5" y="-73.8" font-family="Times,serif" font-size="14.00">JSONFile</text>
</a>
</g>
</g>
<!-- llama.files.skymap_info.SkymapInfo&#45;&gt;llama.files.coinc_o2.CoincAnalysisInitialIcecubeJson -->
<g id="edge4" class="edge">
<title>llama.files.skymap_info.SkymapInfo&#45;&gt;llama.files.coinc_o2.CoincAnalysisInitialIcecubeJson</title>
<path fill="none" stroke="red" d="M108,-150.22C108,-170.51 108,-190.5 108,-190.5 108,-190.5 918,-190.5 918,-190.5 918,-190.5 918,-182.02 918,-182.02"/>
<polygon fill="red" stroke="red" points="921.5,-182.02 918,-172.02 914.5,-182.02 921.5,-182.02"/>
</g>
<!-- llama.files.skymap_info.SkymapInfo&#45;&gt;llama.files.i3.json.IceCubeNeutrinoList -->
<g id="edge5" class="edge">
<title>llama.files.skymap_info.SkymapInfo&#45;&gt;llama.files.i3.json.IceCubeNeutrinoList</title>
<path fill="none" stroke="red" d="M215.02,-134.75C215.02,-134.75 529.64,-134.75 529.64,-134.75"/>
<polygon fill="red" stroke="red" points="529.64,-138.25 539.64,-134.75 529.64,-131.25 529.64,-138.25"/>
</g>
<!-- llama.files.skymap_info.SkymapInfo&#45;&gt;llama.files.lvc_skymap.LvcSkymapFits -->
<g id="edge6" class="edge">
<title>llama.files.skymap_info.SkymapInfo&#45;&gt;llama.files.lvc_skymap.LvcSkymapFits</title>
<path fill="none" stroke="red" d="M215.38,-92.25C215.38,-92.25 240.66,-92.25 240.66,-92.25"/>
<polygon fill="red" stroke="red" points="240.66,-95.75 250.66,-92.25 240.66,-88.75 240.66,-95.75"/>
</g>
<!-- llama.files.skymap_info.SkymapInfo&#45;&gt;llama.files.lvc_skymap_mat.LvcSkymapMat -->
<g id="edge7" class="edge">
<title>llama.files.skymap_info.SkymapInfo&#45;&gt;llama.files.lvc_skymap_mat.LvcSkymapMat</title>
<path fill="none" stroke="red" d="M108,-65.94C108,-39.17 108,-9.5 108,-9.5 108,-9.5 563.28,-9.5 563.28,-9.5"/>
<polygon fill="red" stroke="red" points="563.28,-13 573.28,-9.5 563.28,-6 563.28,-13"/>
</g>
</g>
</svg>
