<?xml version="1.0" encoding="UTF-8" standalone="no"?>
<!DOCTYPE svg PUBLIC "-//W3C//DTD SVG 1.1//EN"
 "http://www.w3.org/Graphics/SVG/1.1/DTD/svg11.dtd">
<!-- Generated by graphviz version 2.42.3 (20191010.1750)
 -->
<!-- Title: %3 Pages: 1 -->
<svg width="352pt" height="1992pt"
 viewBox="0.00 0.00 352.00 1992.00" xmlns="http://www.w3.org/2000/svg" xmlns:xlink="http://www.w3.org/1999/xlink">
<g id="graph0" class="graph" transform="scale(1 1) rotate(0) translate(4 1988)">
<title>%3</title>
<polygon fill="white" stroke="transparent" points="-4,4 -4,-1988 348,-1988 348,4 -4,4"/>
<!-- 12 -->
<g id="node1" class="node">
<title>12</title>
<g id="a_node1"><a xlink:title="/opt/anaconda/lib/python3.7/subprocess.py">
<polygon fill="#fd0c00" stroke="#fd0c00" points="325.5,-236 167.5,-236 167.5,-184 325.5,-184 325.5,-236"/>
<text text-anchor="middle" x="246.5" y="-224" font-family="Arial" font-size="10.00" fill="#ffffff">subprocess:1662:_communicate</text>
<text text-anchor="middle" x="246.5" y="-213" font-family="Arial" font-size="10.00" fill="#ffffff">98.81%</text>
<text text-anchor="middle" x="246.5" y="-202" font-family="Arial" font-size="10.00" fill="#ffffff">(0.02%)</text>
<text text-anchor="middle" x="246.5" y="-191" font-family="Arial" font-size="10.00" fill="#ffffff">1×</text>
</a>
</g>
</g>
<!-- 211 -->
<g id="node2" class="node">
<title>211</title>
<g id="a_node2"><a xlink:title="/opt/anaconda/lib/python3.7/selectors.py">
<polygon fill="#fd0d00" stroke="#fd0d00" points="298.5,-144 194.5,-144 194.5,-92 298.5,-92 298.5,-144"/>
<text text-anchor="middle" x="246.5" y="-132" font-family="Arial" font-size="10.00" fill="#ffffff">selectors:402:select</text>
<text text-anchor="middle" x="246.5" y="-121" font-family="Arial" font-size="10.00" fill="#ffffff">98.75%</text>
<text text-anchor="middle" x="246.5" y="-110" font-family="Arial" font-size="10.00" fill="#ffffff">(0.01%)</text>
<text text-anchor="middle" x="246.5" y="-99" font-family="Arial" font-size="10.00" fill="#ffffff">11×</text>
</a>
</g>
</g>
<!-- 12&#45;&gt;211 -->
<g id="edge1" class="edge">
<title>12&#45;&gt;211</title>
<path fill="none" stroke="#fd0d00" stroke-width="3.95" d="M246.5,-183.93C246.5,-174.74 246.5,-164.17 246.5,-154.25"/>
<polygon fill="#fd0d00" stroke="#fd0d00" stroke-width="3.95" points="249.97,-154.15 246.5,-144.25 243.04,-154.15 249.97,-154.15"/>
<text text-anchor="middle" x="263.5" y="-167" font-family="Arial" font-size="10.00" fill="#fd0d00">98.75%</text>
<text text-anchor="middle" x="263.5" y="-156" font-family="Arial" font-size="10.00" fill="#fd0d00">11×</text>
</g>
<!-- 386 -->
<g id="node22" class="node">
<title>386</title>
<g id="a_node22"><a xlink:title="~">
<polygon fill="#fd0d00" stroke="#fd0d00" points="344,-52 149,-52 149,0 344,0 344,-52"/>
<text text-anchor="middle" x="246.5" y="-40" font-family="Arial" font-size="10.00" fill="#ffffff">~:0:&lt;method &#39;poll&#39; of &#39;select.poll&#39; objects&gt;</text>
<text text-anchor="middle" x="246.5" y="-29" font-family="Arial" font-size="10.00" fill="#ffffff">98.73%</text>
<text text-anchor="middle" x="246.5" y="-18" font-family="Arial" font-size="10.00" fill="#ffffff">(98.73%)</text>
<text text-anchor="middle" x="246.5" y="-7" font-family="Arial" font-size="10.00" fill="#ffffff">11×</text>
</a>
</g>
</g>
<!-- 211&#45;&gt;386 -->
<g id="edge15" class="edge">
<title>211&#45;&gt;386</title>
<path fill="none" stroke="#fd0d00" stroke-width="3.95" d="M246.5,-91.93C246.5,-82.74 246.5,-72.17 246.5,-62.25"/>
<polygon fill="#fd0d00" stroke="#fd0d00" stroke-width="3.95" points="249.97,-62.15 246.5,-52.25 243.04,-62.15 249.97,-62.15"/>
<text text-anchor="middle" x="263.5" y="-75" font-family="Arial" font-size="10.00" fill="#fd0d00">98.73%</text>
<text text-anchor="middle" x="263.5" y="-64" font-family="Arial" font-size="10.00" fill="#fd0d00">11×</text>
</g>
<!-- 21 -->
<g id="node3" class="node">
<title>21</title>
<g id="a_node3"><a xlink:title="/opt/anaconda/lib/python3.7/subprocess.py">
<polygon fill="#0d0f74" stroke="#0d0f74" points="151.5,-328 29.5,-328 29.5,-276 151.5,-276 151.5,-328"/>
<text text-anchor="middle" x="90.5" y="-316" font-family="Arial" font-size="10.00" fill="#ffffff">subprocess:681:__init__</text>
<text text-anchor="middle" x="90.5" y="-305" font-family="Arial" font-size="10.00" fill="#ffffff">0.61%</text>
<text text-anchor="middle" x="90.5" y="-294" font-family="Arial" font-size="10.00" fill="#ffffff">(0.00%)</text>
<text text-anchor="middle" x="90.5" y="-283" font-family="Arial" font-size="10.00" fill="#ffffff">1×</text>
</a>
</g>
</g>
<!-- 39 -->
<g id="node4" class="node">
<title>39</title>
<g id="a_node4"><a xlink:title="/opt/anaconda/lib/python3.7/subprocess.py">
<polygon fill="#0d0f74" stroke="#0d0f74" points="159,-236 0,-236 0,-184 159,-184 159,-236"/>
<text text-anchor="middle" x="79.5" y="-224" font-family="Arial" font-size="10.00" fill="#ffffff">subprocess:1412:_execute_child</text>
<text text-anchor="middle" x="79.5" y="-213" font-family="Arial" font-size="10.00" fill="#ffffff">0.60%</text>
<text text-anchor="middle" x="79.5" y="-202" font-family="Arial" font-size="10.00" fill="#ffffff">(0.01%)</text>
<text text-anchor="middle" x="79.5" y="-191" font-family="Arial" font-size="10.00" fill="#ffffff">1×</text>
</a>
</g>
</g>
<!-- 21&#45;&gt;39 -->
<g id="edge2" class="edge">
<title>21&#45;&gt;39</title>
<path fill="none" stroke="#0d0f74" stroke-width="0.5" d="M87.44,-275.93C86.06,-264.71 84.44,-251.42 83.02,-239.8"/>
<polygon fill="#0d0f74" stroke="#0d0f74" stroke-width="0.5" points="84.23,-239.57 82.59,-236.25 81.79,-239.87 84.23,-239.57"/>
<text text-anchor="middle" x="100.5" y="-259" font-family="Arial" font-size="10.00" fill="#0d0f74">0.60%</text>
<text text-anchor="middle" x="100.5" y="-248" font-family="Arial" font-size="10.00" fill="#0d0f74">1×</text>
</g>
<!-- 28 -->
<g id="node5" class="node">
<title>28</title>
<g id="a_node5"><a xlink:title="/opt/anaconda/lib/python3.7/site&#45;packages/_pytest/runner.py">
<polygon fill="#ff0200" stroke="#ff0200" points="175,-1616 70,-1616 70,-1564 175,-1564 175,-1616"/>
<text text-anchor="middle" x="122.5" y="-1604" font-family="Arial" font-size="10.00" fill="#ffffff">runner:227:from_call</text>
<text text-anchor="middle" x="122.5" y="-1593" font-family="Arial" font-size="10.00" fill="#ffffff">99.77%</text>
<text text-anchor="middle" x="122.5" y="-1582" font-family="Arial" font-size="10.00" fill="#ffffff">(0.00%)</text>
<text text-anchor="middle" x="122.5" y="-1571" font-family="Arial" font-size="10.00" fill="#ffffff">3×</text>
</a>
</g>
</g>
<!-- 311 -->
<g id="node6" class="node">
<title>311</title>
<g id="a_node6"><a xlink:title="/opt/anaconda/lib/python3.7/site&#45;packages/_pytest/runner.py">
<polygon fill="#ff0200" stroke="#ff0200" points="182,-1524 73,-1524 73,-1472 182,-1472 182,-1524"/>
<text text-anchor="middle" x="127.5" y="-1512" font-family="Arial" font-size="10.00" fill="#ffffff">runner:207:&lt;lambda&gt;</text>
<text text-anchor="middle" x="127.5" y="-1501" font-family="Arial" font-size="10.00" fill="#ffffff">99.76%</text>
<text text-anchor="middle" x="127.5" y="-1490" font-family="Arial" font-size="10.00" fill="#ffffff">(0.00%)</text>
<text text-anchor="middle" x="127.5" y="-1479" font-family="Arial" font-size="10.00" fill="#ffffff">3×</text>
</a>
</g>
</g>
<!-- 28&#45;&gt;311 -->
<g id="edge3" class="edge">
<title>28&#45;&gt;311</title>
<path fill="none" stroke="#ff0200" stroke-width="3.99" d="M123.89,-1563.93C124.4,-1554.74 124.99,-1544.17 125.54,-1534.25"/>
<polygon fill="#ff0200" stroke="#ff0200" stroke-width="3.99" points="129.04,-1534.43 126.1,-1524.25 122.05,-1534.04 129.04,-1534.43"/>
<text text-anchor="middle" x="143.5" y="-1547" font-family="Arial" font-size="10.00" fill="#ff0200">99.76%</text>
<text text-anchor="middle" x="143.5" y="-1536" font-family="Arial" font-size="10.00" fill="#ff0200">3×</text>
</g>
<!-- 195 -->
<g id="node19" class="node">
<title>195</title>
<g id="a_node19"><a xlink:title="/opt/anaconda/lib/python3.7/site&#45;packages/pluggy/hooks.py">
<polygon fill="#ff0100" stroke="#ff0100" points="213,-1432 112,-1432 112,-1380 213,-1380 213,-1432"/>
<text text-anchor="middle" x="162.5" y="-1420" font-family="Arial" font-size="10.00" fill="#ffffff">hooks:275:__call__</text>
<text text-anchor="middle" x="162.5" y="-1409" font-family="Arial" font-size="10.00" fill="#ffffff">99.95%</text>
<text text-anchor="middle" x="162.5" y="-1398" font-family="Arial" font-size="10.00" fill="#ffffff">(0.01%)</text>
<text text-anchor="middle" x="162.5" y="-1387" font-family="Arial" font-size="10.00" fill="#ffffff">14×</text>
</a>
</g>
</g>
<!-- 311&#45;&gt;195 -->
<g id="edge23" class="edge">
<title>311&#45;&gt;195</title>
<path fill="none" stroke="#ff0200" stroke-width="3.99" d="M137.25,-1471.93C140.9,-1462.55 145.11,-1451.72 149.03,-1441.63"/>
<polygon fill="#ff0200" stroke="#ff0200" stroke-width="3.99" points="152.32,-1442.84 152.68,-1432.25 145.79,-1440.3 152.32,-1442.84"/>
<text text-anchor="middle" x="166.5" y="-1455" font-family="Arial" font-size="10.00" fill="#ff0200">99.76%</text>
<text text-anchor="middle" x="166.5" y="-1444" font-family="Arial" font-size="10.00" fill="#ff0200">3×</text>
</g>
<!-- 64 -->
<g id="node7" class="node">
<title>64</title>
<g id="a_node7"><a xlink:title="/opt/anaconda/lib/python3.7/doctest.py">
<polygon fill="#fe0400" stroke="#fe0400" points="207,-788 118,-788 118,-736 207,-736 207,-788"/>
<text text-anchor="middle" x="162.5" y="-776" font-family="Arial" font-size="10.00" fill="#ffffff">doctest:1417:run</text>
<text text-anchor="middle" x="162.5" y="-765" font-family="Arial" font-size="10.00" fill="#ffffff">99.59%</text>
<text text-anchor="middle" x="162.5" y="-754" font-family="Arial" font-size="10.00" fill="#ffffff">(0.00%)</text>
<text text-anchor="middle" x="162.5" y="-743" font-family="Arial" font-size="10.00" fill="#ffffff">1×</text>
</a>
</g>
</g>
<!-- 71 -->
<g id="node8" class="node">
<title>71</title>
<g id="a_node8"><a xlink:title="/opt/anaconda/lib/python3.7/doctest.py">
<polygon fill="#fe0600" stroke="#fe0600" points="212.5,-696 112.5,-696 112.5,-644 212.5,-644 212.5,-696"/>
<text text-anchor="middle" x="162.5" y="-684" font-family="Arial" font-size="10.00" fill="#ffffff">doctest:1271:__run</text>
<text text-anchor="middle" x="162.5" y="-673" font-family="Arial" font-size="10.00" fill="#ffffff">99.45%</text>
<text text-anchor="middle" x="162.5" y="-662" font-family="Arial" font-size="10.00" fill="#ffffff">(0.01%)</text>
<text text-anchor="middle" x="162.5" y="-651" font-family="Arial" font-size="10.00" fill="#ffffff">1×</text>
</a>
</g>
</g>
<!-- 64&#45;&gt;71 -->
<g id="edge4" class="edge">
<title>64&#45;&gt;71</title>
<path fill="none" stroke="#fe0600" stroke-width="3.98" d="M162.5,-735.93C162.5,-726.74 162.5,-716.17 162.5,-706.25"/>
<polygon fill="#fe0600" stroke="#fe0600" stroke-width="3.98" points="166,-706.25 162.5,-696.25 159,-706.25 166,-706.25"/>
<text text-anchor="middle" x="179.5" y="-719" font-family="Arial" font-size="10.00" fill="#fe0600">99.45%</text>
<text text-anchor="middle" x="179.5" y="-708" font-family="Arial" font-size="10.00" fill="#fe0600">1×</text>
</g>
<!-- 72 -->
<g id="node9" class="node">
<title>72</title>
<g id="a_node9"><a xlink:title="~">
<polygon fill="#fe0600" stroke="#fe0600" points="246,-604 79,-604 79,-552 246,-552 246,-604"/>
<text text-anchor="middle" x="162.5" y="-592" font-family="Arial" font-size="10.00" fill="#ffffff">~:0:&lt;built&#45;in method builtins.exec&gt;</text>
<text text-anchor="middle" x="162.5" y="-581" font-family="Arial" font-size="10.00" fill="#ffffff">99.43%</text>
<text text-anchor="middle" x="162.5" y="-570" font-family="Arial" font-size="10.00" fill="#ffffff">(0.00%)</text>
<text text-anchor="middle" x="162.5" y="-559" font-family="Arial" font-size="10.00" fill="#ffffff">1×</text>
</a>
</g>
</g>
<!-- 71&#45;&gt;72 -->
<g id="edge5" class="edge">
<title>71&#45;&gt;72</title>
<path fill="none" stroke="#fe0600" stroke-width="3.98" d="M162.5,-643.93C162.5,-634.74 162.5,-624.17 162.5,-614.25"/>
<polygon fill="#fe0600" stroke="#fe0600" stroke-width="3.98" points="166,-614.25 162.5,-604.25 159,-614.25 166,-614.25"/>
<text text-anchor="middle" x="179.5" y="-627" font-family="Arial" font-size="10.00" fill="#fe0600">99.43%</text>
<text text-anchor="middle" x="179.5" y="-616" font-family="Arial" font-size="10.00" fill="#fe0600">1×</text>
</g>
<!-- 232 -->
<g id="node10" class="node">
<title>232</title>
<g id="a_node10"><a xlink:href="https://multimessenger.science/llama.dev.data.i3.html#llama.dev.data.i3.available_versions" xlink:title="&lt;doctest llama.dev.data.i3.available_versions[0]&gt;" target="_top">
<polygon fill="#fe0600" stroke="#fe0600" points="255.5,-512 69.5,-512 69.5,-460 255.5,-460 255.5,-512"/>
<text text-anchor="middle" x="162.5" y="-500" font-family="Arial" font-size="10.00" fill="#ffffff">&lt;doctest llama.dev.data.i3:1:&lt;module&gt;</text>
<text text-anchor="middle" x="162.5" y="-489" font-family="Arial" font-size="10.00" fill="#ffffff">99.43%</text>
<text text-anchor="middle" x="162.5" y="-478" font-family="Arial" font-size="10.00" fill="#ffffff">(0.00%)</text>
<text text-anchor="middle" x="162.5" y="-467" font-family="Arial" font-size="10.00" fill="#ffffff">1×</text>
</a>
</g>
</g>
<!-- 72&#45;&gt;232 -->
<g id="edge6" class="edge">
<title>72&#45;&gt;232</title>
<path fill="none" stroke="#fe0600" stroke-width="3.98" d="M162.5,-551.93C162.5,-542.74 162.5,-532.17 162.5,-522.25"/>
<polygon fill="#fe0600" stroke="#fe0600" stroke-width="3.98" points="166,-522.25 162.5,-512.25 159,-522.25 166,-522.25"/>
<text text-anchor="middle" x="179.5" y="-535" font-family="Arial" font-size="10.00" fill="#fe0600">99.43%</text>
<text text-anchor="middle" x="179.5" y="-524" font-family="Arial" font-size="10.00" fill="#fe0600">1×</text>
</g>
<!-- 138 -->
<g id="node16" class="node">
<title>138</title>
<g id="a_node16"><a xlink:href="https://multimessenger.science/llama.dev.data.i3.__init__.html" xlink:title="/opt/anaconda/lib/python3.7/site&#45;packages/llama.dev.data.i3.__init__.py" target="_top">
<polygon fill="#fe0600" stroke="#fe0600" points="236,-420 89,-420 89,-368 236,-368 236,-420"/>
<text text-anchor="middle" x="162.5" y="-408" font-family="Arial" font-size="10.00" fill="#ffffff">__init__:34:available_versions</text>
<text text-anchor="middle" x="162.5" y="-397" font-family="Arial" font-size="10.00" fill="#ffffff">99.43%</text>
<text text-anchor="middle" x="162.5" y="-386" font-family="Arial" font-size="10.00" fill="#ffffff">(0.00%)</text>
<text text-anchor="middle" x="162.5" y="-375" font-family="Arial" font-size="10.00" fill="#ffffff">1×</text>
</a>
</g>
</g>
<!-- 232&#45;&gt;138 -->
<g id="edge17" class="edge">
<title>232&#45;&gt;138</title>
<path fill="none" stroke="#fe0600" stroke-width="3.98" d="M162.5,-459.93C162.5,-450.74 162.5,-440.17 162.5,-430.25"/>
<polygon fill="#fe0600" stroke="#fe0600" stroke-width="3.98" points="166,-430.25 162.5,-420.25 159,-430.25 166,-430.25"/>
<text text-anchor="middle" x="179.5" y="-443" font-family="Arial" font-size="10.00" fill="#fe0600">99.43%</text>
<text text-anchor="middle" x="179.5" y="-432" font-family="Arial" font-size="10.00" fill="#fe0600">1×</text>
</g>
<!-- 83 -->
<g id="node11" class="node">
<title>83</title>
<g id="a_node11"><a xlink:title="/opt/anaconda/lib/python3.7/site&#45;packages/_pytest/runner.py">
<polygon fill="#ff0200" stroke="#ff0200" points="182.5,-1708 40.5,-1708 40.5,-1656 182.5,-1656 182.5,-1708"/>
<text text-anchor="middle" x="111.5" y="-1696" font-family="Arial" font-size="10.00" fill="#ffffff">runner:200:call_runtest_hook</text>
<text text-anchor="middle" x="111.5" y="-1685" font-family="Arial" font-size="10.00" fill="#ffffff">99.78%</text>
<text text-anchor="middle" x="111.5" y="-1674" font-family="Arial" font-size="10.00" fill="#ffffff">(0.00%)</text>
<text text-anchor="middle" x="111.5" y="-1663" font-family="Arial" font-size="10.00" fill="#ffffff">3×</text>
</a>
</g>
</g>
<!-- 83&#45;&gt;28 -->
<g id="edge7" class="edge">
<title>83&#45;&gt;28</title>
<path fill="none" stroke="#ff0200" stroke-width="3.99" d="M114.56,-1655.93C115.69,-1646.74 116.98,-1636.17 118.19,-1626.25"/>
<polygon fill="#ff0200" stroke="#ff0200" stroke-width="3.99" points="121.68,-1626.6 119.41,-1616.25 114.73,-1625.75 121.68,-1626.6"/>
<text text-anchor="middle" x="135.5" y="-1639" font-family="Arial" font-size="10.00" fill="#ff0200">99.77%</text>
<text text-anchor="middle" x="135.5" y="-1628" font-family="Arial" font-size="10.00" fill="#ff0200">3×</text>
</g>
<!-- 97 -->
<g id="node12" class="node">
<title>97</title>
<g id="a_node12"><a xlink:title="/opt/anaconda/lib/python3.7/site&#45;packages/_pytest/runner.py">
<polygon fill="#ff0100" stroke="#ff0100" points="217,-1892 92,-1892 92,-1840 217,-1840 217,-1892"/>
<text text-anchor="middle" x="154.5" y="-1880" font-family="Arial" font-size="10.00" fill="#ffffff">runner:86:runtestprotocol</text>
<text text-anchor="middle" x="154.5" y="-1869" font-family="Arial" font-size="10.00" fill="#ffffff">99.90%</text>
<text text-anchor="middle" x="154.5" y="-1858" font-family="Arial" font-size="10.00" fill="#ffffff">(0.00%)</text>
<text text-anchor="middle" x="154.5" y="-1847" font-family="Arial" font-size="10.00" fill="#ffffff">1×</text>
</a>
</g>
</g>
<!-- 309 -->
<g id="node13" class="node">
<title>309</title>
<g id="a_node13"><a xlink:title="/opt/anaconda/lib/python3.7/site&#45;packages/_pytest/runner.py">
<polygon fill="#ff0100" stroke="#ff0100" points="220,-1800 89,-1800 89,-1748 220,-1748 220,-1800"/>
<text text-anchor="middle" x="154.5" y="-1788" font-family="Arial" font-size="10.00" fill="#ffffff">runner:181:call_and_report</text>
<text text-anchor="middle" x="154.5" y="-1777" font-family="Arial" font-size="10.00" fill="#ffffff">99.90%</text>
<text text-anchor="middle" x="154.5" y="-1766" font-family="Arial" font-size="10.00" fill="#ffffff">(0.00%)</text>
<text text-anchor="middle" x="154.5" y="-1755" font-family="Arial" font-size="10.00" fill="#ffffff">3×</text>
</a>
</g>
</g>
<!-- 97&#45;&gt;309 -->
<g id="edge8" class="edge">
<title>97&#45;&gt;309</title>
<path fill="none" stroke="#ff0100" stroke-width="4" d="M154.5,-1839.93C154.5,-1830.74 154.5,-1820.17 154.5,-1810.25"/>
<polygon fill="#ff0100" stroke="#ff0100" stroke-width="4" points="158,-1810.25 154.5,-1800.25 151,-1810.25 158,-1810.25"/>
<text text-anchor="middle" x="171.5" y="-1823" font-family="Arial" font-size="10.00" fill="#ff0100">99.90%</text>
<text text-anchor="middle" x="171.5" y="-1812" font-family="Arial" font-size="10.00" fill="#ff0100">3×</text>
</g>
<!-- 309&#45;&gt;83 -->
<g id="edge21" class="edge">
<title>309&#45;&gt;83</title>
<path fill="none" stroke="#ff0200" stroke-width="3.99" d="M142.52,-1747.93C137.99,-1738.45 132.76,-1727.5 127.9,-1717.32"/>
<polygon fill="#ff0200" stroke="#ff0200" stroke-width="3.99" points="131.03,-1715.76 123.56,-1708.25 124.72,-1718.78 131.03,-1715.76"/>
<text text-anchor="middle" x="155.5" y="-1731" font-family="Arial" font-size="10.00" fill="#ff0200">99.78%</text>
<text text-anchor="middle" x="155.5" y="-1720" font-family="Arial" font-size="10.00" fill="#ff0200">3×</text>
</g>
<!-- 309&#45;&gt;195 -->
<g id="edge22" class="edge">
<title>309&#45;&gt;195</title>
<path fill="none" stroke="#0d0d73" stroke-width="0.5" d="M173.53,-1747.67C184.65,-1730.38 196.5,-1706.45 196.5,-1683 196.5,-1683 196.5,-1683 196.5,-1497 196.5,-1471.64 195.25,-1464.42 185.5,-1441 184.75,-1439.19 183.89,-1437.38 182.96,-1435.58"/>
<polygon fill="#0d0d73" stroke="#0d0d73" stroke-width="0.5" points="183.97,-1434.87 181.22,-1432.38 181.81,-1436.04 183.97,-1434.87"/>
<text text-anchor="middle" x="210.5" y="-1593" font-family="Arial" font-size="10.00" fill="#0d0d73">0.11%</text>
<text text-anchor="middle" x="210.5" y="-1582" font-family="Arial" font-size="10.00" fill="#0d0d73">6×</text>
</g>
<!-- 131 -->
<g id="node14" class="node">
<title>131</title>
<g id="a_node14"><a xlink:title="/opt/anaconda/lib/python3.7/site&#45;packages/pluggy/callers.py">
<polygon fill="#ff0100" stroke="#ff0100" points="216.5,-1156 108.5,-1156 108.5,-1104 216.5,-1104 216.5,-1156"/>
<text text-anchor="middle" x="162.5" y="-1144" font-family="Arial" font-size="10.00" fill="#ffffff">callers:157:_multicall</text>
<text text-anchor="middle" x="162.5" y="-1133" font-family="Arial" font-size="10.00" fill="#ffffff">99.93%</text>
<text text-anchor="middle" x="162.5" y="-1122" font-family="Arial" font-size="10.00" fill="#ffffff">(0.03%)</text>
<text text-anchor="middle" x="162.5" y="-1111" font-family="Arial" font-size="10.00" fill="#ffffff">14×</text>
</a>
</g>
</g>
<!-- 275 -->
<g id="node15" class="node">
<title>275</title>
<g id="a_node15"><a xlink:title="/opt/anaconda/lib/python3.7/site&#45;packages/_pytest/runner.py">
<polygon fill="#fe0400" stroke="#fe0400" points="236.5,-1064 88.5,-1064 88.5,-1012 236.5,-1012 236.5,-1064"/>
<text text-anchor="middle" x="162.5" y="-1052" font-family="Arial" font-size="10.00" fill="#ffffff">runner:122:pytest_runtest_call</text>
<text text-anchor="middle" x="162.5" y="-1041" font-family="Arial" font-size="10.00" fill="#ffffff">99.60%</text>
<text text-anchor="middle" x="162.5" y="-1030" font-family="Arial" font-size="10.00" fill="#ffffff">(0.00%)</text>
<text text-anchor="middle" x="162.5" y="-1019" font-family="Arial" font-size="10.00" fill="#ffffff">1×</text>
</a>
</g>
</g>
<!-- 131&#45;&gt;275 -->
<g id="edge9" class="edge">
<title>131&#45;&gt;275</title>
<path fill="none" stroke="#fe0400" stroke-width="3.98" d="M162.5,-1103.93C162.5,-1094.74 162.5,-1084.17 162.5,-1074.25"/>
<polygon fill="#fe0400" stroke="#fe0400" stroke-width="3.98" points="166,-1074.25 162.5,-1064.25 159,-1074.25 166,-1074.25"/>
<text text-anchor="middle" x="179.5" y="-1087" font-family="Arial" font-size="10.00" fill="#fe0400">99.60%</text>
<text text-anchor="middle" x="179.5" y="-1076" font-family="Arial" font-size="10.00" fill="#fe0400">1×</text>
</g>
<!-- 241 -->
<g id="node23" class="node">
<title>241</title>
<g id="a_node23"><a xlink:title="/opt/anaconda/lib/python3.7/site&#45;packages/_pytest/doctest.py">
<polygon fill="#fe0400" stroke="#fe0400" points="213,-972 112,-972 112,-920 213,-920 213,-972"/>
<text text-anchor="middle" x="162.5" y="-960" font-family="Arial" font-size="10.00" fill="#ffffff">doctest:228:runtest</text>
<text text-anchor="middle" x="162.5" y="-949" font-family="Arial" font-size="10.00" fill="#ffffff">99.60%</text>
<text text-anchor="middle" x="162.5" y="-938" font-family="Arial" font-size="10.00" fill="#ffffff">(0.00%)</text>
<text text-anchor="middle" x="162.5" y="-927" font-family="Arial" font-size="10.00" fill="#ffffff">1×</text>
</a>
</g>
</g>
<!-- 275&#45;&gt;241 -->
<g id="edge19" class="edge">
<title>275&#45;&gt;241</title>
<path fill="none" stroke="#fe0400" stroke-width="3.98" d="M162.5,-1011.93C162.5,-1002.74 162.5,-992.17 162.5,-982.25"/>
<polygon fill="#fe0400" stroke="#fe0400" stroke-width="3.98" points="166,-982.25 162.5,-972.25 159,-982.25 166,-982.25"/>
<text text-anchor="middle" x="179.5" y="-995" font-family="Arial" font-size="10.00" fill="#fe0400">99.60%</text>
<text text-anchor="middle" x="179.5" y="-984" font-family="Arial" font-size="10.00" fill="#fe0400">1×</text>
</g>
<!-- 138&#45;&gt;21 -->
<g id="edge10" class="edge">
<title>138&#45;&gt;21</title>
<path fill="none" stroke="#0d0f74" stroke-width="0.5" d="M142.44,-367.93C133.31,-356.52 122.47,-342.96 113.06,-331.2"/>
<polygon fill="#0d0f74" stroke="#0d0f74" stroke-width="0.5" points="113.84,-330.22 110.7,-328.25 111.93,-331.75 113.84,-330.22"/>
<text text-anchor="middle" x="149.5" y="-351" font-family="Arial" font-size="10.00" fill="#0d0f74">0.61%</text>
<text text-anchor="middle" x="149.5" y="-340" font-family="Arial" font-size="10.00" fill="#0d0f74">1×</text>
</g>
<!-- 222 -->
<g id="node17" class="node">
<title>222</title>
<g id="a_node17"><a xlink:title="/opt/anaconda/lib/python3.7/subprocess.py">
<polygon fill="#fd0c00" stroke="#fd0c00" points="314,-328 167,-328 167,-276 314,-276 314,-328"/>
<text text-anchor="middle" x="240.5" y="-316" font-family="Arial" font-size="10.00" fill="#ffffff">subprocess:920:communicate</text>
<text text-anchor="middle" x="240.5" y="-305" font-family="Arial" font-size="10.00" fill="#ffffff">98.81%</text>
<text text-anchor="middle" x="240.5" y="-294" font-family="Arial" font-size="10.00" fill="#ffffff">(0.00%)</text>
<text text-anchor="middle" x="240.5" y="-283" font-family="Arial" font-size="10.00" fill="#ffffff">1×</text>
</a>
</g>
</g>
<!-- 138&#45;&gt;222 -->
<g id="edge11" class="edge">
<title>138&#45;&gt;222</title>
<path fill="none" stroke="#fd0c00" stroke-width="3.95" d="M184.23,-367.93C192.86,-357.97 202.91,-346.37 212.1,-335.76"/>
<polygon fill="#fd0c00" stroke="#fd0c00" stroke-width="3.95" points="214.75,-338 218.62,-328.25 209.52,-333.46 214.75,-338"/>
<text text-anchor="middle" x="227.5" y="-351" font-family="Arial" font-size="10.00" fill="#fd0c00">98.81%</text>
<text text-anchor="middle" x="227.5" y="-340" font-family="Arial" font-size="10.00" fill="#fd0c00">1×</text>
</g>
<!-- 222&#45;&gt;12 -->
<g id="edge16" class="edge">
<title>222&#45;&gt;12</title>
<path fill="none" stroke="#fd0c00" stroke-width="3.95" d="M242.17,-275.93C242.78,-266.74 243.49,-256.17 244.15,-246.25"/>
<polygon fill="#fd0c00" stroke="#fd0c00" stroke-width="3.95" points="247.62,-246.36 244.82,-236.25 240.7,-245.9 247.62,-246.36"/>
<text text-anchor="middle" x="260.5" y="-259" font-family="Arial" font-size="10.00" fill="#fd0c00">98.81%</text>
<text text-anchor="middle" x="260.5" y="-248" font-family="Arial" font-size="10.00" fill="#fd0c00">1×</text>
</g>
<!-- 188 -->
<g id="node18" class="node">
<title>188</title>
<g id="a_node18"><a xlink:title="/opt/anaconda/lib/python3.7/site&#45;packages/pluggy/manager.py">
<polygon fill="#ff0100" stroke="#ff0100" points="219.5,-1248 105.5,-1248 105.5,-1196 219.5,-1196 219.5,-1248"/>
<text text-anchor="middle" x="162.5" y="-1236" font-family="Arial" font-size="10.00" fill="#ffffff">manager:78:&lt;lambda&gt;</text>
<text text-anchor="middle" x="162.5" y="-1225" font-family="Arial" font-size="10.00" fill="#ffffff">99.93%</text>
<text text-anchor="middle" x="162.5" y="-1214" font-family="Arial" font-size="10.00" fill="#ffffff">(0.00%)</text>
<text text-anchor="middle" x="162.5" y="-1203" font-family="Arial" font-size="10.00" fill="#ffffff">14×</text>
</a>
</g>
</g>
<!-- 188&#45;&gt;131 -->
<g id="edge12" class="edge">
<title>188&#45;&gt;131</title>
<path fill="none" stroke="#ff0100" stroke-width="4" d="M162.5,-1195.93C162.5,-1186.74 162.5,-1176.17 162.5,-1166.25"/>
<polygon fill="#ff0100" stroke="#ff0100" stroke-width="4" points="166,-1166.25 162.5,-1156.25 159,-1166.25 166,-1166.25"/>
<text text-anchor="middle" x="179.5" y="-1179" font-family="Arial" font-size="10.00" fill="#ff0100">99.93%</text>
<text text-anchor="middle" x="179.5" y="-1168" font-family="Arial" font-size="10.00" fill="#ff0100">11×</text>
</g>
<!-- 353 -->
<g id="node20" class="node">
<title>353</title>
<g id="a_node20"><a xlink:title="/opt/anaconda/lib/python3.7/site&#45;packages/pluggy/manager.py">
<polygon fill="#ff0100" stroke="#ff0100" points="221.5,-1340 103.5,-1340 103.5,-1288 221.5,-1288 221.5,-1340"/>
<text text-anchor="middle" x="162.5" y="-1328" font-family="Arial" font-size="10.00" fill="#ffffff">manager:84:_hookexec</text>
<text text-anchor="middle" x="162.5" y="-1317" font-family="Arial" font-size="10.00" fill="#ffffff">99.94%</text>
<text text-anchor="middle" x="162.5" y="-1306" font-family="Arial" font-size="10.00" fill="#ffffff">(0.00%)</text>
<text text-anchor="middle" x="162.5" y="-1295" font-family="Arial" font-size="10.00" fill="#ffffff">14×</text>
</a>
</g>
</g>
<!-- 195&#45;&gt;353 -->
<g id="edge13" class="edge">
<title>195&#45;&gt;353</title>
<path fill="none" stroke="#ff0100" stroke-width="4" d="M162.5,-1379.93C162.5,-1370.74 162.5,-1360.17 162.5,-1350.25"/>
<polygon fill="#ff0100" stroke="#ff0100" stroke-width="4" points="166,-1350.25 162.5,-1340.25 159,-1350.25 166,-1350.25"/>
<text text-anchor="middle" x="179.5" y="-1363" font-family="Arial" font-size="10.00" fill="#ff0100">99.94%</text>
<text text-anchor="middle" x="179.5" y="-1352" font-family="Arial" font-size="10.00" fill="#ff0100">11×</text>
</g>
<!-- 353&#45;&gt;188 -->
<g id="edge24" class="edge">
<title>353&#45;&gt;188</title>
<path fill="none" stroke="#ff0100" stroke-width="4" d="M162.5,-1287.93C162.5,-1278.74 162.5,-1268.17 162.5,-1258.25"/>
<polygon fill="#ff0100" stroke="#ff0100" stroke-width="4" points="166,-1258.25 162.5,-1248.25 159,-1258.25 166,-1258.25"/>
<text text-anchor="middle" x="179.5" y="-1271" font-family="Arial" font-size="10.00" fill="#ff0100">99.93%</text>
<text text-anchor="middle" x="179.5" y="-1260" font-family="Arial" font-size="10.00" fill="#ff0100">11×</text>
</g>
<!-- 201 -->
<g id="node21" class="node">
<title>201</title>
<g id="a_node21"><a xlink:title="/opt/anaconda/lib/python3.7/doctest.py">
<polygon fill="#fe0400" stroke="#fe0400" points="207,-880 118,-880 118,-828 207,-828 207,-880"/>
<text text-anchor="middle" x="162.5" y="-868" font-family="Arial" font-size="10.00" fill="#ffffff">doctest:1835:run</text>
<text text-anchor="middle" x="162.5" y="-857" font-family="Arial" font-size="10.00" fill="#ffffff">99.60%</text>
<text text-anchor="middle" x="162.5" y="-846" font-family="Arial" font-size="10.00" fill="#ffffff">(0.00%)</text>
<text text-anchor="middle" x="162.5" y="-835" font-family="Arial" font-size="10.00" fill="#ffffff">1×</text>
</a>
</g>
</g>
<!-- 201&#45;&gt;64 -->
<g id="edge14" class="edge">
<title>201&#45;&gt;64</title>
<path fill="none" stroke="#fe0400" stroke-width="3.98" d="M162.5,-827.93C162.5,-818.74 162.5,-808.17 162.5,-798.25"/>
<polygon fill="#fe0400" stroke="#fe0400" stroke-width="3.98" points="166,-798.25 162.5,-788.25 159,-798.25 166,-798.25"/>
<text text-anchor="middle" x="179.5" y="-811" font-family="Arial" font-size="10.00" fill="#fe0400">99.59%</text>
<text text-anchor="middle" x="179.5" y="-800" font-family="Arial" font-size="10.00" fill="#fe0400">1×</text>
</g>
<!-- 241&#45;&gt;201 -->
<g id="edge18" class="edge">
<title>241&#45;&gt;201</title>
<path fill="none" stroke="#fe0400" stroke-width="3.98" d="M162.5,-919.93C162.5,-910.74 162.5,-900.17 162.5,-890.25"/>
<polygon fill="#fe0400" stroke="#fe0400" stroke-width="3.98" points="166,-890.25 162.5,-880.25 159,-890.25 166,-890.25"/>
<text text-anchor="middle" x="179.5" y="-903" font-family="Arial" font-size="10.00" fill="#fe0400">99.60%</text>
<text text-anchor="middle" x="179.5" y="-892" font-family="Arial" font-size="10.00" fill="#fe0400">1×</text>
</g>
<!-- 305 -->
<g id="node24" class="node">
<title>305</title>
<g id="a_node24"><a xlink:title="/opt/anaconda/lib/python3.7/site&#45;packages/_pytest/runner.py">
<polygon fill="#ff0000" stroke="#ff0000" points="235.5,-1984 73.5,-1984 73.5,-1932 235.5,-1932 235.5,-1984"/>
<text text-anchor="middle" x="154.5" y="-1972" font-family="Arial" font-size="10.00" fill="#ffffff">runner:79:pytest_runtest_protocol</text>
<text text-anchor="middle" x="154.5" y="-1961" font-family="Arial" font-size="10.00" fill="#ffffff">100.00%</text>
<text text-anchor="middle" x="154.5" y="-1950" font-family="Arial" font-size="10.00" fill="#ffffff">(0.00%)</text>
<text text-anchor="middle" x="154.5" y="-1939" font-family="Arial" font-size="10.00" fill="#ffffff">1×</text>
</a>
</g>
</g>
<!-- 305&#45;&gt;97 -->
<g id="edge20" class="edge">
<title>305&#45;&gt;97</title>
<path fill="none" stroke="#ff0100" stroke-width="4" d="M154.5,-1931.93C154.5,-1922.74 154.5,-1912.17 154.5,-1902.25"/>
<polygon fill="#ff0100" stroke="#ff0100" stroke-width="4" points="158,-1902.25 154.5,-1892.25 151,-1902.25 158,-1902.25"/>
<text text-anchor="middle" x="171.5" y="-1915" font-family="Arial" font-size="10.00" fill="#ff0100">99.90%</text>
<text text-anchor="middle" x="171.5" y="-1904" font-family="Arial" font-size="10.00" fill="#ff0100">1×</text>
</g>
</g>
</svg>
