<?xml version="1.0" encoding="UTF-8" standalone="no"?>
<!DOCTYPE svg PUBLIC "-//W3C//DTD SVG 1.1//EN"
 "http://www.w3.org/Graphics/SVG/1.1/DTD/svg11.dtd">
<!-- Generated by graphviz version 2.42.3 (20191010.1750)
 -->
<!-- Title: llama.files.coinc_plots.CoincScatterZtfI3LvcPdf Pages: 1 -->
<svg width="1025pt" height="282pt"
 viewBox="0.00 0.00 1025.00 282.00" xmlns="http://www.w3.org/2000/svg" xmlns:xlink="http://www.w3.org/1999/xlink">
<g id="graph0" class="graph" transform="scale(1 1) rotate(0) translate(4 278)">
<title>llama.files.coinc_plots.CoincScatterZtfI3LvcPdf</title>
<polygon fill="transparent" stroke="transparent" points="-4,4 -4,-278 1021,-278 1021,4 -4,4"/>
<!-- llama.files.coinc_plots.CoincScatterZtfI3LvcPdf -->
<g id="node1" class="node">
<title>llama.files.coinc_plots.CoincScatterZtfI3LvcPdf</title>
<g id="a_node1"><a xlink:href="/llama.files.coinc_plots.html#llama.files.coinc_plots.CoincScatterZtfI3LvcPdf" xlink:title="{{&lt;B&gt;CoincScatterZtfI3LvcPdf&lt;/B&gt;|&lt;I&gt;scatterplot_lvc&#45;i3&#45;ztf.pdf&lt;/I&gt;|CoincScatterZtfI3Lvc}}" target="_top">
<polygon fill="#cccccc" stroke="black" points="803,-102 803,-171 1017,-171 1017,-102 803,-102"/>
<text text-anchor="start" x="811" y="-156.8" font-family="Times,serif" font-weight="bold" font-size="14.00">CoincScatterZtfI3LvcPdf</text>
<polyline fill="none" stroke="black" points="803,-148 1017,-148 "/>
<text text-anchor="start" x="822" y="-133.8" font-family="Times,serif" font-style="italic" font-size="14.00">scatterplot_lvc&#45;i3&#45;ztf.pdf</text>
<polyline fill="none" stroke="black" points="803,-125 1017,-125 "/>
<text text-anchor="start" x="831.5" y="-109.8" font-family="Times,serif" font-size="14.00">CoincScatterZtfI3Lvc</text>
</a>
</g>
</g>
<!-- llama.files.i3.json.IceCubeNeutrinoList -->
<g id="node2" class="node">
<title>llama.files.i3.json.IceCubeNeutrinoList</title>
<g id="a_node2"><a xlink:href="/llama.files.i3.json.html#llama.files.i3.json.IceCubeNeutrinoList" xlink:title="{{&lt;B&gt;IceCubeNeutrinoList&lt;/B&gt;|&lt;I&gt;icecube_neutrino_list.json&lt;/I&gt;|JSONFile&lt;BR/&gt;HEALPixPSF}}" target="_top">
<polygon fill="#cccccc" stroke="black" points="551.5,-189.5 551.5,-273.5 755.5,-273.5 755.5,-189.5 551.5,-189.5"/>
<text text-anchor="start" x="569.5" y="-259.3" font-family="Times,serif" font-weight="bold" font-size="14.00">IceCubeNeutrinoList</text>
<polyline fill="none" stroke="black" points="551.5,-250.5 755.5,-250.5 "/>
<text text-anchor="start" x="559.5" y="-236.3" font-family="Times,serif" font-style="italic" font-size="14.00">icecube_neutrino_list.json</text>
<polyline fill="none" stroke="black" points="551.5,-227.5 755.5,-227.5 "/>
<text text-anchor="start" x="619.5" y="-212.3" font-family="Times,serif" font-size="14.00">JSONFile</text>
<text text-anchor="start" x="605.5" y="-197.3" font-family="Times,serif" font-size="14.00">HEALPixPSF</text>
</a>
</g>
</g>
<!-- llama.files.i3.json.IceCubeNeutrinoList&#45;&gt;llama.files.coinc_plots.CoincScatterZtfI3LvcPdf -->
<g id="edge1" class="edge">
<title>llama.files.i3.json.IceCubeNeutrinoList&#45;&gt;llama.files.coinc_plots.CoincScatterZtfI3LvcPdf</title>
<path fill="none" stroke="red" d="M755.64,-231.5C827.53,-231.5 911,-231.5 911,-231.5 911,-231.5 911,-181.07 911,-181.07"/>
<polygon fill="red" stroke="red" points="914.5,-181.07 911,-171.07 907.5,-181.07 914.5,-181.07"/>
</g>
<!-- llama.files.lvc_skymap.LvcSkymapFits -->
<g id="node3" class="node">
<title>llama.files.lvc_skymap.LvcSkymapFits</title>
<g id="a_node3"><a xlink:href="/llama.files.lvc_skymap.html#llama.files.lvc_skymap.LvcSkymapFits" xlink:title="{{&lt;B&gt;LvcSkymapFits&lt;/B&gt;|&lt;I&gt;lvc_skymap.fits.gz&lt;/I&gt;|GenerateOnceMixin&lt;BR/&gt;LvcHEALPixSkyMapFileHandler&lt;BR/&gt;OnlineVetoMixin}}" target="_top">
<polygon fill="#cccccc" stroke="black" points="251,-104 251,-203 504,-203 504,-104 251,-104"/>
<text text-anchor="start" x="317.5" y="-188.8" font-family="Times,serif" font-weight="bold" font-size="14.00">LvcSkymapFits</text>
<polyline fill="none" stroke="black" points="251,-180 504,-180 "/>
<text text-anchor="start" x="311" y="-165.8" font-family="Times,serif" font-style="italic" font-size="14.00">lvc_skymap.fits.gz</text>
<polyline fill="none" stroke="black" points="251,-157 504,-157 "/>
<text text-anchor="start" x="305" y="-141.8" font-family="Times,serif" font-size="14.00">GenerateOnceMixin</text>
<text text-anchor="start" x="259" y="-126.8" font-family="Times,serif" font-size="14.00">LvcHEALPixSkyMapFileHandler</text>
<text text-anchor="start" x="317.5" y="-111.8" font-family="Times,serif" font-size="14.00">OnlineVetoMixin</text>
</a>
</g>
</g>
<!-- llama.files.lvc_skymap.LvcSkymapHdf5 -->
<g id="node4" class="node">
<title>llama.files.lvc_skymap.LvcSkymapHdf5</title>
<g id="a_node4"><a xlink:href="/llama.files.lvc_skymap.html#llama.files.lvc_skymap.LvcSkymapHdf5" xlink:title="{{&lt;B&gt;LvcSkymapHdf5&lt;/B&gt;|&lt;I&gt;lvc_skymap.hdf5&lt;/I&gt;|HEALPixSkyMapFileHandler}}" target="_top">
<polygon fill="#cccccc" stroke="black" points="540,-102 540,-171 767,-171 767,-102 540,-102"/>
<text text-anchor="start" x="589" y="-156.8" font-family="Times,serif" font-weight="bold" font-size="14.00">LvcSkymapHdf5</text>
<polyline fill="none" stroke="black" points="540,-148 767,-148 "/>
<text text-anchor="start" x="593" y="-133.8" font-family="Times,serif" font-style="italic" font-size="14.00">lvc_skymap.hdf5</text>
<polyline fill="none" stroke="black" points="540,-125 767,-125 "/>
<text text-anchor="start" x="548" y="-109.8" font-family="Times,serif" font-size="14.00">HEALPixSkyMapFileHandler</text>
</a>
</g>
</g>
<!-- llama.files.lvc_skymap.LvcSkymapFits&#45;&gt;llama.files.lvc_skymap.LvcSkymapHdf5 -->
<g id="edge2" class="edge">
<title>llama.files.lvc_skymap.LvcSkymapFits&#45;&gt;llama.files.lvc_skymap.LvcSkymapHdf5</title>
<path fill="none" stroke="red" d="M504.19,-137.5C504.19,-137.5 529.88,-137.5 529.88,-137.5"/>
<polygon fill="red" stroke="red" points="529.88,-141 539.88,-137.5 529.88,-134 529.88,-141"/>
</g>
<!-- llama.files.lvc_skymap.LvcSkymapHdf5&#45;&gt;llama.files.coinc_plots.CoincScatterZtfI3LvcPdf -->
<g id="edge3" class="edge">
<title>llama.files.lvc_skymap.LvcSkymapHdf5&#45;&gt;llama.files.coinc_plots.CoincScatterZtfI3LvcPdf</title>
<path fill="none" stroke="red" d="M767.12,-136.5C767.12,-136.5 793,-136.5 793,-136.5"/>
<polygon fill="red" stroke="red" points="793,-140 803,-136.5 793,-133 793,-140"/>
</g>
<!-- llama.files.skymap_info.SkymapInfo -->
<g id="node5" class="node">
<title>llama.files.skymap_info.SkymapInfo</title>
<g id="a_node5"><a xlink:href="/llama.files.skymap_info.html#llama.files.skymap_info.SkymapInfo" xlink:title="{{&lt;B&gt;SkymapInfo&lt;/B&gt;|&lt;I&gt;skymap_info.json&lt;/I&gt;|EventTriggeredFileHandler&lt;BR/&gt;JSONFile}}" target="_top">
<polygon fill="#cccccc" stroke="black" points="0,-111.5 0,-195.5 215,-195.5 215,-111.5 0,-111.5"/>
<text text-anchor="start" x="59.5" y="-181.3" font-family="Times,serif" font-weight="bold" font-size="14.00">SkymapInfo</text>
<polyline fill="none" stroke="black" points="0,-172.5 215,-172.5 "/>
<text text-anchor="start" x="45.5" y="-158.3" font-family="Times,serif" font-style="italic" font-size="14.00">skymap_info.json</text>
<polyline fill="none" stroke="black" points="0,-149.5 215,-149.5 "/>
<text text-anchor="start" x="8" y="-134.3" font-family="Times,serif" font-size="14.00">EventTriggeredFileHandler</text>
<text text-anchor="start" x="73.5" y="-119.3" font-family="Times,serif" font-size="14.00">JSONFile</text>
</a>
</g>
</g>
<!-- llama.files.skymap_info.SkymapInfo&#45;&gt;llama.files.i3.json.IceCubeNeutrinoList -->
<g id="edge4" class="edge">
<title>llama.files.skymap_info.SkymapInfo&#45;&gt;llama.files.i3.json.IceCubeNeutrinoList</title>
<path fill="none" stroke="red" d="M108,-195.63C108,-217.1 108,-238.75 108,-238.75 108,-238.75 541.22,-238.75 541.22,-238.75"/>
<polygon fill="red" stroke="red" points="541.22,-242.25 551.22,-238.75 541.22,-235.25 541.22,-242.25"/>
</g>
<!-- llama.files.skymap_info.SkymapInfo&#45;&gt;llama.files.lvc_skymap.LvcSkymapFits -->
<g id="edge5" class="edge">
<title>llama.files.skymap_info.SkymapInfo&#45;&gt;llama.files.lvc_skymap.LvcSkymapFits</title>
<path fill="none" stroke="red" d="M215.38,-153.5C215.38,-153.5 240.66,-153.5 240.66,-153.5"/>
<polygon fill="red" stroke="red" points="240.66,-157 250.66,-153.5 240.66,-150 240.66,-157"/>
</g>
<!-- llama.files.ztf_trigger_list.ZtfTriggerList -->
<g id="node6" class="node">
<title>llama.files.ztf_trigger_list.ZtfTriggerList</title>
<g id="a_node6"><a xlink:href="/llama.files.ztf_trigger_list.html#llama.files.ztf_trigger_list.ZtfTriggerList" xlink:title="{{&lt;B&gt;ZtfTriggerList&lt;/B&gt;|&lt;I&gt;ztf_trigger_list.json&lt;/I&gt;|JSONFile&lt;BR/&gt;HEALPixPSF}}" target="_top">
<polygon fill="#cccccc" stroke="black" points="299,-0.5 299,-84.5 456,-84.5 456,-0.5 299,-0.5"/>
<text text-anchor="start" x="321.5" y="-70.3" font-family="Times,serif" font-weight="bold" font-size="14.00">ZtfTriggerList</text>
<polyline fill="none" stroke="black" points="299,-61.5 456,-61.5 "/>
<text text-anchor="start" x="307" y="-47.3" font-family="Times,serif" font-style="italic" font-size="14.00">ztf_trigger_list.json</text>
<polyline fill="none" stroke="black" points="299,-38.5 456,-38.5 "/>
<text text-anchor="start" x="343.5" y="-23.3" font-family="Times,serif" font-size="14.00">JSONFile</text>
<text text-anchor="start" x="329.5" y="-8.3" font-family="Times,serif" font-size="14.00">HEALPixPSF</text>
</a>
</g>
</g>
<!-- llama.files.skymap_info.SkymapInfo&#45;&gt;llama.files.ztf_trigger_list.ZtfTriggerList -->
<g id="edge6" class="edge">
<title>llama.files.skymap_info.SkymapInfo&#45;&gt;llama.files.ztf_trigger_list.ZtfTriggerList</title>
<path fill="none" stroke="red" d="M108,-111.22C108,-79.85 108,-42.5 108,-42.5 108,-42.5 288.82,-42.5 288.82,-42.5"/>
<polygon fill="red" stroke="red" points="288.83,-46 298.82,-42.5 288.82,-39 288.83,-46"/>
</g>
<!-- llama.files.ztf_trigger_list.ZtfTriggerList&#45;&gt;llama.files.coinc_plots.CoincScatterZtfI3LvcPdf -->
<g id="edge7" class="edge">
<title>llama.files.ztf_trigger_list.ZtfTriggerList&#45;&gt;llama.files.coinc_plots.CoincScatterZtfI3LvcPdf</title>
<path fill="none" stroke="red" d="M456.22,-42.5C604.62,-42.5 911,-42.5 911,-42.5 911,-42.5 911,-91.76 911,-91.76"/>
<polygon fill="red" stroke="red" points="907.5,-91.76 911,-101.76 914.5,-91.76 907.5,-91.76"/>
</g>
</g>
</svg>
